<?xml version="1.0" encoding="utf-8"?>
<!-- Generator: Adobe Illustrator 16.0.4, SVG Export Plug-In . SVG Version: 6.00 Build 0)  -->
<!DOCTYPE svg PUBLIC "-//W3C//DTD SVG 1.1//EN" "http://www.w3.org/Graphics/SVG/1.1/DTD/svg11.dtd">
<svg version="1.1" id="Calque_1" xmlns="http://www.w3.org/2000/svg" xmlns:xlink="http://www.w3.org/1999/xlink" x="0px" y="0px"
	 width="435px" height="300px" viewBox="0 0 435 300" enable-background="new 0 0 435 300" xml:space="preserve">
<path opacity="0" fill="#E5E5E5" d="M200.409,93.543c3.058-0.43,5.186-3.257,4.757-6.312c-0.43-3.058-3.257-5.188-6.313-4.758
	c-3.056,0.429-5.187,3.257-4.755,6.313C194.527,91.844,197.351,93.974,200.409,93.543"/>
<path opacity="0" fill="#E5E5E5" d="M272.779,148.094c2.478-0.348,4.201-2.637,3.854-5.114c-0.349-2.475-2.637-4.202-5.115-3.854
	c-2.476,0.348-4.199,2.638-3.851,5.113C268.016,146.715,270.305,148.441,272.779,148.094"/>
<path opacity="0" fill="#E5E5E5" d="M199.855,159.064c3.057-0.431,5.188-3.258,4.757-6.312c-0.43-3.059-3.255-5.188-6.312-4.757
	c-3.058,0.429-5.187,3.255-4.759,6.313C193.974,157.366,196.799,159.497,199.855,159.064"/>
<path opacity="0" fill="#E5E5E5" d="M300.076,215.477c2.477-0.346,4.203-2.635,3.854-5.113c-0.35-2.475-2.638-4.198-5.113-3.854
	c-2.478,0.348-4.2,2.639-3.854,5.114C295.312,214.098,297.6,215.824,300.076,215.477"/>
<path opacity="0" fill="#E5E5E5" d="M286.904,218.723c2.478-0.348,4.203-2.638,3.854-5.113c-0.347-2.476-2.635-4.2-5.113-3.854
	c-2.476,0.35-4.201,2.639-3.854,5.112C282.141,217.344,284.43,219.07,286.904,218.723"/>
<path opacity="0" fill="#E5E5E5" d="M122.639,219.82c3.288-0.461,5.58-3.502,5.117-6.791c-0.462-3.286-3.502-5.579-6.791-5.116
	c-3.287,0.461-5.579,3.502-5.117,6.791C116.311,217.991,119.352,220.283,122.639,219.82"/>
<path opacity="0" fill="#E5E5E5" d="M329.001,145.979c2.156-0.304,3.661-2.299,3.356-4.458c-0.306-2.158-2.299-3.659-4.455-3.357
	c-2.157,0.302-3.661,2.3-3.358,4.456C324.85,144.778,326.843,146.28,329.001,145.979"/>
<path opacity="0" fill="#E5E5E5" d="M140.391,111.216c3.143,0,5.69-2.549,5.69-5.689c0-3.141-2.547-5.688-5.69-5.688
	c-3.141,0-5.688,2.548-5.688,5.688C134.703,108.667,137.25,111.216,140.391,111.216"/>
<path opacity="0" fill="#E5E5E5" d="M240.802,137.936c2.898,0,5.248-2.35,5.248-5.25c0-2.898-2.35-5.25-5.248-5.25
	c-2.897,0-5.249,2.352-5.249,5.25C235.553,135.585,237.902,137.936,240.802,137.936"/>
<path opacity="0" fill="#E5E5E5" d="M246.229,204.365c2.313,0,4.188-1.877,4.188-4.188c0-2.311-1.874-4.187-4.188-4.187
	c-2.312,0-4.187,1.873-4.187,4.187C242.042,202.491,243.918,204.365,246.229,204.365"/>
<path opacity="0" fill="#E5E5E5" d="M145.79,216.146c2.851,0,5.163-2.312,5.163-5.164c0-2.854-2.312-5.164-5.163-5.164
	c-2.852,0-5.164,2.312-5.164,5.164C140.626,213.833,142.938,216.146,145.79,216.146"/>
<path opacity="0" fill="#E5E5E5" d="M295.254,109.017c1.977,0,3.579-1.602,3.579-3.581c0-1.976-1.603-3.579-3.579-3.579
	c-1.979,0-3.58,1.604-3.58,3.579C291.674,107.415,293.275,109.017,295.254,109.017"/>
<path opacity="0" fill="#E5E5E5" d="M331.552,164.244c2.31,0,4.183-1.872,4.183-4.184c0-2.31-1.873-4.184-4.183-4.184
	s-4.183,1.874-4.183,4.184C327.369,162.372,329.242,164.244,331.552,164.244"/>
<path opacity="0" fill="#E5E5E5" d="M329.277,180.503c2.531,0,4.582-2.052,4.582-4.581c0-2.527-2.051-4.58-4.582-4.58
	c-2.528,0-4.582,2.053-4.582,4.58C324.695,178.451,326.749,180.503,329.277,180.503"/>
<path opacity="0" fill="#E5E5E5" d="M118.511,121.979c1.12,1.726,3.429,2.215,5.156,1.095c1.725-1.121,2.217-3.427,1.095-5.156
	c-1.121-1.726-3.429-2.215-5.154-1.094C117.881,117.945,117.39,120.252,118.511,121.979"/>
<path opacity="0" fill="#E5E5E5" d="M247.168,124.358c1.371,2.109,4.191,2.709,6.299,1.336c2.114-1.368,2.711-4.188,1.344-6.3
	c-1.371-2.107-4.19-2.709-6.305-1.339C246.396,119.426,245.799,122.246,247.168,124.358"/>
<path opacity="0" fill="#E5E5E5" d="M100.454,201.98c1.954,3.006,5.977,3.859,8.987,1.908c3.009-1.955,3.865-5.979,1.91-8.988
	c-1.954-3.01-5.978-3.863-8.987-1.91C99.355,194.945,98.499,198.971,100.454,201.98"/>
<path opacity="0" fill="#E5E5E5" d="M304.878,117.592c1.132,1.742,3.461,2.238,5.202,1.105c1.74-1.131,2.234-3.459,1.105-5.201
	c-1.131-1.742-3.461-2.236-5.201-1.104C304.243,113.523,303.747,115.851,304.878,117.592"/>
<path opacity="0" fill="#E5E5E5" d="M316.523,129.045c1.131,1.741,3.459,2.239,5.199,1.105c1.741-1.131,2.235-3.459,1.105-5.201
	c-1.133-1.741-3.46-2.236-5.202-1.104C315.887,124.976,315.393,127.304,316.523,129.045"/>
<path opacity="0" fill="#E5E5E5" d="M214.576,121.643c1.689-1.136,2.133-3.428,0.994-5.116c-1.139-1.686-3.428-2.13-5.115-0.995
	c-1.688,1.139-2.133,3.431-0.995,5.119C210.599,122.338,212.889,122.782,214.576,121.643"/>
<path opacity="0" fill="#E5E5E5" d="M165.42,203.525c2.076-1.401,2.624-4.219,1.223-6.295c-1.399-2.076-4.217-2.623-6.293-1.224
	c-2.076,1.397-2.624,4.218-1.224,6.295C160.526,204.378,163.345,204.926,165.42,203.525"/>
<path opacity="0" fill="#E5E5E5" d="M326.675,195.637c2.308-1.557,2.917-4.687,1.36-6.994c-1.557-2.307-4.688-2.914-6.993-1.359
	c-2.308,1.559-2.916,4.688-1.362,6.996C321.238,196.585,324.367,197.193,326.675,195.637"/>
<path opacity="0" fill="#E5E5E5" d="M214.857,104.658c0.999-1.962,0.221-4.364-1.742-5.366c-1.962-0.998-4.364-0.219-5.366,1.743
	c-0.998,1.963-0.218,4.365,1.744,5.364C211.456,107.402,213.858,106.62,214.857,104.658"/>
<path opacity="0" fill="#E5E5E5" d="M260.283,210.157c0.898-1.765,0.199-3.929-1.567-4.825c-1.766-0.9-3.928-0.198-4.827,1.566
	c-0.897,1.767-0.197,3.928,1.567,4.83C257.223,212.628,259.384,211.922,260.283,210.157"/>
<path opacity="0" fill="#E5E5E5" d="M285.672,118.413c0.901-1.765,0.199-3.927-1.568-4.827c-1.767-0.899-3.929-0.197-4.828,1.568
	c-0.897,1.768-0.195,3.927,1.568,4.83C282.611,120.883,284.771,120.181,285.672,118.413"/>
<path opacity="0" fill="#E5E5E5" d="M282.729,131.579c0.988-1.944,0.215-4.322-1.728-5.311c-1.944-0.989-4.321-0.219-5.312,1.725
	c-0.99,1.944-0.217,4.322,1.726,5.314C279.357,134.296,281.736,133.523,282.729,131.579"/>
<path opacity="0" fill="#E5E5E5" d="M128.484,190.82c1.386-2.307,0.64-5.303-1.667-6.688c-2.309-1.387-5.302-0.641-6.689,1.668
	c-1.386,2.308-0.64,5.304,1.668,6.688C124.103,193.874,127.099,193.128,128.484,190.82"/>
<path opacity="0" fill="#E5E5E5" d="M181.401,188.707c1.387-2.725,0.305-6.057-2.419-7.441c-2.722-1.389-6.054-0.306-7.443,2.416
	c-1.386,2.724-0.303,6.058,2.42,7.44C176.682,192.512,180.013,191.428,181.401,188.707"/>
<path opacity="0" fill="#E5E5E5" d="M317.755,206.218c1.308-2.565,0.287-5.702-2.276-7.011c-2.563-1.305-5.703-0.287-7.011,2.277
	c-1.306,2.564-0.288,5.703,2.277,7.012C313.311,209.802,316.449,208.779,317.755,206.218"/>
<path opacity="0" fill="#E5E5E5" d="M158.755,99.402c3.25,0,5.885-2.635,5.885-5.884s-2.635-5.884-5.885-5.884
	s-5.708,2.731-5.708,5.884S155.504,99.402,158.755,99.402"/>
<path opacity="0" fill="#E5E5E5" d="M234.971,153.607c2.853,0,5.163-2.313,5.163-5.164c0-2.851-2.312-5.163-5.163-5.163
	c-2.853,0-5.164,2.312-5.164,5.163C229.807,151.294,232.118,153.607,234.971,153.607"/>
<path opacity="0" fill="#E5E5E5" d="M251.135,175.591c2.491,0,4.512-2.018,4.512-4.508c0-2.495-2.021-4.513-4.512-4.513
	c-2.49,0-4.512,2.018-4.512,4.513C246.623,173.573,248.645,175.591,251.135,175.591"/>
<path opacity="0" fill="#E5E5E5" d="M207.813,140.362c2.543,0,4.606-2.062,4.606-4.606c0-2.546-2.062-4.608-4.606-4.608
	c-2.545,0-4.609,2.062-4.609,4.608C203.204,138.3,205.268,140.362,207.813,140.362"/>
<path opacity="0" fill="#E5E5E5" d="M271.004,217.812c2.291,0,4.146-1.857,4.146-4.146c0-2.291-1.855-4.146-4.146-4.146
	c-2.289,0-4.146,1.854-4.146,4.146C266.855,215.955,268.715,217.812,271.004,217.812"/>
<path opacity="0" fill="#E5E5E5" d="M141.912,195.055c2.284,0.159,4.266-1.561,4.426-3.848c0.16-2.286-1.562-4.268-3.847-4.425
	c-2.286-0.16-4.267,1.562-4.425,3.847C137.905,192.911,139.628,194.895,141.912,195.055"/>
<path opacity="0" fill="#E5E5E5" d="M182.469,90.336c3.251-1.656,4.544-5.636,2.888-8.887c-1.656-3.252-5.637-4.546-8.887-2.888
	c-3.252,1.657-4.1,5.649-2.54,8.71C175.491,90.332,179.219,91.993,182.469,90.336"/>
<path opacity="0" fill="#E5E5E5" d="M235.521,172.016c2.511-1.276,3.508-4.352,2.229-6.858c-1.279-2.513-4.352-3.509-6.857-2.229
	c-2.511,1.279-3.506,4.352-2.229,6.859C229.943,172.296,233.014,173.292,235.521,172.016"/>
<path opacity="0" fill="#E5E5E5" d="M239.7,189.453c2.347-1.197,3.28-4.067,2.083-6.417c-1.194-2.345-4.067-3.276-6.413-2.082
	c-2.349,1.196-3.281,4.067-2.086,6.416C234.48,189.716,237.354,190.648,239.7,189.453"/>
<path opacity="0" fill="#E5E5E5" d="M264.372,162.121c2.521-1.283,3.519-4.362,2.235-6.883c-1.282-2.518-4.362-3.522-6.883-2.236
	c-2.518,1.283-3.518,4.364-2.234,6.885C258.771,162.404,261.854,163.404,264.372,162.121"/>
<path opacity="0" fill="#E5E5E5" d="M206.504,211.652c1.798-0.914,2.513-3.112,1.596-4.911c-0.916-1.798-3.114-2.509-4.912-1.597
	c-1.798,0.916-2.513,3.114-1.596,4.916C202.507,211.857,204.706,212.568,206.504,211.652"/>
<path opacity="0" fill="#E5E5E5" d="M240,67.232c1.568-0.801,2.193-2.722,1.395-4.291c-0.799-1.57-2.721-2.194-4.291-1.394
	c-1.568,0.799-2.192,2.721-1.394,4.29C236.51,67.407,238.432,68.031,240,67.232"/>
<path opacity="0" fill="#E5E5E5" d="M190.31,174.895c2.596-1.324,3.628-4.498,2.306-7.097c-1.323-2.596-4.5-3.627-7.095-2.303
	c-2.595,1.321-3.628,4.498-2.306,7.094C184.538,175.186,187.715,176.216,190.31,174.895"/>
<path opacity="0" fill="#E5E5E5" d="M264.177,118.248c1.907-0.971,2.664-3.301,1.693-5.209c-0.97-1.904-3.304-2.662-5.209-1.691
	c-1.905,0.971-2.664,3.302-1.693,5.208C259.938,118.46,262.271,119.221,264.177,118.248"/>
<path opacity="0" fill="#E5E5E5" d="M275.365,114.864c1.703-0.868,2.38-2.954,1.513-4.656s-2.952-2.38-4.655-1.513
	c-1.703,0.868-2.38,2.952-1.512,4.656C271.579,115.054,273.662,115.73,275.365,114.864"/>
<path opacity="0" fill="#E5E5E5" d="M180.283,210.986c2.246-0.315,3.81-2.396,3.496-4.639c-0.317-2.246-2.393-3.812-4.639-3.494
	c-2.245,0.313-3.808,2.392-3.493,4.638C175.962,209.736,178.038,211.3,180.283,210.986"/>
<path opacity="0" fill="#E5E5E5" d="M279.338,99.146c1.938-0.1,3.426-1.754,3.324-3.692s-1.756-3.428-3.693-3.326
	c-1.937,0.102-3.426,1.756-3.324,3.693C275.746,97.76,277.398,99.248,279.338,99.146"/>
<path opacity="0" fill="#E5E5E5" d="M262.652,90.337c1.923-0.271,3.262-2.048,2.99-3.97c-0.271-1.922-2.045-3.261-3.97-2.991
	c-1.922,0.271-3.261,2.046-2.989,3.97C258.956,89.268,260.73,90.608,262.652,90.337"/>
<path opacity="0" fill="#E5E5E5" d="M248.527,81.938c1.923-0.271,3.261-2.048,2.992-3.969c-0.271-1.922-2.047-3.26-3.973-2.99
	c-1.919,0.271-3.262,2.046-2.988,3.969C244.829,80.869,246.605,82.208,248.527,81.938"/>
<path opacity="0" fill="#E5E5E5" d="M194.723,213.398c1.687-1.141,2.133-3.431,0.993-5.117c-1.138-1.688-3.429-2.133-5.115-0.994
	c-1.688,1.138-2.133,3.429-0.995,5.115C190.744,214.09,193.035,214.534,194.723,213.398"/>
<path opacity="0" fill="#E5E5E5" d="M227.908,195.486c1.791-1.207,2.265-3.641,1.057-5.432s-3.641-2.266-5.432-1.057
	c-1.792,1.209-2.264,3.643-1.057,5.434C223.688,196.221,226.118,196.693,227.908,195.486"/>
<path opacity="0" fill="#E5E5E5" d="M212.49,203.691c1.134,1.744,3.464,2.238,5.207,1.104c1.745-1.13,2.241-3.461,1.108-5.207
	c-1.133-1.738-3.465-2.236-5.207-1.104C211.854,199.615,211.357,201.945,212.49,203.691"/>
<g opacity="0.7">
	<circle fill="#E5E5E5" cx="92.692" cy="177.384" r="14.559"/>
	<g>
		<g>
			<path fill="#E5E5E5" d="M280.278,136.41c0.036-0.149,0.108-0.31,0.221-0.482c0.138-0.203,0.275-0.289,0.406-0.256l8.769,2.149
				c0.235,0.057,0.39,0.369,0.459,0.927c0.086,0.717,0.065,1.484-0.067,2.301c-0.039,0.201-0.068,0.336-0.086,0.408
				c-0.281,1.15-0.927,2.044-1.938,2.676c-1.009,0.631-2.089,0.81-3.241,0.527c-1.093-0.269-1.829-0.95-2.211-2.045
				c-0.34-0.933-0.372-1.966-0.096-3.096c0.096-0.381,0.155-0.611,0.182-0.683c0.1-0.244,0.247-0.424,0.437-0.547l-0.091-0.244
				l-2.545-0.625c-0.112-0.029-0.186-0.185-0.216-0.467C280.236,136.731,280.241,136.549,280.278,136.41z M286.721,138.867
				c-0.322-0.082-0.652-0.168-0.989-0.259c-1.225-0.338-1.96-0.016-2.201,0.974c-0.188,0.765-0.124,1.454,0.197,2.069
				c0.342,0.636,0.885,1.046,1.63,1.23c0.791,0.193,1.539,0.133,2.249-0.176c0.767-0.324,1.247-0.865,1.431-1.626
				c0.201-0.818,0.062-1.374-0.418-1.659c-0.215-0.131-0.491-0.234-0.823-0.308C287.465,139.043,287.106,138.96,286.721,138.867z"/>
			<path fill="#E5E5E5" d="M287.086,132.805c-0.734-1.103-0.665-2.424,0.209-3.966c0.147-0.259,0.334-0.533,0.558-0.828
				c0.365-0.466,0.763-0.796,1.191-0.98c0.521-0.247,1.016-0.238,1.486,0.032c0.686,0.392,0.966,1.179,0.85,2.375
				c-0.103,1.005-0.365,1.878-0.787,2.621c-0.076,0.131-0.146,0.215-0.206,0.242c-0.058,0.027-0.15,0.004-0.278-0.07
				c-0.255-0.142-0.285-0.599-0.095-1.364c0.14-0.541,0.201-0.92,0.189-1.154c-0.021-0.42-0.216-0.734-0.587-0.946
				c-0.141-0.084-0.283-0.118-0.425-0.106c-0.384,0.022-0.701,0.262-0.96,0.712c-0.241,0.428-0.31,0.943-0.206,1.542
				c0.12,0.654,0.39,1.104,0.812,1.343c0.541,0.306,1.141,0.474,1.8,0.49c0.757,0.023,1.346-0.139,1.768-0.49
				c0.232-0.195,0.486-0.533,0.755-1.011c0.169-0.291,0.227-0.635,0.169-1.029c-0.041-0.324-0.004-0.578,0.103-0.771
				c0.521,0.299,0.804,0.656,0.845,1.079c0.028,0.361-0.115,0.827-0.439,1.391l-0.071,0.127c-0.13,0.226-0.246,0.422-0.353,0.595
				c-0.134,0.213-0.341,0.447-0.619,0.705c-0.156,0.16-0.396,0.373-0.717,0.642c-0.18,0.121-0.308,0.189-0.381,0.202
				c-0.567,0.172-1.013,0.293-1.339,0.351c-0.437,0.082-0.998-0.07-1.682-0.458l-0.482-0.274
				C287.708,133.523,287.336,133.187,287.086,132.805z"/>
			<path fill="#E5E5E5" d="M291.543,123.424c-0.008-0.007-0.012-0.052-0.012-0.134c-0.024-0.32-0.021-0.619,0.004-0.89
				c0-0.069,0.032-0.172,0.099-0.307l0.013-0.033c0.013-0.012,0.024-0.025,0.034-0.037c0.011-0.009,0.023-0.021,0.036-0.037h0.02
				c0.261-0.012,0.463-0.012,0.613,0c0.068,0.016,0.2,0.053,0.399,0.117c1.071,0.357,1.657,0.56,1.76,0.607l1.601,0.654
				c0.7,0.306,1.228,0.533,1.584,0.681c0.004-0.006,0.021-0.012,0.043-0.021c0.004-0.006,0.013-0.014,0.017-0.018
				c0.008-0.011,0.015-0.023,0.023-0.043l0.018-0.021c0.021-0.062,0.021-0.131,0-0.205c-0.084-0.291-0.152-0.492-0.209-0.615
				l-0.939-1.949l-0.522-1.334c-0.121-0.295-0.232-0.584-0.346-0.874c-0.09-0.349-0.026-0.634,0.2-0.859l0.098-0.103
				c0.056-0.053,0.111-0.102,0.165-0.144c0.149-0.094,0.262-0.102,0.338-0.03c0.006,0.01,0.019,0.018,0.03,0.03l0.324,0.956
				c0.008,0.021,0.017,0.043,0.024,0.06l0.96,2.196c0.131,0.295,0.222,0.498,0.271,0.615c0.496,1.14,0.768,1.784,0.814,1.927
				c0.293,0.917,0.261,1.559-0.109,1.927c-0.343,0.349-0.787,0.443-1.328,0.288c-0.637-0.177-1.587-0.533-2.856-1.075
				c-1.322-0.558-2.308-0.931-2.961-1.132L291.543,123.424z"/>
			<path fill="#E5E5E5" d="M300.645,116.798c-0.076-1.325,0.651-2.428,2.182-3.314c0.259-0.148,0.56-0.295,0.9-0.435
				c0.551-0.217,1.061-0.297,1.527-0.242c0.572,0.049,0.993,0.312,1.267,0.783c0.394,0.681,0.239,1.507-0.471,2.474
				c-0.595,0.816-1.263,1.439-2.006,1.866c-0.134,0.078-0.231,0.115-0.3,0.106c-0.062-0.008-0.134-0.078-0.204-0.203
				c-0.146-0.252,0.057-0.662,0.606-1.226c0.394-0.396,0.645-0.692,0.746-0.901c0.196-0.373,0.189-0.742-0.024-1.113
				c-0.084-0.141-0.187-0.244-0.312-0.305c-0.345-0.172-0.74-0.131-1.189,0.129c-0.426,0.246-0.742,0.654-0.957,1.227
				c-0.228,0.625-0.22,1.146,0.022,1.566c0.308,0.538,0.742,0.987,1.302,1.335c0.643,0.4,1.232,0.558,1.771,0.474
				c0.302-0.051,0.693-0.215,1.168-0.49c0.29-0.168,0.512-0.434,0.666-0.804c0.129-0.299,0.289-0.504,0.482-0.615
				c0.3,0.523,0.36,0.974,0.183,1.357c-0.156,0.326-0.518,0.655-1.085,0.977l-0.126,0.074c-0.224,0.131-0.427,0.238-0.604,0.332
				c-0.222,0.119-0.521,0.217-0.895,0.299c-0.213,0.058-0.525,0.121-0.941,0.191c-0.216,0.012-0.357,0.004-0.428-0.023
				c-0.579-0.135-1.022-0.258-1.334-0.373c-0.419-0.151-0.828-0.568-1.22-1.251l-0.274-0.48
				C300.816,117.729,300.667,117.253,300.645,116.798z"/>
			<path fill="#E5E5E5" d="M317.384,115.772c-0.084,0.023-0.17,0.033-0.259,0.035c-0.231,0.031-0.365-0.031-0.404-0.183
				l-1.167-4.659c-0.084-0.33-0.416-0.554-1.002-0.666c-0.464-0.086-0.891-0.076-1.272,0.018c-0.372,0.094-0.709,0.228-1.013,0.406
				c-0.459,0.262-0.646,0.57-0.562,0.906l1.238,4.944c0.05,0.195-0.12,0.345-0.513,0.441l-0.18,0.045
				c-0.562,0.139-0.891,0.016-0.987-0.367l-1.059-4.239c-0.124-0.49-0.107-0.914,0.053-1.275c0.396-0.87,1.355-1.495,2.874-1.878
				c0.921-0.23,1.726-0.275,2.404-0.136c0.899,0.197,1.456,0.705,1.662,1.534l1.028,4.097c0.12,0.48-0.099,0.788-0.659,0.932
				L317.384,115.772z"/>
			<path fill="#E5E5E5" d="M322.336,108.89c0.802-0.582,1.802-0.836,3.002-0.775c1.247,0.068,2.266,0.402,3.053,1.009
				c0.887,0.697,1.298,1.661,1.232,2.893c-0.002,0.068-0.012,0.162-0.028,0.291c-0.017,0.125-0.025,0.22-0.03,0.273
				c0,0.012-0.017,0.053-0.052,0.131c-0.193,0.385-0.338,0.677-0.435,0.866c-0.139,0.254-0.244,0.443-0.32,0.566
				c-0.041,0.045-0.118,0.123-0.226,0.222c-0.587,0.533-0.917,0.826-0.985,0.877c-0.473,0.367-1.286,0.521-2.435,0.458
				c-1.317-0.07-2.342-0.435-3.078-1.093c-0.81-0.717-1.18-1.71-1.113-2.993C320.984,110.443,321.454,109.534,322.336,108.89z
				 M323.024,113.402c0.027,0.047,0.087,0.129,0.177,0.228l0.569,0.646c0.082,0.091,0.152,0.156,0.206,0.199
				c0.219,0.216,0.478,0.331,0.776,0.347l0.318,0.017c0.884,0.049,1.587-0.26,2.111-0.923c0.095-0.121,0.218-0.324,0.373-0.611
				c0.154-0.292,0.242-0.466,0.268-0.521c0,0.031,0.012-0.07,0.043-0.306l0.026-0.228c0.004-0.082,0.009-0.142,0.011-0.191
				c0.042-0.765-0.17-1.454-0.628-2.061c-0.485-0.635-1.102-0.976-1.852-1.013l-0.333-0.02c-0.286-0.017-0.565,0.075-0.835,0.278
				c-1.015,0.75-1.541,1.555-1.588,2.408C322.627,112.434,322.746,113.019,323.024,113.402z"/>
			<path fill="#E5E5E5" d="M337.478,118.35c-0.081-0.029-0.158-0.067-0.231-0.115c-0.208-0.109-0.283-0.234-0.228-0.38l1.656-4.511
				c0.114-0.316-0.035-0.689-0.452-1.111c-0.34-0.333-0.696-0.566-1.064-0.704c-0.359-0.129-0.715-0.209-1.064-0.232
				c-0.529-0.041-0.854,0.103-0.973,0.431l-1.758,4.786c-0.071,0.188-0.295,0.217-0.673,0.076l-0.176-0.063
				c-0.541-0.199-0.742-0.482-0.607-0.862l1.506-4.097c0.174-0.478,0.428-0.816,0.761-1.023c0.818-0.494,1.962-0.474,3.433,0.064
				c0.892,0.332,1.579,0.744,2.061,1.242c0.639,0.669,0.809,1.403,0.513,2.205l-1.454,3.963c-0.172,0.464-0.526,0.597-1.068,0.398
				L337.478,118.35z"/>
			<path fill="#E5E5E5" d="M341.754,119.742c0.292,0.277,0.518,0.476,0.686,0.587c0.136,0.092,0.279,0.172,0.431,0.238
				c0.506,0.225,0.919,0.111,1.234-0.357c0.013-0.019,0.025-0.039,0.043-0.062c0.007-0.028,0.017-0.052,0.027-0.066
				c-0.259-1.043-0.472-1.823-0.646-2.34c-0.263-1.031-0.231-1.788,0.09-2.261c0.357-0.529,0.878-0.8,1.557-0.808
				c0.599-0.007,1.173,0.18,1.731,0.562c0.403,0.274,0.692,0.607,0.854,1c0.18,0.451,0.139,0.874-0.128,1.267
				c-0.312-0.209-0.517-0.498-0.623-0.87c-0.103-0.369-0.241-0.611-0.417-0.732c-0.198-0.133-0.435-0.182-0.707-0.137
				c-0.274,0.043-0.479,0.164-0.615,0.365c-0.201,0.3-0.258,0.681-0.17,1.153c0.046,0.256,0.174,0.635,0.379,1.138
				c0.443,1.074,0.455,1.921,0.037,2.541c-0.203,0.299-0.442,0.508-0.728,0.633c-0.831,0.351-1.721,0.203-2.677-0.445
				c-0.56-0.377-0.902-0.656-1.041-0.833c-0.283-0.353-0.283-0.742,0.002-1.156C341.242,119.267,341.472,119.465,341.754,119.742z"
				/>
		</g>
		<g>
			<path fill="#E5E5E5" d="M292.896,168.565c1.256-0.425,2.514-0.012,3.771,1.23c0.214,0.21,0.431,0.461,0.656,0.755
				c0.354,0.472,0.568,0.94,0.636,1.406c0.101,0.563-0.036,1.042-0.42,1.428c-0.553,0.56-1.389,0.625-2.513,0.202
				c-0.943-0.36-1.717-0.843-2.323-1.445c-0.108-0.106-0.17-0.194-0.179-0.261c-0.01-0.062,0.038-0.147,0.139-0.253
				c0.205-0.206,0.653-0.118,1.342,0.264c0.483,0.281,0.841,0.437,1.066,0.481c0.407,0.091,0.763-0.017,1.062-0.318
				c0.118-0.116,0.188-0.243,0.218-0.383c0.073-0.374-0.074-0.744-0.443-1.109c-0.349-0.345-0.826-0.548-1.433-0.599
				c-0.664-0.056-1.166,0.088-1.506,0.433c-0.437,0.44-0.748,0.979-0.943,1.612c-0.219,0.721-0.216,1.336,0.015,1.828
				c0.127,0.283,0.388,0.612,0.776,1.001c0.24,0.233,0.557,0.379,0.953,0.431c0.321,0.044,0.56,0.144,0.718,0.302
				c-0.426,0.429-0.844,0.604-1.263,0.535c-0.354-0.066-0.765-0.328-1.228-0.787l-0.101-0.104c-0.186-0.182-0.349-0.346-0.481-0.491
				c-0.172-0.185-0.348-0.452-0.523-0.788c-0.109-0.192-0.255-0.478-0.431-0.857c-0.07-0.204-0.099-0.342-0.095-0.418
				c-0.021-0.595-0.016-1.054,0.013-1.384c0.033-0.443,0.326-0.945,0.882-1.504l0.388-0.394
				C292.04,168.976,292.458,168.703,292.896,168.565z"/>
			<path fill="#E5E5E5" d="M301.909,174.844c1.028-0.104,2.1,0.154,3.216,0.78c0.116,0.066,0.279,0.149,0.486,0.256
				c0.204,0.105,0.401,0.224,0.588,0.365c0.445,0.345,0.564,0.701,0.367,1.056c-0.822-0.462-1.497-0.777-2.028-0.954
				c-0.808-0.249-1.482-0.303-2.023-0.163c-0.699,0.188-1.259,0.659-1.682,1.415c-0.597,1.069-0.516,2.081,0.251,3.04
				c0.533,0.675,1.394,1.347,2.576,2.01c-0.094,0.168-0.243,0.251-0.438,0.254c-0.396,0.016-0.969-0.19-1.726-0.613
				c-1.167-0.655-1.967-1.442-2.403-2.378c-0.526-1.087-0.484-2.18,0.131-3.28C299.824,175.562,300.719,174.969,301.909,174.844z"/>
			<path fill="#E5E5E5" d="M310.126,178.932c0.882-0.447,1.913-0.542,3.089-0.284c1.222,0.268,2.171,0.762,2.851,1.482
				c0.763,0.833,1.013,1.855,0.749,3.056c-0.012,0.068-0.038,0.158-0.077,0.285c-0.035,0.121-0.057,0.209-0.07,0.267
				c0,0.009-0.024,0.046-0.07,0.119c-0.256,0.351-0.445,0.613-0.569,0.783c-0.176,0.229-0.313,0.398-0.405,0.509
				c-0.046,0.039-0.136,0.101-0.26,0.181c-0.663,0.431-1.036,0.668-1.114,0.714c-0.525,0.282-1.35,0.304-2.477,0.058
				c-1.288-0.28-2.243-0.81-2.86-1.579c-0.684-0.833-0.891-1.875-0.617-3.13C308.543,180.247,309.155,179.425,310.126,178.932z
				 M310.077,183.497c0.017,0.052,0.063,0.138,0.135,0.253l0.465,0.724c0.064,0.105,0.124,0.186,0.172,0.231
				c0.184,0.247,0.419,0.401,0.709,0.468l0.312,0.065c0.863,0.191,1.607,0,2.231-0.569c0.113-0.104,0.266-0.285,0.467-0.548
				c0.199-0.259,0.312-0.414,0.348-0.47c-0.007,0.031,0.023-0.07,0.092-0.293l0.065-0.225c0.017-0.075,0.028-0.134,0.039-0.184
				c0.163-0.747,0.067-1.46-0.287-2.135c-0.379-0.707-0.934-1.143-1.667-1.303l-0.323-0.068c-0.28-0.06-0.571-0.014-0.87,0.139
				c-1.124,0.578-1.772,1.29-1.952,2.125C309.844,182.475,309.866,183.073,310.077,183.497z"/>
			<path fill="#E5E5E5" d="M325.873,179.173c0.03,0.004,0.095,0.017,0.198,0.044c0.479,0.128,0.771,0.206,0.869,0.219
				c0.021-0.005,0.054-0.005,0.104-0.005c0.045-0.008,0.086-0.012,0.114-0.018c0.029-0.006,0.062-0.017,0.109-0.034
				c0.047-0.01,0.082-0.017,0.101-0.021c0.385-0.203,0.765-0.4,1.142-0.596c0.434-0.211,0.847-0.349,1.245-0.416
				c0.623-0.108,1.168-0.101,1.63,0.02c0.457,0.126,0.916,0.396,1.368,0.811c0.115,0.106,0.188,0.242,0.215,0.404l0.889,5.168
				c0.049,0.298-0.212,0.494-0.78,0.591c-0.057,0.011-0.137,0.024-0.242,0.04c-0.459,0.051-0.713-0.055-0.758-0.325l-0.836-4.879
				c-0.042-0.24-0.289-0.445-0.737-0.613c-0.383-0.142-0.709-0.189-0.974-0.142c-0.248,0.044-0.594,0.195-1.033,0.462
				c-0.497,0.301-0.727,0.545-0.694,0.74l0.838,4.878c0.01,0.054-0.054,0.165-0.193,0.323c-0.172,0.189-0.291,0.307-0.349,0.344
				c-0.017,0.022-0.131,0.051-0.353,0.092c-0.056,0.008-0.134,0.017-0.228,0.025c-0.425,0.03-0.659-0.079-0.699-0.325l-0.863-5.023
				c-0.047-0.279-0.307-0.487-0.784-0.634c-0.399-0.119-0.748-0.153-1.041-0.104c-0.306,0.054-0.637,0.201-0.994,0.437
				c-0.447,0.294-0.644,0.589-0.596,0.886l0.863,5.026c0.052,0.296-0.231,0.494-0.849,0.604c-0.567,0.094-0.877-0.005-0.929-0.3
				l-0.861-5.028c-0.016-0.082,0.015-0.188,0.09-0.307c0.747-1.223,1.887-1.965,3.423-2.229
				C325.022,179.159,325.552,179.12,325.873,179.173z"/>
			<path fill="#E5E5E5" d="M336.896,176.65c0.322-0.933,0.995-1.718,2.012-2.357c1.061-0.658,2.085-0.968,3.077-0.928
				c1.127,0.062,2.018,0.613,2.673,1.661c0.035,0.054,0.082,0.14,0.14,0.254c0.06,0.111,0.107,0.191,0.136,0.238
				c0.004,0.013,0.016,0.054,0.032,0.136c0.065,0.431,0.111,0.751,0.14,0.962c0.033,0.284,0.054,0.5,0.065,0.646
				c-0.008,0.062-0.029,0.164-0.06,0.312c-0.174,0.771-0.274,1.202-0.302,1.284c-0.176,0.569-0.755,1.16-1.733,1.773
				c-1.114,0.701-2.164,0.99-3.147,0.869c-1.073-0.121-1.947-0.719-2.627-1.806C336.682,178.696,336.546,177.685,336.896,176.65z
				 M340.049,179.95c0.049,0.027,0.144,0.056,0.274,0.088l0.839,0.197c0.119,0.024,0.213,0.044,0.283,0.046
				c0.301,0.044,0.58-0.008,0.83-0.163l0.271-0.17c0.75-0.47,1.15-1.124,1.201-1.968c0.005-0.154-0.011-0.396-0.049-0.723
				c-0.038-0.32-0.066-0.512-0.081-0.575c0.015,0.027-0.03-0.062-0.137-0.273l-0.112-0.205c-0.044-0.062-0.077-0.117-0.102-0.16
				c-0.407-0.651-0.972-1.091-1.697-1.325c-0.767-0.245-1.468-0.168-2.1,0.23l-0.279,0.174c-0.246,0.155-0.422,0.392-0.529,0.709
				c-0.394,1.2-0.364,2.159,0.088,2.886C339.171,179.382,339.604,179.796,340.049,179.95z"/>
			<path fill="#E5E5E5" d="M343.306,166.79c0.248-0.148,0.418-0.184,0.504-0.105l2,1.695l0.251-0.068
				c-0.02-0.221,0.046-0.445,0.188-0.671c0.035-0.06,0.184-0.242,0.444-0.553c0.75-0.887,1.607-1.466,2.563-1.74
				c1.109-0.327,2.095-0.133,2.951,0.596c0.896,0.759,1.385,1.735,1.468,2.928c0.084,1.19-0.257,2.241-1.021,3.146
				c-0.051,0.057-0.142,0.156-0.271,0.297c-0.595,0.593-1.204,1.067-1.833,1.415c-0.494,0.273-0.839,0.333-1.022,0.172l-6.887-5.838
				c-0.103-0.086-0.111-0.246-0.029-0.479c0.07-0.188,0.156-0.345,0.259-0.459C342.965,167.009,343.108,166.898,343.306,166.79z
				 M349.478,171.623c0.255,0.226,0.495,0.389,0.732,0.483c0.513,0.222,1.043,0.009,1.589-0.635
				c0.502-0.591,0.662-1.297,0.475-2.113c-0.163-0.754-0.553-1.396-1.176-1.923c-0.587-0.496-1.237-0.695-1.954-0.599
				c-0.686,0.103-1.282,0.45-1.791,1.054c-0.66,0.775-0.492,1.562,0.501,2.354c0.274,0.221,0.537,0.435,0.787,0.652
				C348.944,171.15,349.224,171.396,349.478,171.623z"/>
			<path fill="#E5E5E5" d="M348.363,160.257c-0.006-0.134,0.08-0.369,0.255-0.702c0.125-0.236,0.26-0.377,0.399-0.416
				c0.145-0.038,0.341,0.008,0.591,0.14l0.127,0.064c0.175,0.173,0.281,0.282,0.32,0.333l-0.537,1.019
				c-0.013,0.02-0.043,0.036-0.097,0.048c-0.179,0.07-0.342,0.112-0.494,0.132c-0.063-0.025-0.107-0.042-0.123-0.05
				C348.521,160.677,348.372,160.484,348.363,160.257z M357.2,163.295c0.616,0.326,0.789,0.745,0.522,1.256
				c-0.271,0.506-0.716,0.598-1.333,0.276l-4.89-2.588c-0.07-0.037-0.175-0.142-0.309-0.319c-0.139-0.175-0.185-0.309-0.133-0.402
				l0.604-1.148L357.2,163.295z"/>
			<path fill="#E5E5E5" d="M350.064,156.028l0.385-1.089l0.372-0.177l9.057,3.211c0.237,0.087,0.379,0.188,0.423,0.308
				c0.044,0.125,0.022,0.312-0.068,0.566c-0.092,0.257-0.153,0.39-0.191,0.409c-0.05,0.062-0.176,0.14-0.372,0.229
				c-0.199,0.096-0.32,0.132-0.367,0.115l-9.058-3.207L350.064,156.028z"/>
			<path fill="#E5E5E5" d="M356.394,152.684c-1.101-0.743-1.54-1.987-1.32-3.743c0.039-0.297,0.104-0.621,0.196-0.978
				c0.162-0.57,0.405-1.025,0.729-1.362c0.388-0.424,0.852-0.604,1.391-0.537c0.779,0.099,1.341,0.724,1.686,1.87
				c0.289,0.968,0.379,1.878,0.274,2.723c-0.02,0.153-0.053,0.253-0.099,0.304c-0.042,0.045-0.139,0.062-0.282,0.045
				c-0.289-0.038-0.491-0.447-0.607-1.229c-0.081-0.552-0.169-0.929-0.271-1.14c-0.176-0.379-0.476-0.592-0.9-0.65
				c-0.164-0.021-0.305,0-0.435,0.062c-0.342,0.168-0.547,0.513-0.613,1.025c-0.062,0.488,0.072,0.989,0.398,1.505
				c0.36,0.561,0.782,0.866,1.264,0.929c0.617,0.079,1.231,0,1.847-0.231c0.712-0.267,1.191-0.646,1.449-1.127
				c0.141-0.271,0.246-0.681,0.314-1.222c0.043-0.336-0.037-0.673-0.24-1.019c-0.16-0.281-0.223-0.531-0.198-0.749
				c0.599,0.074,0.994,0.299,1.192,0.672c0.167,0.32,0.208,0.804,0.126,1.452l-0.019,0.142c-0.035,0.258-0.063,0.486-0.102,0.687
				c-0.04,0.246-0.143,0.541-0.302,0.89c-0.087,0.205-0.227,0.49-0.419,0.863c-0.12,0.18-0.213,0.293-0.275,0.328
				c-0.458,0.381-0.828,0.658-1.103,0.835c-0.374,0.242-0.949,0.315-1.731,0.219l-0.547-0.072
				C357.236,153.114,356.77,152.941,356.394,152.684z"/>
			<path fill="#E5E5E5" d="M361.589,141.553c0.02-0.399,0.02-0.701-0.005-0.9c-0.018-0.164-0.054-0.322-0.1-0.481
				c-0.16-0.533-0.522-0.771-1.082-0.702c-0.016,0.004-0.042,0.004-0.07,0.008c-0.031,0.017-0.052,0.019-0.073,0.023
				c-0.619,0.877-1.067,1.548-1.345,2.018c-0.611,0.874-1.202,1.347-1.771,1.413c-0.637,0.076-1.18-0.14-1.63-0.652
				c-0.392-0.447-0.631-1.005-0.711-1.673c-0.056-0.488,0.011-0.921,0.202-1.3c0.22-0.435,0.571-0.677,1.043-0.736
				c0.047,0.375-0.04,0.72-0.251,1.04c-0.212,0.319-0.307,0.586-0.282,0.795c0.027,0.24,0.147,0.447,0.359,0.627
				c0.211,0.177,0.437,0.254,0.679,0.224c0.357-0.043,0.685-0.25,0.982-0.624c0.162-0.203,0.365-0.547,0.613-1.031
				c0.522-1.04,1.154-1.6,1.899-1.688c0.355-0.043,0.673,0.002,0.955,0.133c0.809,0.398,1.279,1.169,1.415,2.317
				c0.077,0.668,0.094,1.111,0.053,1.331c-0.086,0.445-0.379,0.699-0.881,0.752C361.566,142.254,361.566,141.95,361.589,141.553z"/>
		</g>
		<g>
			<path fill="#E5E5E5" d="M299.254,167.589c-0.988-0.332-1.956-0.03-2.003,0.034c0.812,0.688,1.031,0.929,2.368,1.248
				c1.05,0.25,1.679-0.164,1.922-0.361C300.759,168.234,300.443,167.985,299.254,167.589z"/>
		</g>
	</g>
	<g>
		<path fill="#E5E5E5" d="M97.205,124.449c-2.663,0.006-4.687-4.575-9.884-4.567c-3.614,0.004-6.257,2.879-6.257,6.008
			c0,2.58,1.487,4.854,4.458,5.726l7.756,2.128c6.474,1.862,9.662,5.717,9.664,12.861c0.004,2.639-1.561,7.382-2.276,8.673
			c-2.152,3.817-9.896,2.449-8.586,0.35c0.589-0.961,3.119-6.248,3.119-7.448c0-6.701-8.606-6.138-13.599-7.846
			c-3.184-1.136-8.704-4.14-8.71-12.431c-0.006-9.433,4.977-16.011,14.33-16.024c7.217-0.008,14.116,4.852,14.118,8.135
			C101.334,122.014,98.897,124.449,97.205,124.449z"/>
		<path fill="#E5E5E5" d="M154.408,134.9l0.006,20.356c0,2.726-1.636,2.356-3.442,2.358l-1.17,0.009
			c-1.699,0-2.822,0.366-2.822-2.361l-0.006-13.497c-0.002-6.574-1.603-9.86-4.567-9.86c-3.184,0.009-4.675,3.427-4.673,10.307
			l0.007,13.292c0,2.707-1.334,2.235-3.136,2.239h-1.166c-1.808,0-3.134,0.338-3.134-2.668l-0.015-26.59
			c-0.002-2.707,1.167-4.15,3.719-4.15c2.123-0.008,3.826,0.992,5.209,0.992c2.539,0,3.286-1.858,7.112-1.858
			C151.209,123.462,154.399,126.604,154.408,134.9z"/>
		<path fill="#E5E5E5" d="M168.432,157.018c-2.238-0.606-6.946,1.026-9.232-5.538c-0.645-1.823-1.031-4.462-1.031-8.208
			c-0.013-15.318,6.781-19.042,11.347-19.042c3.186-0.013,4.244,1.14,6.159,1.14c1.593,0,2.016-2.147,2.119-5.151l0.107-3.42
			c0.101-2.573,0.738-4.423,2.331-4.434h2.129c1.694,0,2.539,1.855,2.541,5.569l0.021,35.09c0.002,2.998-1.054,4.579-3.5,4.585
			C178.768,157.606,172.29,158.038,168.432,157.018z M171.341,155.252c4.46-0.002,6.467-5.292,6.465-12.723
			c-0.007-8.005-2.551-11.582-6.166-11.582c-2.12,0-6.375,1.578-6.368,12.16C165.276,151.966,168.357,155.257,171.341,155.252z"/>
		<path fill="#E5E5E5" d="M193.33,118.922c-3.084,0-4.147-1.85-4.147-4.282c-0.002-3.572,1.911-4.577,4.141-4.577
			c3.078-0.008,4.248,1.841,4.25,4.274C197.572,117.926,195.669,118.918,193.33,118.922z M197.694,129.355l0.01,24.8
			c0.004,3.43-1.377,3.962-4.248,3.967c-3.613,0.006-4.25,0.409-4.254-3.732l-0.011-26.178c-0.001-3.138,1.272-5.135,3.192-5.135
			l1.899-0.008C196.516,123.066,197.691,125.197,197.694,129.355z"/>
		<path fill="#E5E5E5" d="M215.725,122.702c5.314-0.011,10.934,4.118,10.936,7.831c0.002,1.862-1.7,4.005-4.038,4.007
			c-2.222,0.004-3.499-3.293-6.375-3.293c-2.54,0.009-6.431,2.604-6.147,11.032c0.343,10.217,4.709,12.998,8.317,12.998
			c4.243-0.005-11.406,3.389-13.494,0.35c-2.146-3.131-3.318-8.859-3.324-13.195C201.595,130.996,207.117,122.703,215.725,122.702z"
			/>
		<path fill="#E5E5E5" d="M230.07,155.973c-0.315-1.222-1.33-3.561-1.33-4.99c-0.003-6.432,3.811-11.304,12.404-12.879
			c3.512-0.578,4.57-2.438,4.57-4.011c0-2.863-1.696-4.723-3.718-4.717c-4.042,0-3.713,4.723-8.174,4.727
			c-1.479,0-3.08-0.424-3.08-2.864c-0.004-2.563,2.229-7.998,10.725-8.004c7.426-0.003,11.886,2.276,11.892,12.561l0.324,19.833
			L230.07,155.973z M240.305,154.541c2.767,0,5.52-3.441,5.52-7.15c-0.003-1.858-0.739-3.437-2.656-3.437
			c-2.235,0.002-6.683,2.012-6.683,6.011C236.489,152.404,237.97,154.547,240.305,154.541z"/>
		<path fill="#E5E5E5" d="M255.658,126.788c0-2.434,2.767-3.863,3.194-5.284c0.52-1.589,0.52-2.286,0.517-3.857
			c0-1.585,0.316-5.162,4.143-5.162c3.725-0.004,4.031,3.291,4.031,5.28c0.004,1.435,0.221,2.864,0.746,4.011
			c0.854,1.712,3.933,1.712,3.934,5.147c0.002,3.424-3.298,2.993-4.241,5.856c-0.528,1.583-0.426,2.416-0.426,4.856l0.009,8.292
			c0,2.444,0.176,3.167,0.645,4.294c4.796,11.661-8.085,6.445-8.085,6.445c-0.2-1.064-0.624-4.376-0.624-5.72l-0.007-12.865
			c0.098-2.879-0.216-5.003-1.064-6.435C257.582,130.205,255.662,129.208,255.658,126.788z"/>
		<path fill="#E5E5E5" d="M106.121,124.038l1.274,0.062c2.213-0.109,2.728,0.933,3.962,3.713l2.55,6.721
			c0.732,1.989,1.032,3.422,1.885,3.422c0.728,0,1.322-1.684,1.795-2.994l2.373-6.722c0.737-2.647,1.999-4.154,4.021-4.154
			l1.551-0.07c1.802,0,2.639,2.222,2.075,4.088c-0.284,0.935-1.694,4.073-1.791,4.647l-9.618,23.658l-8.151,0.634l-0.132-1.46
			c1.641-4.307,4.24-7.746,2.419-11.923c-2.108-4.87-3.934-10.482-5.198-13.094C103.206,126.559,104.233,124.038,106.121,124.038z"
			/>
	</g>
	<g>
		<path fill="#E5E5E5" d="M274.803,158.47H80.066c-0.823,0-1.487-0.664-1.487-1.488c0-0.822,0.666-1.489,1.487-1.489h194.737
			c0.82,0,1.484,0.667,1.484,1.489C276.287,157.806,275.623,158.47,274.803,158.47z"/>
	</g>
	<g>
		<path fill="#E5E5E5" d="M281.182,158.47c-0.822,0-1.486-0.664-1.486-1.488c0-0.822,0.666-1.489,1.486-1.489
			c4.624,0,8.798-1.14,8.836-1.152c0.801-0.215,1.612,0.247,1.833,1.038c0.218,0.791-0.241,1.611-1.032,1.829
			C290.633,157.26,286.229,158.47,281.182,158.47z"/>
	</g>
	<g>
		<g>
			<path fill="#E5E5E5" d="M91.426,179.776l0.08-10.348c-0.002-1.199-0.372-1.796-1.105-1.796h-0.926
				c-0.689,0-0.962,0.597-1.01,1.427l-0.044,1.103c-0.042,0.968-0.229,1.656-0.919,1.657c-0.83,0-1.287-0.365-2.667-0.365
				c-1.986,0-4.928,1.196-4.921,6.127c0,0.762,0.442,3.307,0.892,3.831l0.008-0.002c0.629,1.318,1.729,2.563,3.663,2.696
				c2.379,0.169,3.761-0.479,3.761-0.479s1.919,1.015,2.904,0.033C91.516,183.287,91.426,179.776,91.426,179.776L91.426,179.776z
				 M83.638,180.26c-0.386-0.619-0.645-1.501-0.645-2.731c-0.002-3.408,1.844-3.908,2.759-3.908c1.565,0,2.669,1.143,2.673,3.72
				c0.002,0.949-0.143,1.78-0.433,2.444h0.011C88.006,179.784,86.004,183.247,83.638,180.26z"/>
		</g>
	</g>
	<g>
		<g>
			<path fill="#E5E5E5" d="M98.28,177.709l3.727-0.004h1.062c1.1,0,1.567-0.279,1.567-1.34c0-0.921-0.651-5.432-5.671-5.432
				c-2.987,0.011-5.843,1.805-5.841,6.505c0,0.537,0.057,1.029,0.151,1.493c0.048,0.685,0.403,3.345,2.978,4.759
				c2.535,1.395,6.352,0.228,6.844,0.099c0.848-0.224,1.896-2.467-0.148-2.351c-1.455,0.084-4.577,1.557-5.86-1.203
				c-0.218-0.558-0.413-1.141-0.413-1.333C96.67,178.124,97.225,177.709,98.28,177.709z M96.856,174.813
				c0-0.835,1.192-1.484,2.109-1.484c1.109,0,2.08,0.835,2.08,1.57c0.002,0.646-0.782,0.964-2.309,0.964
				C97.503,175.863,96.856,175.498,96.856,174.813z"/>
		</g>
	</g>
	<g>
		<path fill="#E5E5E5" d="M295.478,156.061c-0.615,0-1.19-0.386-1.403-0.998c-0.271-0.775,0.138-1.624,0.914-1.896
			c2.608-0.91,9.188-4.009,9.252-4.04c0.743-0.358,1.629-0.033,1.981,0.71c0.349,0.742,0.031,1.627-0.714,1.981
			c-0.275,0.129-6.783,3.194-9.541,4.156C295.81,156.034,295.642,156.061,295.478,156.061z"/>
	</g>
	<g>
		<path fill="#E5E5E5" d="M127.652,167.193c-0.273,1.559-1.01,2.075-3.341,2.079c-2.459,0-3.163,1.033-3.436,2.591l-2.354,13.47
			c-0.355,2.009-1.339,2.461-3.15,2.465c-1.753,0-2.623-0.58-2.292-2.457l2.366-13.538c0.275-1.555-0.076-2.526-2.6-2.526
			c-2.458,0.005-2.746-0.582-2.497-2.001c0.24-1.361,1.138-2.071,2.625-2.075l12.637-0.008
			C127.226,165.192,127.889,165.832,127.652,167.193z"/>
		<path fill="#E5E5E5" d="M135.769,170.773c1.104,0,1.513,0.654,1.296,1.879c-0.275,1.554-0.779,2.198-2.619,2.723
			c-1.77,0.517-2.817,1.682-3.081,3.179l-1.167,6.673c-0.277,1.611-1.078,2.448-2.436,2.452h-1.295
			c-1.226,0.005-1.717-0.902-1.426-2.584l2.117-12.11c0.29-1.62,0.964-2.526,2.906-2.526c2.011,0,2.66,0.712,3.436,0.712
			C134.475,171.163,134.804,170.773,135.769,170.773z"/>
		<path fill="#E5E5E5" d="M148.468,187.502c-1.356,0-1.903-0.584-2.751-0.58c-1.489,0-2.703,1.036-4.907,1.036
			c-3.625,0.007-5.204-2.062-4.705-4.914c0.509-2.916,3.228-5.121,8.593-5.835c2.184-0.259,2.979-1.1,3.104-1.812
			c0.227-1.293-0.663-2.133-1.897-2.133c-2.454,0-2.633,2.135-5.354,2.139c-0.91,0-1.845-0.194-1.657-1.294
			c0.21-1.169,1.995-3.631,7.183-3.631c4.53-0.005,7.068,1.026,6.255,5.691l-1.703,9.718
			C150.399,187.179,149.57,187.502,148.468,187.502z M142.878,184.659c1.687,0,3.641-1.558,3.935-3.247
			c0.148-0.841-0.185-1.542-1.351-1.542c-1.356,0-4.235,0.906-4.55,2.715C140.719,183.687,141.452,184.659,142.878,184.659z"/>
		<path fill="#E5E5E5" d="M170.589,175.773l-1.766,10.097c-0.221,1.233-1.224,1.813-2.325,1.813h-0.713
			c-1.038,0.004-1.712-0.576-1.502-1.812l1.229-6.994c0.522-2.976-0.189-4.467-2.001-4.467c-1.94,0-3.123,1.555-3.666,4.67
			l-1.188,6.795c-0.218,1.236-1.222,1.815-2.328,1.815h-0.713c-1.098,0.004-1.697-0.647-1.459-2.002l2.24-12.827
			c0.219-1.231,1.04-1.88,2.601-1.88c1.288-0.004,2.246,0.451,3.087,0.451c1.561-0.004,2.161-0.841,4.49-0.845
			C169.552,170.585,171.244,172.009,170.589,175.773z"/>
		<path fill="#E5E5E5" d="M179.176,175.043c-0.223,1.296,0.873,1.69,3.745,2.263c3.635,0.713,4.873,2.53,4.464,4.854
			c-0.633,3.633-4.254,5.836-8.663,5.838c-4.465,0.002-6.823-2.069-6.621-3.234c0.185-1.029,1.356-1.809,2.262-1.809
			c1.813,0,2.242,1.616,5.218,1.614c1.428,0,2.493-0.908,2.629-1.692c0.269-1.548-1.338-1.611-4.311-2.387
			c-2.54-0.646-4.456-1.941-3.973-4.66c0.613-3.499,4.396-5.515,7.888-5.517c3.497,0,6.251,1.292,6.025,2.585
			c-0.162,0.913-1.42,1.821-2.322,1.821c-1.366,0-2.031-0.968-4.169-0.968C180.438,173.751,179.337,174.139,179.176,175.043z"/>
		<path fill="#E5E5E5" d="M206.774,178.792c-0.973,5.569-4.013,8.879-8.478,8.879c-1.364,0.004-2.578-0.451-2.899-0.451
			c-1.042,0-1.854,0.589-2.203,2.599c-0.431,2.455-0.876,3.17-2.691,3.17c-1.689,0.002-2.012-0.715-1.751-2.195l3.143-18.005
			c0.219-1.234,0.978-1.886,2.34-1.886c1.173,0,1.812,0.392,2.717,0.392c1.296-0.005,1.884-0.774,4.221-0.778
			C205.44,170.511,207.658,173.747,206.774,178.792z M197.79,184.632c3.562-0.009,4.614-4.54,4.84-5.836
			c0.515-2.916-0.376-5.246-2.774-5.246c-2.196,0.003-4.248,2.076-4.857,5.575C194.428,182.362,195.585,184.632,197.79,184.632z"/>
		<path fill="#E5E5E5" d="M216.42,187.938c-4.916,0.004-8.211-3.034-7.217-8.736c1.074-6.088,5.877-8.748,10.41-8.752
			c4.146,0,8.533,2.261,7.42,8.674C226.153,184.106,222.513,187.933,216.42,187.938z M217.22,184.505c2.458,0,4.668-2.269,5.21-5.38
			c0.514-2.918-0.644-5.181-3.362-5.177c-2.399,0-4.657,1.817-5.247,5.185C213.272,182.241,214.62,184.509,217.22,184.505z"/>
		<path fill="#E5E5E5" d="M239.314,170.691c1.107,0,1.513,0.654,1.301,1.881c-0.275,1.556-0.784,2.203-2.622,2.724
			c-1.771,0.516-2.82,1.685-3.079,3.18l-1.167,6.669c-0.286,1.618-1.078,2.452-2.443,2.457h-1.287
			c-1.234,0.004-1.726-0.898-1.437-2.584l2.126-12.106c0.283-1.627,0.956-2.528,2.903-2.528c2.007-0.004,2.66,0.709,3.44,0.709
			C238.021,171.088,238.347,170.691,239.314,170.691z"/>
		<path fill="#E5E5E5" d="M242.302,172.185c0.192-1.099,1.992-1.751,2.365-2.403c0.452-0.705,0.5-1.029,0.63-1.747
			c0.12-0.709,0.598-2.33,2.93-2.33c2.264,0,2.199,1.489,2.043,2.397c-0.115,0.648-0.097,1.285,0.139,1.811
			c0.38,0.779,2.265,0.779,1.985,2.332c-0.272,1.55-2.252,1.355-3.056,2.655c-0.446,0.714-0.443,1.098-0.644,2.202l-0.661,3.753
			c-0.189,1.107-0.114,1.428,0.052,1.948c0.332,1.104,2.463,1.1,2.127,3.039c-0.238,1.356-1.206,2.071-2.957,2.073
			c-3.562,0.006-5.09-1.619-4.536-4.788l1.021-5.823c0.287-1.299,0.271-2.269-0.14-2.916
			C243.192,173.734,242.111,173.288,242.302,172.185z"/>
		<path fill="#E5E5E5" d="M259.701,174.985c-0.225,1.292,0.87,1.682,3.745,2.26c3.632,0.714,4.872,2.531,4.462,4.858
			c-0.627,3.631-4.257,5.829-8.653,5.834c-4.475,0-6.828-2.071-6.631-3.236c0.176-1.034,1.356-1.808,2.263-1.808
			c1.812-0.003,2.24,1.62,5.222,1.615c1.422,0,2.486-0.912,2.624-1.692c0.271-1.552-1.332-1.613-4.306-2.389
			c-2.543-0.647-4.454-1.943-3.982-4.658c0.611-3.499,4.398-5.513,7.898-5.517c3.494-0.005,6.246,1.292,6.022,2.588
			c-0.16,0.906-1.425,1.816-2.329,1.816c-1.355,0-2.031-0.971-4.169-0.968C260.961,173.693,259.857,174.079,259.701,174.985z"/>
	</g>
	<g>
		<polygon fill="#E5E5E5" points="336.458,136.32 338.986,136.01 340.352,137.902 340.668,139.379 340.222,140.142 336.458,140.852 
					"/>
		<polygon fill="#E5E5E5" points="325.972,129.518 329.977,129.716 334.565,132.218 335.721,136.43 335.303,139.69 338.248,142.744 
			339.303,149.267 338.802,151.203 333.302,151.797 326.039,148.954 320.986,141.061 		"/>
		<path fill="#E5E5E5" d="M323.519,164.409c1.74-0.557,3.38-1.386,4.89-2.371c0.413,0.291,1.305,0.771,2.093,0.214
			c0.783-0.566,0.558-1.551,0.378-2.035c1.697-1.39,3.17-2.903,4.37-4.279c0.465,0.163,1.2,0.256,1.764-0.466
			c0.461-0.586,0.231-1.368,0.054-1.781c1.12-1.479,1.735-2.491,1.735-2.491s-3.937-2.301-6.755-6.331
			c-0.513,0.586-1.518,1.458-2.985,1.532c-1.656,0.082-2.813-1.325-3.298-2.055l-23.856,11.143c0,0,4.647,11.685,18.492,9.613
			c0.304,0.468,1.051,1.391,2.051,1.067C323.455,165.852,323.537,164.859,323.519,164.409z"/>
		<path fill="#E5E5E5" d="M306.977,132.468c-0.897,0.554-0.686,1.719-0.531,2.248c-10.594,9.151-4.764,20.292-4.764,20.292
			l24.003-10.827c-0.238-0.841-0.548-2.637,0.593-3.839c1.013-1.066,2.329-1.261,3.104-1.268c-1.217-4.761-0.394-9.244-0.394-9.244
			s-1.168-0.195-3.018-0.31c-0.197-0.399-0.645-1.084-1.391-1.12c-0.912-0.043-1.321,0.581-1.497,1.04
			c-1.832,0.008-3.938,0.139-6.099,0.519c-0.25-0.445-0.85-1.266-1.786-1.036c-0.941,0.226-1.157,1.22-1.206,1.722
			c-1.729,0.504-3.431,1.202-4.986,2.162C308.682,132.501,307.875,131.915,306.977,132.468z"/>
		<path fill="#E5E5E5" d="M323.519,164.409c1.74-0.557,3.38-1.386,4.89-2.371c0.413,0.291,1.305,0.771,2.093,0.214
			c0.783-0.566,0.558-1.551,0.378-2.035c1.697-1.39,3.17-2.903,4.37-4.279c0.465,0.163,1.2,0.256,1.764-0.466
			c0.461-0.586,0.231-1.368,0.054-1.781c1.12-1.479,1.735-2.491,1.735-2.491s-3.937-2.301-6.755-6.331
			c-0.513,0.586-1.518,1.458-2.985,1.532c-1.656,0.082-2.813-1.325-3.298-2.055l-23.856,11.143c0,0,4.647,11.685,18.492,9.613
			c0.304,0.468,1.051,1.391,2.051,1.067C323.455,165.852,323.537,164.859,323.519,164.409z M320.572,154.037
			c-0.121-0.265-0.956-1.871,1.08-2.913c1.697-0.873,2.66,0.333,2.888,0.727c0.228,0.397,0.729,2.083-1.175,3.002
			C321.424,155.79,320.695,154.299,320.572,154.037z M331.12,150.29c0,0,1.646-1.302,2.589,0.272
			c0.787,1.324-0.443,3.117-0.841,3.441c-0.399,0.319-1.926,1.46-2.908-0.082C329.308,152.901,330.111,151.073,331.12,150.29z
			 M314.646,161.596c-0.316-0.817-0.529-1.951,1.263-2.818c1.566-0.759,2.778,0.591,3.08,1.145c0,0,0.755,1.647-1.034,2.614
			C316.273,163.445,314.904,162.252,314.646,161.596z"/>
		<path fill="#E5E5E5" d="M306.977,132.468c-0.897,0.554-0.686,1.719-0.531,2.248c-10.594,9.151-4.764,20.292-4.764,20.292
			l24.003-10.827c-0.238-0.841-0.548-2.637,0.593-3.839c1.013-1.066,2.329-1.261,3.104-1.268c-1.217-4.761-0.394-9.244-0.394-9.244
			s-1.168-0.195-3.018-0.31c-0.197-0.399-0.645-1.084-1.391-1.12c-0.912-0.043-1.321,0.581-1.497,1.04
			c-1.832,0.008-3.938,0.139-6.099,0.519c-0.25-0.445-0.85-1.266-1.786-1.036c-0.941,0.226-1.157,1.22-1.206,1.722
			c-1.729,0.504-3.431,1.202-4.986,2.162C308.682,132.501,307.875,131.915,306.977,132.468z M316.157,139.151
			c1.938-0.839,2.891,0.634,3.042,1.068c0.154,0.429,0.438,1.944-1.33,2.662c-2.115,0.865-2.793-0.816-2.912-1.081
			C314.835,141.538,314.184,140.01,316.157,139.151z M321.162,134.757c-0.526-1.747,1.333-2.164,1.838-2.257
			c0.504-0.094,2.666,0.145,3.153,1.609c0.585,1.739-1.479,2.141-1.479,2.141C323.42,136.5,321.512,135.917,321.162,134.757z
			 M306.802,138.247c1.899-0.729,2.66,0.92,2.66,0.92c0.221,0.581,0.454,2.385-1.14,3.079c-1.825,0.792-2.548-0.105-2.958-0.878
			C305.032,140.747,305.017,138.932,306.802,138.247z"/>
		<path fill="#E5E5E5" d="M340.843,142.31c0.034,0.059,0.052,0.094,0.052,0.094s0.958,1.113,5.839,1.753
			c0,0,0.379,0.041,0.439-0.202c0.058-0.24-0.046-0.791-0.322-1.304c0,0-0.175-0.237-0.49-0.18c-0.311,0.058-1.579,0.086-2.537-0.09
			c-0.985-0.188-1.682-0.51-2.924-1.537c-0.019-0.015-0.03-0.027-0.05-0.042c0.126-0.722,0.212-1.983-0.374-3.347
			c-0.551-1.286-1.4-1.997-2.021-2.371c0.056-1.338,0.269-2.026,0.729-2.815c0.487-0.843,1.336-1.788,1.583-1.983
			c0.25-0.203,0.181-0.49,0.181-0.49c-0.206-0.548-0.556-0.98-0.779-1.093c-0.22-0.113-0.439,0.203-0.439,0.203
			c-2.064,3.156-2.418,4.748-2.469,5.318c-3.125-3.499-7.286-4.508-7.286-4.508s-0.853,4.741,2.478,12.316
			c2.668,6.072,7.036,8.219,7.036,8.219C341.066,146.814,341.004,143.755,340.843,142.31z M332.392,135.815
			c-1.222-1.038-1.05-1.733-0.972-2.539c0.082-0.83,0.771-1.85,0.877-1.94c0.107-0.09,0.214-0.139,0.565-0.024
			s2.408,1.066,5.263,4.409c0,0,0.259,0.328,0.074,0.392C338.199,136.112,334.526,137.628,332.392,135.815z M337.167,137.443
			c-0.157-0.439,0.84-0.816,0.84-0.816c0.178-0.082,1.099-0.398,1.209-0.109c0.111,0.292-0.541,0.675-0.808,0.798
			C338.146,137.439,337.326,137.878,337.167,137.443z M339.518,139.748c-0.267,0.119-1.097,0.541-1.245,0.096
			c-0.149-0.44,0.861-0.792,0.861-0.792c0.176-0.078,1.105-0.371,1.21-0.08C340.447,139.266,339.784,139.638,339.518,139.748z
			 M339.741,147.559c-0.137,0.019-1.359-0.117-2.043-0.597c-0.66-0.465-1.299-0.787-1.292-2.395
			c0.021-2.799,3.561-4.593,3.561-4.593c0.17-0.103,0.253,0.307,0.253,0.307c0.67,4.339,0.051,6.521-0.092,6.866
			C339.986,147.489,339.883,147.539,339.741,147.559z"/>
		<path fill="#E5E5E5" d="M340.843,142.31c0.034,0.059,0.052,0.094,0.052,0.094s0.958,1.113,5.839,1.753
			c0,0,0.379,0.041,0.439-0.202c0.058-0.24-0.046-0.791-0.322-1.304c0,0-0.175-0.237-0.49-0.18c-0.311,0.058-1.579,0.086-2.537-0.09
			c-0.985-0.188-1.682-0.51-2.924-1.537c-0.019-0.015-0.03-0.027-0.05-0.042c0.126-0.722,0.212-1.983-0.374-3.347
			c-0.551-1.286-1.4-1.997-2.021-2.371c0.056-1.338,0.269-2.026,0.729-2.815c0.487-0.843,1.336-1.788,1.583-1.983
			c0.25-0.203,0.181-0.49,0.181-0.49c-0.206-0.548-0.556-0.98-0.779-1.093c-0.22-0.113-0.439,0.203-0.439,0.203
			c-2.064,3.156-2.418,4.748-2.469,5.318c-3.125-3.499-7.286-4.508-7.286-4.508s-0.853,4.741,2.478,12.316
			c2.668,6.072,7.036,8.219,7.036,8.219C341.066,146.814,341.004,143.755,340.843,142.31z M332.392,135.815
			c-1.222-1.038-1.05-1.733-0.972-2.539c0.082-0.83,0.771-1.85,0.877-1.94c0.107-0.09,0.214-0.139,0.565-0.024
			s2.408,1.066,5.263,4.409c0,0,0.259,0.328,0.074,0.392C338.199,136.112,334.526,137.628,332.392,135.815z M337.167,137.443
			c-0.157-0.439,0.84-0.816,0.84-0.816c0.178-0.082,1.099-0.398,1.209-0.109c0.111,0.292-0.541,0.675-0.808,0.798
			C338.146,137.439,337.326,137.878,337.167,137.443z M339.518,139.748c-0.267,0.119-1.097,0.541-1.245,0.096
			c-0.149-0.44,0.861-0.792,0.861-0.792c0.176-0.078,1.105-0.371,1.21-0.08C340.447,139.266,339.784,139.638,339.518,139.748z
			 M339.741,147.559c-0.137,0.019-1.359-0.117-2.043-0.597c-0.66-0.465-1.299-0.787-1.292-2.395
			c0.021-2.799,3.561-4.593,3.561-4.593c0.17-0.103,0.253,0.307,0.253,0.307c0.67,4.339,0.051,6.521-0.092,6.866
			C339.986,147.489,339.883,147.539,339.741,147.559z"/>
		<path fill="#E5E5E5" d="M332.297,131.336c0,0,1.952,0.882,3.741,2.354c1.38,1.136,2.161,2.419,2.161,2.419
			s-2.896,0.95-4.582,0.525c-1.143-0.284-2.144-1.469-2.209-2.42C331.303,132.747,332.297,131.336,332.297,131.336z"/>
		<path fill="#E5E5E5" d="M339.713,147.715c0,0,0.681-2.032,0.815-4.343c0.107-1.782-0.306-3.229-0.306-3.229
			s-2.663,1.479-3.5,3.002c-0.565,1.033-0.377,2.571,0.272,3.269C338.002,147.489,339.713,147.715,339.713,147.715z"/>
	</g>
</g>
</svg>
