<?xml version="1.0" encoding="utf-8"?>
<!-- Generator: Adobe Illustrator 16.0.4, SVG Export Plug-In . SVG Version: 6.00 Build 0)  -->
<!DOCTYPE svg PUBLIC "-//W3C//DTD SVG 1.1//EN" "http://www.w3.org/Graphics/SVG/1.1/DTD/svg11.dtd">
<svg version="1.1" id="Calque_1" xmlns="http://www.w3.org/2000/svg" xmlns:xlink="http://www.w3.org/1999/xlink" x="0px" y="0px"
	 width="435px" height="300px" viewBox="0 0 435 300" enable-background="new 0 0 435 300" xml:space="preserve">
<path fill="#77579C" d="M200.409,93.543c3.058-0.43,5.186-3.257,4.757-6.312c-0.43-3.058-3.257-5.188-6.313-4.758
	c-3.056,0.429-5.187,3.257-4.755,6.313C194.527,91.844,197.351,93.974,200.409,93.543"/>
<path fill="#77579C" d="M199.855,159.064c3.057-0.43,5.188-3.258,4.757-6.312c-0.43-3.059-3.255-5.188-6.312-4.757
	c-3.058,0.429-5.187,3.255-4.759,6.313C193.974,157.366,196.799,159.497,199.855,159.064"/>
<path fill="#77579C" d="M122.639,219.82c3.288-0.461,5.58-3.502,5.117-6.791c-0.462-3.286-3.502-5.579-6.791-5.116
	c-3.287,0.461-5.579,3.502-5.117,6.791C116.311,217.991,119.352,220.283,122.639,219.82"/>
<path fill="#E6AD34" d="M140.391,111.216c3.143,0,5.69-2.549,5.69-5.689c0-3.141-2.547-5.688-5.69-5.688
	c-3.141,0-5.688,2.548-5.688,5.688C134.703,108.667,137.25,111.216,140.391,111.216"/>
<path fill="#E6AD34" d="M145.79,216.146c2.851,0,5.163-2.312,5.163-5.164c0-2.853-2.312-5.164-5.163-5.164
	c-2.852,0-5.164,2.312-5.164,5.164C140.626,213.833,142.938,216.146,145.79,216.146"/>
<path fill="#9FC698" d="M118.511,121.979c1.12,1.726,3.429,2.215,5.156,1.095c1.725-1.121,2.217-3.427,1.095-5.156
	c-1.121-1.726-3.429-2.215-5.154-1.094C117.881,117.945,117.39,120.252,118.511,121.979"/>
<path fill="#9FC698" d="M100.454,201.98c1.954,3.006,5.977,3.86,8.987,1.908c3.009-1.955,3.865-5.979,1.91-8.988
	c-1.954-3.01-5.978-3.863-8.987-1.91C99.355,194.945,98.499,198.971,100.454,201.98"/>
<path fill="#A9526F" d="M214.576,121.643c1.689-1.136,2.133-3.428,0.994-5.116c-1.139-1.686-3.428-2.13-5.115-0.995
	c-1.688,1.139-2.133,3.431-0.995,5.119C210.599,122.338,212.889,122.782,214.576,121.643"/>
<path fill="#A9526F" d="M165.42,203.525c2.076-1.401,2.624-4.219,1.223-6.295c-1.399-2.076-4.217-2.623-6.293-1.223
	c-2.076,1.398-2.624,4.217-1.224,6.295C160.526,204.378,163.345,204.926,165.42,203.525"/>
<path fill="#83B451" d="M214.857,104.658c0.999-1.962,0.221-4.364-1.742-5.366c-1.962-0.998-4.364-0.219-5.366,1.743
	c-0.998,1.963-0.218,4.365,1.744,5.364C211.456,107.402,213.858,106.62,214.857,104.658"/>
<path fill="#83B451" d="M181.401,188.707c1.387-2.725,0.305-6.057-2.419-7.441c-2.722-1.389-6.054-0.306-7.443,2.416
	c-1.386,2.723-0.303,6.057,2.42,7.44C176.682,192.512,180.013,191.428,181.401,188.707"/>
<path fill="#3D80B0" d="M158.755,99.402c3.25,0,5.885-2.635,5.885-5.884s-2.635-5.884-5.885-5.884s-5.708,2.731-5.708,5.884
	S155.504,99.402,158.755,99.402"/>
<path fill="#3D80B0" d="M207.813,140.362c2.543,0,4.606-2.062,4.606-4.606c0-2.546-2.062-4.608-4.606-4.608
	c-2.545,0-4.609,2.062-4.609,4.608C203.204,138.3,205.268,140.362,207.813,140.362"/>
<path fill="#C32782" d="M182.469,90.336c3.251-1.656,4.544-5.636,2.888-8.887c-1.656-3.252-5.637-4.546-8.887-2.888
	c-3.252,1.657-4.1,5.649-2.54,8.71C175.491,90.332,179.219,91.993,182.469,90.336"/>
<path fill="#C32782" d="M190.31,174.895c2.596-1.324,3.628-4.498,2.306-7.097c-1.323-2.596-4.5-3.627-7.095-2.303
	c-2.595,1.321-3.628,4.498-2.306,7.094C184.538,175.186,187.715,176.216,190.31,174.895"/>
</svg>
