<?xml version="1.0" encoding="utf-8"?>
<!-- Generator: Adobe Illustrator 16.0.4, SVG Export Plug-In . SVG Version: 6.00 Build 0)  -->
<!DOCTYPE svg PUBLIC "-//W3C//DTD SVG 1.1//EN" "http://www.w3.org/Graphics/SVG/1.1/DTD/svg11.dtd">
<svg version="1.1" id="Calque_1" xmlns="http://www.w3.org/2000/svg" xmlns:xlink="http://www.w3.org/1999/xlink" x="0px" y="0px"
	 width="435px" height="300px" viewBox="0 0 435 300" enable-background="new 0 0 435 300" xml:space="preserve">
<g id="Calque_1_1_" display="none">
	<path display="inline" fill="#77579C" d="M200.409,93.543c3.058-0.43,5.186-3.257,4.757-6.312c-0.43-3.058-3.257-5.188-6.313-4.758
		c-3.056,0.429-5.187,3.257-4.755,6.313C194.527,91.844,197.351,93.974,200.409,93.543"/>
	<path display="inline" fill="#77579C" d="M272.779,148.094c2.478-0.348,4.201-2.637,3.854-5.114
		c-0.349-2.475-2.637-4.202-5.115-3.854c-2.476,0.348-4.199,2.638-3.851,5.113C268.016,146.715,270.305,148.441,272.779,148.094"/>
	<path display="inline" fill="#77579C" d="M300.076,215.477c2.477-0.346,4.203-2.635,3.854-5.113
		c-0.35-2.475-2.638-4.194-5.113-3.854c-2.478,0.348-4.196,2.639-3.854,5.114C295.312,214.098,297.6,215.824,300.076,215.477"/>
	<path display="inline" fill="#E6AD34" d="M286.904,218.723c2.478-0.348,4.203-2.638,3.854-5.113
		c-0.347-2.476-2.635-4.196-5.113-3.854c-2.476,0.35-4.201,2.639-3.854,5.112C282.141,217.344,284.43,219.07,286.904,218.723"/>
	<path display="inline" fill="#77579C" d="M122.639,219.82c3.288-0.461,5.58-3.502,5.117-6.791
		c-0.462-3.286-3.502-5.579-6.791-5.116c-3.287,0.461-5.579,3.502-5.117,6.791C116.311,217.991,119.352,220.283,122.639,219.82"/>
	<path display="inline" fill="#77579C" d="M329.001,145.979c2.156-0.304,3.661-2.299,3.356-4.458
		c-0.31-2.158-2.299-3.659-4.455-3.357c-2.157,0.302-3.661,2.3-3.358,4.456C324.85,144.778,326.843,146.28,329.001,145.979"/>
	<path display="inline" fill="#E6AD34" d="M140.391,111.216c3.143,0,5.69-2.549,5.69-5.689c0-3.141-2.547-5.688-5.69-5.688
		c-3.141,0-5.688,2.548-5.688,5.688C134.703,108.667,137.25,111.216,140.391,111.216"/>
	<path display="inline" fill="#E6AD34" d="M240.802,137.936c2.898,0,5.248-2.35,5.248-5.25c0-2.898-2.35-5.25-5.248-5.25
		c-2.897,0-5.249,2.352-5.249,5.25C235.553,135.585,237.902,137.936,240.802,137.936"/>
	<path display="inline" fill="#E6AD34" d="M246.229,204.365c2.313,0,4.188-1.877,4.188-4.188c0-2.311-1.874-4.187-4.188-4.187
		c-2.312,0-4.187,1.873-4.187,4.187C242.042,202.491,243.918,204.365,246.229,204.365"/>
	<path display="inline" fill="#E6AD34" d="M145.79,216.146c2.851,0,5.163-2.312,5.163-5.164c0-2.854-2.312-5.164-5.163-5.164
		c-2.852,0-5.164,2.312-5.164,5.164C140.626,213.833,142.938,216.146,145.79,216.146"/>
	<path display="inline" fill="#E6AD34" d="M331.552,164.244c2.31,0,4.183-1.872,4.183-4.184c0-2.312-1.873-4.188-4.183-4.188
		s-4.183,1.874-4.183,4.188C327.369,162.372,329.242,164.244,331.552,164.244"/>
	<path display="inline" fill="#9FC698" d="M329.277,180.503c2.531,0,4.582-2.052,4.582-4.581c0-2.527-2.051-4.58-4.582-4.58
		c-2.528,0-4.582,2.053-4.582,4.58C324.695,178.451,326.749,180.503,329.277,180.503"/>
	<path display="inline" fill="#9FC698" d="M118.511,121.979c1.12,1.726,3.429,2.215,5.156,1.095
		c1.725-1.121,2.217-3.427,1.095-5.156c-1.121-1.726-3.429-2.215-5.154-1.094C117.881,117.945,117.39,120.252,118.511,121.979"/>
	<path display="inline" fill="#9FC698" d="M247.168,124.358c1.371,2.109,4.191,2.709,6.299,1.336c2.114-1.368,2.711-4.188,1.344-6.3
		c-1.371-2.107-4.188-2.709-6.305-1.339C246.396,119.426,245.799,122.246,247.168,124.358"/>
	<path display="inline" fill="#9FC698" d="M100.454,201.98c1.954,3.006,5.977,3.855,8.987,1.908c3.009-1.955,3.865-5.979,1.91-8.988
		c-1.954-3.01-5.978-3.863-8.987-1.91C99.355,194.945,98.499,198.971,100.454,201.98"/>
	<path display="inline" fill="#A9526F" d="M304.878,117.592c1.132,1.742,3.461,2.238,5.202,1.105
		c1.74-1.131,2.234-3.459,1.105-5.201c-1.131-1.742-3.461-2.236-5.201-1.104C304.243,113.523,303.747,115.851,304.878,117.592"/>
	<path display="inline" fill="#9FC698" d="M316.523,129.045c1.131,1.741,3.459,2.239,5.199,1.105
		c1.737-1.131,2.231-3.459,1.104-5.201c-1.135-1.741-3.46-2.236-5.202-1.104C315.887,124.976,315.393,127.304,316.523,129.045"/>
	<path display="inline" fill="#A9526F" d="M214.576,121.643c1.689-1.136,2.133-3.428,0.994-5.116
		c-1.139-1.686-3.428-2.13-5.115-0.995c-1.688,1.139-2.133,3.431-0.995,5.119C210.599,122.338,212.889,122.782,214.576,121.643"/>
	<path display="inline" fill="#A9526F" d="M165.42,203.525c2.076-1.401,2.624-4.219,1.223-6.295
		c-1.399-2.076-4.217-2.623-6.293-1.228c-2.076,1.396-2.624,4.222-1.224,6.295C160.526,204.378,163.345,204.926,165.42,203.525"/>
	<path display="inline" fill="#A9526F" d="M326.675,195.637c2.308-1.557,2.917-4.687,1.36-6.994
		c-1.557-2.307-4.688-2.914-6.993-1.355c-2.308,1.561-2.916,4.688-1.362,6.992C321.238,196.585,324.367,197.193,326.675,195.637"/>
	<path display="inline" fill="#83B451" d="M214.857,104.658c0.999-1.962,0.221-4.364-1.742-5.366
		c-1.962-0.998-4.364-0.219-5.366,1.743c-0.998,1.963-0.218,4.365,1.744,5.364C211.456,107.402,213.858,106.62,214.857,104.658"/>
	<path display="inline" fill="#83B451" d="M260.283,210.157c0.898-1.765,0.199-3.929-1.567-4.825
		c-1.766-0.9-3.928-0.198-4.827,1.566c-0.896,1.767-0.197,3.928,1.567,4.83C257.223,212.628,259.384,211.922,260.283,210.157"/>
	<path display="inline" fill="#3D80B0" d="M285.672,118.413c0.901-1.765,0.199-3.927-1.568-4.827
		c-1.767-0.899-3.929-0.197-4.828,1.568c-0.896,1.768-0.191,3.927,1.568,4.83C282.611,120.883,284.771,120.181,285.672,118.413"/>
	<path display="inline" fill="#83B451" d="M282.729,131.579c0.988-1.944,0.215-4.322-1.728-5.311
		c-1.944-0.989-4.321-0.219-5.312,1.725c-0.99,1.944-0.217,4.322,1.726,5.314C279.357,134.296,281.736,133.523,282.729,131.579"/>
	<path display="inline" fill="#C32782" d="M128.484,190.82c1.386-2.307,0.64-5.303-1.667-6.688
		c-2.309-1.387-5.302-0.641-6.689,1.668c-1.386,2.308-0.64,5.304,1.668,6.688C124.103,193.874,127.099,193.128,128.484,190.82"/>
	<path display="inline" fill="#83B451" d="M181.401,188.707c1.387-2.725,0.305-6.057-2.419-7.441
		c-2.722-1.389-6.054-0.306-7.443,2.416c-1.386,2.728-0.303,6.062,2.42,7.44C176.682,192.512,180.013,191.428,181.401,188.707"/>
	<path display="inline" fill="#83B451" d="M317.755,206.218c1.308-2.565,0.287-5.702-2.276-7.011
		c-2.562-1.305-5.703-0.287-7.011,2.277c-1.306,2.562-0.288,5.703,2.277,7.012C313.311,209.802,316.449,208.779,317.755,206.218"/>
	<path display="inline" fill="#3D80B0" d="M158.755,99.402c3.25,0,5.885-2.635,5.885-5.884s-2.635-5.884-5.885-5.884
		s-5.708,2.731-5.708,5.884S155.504,99.402,158.755,99.402"/>
	<path display="inline" fill="#3D80B0" d="M234.971,153.607c2.854,0,5.163-2.313,5.163-5.167s-2.312-5.163-5.163-5.163
		c-2.853,0-5.164,2.312-5.164,5.163S232.118,153.607,234.971,153.607"/>
	<path display="inline" fill="#3D80B0" d="M207.813,140.362c2.543,0,4.606-2.062,4.606-4.606c0-2.546-2.062-4.608-4.606-4.608
		c-2.545,0-4.609,2.062-4.609,4.608C203.204,138.3,205.268,140.362,207.813,140.362"/>
	<path display="inline" fill="#3D80B0" d="M271.004,217.812c2.291,0,4.146-1.857,4.146-4.146c0-2.291-1.855-4.146-4.146-4.146
		c-2.289,0-4.146,1.854-4.146,4.146C266.855,215.955,268.715,217.812,271.004,217.812"/>
	<path display="inline" fill="#3D80B0" d="M141.912,195.055c2.284,0.159,4.266-1.561,4.426-3.848
		c0.16-2.286-1.562-4.268-3.847-4.425c-2.286-0.16-4.267,1.562-4.425,3.847C137.905,192.911,139.628,194.895,141.912,195.055"/>
	<path display="inline" fill="#C32782" d="M182.469,90.336c3.251-1.656,4.544-5.636,2.888-8.887
		c-1.656-3.252-5.637-4.546-8.887-2.888c-3.252,1.657-4.1,5.649-2.54,8.71C175.491,90.332,179.219,91.993,182.469,90.336"/>
	<path display="inline" fill="#C32782" d="M235.521,172.016c2.511-1.272,3.508-4.352,2.229-6.854
		c-1.279-2.517-4.352-3.513-6.857-2.229c-2.511,1.277-3.506,4.354-2.229,6.857C229.943,172.296,233.014,173.292,235.521,172.016"/>
	<path display="inline" fill="#83B451" d="M239.7,189.453c2.347-1.197,3.28-4.067,2.083-6.417c-1.194-2.345-4.067-3.276-6.413-2.082
		c-2.349,1.196-3.281,4.067-2.086,6.416C234.48,189.716,237.354,190.648,239.7,189.453"/>
	<path display="inline" fill="#C32782" d="M264.372,162.121c2.521-1.283,3.519-4.362,2.235-6.883
		c-1.282-2.518-4.362-3.522-6.883-2.236c-2.521,1.283-3.521,4.364-2.234,6.885C258.771,162.404,261.854,163.404,264.372,162.121"/>
	<path display="inline" fill="#C32782" d="M206.504,211.652c1.798-0.914,2.513-3.112,1.596-4.911
		c-0.916-1.798-3.114-2.509-4.912-1.597c-1.798,0.916-2.513,3.11-1.596,4.916C202.507,211.857,204.706,212.568,206.504,211.652"/>
	<path display="inline" fill="#C32782" d="M240,67.232c1.568-0.801,2.193-2.722,1.395-4.291c-0.799-1.57-2.721-2.194-4.291-1.394
		c-1.564,0.799-2.188,2.721-1.394,4.29C236.51,67.407,238.432,68.031,240,67.232"/>
	<path display="inline" fill="#C32782" d="M190.31,174.895c2.596-1.324,3.628-4.498,2.306-7.097c-1.323-2.596-4.5-3.627-7.095-2.303
		c-2.595,1.321-3.628,4.498-2.306,7.094C184.538,175.186,187.715,176.216,190.31,174.895"/>
	<path display="inline" fill="#C32782" d="M264.177,118.248c1.907-0.971,2.664-3.301,1.693-5.209
		c-0.97-1.904-3.304-2.662-5.209-1.691c-1.905,0.971-2.664,3.302-1.693,5.208C259.938,118.46,262.271,119.221,264.177,118.248"/>
	<path display="inline" fill="#A9526F" d="M275.365,114.864c1.703-0.868,2.38-2.954,1.513-4.656s-2.952-2.38-4.655-1.513
		c-1.703,0.868-2.38,2.952-1.512,4.656C271.579,115.054,273.662,115.73,275.365,114.864"/>
	<path display="inline" fill="#77579C" d="M180.283,210.986c2.246-0.315,3.81-2.396,3.496-4.639
		c-0.317-2.246-2.393-3.812-4.639-3.494c-2.245,0.312-3.808,2.392-3.493,4.638C175.962,209.736,178.038,211.3,180.283,210.986"/>
	<path display="inline" fill="#77579C" d="M279.338,99.146c1.938-0.1,3.426-1.754,3.324-3.692s-1.756-3.428-3.693-3.326
		c-1.937,0.102-3.426,1.756-3.324,3.693C275.746,97.76,277.398,99.248,279.338,99.146"/>
	<path display="inline" fill="#3D80B0" d="M262.652,90.337c1.923-0.271,3.262-2.048,2.99-3.97c-0.271-1.922-2.045-3.261-3.974-2.991
		c-1.922,0.271-3.261,2.046-2.985,3.97C258.956,89.268,260.73,90.608,262.652,90.337"/>
	<path display="inline" fill="#9FC698" d="M248.527,81.938c1.923-0.271,3.261-2.048,2.992-3.969c-0.271-1.922-2.047-3.26-3.977-2.99
		c-1.919,0.271-3.262,2.046-2.984,3.969C244.829,80.869,246.605,82.208,248.527,81.938"/>
	<path display="inline" fill="#A9526F" d="M194.723,213.398c1.687-1.145,2.133-3.435,0.993-5.117
		c-1.138-1.688-3.429-2.133-5.115-0.994c-1.688,1.138-2.133,3.429-0.995,5.115C190.744,214.09,193.035,214.534,194.723,213.398"/>
	<path display="inline" fill="#C32782" d="M227.908,195.486c1.791-1.207,2.265-3.641,1.057-5.432s-3.641-2.27-5.432-1.061
		c-1.792,1.209-2.264,3.646-1.057,5.438C223.688,196.221,226.118,196.693,227.908,195.486"/>
	<path display="inline" fill="#9FC698" d="M212.49,203.691c1.134,1.744,3.464,2.238,5.207,1.104c1.745-1.13,2.241-3.461,1.108-5.207
		c-1.133-1.738-3.465-2.236-5.207-1.104C211.854,199.615,211.357,201.945,212.49,203.691"/>
</g>
<g id="Calque_2" display="none">
	<path display="inline" fill="#77579C" d="M200.409,93.543c3.058-0.43,5.186-3.257,4.757-6.312c-0.43-3.058-3.257-5.188-6.313-4.758
		c-3.056,0.429-5.187,3.257-4.755,6.313C194.527,91.844,197.351,93.974,200.409,93.543"/>
	<path display="inline" fill="#77579C" d="M272.779,148.094c2.478-0.348,4.201-2.637,3.854-5.114
		c-0.349-2.475-2.637-4.202-5.115-3.854c-2.476,0.348-4.199,2.638-3.851,5.113C268.016,146.715,270.305,148.441,272.779,148.094"/>
	<path display="inline" fill="#77579C" d="M199.855,159.064c3.057-0.435,5.188-3.258,4.757-6.312
		c-0.43-3.059-3.255-5.188-6.312-4.757c-3.058,0.429-5.187,3.255-4.759,6.313C193.974,157.366,196.799,159.497,199.855,159.064"/>
	<path display="inline" fill="#77579C" d="M300.076,215.477c2.477-0.346,4.203-2.635,3.854-5.113
		c-0.35-2.475-2.638-4.194-5.113-3.854c-2.478,0.348-4.196,2.639-3.854,5.114C295.312,214.098,297.6,215.824,300.076,215.477"/>
	<path display="inline" fill="#E6AD34" d="M286.904,218.723c2.478-0.348,4.203-2.638,3.854-5.113
		c-0.347-2.476-2.635-4.196-5.113-3.854c-2.476,0.35-4.201,2.639-3.854,5.112C282.141,217.344,284.43,219.07,286.904,218.723"/>
	<path display="inline" fill="#77579C" d="M122.639,219.82c3.288-0.461,5.58-3.502,5.117-6.791
		c-0.462-3.286-3.502-5.579-6.791-5.116c-3.287,0.461-5.579,3.502-5.117,6.791C116.311,217.991,119.352,220.283,122.639,219.82"/>
	<path display="inline" fill="#77579C" d="M329.001,145.979c2.156-0.304,3.661-2.299,3.356-4.458
		c-0.31-2.158-2.299-3.659-4.455-3.357c-2.157,0.302-3.661,2.3-3.358,4.456C324.85,144.778,326.843,146.28,329.001,145.979"/>
	<path display="inline" fill="#E6AD34" d="M140.391,111.216c3.143,0,5.69-2.549,5.69-5.689c0-3.141-2.547-5.688-5.69-5.688
		c-3.141,0-5.688,2.548-5.688,5.688C134.703,108.667,137.25,111.216,140.391,111.216"/>
	<path display="inline" fill="#E6AD34" d="M240.802,137.936c2.898,0,5.248-2.35,5.248-5.25c0-2.898-2.35-5.25-5.248-5.25
		c-2.897,0-5.249,2.352-5.249,5.25C235.553,135.585,237.902,137.936,240.802,137.936"/>
	<path display="inline" fill="#E6AD34" d="M246.229,204.365c2.313,0,4.188-1.877,4.188-4.188c0-2.311-1.874-4.187-4.188-4.187
		c-2.312,0-4.187,1.873-4.187,4.187C242.042,202.491,243.918,204.365,246.229,204.365"/>
	<path display="inline" fill="#E6AD34" d="M145.79,216.146c2.851,0,5.163-2.312,5.163-5.164c0-2.854-2.312-5.164-5.163-5.164
		c-2.852,0-5.164,2.312-5.164,5.164C140.626,213.833,142.938,216.146,145.79,216.146"/>
	<path display="inline" fill="#E6AD34" d="M295.254,109.017c1.977,0,3.579-1.602,3.579-3.581c0-1.976-1.603-3.579-3.579-3.579
		c-1.979,0-3.58,1.604-3.58,3.579C291.674,107.415,293.275,109.017,295.254,109.017"/>
	<path display="inline" fill="#E6AD34" d="M331.552,164.244c2.31,0,4.183-1.872,4.183-4.184c0-2.312-1.873-4.188-4.183-4.188
		s-4.183,1.874-4.183,4.188C327.369,162.372,329.242,164.244,331.552,164.244"/>
	<path display="inline" fill="#9FC698" d="M329.277,180.503c2.531,0,4.582-2.052,4.582-4.581c0-2.527-2.051-4.58-4.582-4.58
		c-2.528,0-4.582,2.053-4.582,4.58C324.695,178.451,326.749,180.503,329.277,180.503"/>
	<path display="inline" fill="#9FC698" d="M118.511,121.979c1.12,1.726,3.429,2.215,5.156,1.095
		c1.725-1.121,2.217-3.427,1.095-5.156c-1.121-1.726-3.429-2.215-5.154-1.094C117.881,117.945,117.39,120.252,118.511,121.979"/>
	<path display="inline" fill="#9FC698" d="M247.168,124.358c1.371,2.109,4.191,2.709,6.299,1.336c2.114-1.368,2.711-4.188,1.344-6.3
		c-1.371-2.107-4.188-2.709-6.305-1.339C246.396,119.426,245.799,122.246,247.168,124.358"/>
	<path display="inline" fill="#9FC698" d="M100.454,201.98c1.954,3.006,5.977,3.855,8.987,1.908c3.009-1.955,3.865-5.979,1.91-8.988
		c-1.954-3.01-5.978-3.863-8.987-1.91C99.355,194.945,98.499,198.971,100.454,201.98"/>
	<path display="inline" fill="#A9526F" d="M304.878,117.592c1.132,1.742,3.461,2.238,5.202,1.105
		c1.74-1.131,2.234-3.459,1.105-5.201c-1.131-1.742-3.461-2.236-5.201-1.104C304.243,113.523,303.747,115.851,304.878,117.592"/>
	<path display="inline" fill="#9FC698" d="M316.523,129.045c1.131,1.741,3.459,2.239,5.199,1.105
		c1.737-1.131,2.231-3.459,1.104-5.201c-1.135-1.741-3.46-2.236-5.202-1.104C315.887,124.976,315.393,127.304,316.523,129.045"/>
	<path display="inline" fill="#A9526F" d="M214.576,121.643c1.689-1.136,2.133-3.428,0.994-5.116
		c-1.139-1.686-3.428-2.13-5.115-0.995c-1.688,1.139-2.133,3.431-0.995,5.119C210.599,122.338,212.889,122.782,214.576,121.643"/>
	<path display="inline" fill="#A9526F" d="M165.42,203.525c2.076-1.401,2.624-4.219,1.223-6.295
		c-1.399-2.076-4.217-2.623-6.293-1.228c-2.076,1.396-2.624,4.222-1.224,6.295C160.526,204.378,163.345,204.926,165.42,203.525"/>
	<path display="inline" fill="#A9526F" d="M326.675,195.637c2.308-1.557,2.917-4.687,1.36-6.994
		c-1.557-2.307-4.688-2.914-6.993-1.355c-2.308,1.561-2.916,4.688-1.362,6.992C321.238,196.585,324.367,197.193,326.675,195.637"/>
	<path display="inline" fill="#83B451" d="M214.857,104.658c0.999-1.962,0.221-4.364-1.742-5.366
		c-1.962-0.998-4.364-0.219-5.366,1.743c-0.998,1.963-0.218,4.365,1.744,5.364C211.456,107.402,213.858,106.62,214.857,104.658"/>
	<path display="inline" fill="#83B451" d="M260.283,210.157c0.898-1.765,0.199-3.929-1.567-4.825
		c-1.766-0.9-3.928-0.198-4.827,1.566c-0.896,1.767-0.197,3.928,1.567,4.83C257.223,212.628,259.384,211.922,260.283,210.157"/>
	<path display="inline" fill="#3D80B0" d="M285.672,118.413c0.901-1.765,0.199-3.927-1.568-4.827
		c-1.767-0.899-3.929-0.197-4.828,1.568c-0.896,1.768-0.191,3.927,1.568,4.83C282.611,120.883,284.771,120.181,285.672,118.413"/>
	<path display="inline" fill="#83B451" d="M282.729,131.579c0.988-1.944,0.215-4.322-1.728-5.311
		c-1.944-0.989-4.321-0.219-5.312,1.725c-0.99,1.944-0.217,4.322,1.726,5.314C279.357,134.296,281.736,133.523,282.729,131.579"/>
	<path display="inline" fill="#C32782" d="M128.484,190.82c1.386-2.307,0.64-5.303-1.667-6.688
		c-2.309-1.387-5.302-0.641-6.689,1.668c-1.386,2.308-0.64,5.304,1.668,6.688C124.103,193.874,127.099,193.128,128.484,190.82"/>
	<path display="inline" fill="#83B451" d="M181.401,188.707c1.387-2.725,0.305-6.057-2.419-7.441
		c-2.722-1.389-6.054-0.306-7.443,2.416c-1.386,2.728-0.303,6.062,2.42,7.44C176.682,192.512,180.013,191.428,181.401,188.707"/>
	<path display="inline" fill="#83B451" d="M317.755,206.218c1.308-2.565,0.287-5.702-2.276-7.011
		c-2.562-1.305-5.703-0.287-7.011,2.277c-1.306,2.562-0.288,5.703,2.277,7.012C313.311,209.802,316.449,208.779,317.755,206.218"/>
	<path display="inline" fill="#3D80B0" d="M158.755,99.402c3.25,0,5.885-2.635,5.885-5.884s-2.635-5.884-5.885-5.884
		s-5.708,2.731-5.708,5.884S155.504,99.402,158.755,99.402"/>
	<path display="inline" fill="#3D80B0" d="M234.971,153.607c2.854,0,5.163-2.313,5.163-5.167s-2.312-5.163-5.163-5.163
		c-2.853,0-5.164,2.312-5.164,5.163S232.118,153.607,234.971,153.607"/>
	<path display="inline" fill="#3D80B0" d="M251.135,175.591c2.491,0,4.512-2.018,4.512-4.508c0-2.495-2.021-4.513-4.512-4.513
		c-2.49,0-4.512,2.018-4.512,4.513C246.623,173.573,248.645,175.591,251.135,175.591"/>
	<path display="inline" fill="#3D80B0" d="M207.813,140.362c2.543,0,4.606-2.062,4.606-4.606c0-2.546-2.062-4.608-4.606-4.608
		c-2.545,0-4.609,2.062-4.609,4.608C203.204,138.3,205.268,140.362,207.813,140.362"/>
	<path display="inline" fill="#3D80B0" d="M271.004,217.812c2.291,0,4.146-1.857,4.146-4.146c0-2.291-1.855-4.146-4.146-4.146
		c-2.289,0-4.146,1.854-4.146,4.146C266.855,215.955,268.715,217.812,271.004,217.812"/>
	<path display="inline" fill="#3D80B0" d="M141.912,195.055c2.284,0.159,4.266-1.561,4.426-3.848
		c0.16-2.286-1.562-4.268-3.847-4.425c-2.286-0.16-4.267,1.562-4.425,3.847C137.905,192.911,139.628,194.895,141.912,195.055"/>
	<path display="inline" fill="#C32782" d="M182.469,90.336c3.251-1.656,4.544-5.636,2.888-8.887
		c-1.656-3.252-5.637-4.546-8.887-2.888c-3.252,1.657-4.1,5.649-2.54,8.71C175.491,90.332,179.219,91.993,182.469,90.336"/>
	<path display="inline" fill="#C32782" d="M235.521,172.016c2.511-1.272,3.508-4.352,2.229-6.854
		c-1.279-2.517-4.352-3.513-6.857-2.229c-2.511,1.277-3.506,4.354-2.229,6.857C229.943,172.296,233.014,173.292,235.521,172.016"/>
	<path display="inline" fill="#83B451" d="M239.7,189.453c2.347-1.197,3.28-4.067,2.083-6.417c-1.194-2.345-4.067-3.276-6.413-2.082
		c-2.349,1.196-3.281,4.067-2.086,6.416C234.48,189.716,237.354,190.648,239.7,189.453"/>
	<path display="inline" fill="#C32782" d="M264.372,162.121c2.521-1.283,3.519-4.362,2.235-6.883
		c-1.282-2.518-4.362-3.522-6.883-2.236c-2.521,1.283-3.521,4.364-2.234,6.885C258.771,162.404,261.854,163.404,264.372,162.121"/>
	<path display="inline" fill="#C32782" d="M206.504,211.652c1.798-0.914,2.513-3.112,1.596-4.911
		c-0.916-1.798-3.114-2.509-4.912-1.597c-1.798,0.916-2.513,3.11-1.596,4.916C202.507,211.857,204.706,212.568,206.504,211.652"/>
	<path display="inline" fill="#C32782" d="M240,67.232c1.568-0.801,2.193-2.722,1.395-4.291c-0.799-1.57-2.721-2.194-4.291-1.394
		c-1.564,0.799-2.188,2.721-1.394,4.29C236.51,67.407,238.432,68.031,240,67.232"/>
	<path display="inline" fill="#C32782" d="M190.31,174.895c2.596-1.324,3.628-4.498,2.306-7.097c-1.323-2.596-4.5-3.627-7.095-2.303
		c-2.595,1.321-3.628,4.498-2.306,7.094C184.538,175.186,187.715,176.216,190.31,174.895"/>
	<path display="inline" fill="#C32782" d="M264.177,118.248c1.907-0.971,2.664-3.301,1.693-5.209
		c-0.97-1.904-3.304-2.662-5.209-1.691c-1.905,0.971-2.664,3.302-1.693,5.208C259.938,118.46,262.271,119.221,264.177,118.248"/>
	<path display="inline" fill="#A9526F" d="M275.365,114.864c1.703-0.868,2.38-2.954,1.513-4.656s-2.952-2.38-4.655-1.513
		c-1.703,0.868-2.38,2.952-1.512,4.656C271.579,115.054,273.662,115.73,275.365,114.864"/>
	<path display="inline" fill="#77579C" d="M180.283,210.986c2.246-0.315,3.81-2.396,3.496-4.639
		c-0.317-2.246-2.393-3.812-4.639-3.494c-2.245,0.312-3.808,2.392-3.493,4.638C175.962,209.736,178.038,211.3,180.283,210.986"/>
	<path display="inline" fill="#77579C" d="M279.338,99.146c1.938-0.1,3.426-1.754,3.324-3.692s-1.756-3.428-3.693-3.326
		c-1.937,0.102-3.426,1.756-3.324,3.693C275.746,97.76,277.398,99.248,279.338,99.146"/>
	<path display="inline" fill="#3D80B0" d="M262.652,90.337c1.923-0.271,3.262-2.048,2.99-3.97c-0.271-1.922-2.045-3.261-3.974-2.991
		c-1.922,0.271-3.261,2.046-2.985,3.97C258.956,89.268,260.73,90.608,262.652,90.337"/>
	<path display="inline" fill="#9FC698" d="M248.527,81.938c1.923-0.271,3.261-2.048,2.992-3.969c-0.271-1.922-2.047-3.26-3.977-2.99
		c-1.919,0.271-3.262,2.046-2.984,3.969C244.829,80.869,246.605,82.208,248.527,81.938"/>
	<path display="inline" fill="#A9526F" d="M194.723,213.398c1.687-1.145,2.133-3.435,0.993-5.117
		c-1.138-1.688-3.429-2.133-5.115-0.994c-1.688,1.138-2.133,3.429-0.995,5.115C190.744,214.09,193.035,214.534,194.723,213.398"/>
	<path display="inline" fill="#C32782" d="M227.908,195.486c1.791-1.207,2.265-3.641,1.057-5.432s-3.641-2.27-5.432-1.061
		c-1.792,1.209-2.264,3.646-1.057,5.438C223.688,196.221,226.118,196.693,227.908,195.486"/>
	<path display="inline" fill="#9FC698" d="M212.49,203.691c1.134,1.744,3.464,2.238,5.207,1.104c1.745-1.13,2.241-3.461,1.108-5.207
		c-1.133-1.738-3.465-2.236-5.207-1.104C211.854,199.615,211.357,201.945,212.49,203.691"/>
</g>
<g id="Calque_3" display="none">
	<path display="inline" fill="#E8AD30" d="M182.224,141.459c-0.439,1.422-2.928,1.305-1.306-0.327
		c1.167-1.203,1.756-2.819,3.593-2.846C184.031,139.479,183.169,140.679,182.224,141.459 M186.016,136.427
		c-6.836-1.507-5.696,8.389-11.512,8.476c-0.05,1.802,2.037,0.622,2.618,1.032c0.151,2.486-1.338,5.379,1.14,7.181
		c4.376,0.854,6.33-4.265,8.43-7.09c-2.459,1.949-4.443,4.926-7.34,5.811c-4.934-7.469,5.902-7.323,6.691-13.572
		C186.458,137.837,186.442,136.88,186.016,136.427 M171.455,140.545c-2.084,1.448-10.559,13.438-6.923,3.051
		c1.809-1.979,3.372-5.027,6.908-4.007C172.132,139.808,171.449,140.239,171.455,140.545 M168.887,137.789
		c-3.778,0.821-6.09,4.912-6.575,8.365c0.436,0.988-1.053,3.806,1.36,3.923c3.11-1.806,4.906-4.704,7.328-6.577
		c-2.268,7.115-4.644,14.766-11.889,19.238c-2.358,0.99-4.635-0.162-6.196-2.168c-1.867-2.078-1.138-4.539,0.134-6.473
		c-0.955,0.016-1.473,1.209-2.231,1.867c-0.385,2.229,0.416,4.701,2.354,6.396c1.556,1.625,4.008,1.854,5.957,1.636
		c8.892-4.418,10.966-14.362,14.446-22.375C177.26,137.015,171.422,138.288,168.887,137.789 M156.703,139.538
		c-2.834,2.492-5.583,5.709-8.881,7.862c0.458-2.763,2.369-5.585,4.755-7.267C153.832,139.581,156.486,137.819,156.703,139.538
		 M147.418,143.311c-0.464,2.265-2.184,5.009-1.159,7.06c3.842-1.663,6.575-5.799,9.984-8.223c-0.379,2.799-1.212,6.026-1.165,9.357
		c0.547,0.644,1.32,1.165,2.312,0.961c0.833-0.663,3.072-1.997,2.476-3.404c-1.376,0.019-1.775,1.556-3.003,1.345
		c-0.663-3.435,0.673-6.173,1.626-9.058c0.094-1.495,2.43-1.453,1.559-3.354C155.956,135.682,149.797,138.451,147.418,143.311
		 M136.918,137.264c2.532,5.666-3.431,8.778-1.63,14.034c0.422,0.106,0.837-0.243,1.074,0.179c2.329-3.061,1.062-8.516,6.085-10.427
		c2.227-2.179,1.634,1.812,3.542,1.286c0.136-1.112-0.108-2.103-0.732-2.822c-2.621-1.262-4.534,1.483-6.44,1.932
		C138.031,140.157,139.516,136.882,136.918,137.264 M130.764,137.814c-2.083,4.126-6.161,7.977-9.989,10.483
		c0.3-2.992,0.246-6.588,0.977-9.048c-2.781,0.999-2.092,6.155-2.47,9.071c0.016,1.071-0.298,3.143,1.531,2.579
		c2.99-2.337,5.195-5.813,8.183-8.389c0.135,1.376-0.178,3.524,0.267,5.126c0.251,1.527,2.112,3.107,3.704,1.974
		c1.103-0.438,2.778-1.074,2.755-2.606c-1.369,0.556-2.569,2.335-4.381,1.366c-1.887-3.339,0.128-6.892,0.193-10.337
		C131.076,138.27,131.065,137.619,130.764,137.814 M113.435,135.926c-3.583,1.009-2.924,6.856-7.915,5.819
		c0.044,3.023,2.25-0.569,3.65,0.904c-1.229,2.275-0.529,5.71-0.724,8.085c0.175,1.414,0.699,3.244,2.231,3.3
		c0.921,0.215,2.012-1.181,1.233-2.05c-0.849-0.407-0.335,0.656-1.063,0.554c-1.849-3.304-1.176-7.065,0.076-10.337
		c3.442-0.243,6.764-0.75,9.889-1.753c0.072-0.347,0.406-1.001-0.019-1.263c-3.124,0.964-6.141,1.468-9.054,1.165
		c-0.018-1.185,0.617-2.267,1.489-2.891C113.297,137,114.17,136.45,113.435,135.926 M103.887,129.597
		c-0.714,0.853,0.791,1.712,0.916,2.361c0.068-0.538,0.639-0.853,0.397-1.614C104.773,130.122,104.649,129.356,103.887,129.597
		 M100.488,137.955c-0.574,5.174-4.289,10.283-1.417,15.521c5.101,0.649,6.821-4.657,8.953-8.13
		c-2.925,1.65-4.051,5.802-7.324,6.998c-2.461-3.41-0.271-8.035,0.786-11.61C101.552,139.967,102.62,137.157,100.488,137.955
		 M92.779,144.651c0.539,2.787-0.463,4.983-1.925,7.035c-1.574-2.926-1.646-7.747-0.158-10.679
		C92.799,140.9,92.338,143.356,92.779,144.651 M90.436,138.982c-3.098,2.725-2.62,6.583-2.216,10.559
		c0.446,1.832,1.56,4.648,3.915,3.387c2.438-3.327,2.076-7.188,1.863-11.203c1.495,0.055,3.258,0.334,4.833-1.947
		C95.403,140.9,93.367,140.432,90.436,138.982 M85.252,137.796c-1.968,4.163-3.3,9.809-7.047,12.772
		c-0.056-3.864-0.292-6.885,0.074-10.646c-0.349-0.224-0.362-1.104-1.083-0.749c-1.239,4.305,0.025,9.57-0.213,14.204
		c0.421-0.005,0.841-0.012,1.264-0.021c4.234-3.583,5.139-9.645,8.303-13.25C86.118,139.39,86.399,137.779,85.252,137.796
		 M71.271,144.968c0.539,2.787-0.463,4.982-1.925,7.034c-1.574-2.926-1.646-7.747-0.158-10.678
		C71.292,141.217,70.832,143.673,71.271,144.968 M68.93,139.299c-3.099,2.725-2.622,6.584-2.218,10.558
		c0.449,1.831,1.56,4.648,3.916,3.389c2.44-3.329,2.075-7.189,1.864-11.206c1.493,0.055,3.259,0.334,4.834-1.947
		C73.896,141.216,71.859,140.75,68.93,139.299 M60.774,139.151c-5.555,2.378-6.231,8.398-7.537,13.279
		c1.814,1.045,3.976-0.287,5.884-0.854c2.153-1.869,6.109-3.534,6.067-6.327c-2.981,2.837-6.386,5.604-10.252,5.663
		c0.899-4.033,2.626-8.882,6.815-10.436c1.64-0.445,2.668,4.438,2.609,0.459C63.991,139.257,62.301,138.938,60.774,139.151"/>
	<path display="inline" fill="#82B951" d="M350.201-127.39c-0.395,1.292-2.654,1.198-1.188-0.292c1.053-1.097,1.582-2.567,3.25-2.6
		C351.834-129.195,351.055-128.103,350.201-127.39 M353.623-131.977c-6.213-1.34-5.139,7.643-10.419,7.744
		c-0.04,1.635,1.853,0.556,2.381,0.928c0.147,2.256-1.192,4.889,1.063,6.515c3.978,0.759,5.729-3.9,7.629-6.474
		c-2.229,1.782-4.021,4.492-6.646,5.308c-4.509-6.763,5.329-6.673,6.021-12.353C354.029-130.697,354.012-131.567,353.623-131.977
		 M340.416-128.177c-1.887,1.323-9.533,12.246-6.271,2.797c1.635-1.804,3.041-4.576,6.256-3.665
		C341.029-128.849,340.412-128.454,340.416-128.177 M338.075-130.669c-3.429,0.761-5.511,4.487-5.938,7.624
		c0.399,0.896-0.941,3.459,1.25,3.556c2.818-1.653,4.438-4.291,6.629-6.002c-2.031,6.471-4.158,13.43-10.719,17.518
		c-2.139,0.911-4.208-0.127-5.634-1.942c-1.704-1.878-1.054-4.117,0.096-5.878c-0.868,0.018-1.336,1.104-2.018,1.708
		c-0.345,2.023,0.394,4.268,2.161,5.799c1.418,1.468,3.646,1.668,5.416,1.461c8.059-4.048,9.896-13.088,13.027-20.378
		C345.673-131.407,340.377-130.227,338.075-130.669 M327.018-129.032c-2.562,2.274-5.045,5.207-8.031,7.177
		c0.402-2.51,2.13-5.081,4.287-6.617C324.41-128.982,326.812-130.592,327.018-129.032 M318.602-125.568
		c-0.412,2.059-1.963,4.557-1.021,6.416c3.479-1.528,5.944-5.294,9.03-7.508c-0.334,2.544-1.073,5.479-1.02,8.502
		c0.498,0.582,1.202,1.054,2.104,0.863c0.756-0.606,2.779-1.827,2.234-3.102c-1.252,0.023-1.604,1.42-2.723,1.233
		c-0.616-3.118,0.588-5.608,1.441-8.231c0.076-1.357,2.197-1.329,1.396-3.051C326.324-132.53,320.741-129.989,318.602-125.568
		 M312-132.603c-3.25,0.931-2.626,6.238-7.162,5.317c0.053,2.746,2.041-0.526,3.316,0.807c-1.106,2.071-0.456,5.188-0.623,7.346
		c0.162,1.283,0.646,2.942,2.039,2.985c0.838,0.192,1.82-1.078,1.111-1.864c-0.772-0.368-0.307,0.598-0.968,0.505
		c-1.688-2.992-1.096-6.41,0.028-9.387c3.124-0.234,6.141-0.709,8.973-1.631c0.062-0.315,0.365-0.912-0.021-1.147
		c-2.832,0.888-5.568,1.358-8.217,1.096c-0.021-1.077,0.551-2.061,1.34-2.633C311.881-131.627,312.67-132.128,312-132.603
		 M297.783-130.8c2.322,5.135-3.081,7.985-1.426,12.751c0.386,0.097,0.762-0.224,0.978,0.154c2.101-2.787,0.931-7.735,5.485-9.491
		c2.013-1.986,1.49,1.64,3.22,1.155c0.119-1.012-0.106-1.91-0.677-2.56c-2.385-1.137-4.109,1.366-5.84,1.78
		C298.809-128.178,300.141-131.158,297.783-130.8 M291.189-128.344c-2.562,2.273-5.045,5.207-8.03,7.176
		c0.403-2.511,2.127-5.082,4.289-6.619C288.585-128.295,290.986-129.905,291.189-128.344 M282.775-124.88
		c-0.412,2.059-1.965,4.557-1.025,6.417c3.48-1.528,5.948-5.294,9.034-7.509c-0.333,2.545-1.076,5.478-1.019,8.501
		c0.493,0.583,1.199,1.056,2.103,0.864c0.753-0.605,2.778-1.826,2.233-3.102c-1.25,0.023-1.605,1.42-2.726,1.233
		c-0.617-3.115,0.589-5.608,1.438-8.231c0.08-1.357,2.201-1.329,1.401-3.051C290.498-131.842,284.915-129.301,282.775-124.88
		 M277.646-124.087c-0.832,1.999-3.258,4.166-4.408,5.786c-0.202-1.455,0.24-3.653,0.419-5.396c1.503-1.281,2.678-3.598,4.582-3.912
		C278.473-126.258,277.902-125.169,277.646-124.087 M273.491-132.21c-0.337,2.37-1.128,4.61-1.08,7.077
		c-0.238,0.283-0.444,0.461-0.646,0.778c-0.473,0.912-1.896,2.607,0.062,3.231c-0.69,5.61-3.033,10.418-4.007,15.825
		c0.109,0.309,0.717,1.133,1.021,0.675c0.896-4.049,2.554-8.288,3.726-12.517c0.221,0.517,0.832-0.016,0.912,0.503
		c3.237-3.329,6.998-6.705,6.416-11.698c-1.729-3.27-4.078,1.259-5.851,1.292c-0.007-0.277-0.188-0.796,0.19-0.872
		C273.998-129.37,275.785-132.255,273.491-132.21 M266.869-124.088c0.501,2.527-0.4,4.527-1.721,6.395
		c-1.44-2.65-1.525-7.028-0.188-9.696C266.872-127.495,266.466-125.262,266.869-124.088 M264.719-129.226
		c-2.803,2.487-2.352,5.989-1.969,9.598c0.412,1.66,1.436,4.213,3.568,3.06c2.201-3.032,1.854-6.536,1.646-10.183
		c1.356,0.043,2.962,0.291,4.382-1.788C269.236-127.506,267.387-127.922,264.719-129.226 M256.75-131.542
		c-3.25,0.932-2.628,6.239-7.164,5.317c0.053,2.745,2.041-0.526,3.318,0.806c-1.107,2.072-0.457,5.189-0.623,7.346
		c0.162,1.283,0.646,2.943,2.037,2.986c0.838,0.193,1.822-1.078,1.111-1.863c-0.771-0.368-0.304,0.596-0.967,0.504
		c-1.688-2.993-1.096-6.411,0.029-9.388c3.123-0.232,6.139-0.708,8.971-1.632c0.062-0.313,0.365-0.91-0.021-1.146
		c-2.834,0.888-5.568,1.358-8.219,1.096c-0.021-1.077,0.551-2.061,1.34-2.632C256.629-130.566,257.418-131.068,256.75-131.542
		 M247.057-129.409c-1.873,3.755-5.562,7.268-9.027,9.56c0.264-2.717,0.197-5.983,0.853-8.221c-2.521,0.918-1.873,5.598-2.205,8.247
		c0.021,0.973-0.258,2.855,1.4,2.337c2.702-2.138,4.692-5.305,7.396-7.651c0.129,1.249-0.146,3.202,0.264,4.653
		c0.234,1.387,1.933,2.813,3.371,1.778c1-0.401,2.521-0.988,2.492-2.377c-1.242,0.511-2.322,2.13-3.976,1.258
		c-1.728-3.026,0.088-6.258,0.133-9.389C247.343-128.998,247.332-129.588,247.057-129.409 M231.874-127.206
		c-2.563,2.274-5.046,5.208-8.031,7.177c0.403-2.511,2.126-5.082,4.287-6.619C229.268-127.156,231.67-128.766,231.874-127.206
		 M223.457-123.742c-0.411,2.059-1.962,4.557-1.023,6.416c3.48-1.527,5.947-5.294,9.033-7.509c-0.334,2.545-1.076,5.479-1.019,8.502
		c0.497,0.583,1.202,1.056,2.103,0.864c0.754-0.605,2.78-1.826,2.235-3.102c-1.252,0.023-1.606,1.42-2.724,1.234
		c-0.615-3.118,0.588-5.608,1.438-8.232c0.078-1.356,2.2-1.328,1.398-3.051C231.182-130.703,225.598-128.162,223.457-123.742"/>
	<path display="inline" fill="#9EC997" d="M179.445-80.017c-1.718,0.63-6.858,8.47-4.541,2.126c0.657-1.45,2.289-3.342,3.939-3.586
		C180.819-82.04,180.387-80.752,179.445-80.017 M183.739-91.094c-0.733,2.739-1.178,5.643-2.427,8.088
		c-1.908,0.178-3.816,0.323-5.312,1.506c-2.022,2.308-4.025,5.975-2.855,9.055c2.076-0.919,3.717-4.04,6.285-5.762
		c-0.211,1.969-0.387,3.745-0.665,6.068c3.523-0.228,6.914-3.851,9.041-6.933c-2.558,0.625-4.041,4.068-6.86,4.981
		c-1.904-0.209,0.025-3.005,0.038-4.556c2.74-3.078,1.804-6.995,3.644-10.437C184.793-89.729,185.295-91.695,183.739-91.094
		 M168.821-80.657c-0.398,1.192-2.497,1.045-1.095-0.3c1.01-0.993,1.538-2.345,3.089-2.332
		C170.386-82.292,169.634-81.296,168.821-80.657 M172.12-84.829c-5.738-1.406-4.97,6.969-9.881,6.926
		c-0.076,1.518,1.708,0.564,2.189,0.923c0.08,2.101-1.232,4.513,0.82,6.081c3.677,0.806,5.426-3.476,7.256-5.818
		c-2.115,1.598-3.847,4.07-6.311,4.76c-4.015-6.399,5.125-6.062,5.914-11.322C172.466-83.63,172.472-84.438,172.12-84.829
		 M161.485-91.705c-0.62,0.706,0.634,1.459,0.726,2.01c0.067-0.452,0.554-0.707,0.366-1.354
		C162.224-91.246,162.131-91.892,161.485-91.705 M158.453-84.72c-0.586,4.357-3.822,8.594-1.5,13.072
		c4.292,0.65,5.847-3.794,7.715-6.686c-2.5,1.335-3.532,4.815-6.318,5.761c-2.01-2.925-0.071-6.785,0.891-9.782
		C159.31-82.999,160.267-85.35,158.453-84.72 M151.781-79.025c-0.823,1.835-3.134,3.785-4.245,5.263
		c-0.15-1.359,0.32-3.39,0.527-5.003c1.432-1.152,2.581-3.274,4.359-3.517C152.606-81.022,152.048-80.024,151.781-79.025
		 M148.131-86.681c-0.375,2.193-1.167,4.255-1.187,6.548c-0.228,0.257-0.424,0.417-0.621,0.706
		c-0.458,0.836-1.829,2.375-0.025,3.004c-0.788,5.195-3.086,9.602-4.13,14.601c0.094,0.292,0.636,1.072,0.93,0.654
		c0.937-3.741,2.586-7.636,3.782-11.534c0.19,0.485,0.775,0.005,0.836,0.492c3.096-3.011,6.675-6.05,6.263-10.706
		c-1.525-3.083-3.821,1.066-5.47,1.052c0.003-0.259-0.155-0.745,0.201-0.806C148.528-84.029,150.263-86.663,148.131-86.681
		 M128.522-94.603c0.688,2.72,2.433,6.322,5.299,7.638c-1.142-2.562-3.248-5.423-4.588-7.632
		C129.007-94.599,128.684-94.602,128.522-94.603 M131.879-82.911c-2.44,2.047-4.821,4.708-7.647,6.46
		c0.44-2.321,2.107-4.666,4.155-6.038C129.457-82.931,131.73-84.366,131.879-82.911 M123.97-79.908
		c-0.436,1.902-1.942,4.184-1.117,5.935c3.276-1.329,5.663-4.766,8.587-6.744c-0.375,2.356-1.142,5.063-1.165,7.874
		c0.447,0.552,1.089,1.01,1.931,0.856c0.714-0.542,2.63-1.625,2.157-2.824c-1.164-0.01-1.53,1.279-2.562,1.077
		c-0.492-2.912,0.691-5.196,1.552-7.612c0.107-1.259,2.078-1.178,1.379-2.799C131.326-86.179,126.073-83.962,123.97-79.908
		 M109.508-81.163c-0.398,1.192-2.496,1.045-1.096-0.3c1.01-0.994,1.538-2.345,3.09-2.333
		C111.072-82.797,110.321-81.802,109.508-81.163 M112.806-85.335c-5.738-1.406-4.97,6.969-9.881,6.927
		c-0.076,1.519,1.708,0.565,2.189,0.924c0.08,2.1-1.234,4.511,0.82,6.081c3.676,0.807,5.426-3.477,7.256-5.819
		c-2.115,1.597-3.847,4.07-6.31,4.761c-4.015-6.4,5.125-6.062,5.913-11.323C113.152-84.137,113.159-84.945,112.806-85.335
		 M98.33-96.443c-2.07,7.8-4.882,15.595-6.306,23.5c0.481,0.423,1.13,0.008,1.555-0.472c1.127-3.416,3.42-7.047,6.183-9.123
		c-0.567,2.095,0.058,4.491-0.054,6.396c0.349,0.778,0.791,1.978,2.184,1.537c1.887-1.438,3.649-3.523,4.117-5.393
		c-1.372,1.765-2.868,3.045-4.751,4.03c-1.014-2.205,0.043-4.911,0.06-6.979c-0.285-0.646-0.173-2.263-1.535-1.757
		c-1.666,2.086-3.593,4.493-5.354,6.48c1.077-4.901,2.478-10.156,4.328-14.954C98.602-94.244,100.169-96.137,98.33-96.443
		 M87.86-84.804c-4.733,1.898-5.423,6.964-6.62,11.057c1.51,0.917,3.36-0.165,4.98-0.604c1.854-1.535,5.226-2.864,5.247-5.221
		c-2.573,2.336-5.5,4.605-8.763,4.578c0.837-3.386,2.391-7.443,5.955-8.673c1.392-0.343,2.164,3.799,2.192,0.44
		C90.573-84.652,89.153-84.955,87.86-84.804 M74.587-85.564c2.027,4.832-3.066,7.34-1.651,11.811c0.354,0.1,0.712-0.188,0.903,0.169
		c2.025-2.535,1.062-7.163,5.34-8.678c1.921-1.792,1.344,1.562,2.963,1.157c0.137-0.936-0.051-1.777-0.562-2.396
		c-2.187-1.117-3.854,1.162-5.473,1.504C75.472-83.101,76.787-85.836,74.587-85.564 M68.4-83.452
		c-2.441,2.047-4.822,4.708-7.648,6.461c0.44-2.322,2.107-4.666,4.154-6.039C65.976-83.472,68.25-84.907,68.4-83.452 M60.491-80.45
		c-0.437,1.902-1.943,4.183-1.116,5.935c3.272-1.329,5.662-4.765,8.586-6.744c-0.375,2.356-1.142,5.062-1.166,7.874
		c0.448,0.553,1.09,1.011,1.931,0.854c0.715-0.543,2.631-1.625,2.155-2.825c-1.162-0.01-1.529,1.28-2.561,1.076
		c-0.492-2.912,0.691-5.195,1.55-7.611c0.109-1.26,2.079-1.177,1.382-2.799C67.846-86.72,62.592-84.503,60.491-80.45 M42.608-86.128
		c-0.288-0.357-0.277-1.618-1.124-0.785c-0.099,3.974-1.485,7.516-2.229,11.321c-0.296,0.644-0.801,2.998,1.048,2.207
		c1.682-4.089,3.459-7.886,7.102-10.666c0.681,3.431-1.257,7.096-1.929,10.225c2.199-0.143,2.383-3.049,3.786-4.588
		c1.663-1.633,2.686-4.306,4.857-4.934c0.781,3.077,0.306,5.818,2.578,8.261c1.161,0.301,2.072-0.337,2.79-1.236
		c0.491-0.739,2.121-2.34,0.926-2.351c-0.432,1.256-1.925,2.181-3.091,2.527c-2.241-2.411-0.852-6.179-2.736-8.747
		c-2.621,0.494-4.132,3.39-5.957,5.215c-0.187-1.003,0.309-2.193,0.479-3.291c-0.282-0.971-0.267-2.684-1.69-2.631
		c-2.018,1.695-4.498,4.679-5.998,6.282C41.859-81.579,42.491-83.932,42.608-86.128"/>
	<path display="inline" fill="#C90087" d="M255.949-84.92c-2.576,0.592-2.862,3.382-3.102,5.554
		c-1.291,5.691,4.598,12.042-1.682,14.677c-1.036-0.351-2.745-1.007-2.758-2.402c-1.702,0.171-0.396,1.604-0.705,2.072
		c1.5,0.348,2.914,2.556,5.277,1.657c6.889-3.984-0.258-11.667,1.859-17.727c0.439-2.586,4.066-1.378,4.151-3.29
		C258.682-85.511,256.982-84.722,255.949-84.92 M243.979-84.247c-2.845,5.55-8.375,10.71-13.562,14.06
		c0.431-4.031,0.388-8.884,1.39-12.197c-3.757,1.324-2.869,8.287-3.402,12.215c0.017,1.446-0.428,4.239,2.047,3.493
		c4.053-3.133,7.059-7.806,11.104-11.25c0.172,1.857-0.27,4.752,0.318,6.917c0.328,2.062,2.825,4.208,4.98,2.693
		c1.487-0.581,3.756-1.429,3.734-3.492c-1.854,0.738-3.48,3.128-5.922,1.807c-2.521-4.521,0.229-9.296,0.344-13.944
		C244.396-83.631,244.389-84.508,243.979-84.247 M220.865-76.092c-0.375,4.341-2.365,7.042-6.266,9.659
		c-0.258,0.002-0.468-0.256-0.727-0.356c-0.157-6.091,1.147-10.389,3.478-15.52C220.964-82.495,220.225-78.462,220.865-76.092
		 M223.057-102.96c-3.957,13.976-11.868,24.372-11.267,40.011c5.209-0.717,7.969-3.839,10.149-8.247
		c2.396-3.222-2.586-12.318,4.088-10.931c1.135-0.113,3.451-0.857,2.713-2.761c-0.883-0.301-1.442,0.478-2.008,0.742
		c-2.938,0.438-7.117,0.94-8.435-1.683c2.028-4.2,3.229-8.702,5.104-12.953C223.855-99.921,225.688-103.086,223.057-102.96"/>
	<path display="inline" fill="#3B7FAE" d="M403.266,173.566c-3.104,0.889-2.515,5.961-6.851,5.076
		c0.049,2.623,1.951-0.502,3.171,0.771c-1.059,1.979-0.439,4.958-0.602,7.021c0.156,1.229,0.617,2.812,1.947,2.854
		c0.801,0.187,1.737-1.03,1.062-1.78c-0.736-0.352-0.288,0.57-0.921,0.48c-1.613-2.859-1.045-6.124,0.033-8.971
		c2.981-0.224,5.867-0.675,8.574-1.555c0.062-0.301,0.35-0.87-0.021-1.096c-2.709,0.846-5.324,1.294-7.854,1.041
		c-0.021-1.029,0.525-1.971,1.279-2.518C403.148,174.5,403.904,174.02,403.266,173.566 M387.201,176.157
		c-0.107-0.497-0.532-0.091-0.674-0.486c-1.691,3.685-1.705,8.368-3.125,12.415c0.271,0.393,0.736,0.186,1.104,0.443
		c1.527-3.648,3.717-7.541,7.223-10.031c0.518,2.613,0.084,4.449,0.604,7.363c0.026,1.494,1.938,2.225,3.218,1.535
		c1.842-1.131,3.285-3.781,3.919-5.488c-1.503,1.357-3.409,4.184-5.534,4.222c-1.812-2.755,0.443-6.452-1.269-9.243
		c-2.438,0.908-4.767,2.979-6.013,5.562c-0.303-0.194-0.452,0.537-0.661,0.011C386.447,180.291,386.775,178.225,387.201,176.157
		C386.447,180.291,386.775,178.225,387.201,176.157 M379.229,179.693c-0.375,1.236-2.535,1.144-1.135-0.278
		c1.012-1.048,1.516-2.454,3.11-2.483C380.791,177.971,380.046,179.014,379.229,179.693 M382.503,175.312
		c-5.938-1.283-4.914,7.301-9.962,7.395c-0.038,1.562,1.771,0.531,2.275,0.889c0.14,2.154-1.146,4.67,1.012,6.225
		c3.801,0.729,5.479-3.721,7.293-6.18c-2.128,1.7-3.839,4.289-6.35,5.066c-4.31-6.465,5.097-6.373,5.76-11.799
		C382.891,176.535,382.875,175.705,382.503,175.312 M356.697,175.593c-0.307-0.36-0.33-1.655-1.178-0.774
		c0.01,4.086-1.317,7.767-1.979,11.695c-0.287,0.67-0.74,3.104,1.142,2.238c1.611-4.25,3.336-8.202,7.002-11.16
		c0.795,3.508-1.097,7.33-1.699,10.562c2.256-0.207,2.367-3.199,3.767-4.818c1.661-1.727,2.64-4.502,4.853-5.207
		c0.892,3.139,0.479,5.971,2.881,8.418c1.199,0.275,2.119-0.404,2.83-1.348c0.484-0.773,2.115-2.463,0.889-2.441
		c-0.407,1.303-1.917,2.293-3.104,2.682c-2.367-2.414-1.05-6.322-3.057-8.912c-2.684,0.58-4.15,3.602-5.979,5.523
		c-0.217-1.025,0.258-2.262,0.4-3.395c-0.314-0.99-0.352-2.752-1.812-2.656c-2.023,1.798-4.49,4.932-5.987,6.621
		C356.053,180.289,356.641,177.852,356.697,175.593 M348.514,180.262c-0.377,1.236-2.539,1.146-1.135-0.277
		c1.01-1.049,1.516-2.45,3.107-2.479C350.075,178.538,349.33,179.582,348.514,180.262 M351.786,175.883
		c-5.937-1.285-4.913,7.299-9.961,7.393c-0.037,1.562,1.771,0.533,2.274,0.893c0.141,2.152-1.146,4.67,1.012,6.229
		c3.802,0.728,5.479-3.727,7.295-6.185c-2.129,1.7-3.842,4.289-6.352,5.063c-4.31-6.463,5.098-6.373,5.76-11.799
		C352.173,177.105,352.16,176.273,351.786,175.883 M332.909,177.162c-0.109-0.496-0.533-0.09-0.675-0.486
		c-1.691,3.686-1.705,8.371-3.125,12.416c0.271,0.395,0.731,0.186,1.104,0.445c1.527-3.648,3.714-7.544,7.223-10.033
		c0.517,2.613,0.084,4.448,0.604,7.363c0.026,1.494,1.937,2.224,3.217,1.535c1.843-1.133,3.285-3.781,3.919-5.486
		c-1.504,1.355-3.408,4.182-5.533,4.221c-1.812-2.757,0.441-6.453-1.271-9.246c-2.438,0.911-4.762,2.98-6.01,5.562
		c-0.305-0.195-0.453,0.539-0.664,0.013C332.154,181.296,332.48,179.229,332.909,177.162
		C332.154,181.296,332.48,179.229,332.909,177.162 M318.995,177.42c-0.108-0.496-0.534-0.09-0.673-0.486
		c-1.693,3.688-1.706,8.371-3.125,12.416c0.271,0.396,0.734,0.188,1.103,0.445c1.528-3.648,3.716-7.544,7.224-10.033
		c0.518,2.613,0.082,4.45,0.604,7.363c0.024,1.493,1.938,2.223,3.218,1.535c1.844-1.13,3.285-3.781,3.92-5.488
		c-1.505,1.357-3.41,4.184-5.533,4.223c-1.812-2.756,0.44-6.453-1.271-9.246c-2.438,0.91-4.764,2.98-6.011,5.562
		c-0.302-0.191-0.453,0.539-0.662,0.014C318.24,181.555,318.568,179.486,318.995,177.42
		C318.24,181.555,318.568,179.486,318.995,177.42 M311.816,182.57c0.476,2.414-0.387,4.324-1.648,6.109
		c-1.375-2.533-1.454-6.721-0.171-9.27C311.822,179.312,311.43,181.447,311.816,182.57 M309.766,177.658
		c-2.682,2.374-2.252,5.722-1.89,9.17c0.394,1.586,1.369,4.027,3.408,2.925c2.104-2.896,1.778-6.244,1.581-9.729
		c1.296,0.045,2.828,0.281,4.188-1.703C314.08,179.305,312.312,178.906,309.766,177.658 M304.604,169.781
		c-0.617,0.742,0.691,1.479,0.801,2.043c0.062-0.467,0.555-0.74,0.343-1.4C305.375,170.23,305.264,169.568,304.604,169.781
		 M301.682,177.042c-0.479,4.495-3.688,8.938-1.179,13.478c4.429,0.549,5.904-4.062,7.741-7.086
		c-2.531,1.441-3.494,5.047-6.332,6.096c-2.146-2.947-0.262-6.969,0.645-10.072C302.609,178.786,303.527,176.346,301.682,177.042
		 M293.583,175.6c-3.106,0.887-2.515,5.959-6.851,5.075c0.051,2.624,1.951-0.501,3.17,0.772c-1.062,1.979-0.438,4.957-0.603,7.02
		c0.156,1.227,0.616,2.812,1.946,2.854c0.801,0.188,1.74-1.025,1.062-1.775c-0.734-0.354-0.287,0.566-0.92,0.479
		c-1.615-2.856-1.046-6.125,0.03-8.969c2.986-0.222,5.867-0.674,8.575-1.554c0.062-0.301,0.352-0.871-0.021-1.096
		c-2.707,0.847-5.322,1.295-7.854,1.042c-0.021-1.029,0.525-1.971,1.281-2.518C293.467,176.529,294.223,176.052,293.583,175.6
		 M283.355,179.477c-2.451,2.17-4.823,4.976-7.682,6.854c0.391-2.397,2.036-4.854,4.104-6.32
		C280.867,179.521,283.163,177.982,283.355,179.477 M275.312,182.781c-0.396,1.965-1.879,4.352-0.982,6.129
		c3.327-1.455,5.686-5.055,8.637-7.168c-0.318,2.43-1.031,5.234-0.979,8.124c0.477,0.556,1.146,1.007,2.009,0.825
		c0.72-0.578,2.659-1.742,2.137-2.963c-1.194,0.021-1.534,1.354-2.602,1.176c-0.587-2.979,0.565-5.356,1.383-7.863
		c0.075-1.297,2.103-1.268,1.341-2.914C282.697,176.132,277.359,178.555,275.312,182.781 M269.01,176.053
		c-3.105,0.889-2.514,5.959-6.849,5.076c0.048,2.624,1.95-0.499,3.171,0.773c-1.061,1.979-0.439,4.957-0.602,7.02
		c0.151,1.227,0.615,2.814,1.942,2.855c0.806,0.184,1.742-1.029,1.062-1.781c-0.733-0.352-0.286,0.57-0.922,0.482
		c-1.61-2.859-1.043-6.129,0.033-8.973c2.984-0.223,5.868-0.676,8.575-1.555c0.062-0.305,0.351-0.871-0.021-1.1
		c-2.709,0.85-5.323,1.295-7.854,1.041c-0.021-1.025,0.527-1.969,1.282-2.516C268.895,176.984,269.648,176.506,269.01,176.053
		 M260.503,177.706c-1.653,0.397-1.819,2.192-1.959,3.59c-0.797,3.669,3.033,7.718-0.987,9.453c-0.67-0.22-1.771-0.631-1.789-1.528
		c-1.094,0.121-0.246,1.035-0.438,1.338c0.968,0.215,1.891,1.627,3.404,1.032c4.402-2.606-0.234-7.503,1.084-11.413
		c0.271-1.666,2.607-0.912,2.65-2.144C262.257,177.309,261.17,177.826,260.503,177.706"/>
	<path display="inline" fill="#D780AF" d="M354.246,78.272c-0.727,0.897,0.85,1.761,0.986,2.433c0.062-0.557,0.646-0.892,0.388-1.68
		C355.176,78.8,355.032,78.011,354.246,78.272 M350.859,86.994c-0.514,5.376-4.281,10.731-1.217,16.119
		c5.299,0.593,6.996-4.938,9.146-8.579c-3.004,1.761-4.104,6.082-7.479,7.376c-2.606-3.494-0.412-8.327,0.625-12.051
		C351.994,89.062,353.057,86.132,350.859,86.994 M346.723,85.451c-2.632,2.265-5.988,5.464-8.729,8.01
		c-0.893-0.569-0.376-1.894-0.525-2.883c-0.543-0.897-1.047-3.104-2.494-2.384c0.03,0.99,0.254,1.779,0.828,2.437
		c3.403,4.819-2.779,7.787-5.228,10.881c0.007,0.198,0.017,0.555,0.022,0.792c2.426,0.125,4.582-3.395,6.219-4.436
		c1.062,2.308,1.391,5.198,2.918,7.136c1.382-1.59-0.452-3.082-0.612-4.508c-3.783-6.833,4.997-9.325,8.438-13.679
		c-0.015-0.357-0.021-0.596-0.024-0.794C347.169,85.796,347.076,85.361,346.723,85.451 M326.654,90.232
		c-2.896,2.629-5.692,6.01-9.077,8.298c0.429-2.873,2.364-5.829,4.812-7.611C323.68,90.324,326.402,88.452,326.654,90.232
		 M317.092,94.297c-0.445,2.356-2.184,5.229-1.087,7.339c3.956-1.789,6.724-6.122,10.218-8.691c-0.349,2.91-1.158,6.269-1.055,9.722
		c0.577,0.656,1.389,1.188,2.413,0.958c0.853-0.701,3.149-2.12,2.512-3.571c-1.429,0.045-1.815,1.644-3.093,1.446
		c-0.744-3.55,0.6-6.412,1.539-9.419c0.07-1.551,2.493-1.545,1.562-3.503C325.818,86.248,319.479,89.22,317.092,94.297
		 M309.463,86.35c-3.699,1.104-2.919,7.157-8.111,6.163c0.101,3.134,2.324-0.627,3.801,0.876c-1.236,2.383-0.457,5.933-0.616,8.397
		c0.2,1.465,0.774,3.352,2.364,3.385c0.959,0.208,2.065-1.255,1.244-2.143c-0.885-0.41-0.338,0.685-1.094,0.588
		c-1.969-3.394-1.335-7.305-0.089-10.719c3.565-0.307,7.001-0.888,10.226-1.979c0.068-0.359,0.404-1.044-0.041-1.309
		c-3.224,1.052-6.342,1.624-9.365,1.358c-0.038-1.231,0.604-2.36,1.494-3.024C309.339,87.463,310.232,86.881,309.463,86.35"/>
	<path display="inline" fill="#76569E" d="M564.995-75.28c0.303,2.72-0.832,4.754-2.396,6.61c-1.281-2.932-0.979-7.573,0.682-10.275
		C565.308-78.885,564.674-76.559,564.995-75.28 M563.186-80.911c-3.188,2.378-3.027,6.125-2.949,9.978
		c0.285,1.794,1.139,4.588,3.5,3.559c2.604-3.009,2.556-6.747,2.66-10.625c1.436,0.169,3.106,0.576,4.8-1.496
		C567.81-78.683,565.889-79.29,563.186-80.911 M558.876-93.513c-1.715,8.616-5.211,17.299-4.963,25.86
		c3.518-0.063,4.812-4.009,6.846-6.207c-1.603,0.746-3.688,2.679-5.49,4.15c0.438-6.555,2.566-13.072,3.811-19.538
		C558.945-90.624,560.809-93.09,558.876-93.513 M555.222-90.241c-3.595,1.206-7.064,2.826-10.679,4.289
		c0.086,0.375-0.282,0.905,0.143,1.192c3.526-1.838,7.346-2.511,10.822-4.241c0.025-0.369,0.039-0.589,0.061-0.848
		C555.425-89.969,555.323-90.123,555.222-90.241 M547.179-78.27c-0.527,1.333-2.916,1.028-1.229-0.414
		c1.218-1.067,1.91-2.574,3.679-2.458C549.071-80.031,548.148-78.944,547.179-78.27 M551.216-82.812
		c-6.454-1.98-6.127,7.622-11.725,7.252c-0.188,1.727,1.91,0.755,2.437,1.197c-0.048,2.401-1.703,5.065,0.537,6.989
		c4.144,1.161,6.416-3.607,8.654-6.16c-2.516,1.683-4.653,4.391-7.508,5.016c-4.159-7.562,6.244-6.579,7.482-12.526
		C551.529-81.422,551.591-82.342,551.216-82.812 M539.622-83.688c-2.216,3.849-3.938,9.173-7.769,11.731
		c0.244-3.72,0.257-6.642,0.896-10.225c-0.315-0.242-0.261-1.089-0.981-0.804c-1.521,4.043-0.721,9.2-1.31,13.638
		c0.405,0.026,0.812,0.053,1.216,0.079c4.352-3.115,5.691-8.871,9.014-12.092C540.33-82.088,540.727-83.615,539.622-83.688"/>
	<path display="inline" fill="#2B56A2" d="M639.02-78.745c-0.104-0.53-0.562-0.111-0.7-0.535c-1.897,3.882-2.03,8.867-3.647,13.14
		c0.282,0.425,0.777,0.216,1.165,0.501c1.72-3.847,4.148-7.936,7.947-10.497c0.479,2.796-0.026,4.739,0.451,7.854
		c-0.013,1.593,2.004,2.416,3.386,1.718c1.988-1.156,3.596-3.943,4.312-5.743c-1.637,1.407-3.735,4.366-6.003,4.353
		c-1.854-2.98,0.644-6.857-1.108-9.875c-2.623,0.906-5.146,3.048-6.542,5.764c-0.316-0.214-0.497,0.563-0.707-0.003
		C638.111-74.364,638.512-76.556,639.02-78.745C638.111-74.364,638.512-76.556,639.02-78.745 M632.664-87.201
		c-0.676,0.775,0.699,1.597,0.801,2.2c0.074-0.496,0.606-0.776,0.397-1.485C633.475-86.7,633.372-87.408,632.664-87.201
		 M629.368-79.542c-0.629,4.771-4.156,9.421-1.604,14.316c4.7,0.699,6.395-4.173,8.427-7.347c-2.732,1.473-3.853,5.285-6.896,6.329
		c-2.21-3.195-0.1-7.429,0.943-10.712C630.312-77.662,631.351-80.238,629.368-79.542 M621.255-77.359
		c-2.665,2.25-5.264,5.17-8.351,7.1c0.472-2.544,2.291-5.118,4.524-6.624C618.602-77.373,621.087-78.951,621.255-77.359
		 M612.606-74.047c-0.476,2.084-2.113,4.588-1.204,6.503c3.58-1.466,6.184-5.236,9.38-7.413c-0.403,2.58-1.233,5.547-1.251,8.625
		c0.492,0.605,1.197,1.104,2.117,0.931c0.778-0.597,2.874-1.786,2.352-3.099c-1.271-0.008-1.67,1.404-2.801,1.188
		c-0.549-3.188,0.739-5.691,1.673-8.339c0.114-1.379,2.271-1.297,1.504-3.07C620.639-80.935,614.895-78.49,612.606-74.047
		 M603.018-79.831c2.233,5.283-3.335,8.047-1.77,12.936c0.387,0.11,0.779-0.207,0.989,0.183c2.208-2.782,1.14-7.846,5.815-9.519
		c2.102-1.969,1.479,1.707,3.246,1.257c0.147-1.026-0.06-1.945-0.623-2.621c-2.396-1.217-4.215,1.285-5.982,1.665
		C603.992-77.136,605.425-80.136,603.018-79.831 M595.775-81.427c-3.33,0.865-2.829,6.279-7.422,5.229
		c-0.02,2.794,2.09-0.484,3.354,0.904c-1.178,2.08-0.594,5.267-0.819,7.459c0.14,1.31,0.585,3.01,2,3.088
		c0.852,0.216,1.885-1.051,1.182-1.869c-0.776-0.394-0.321,0.601-0.993,0.491c-1.646-3.087-0.953-6.55,0.266-9.551
		c3.188-0.158,6.268-0.566,9.17-1.434c0.072-0.317,0.396-0.917,0.006-1.166c-2.901,0.833-5.697,1.24-8.389,0.908
		c0.006-1.097,0.613-2.084,1.43-2.646C595.628-80.438,596.443-80.928,595.775-81.427"/>
</g>
<path fill="#D39220" d="M189.457,166.123c0.076,2.354,1.668,4.479,4.07,5.084c2.902,0.729,5.846-1.03,6.575-3.936
	c0.73-2.898-1.029-5.848-3.929-6.58c-2.727-0.688-5.468,0.84-6.398,3.43C189.667,164.791,189.562,165.457,189.457,166.123z"/>
<path fill="#E6AD34" fill-opacity="0" d="M194.372,146.561c2.208-1.388,5.026-1.739,7.622-0.684
	c4.279,1.742,6.344,6.641,4.604,10.919c-1.741,4.279-6.639,6.345-10.919,4.604c-1.341-0.545-2.465-1.403-3.322-2.455
	c-0.079,0.506-0.157,1.011-0.236,1.515c0.867,0.854,1.91,1.562,3.107,2.05c4.891,1.989,10.488-0.371,12.478-5.262
	c1.99-4.893-0.371-10.489-5.261-12.478c-2.619-1.066-5.436-0.875-7.797,0.275C194.556,145.55,194.462,146.055,194.372,146.561z"/>
<path fill="#C32782" fill-opacity="0" d="M300.312,111.896c0.545-0.418,1.013-0.897,1.418-1.415
	c-0.156-0.258-0.316-0.514-0.475-0.772c-0.398,0.56-0.889,1.072-1.463,1.513c-3.157,2.424-7.695,1.827-10.121-1.33
	c-2.424-3.157-1.824-7.696,1.33-10.121c1.157-0.889,2.502-1.368,3.857-1.467c-0.143-0.269-0.28-0.538-0.424-0.806
	c-1.395,0.164-2.763,0.685-3.953,1.6c-3.526,2.708-4.193,7.783-1.484,11.311C291.708,113.938,296.784,114.604,300.312,111.896z"/>
<path fill="#3D80B0" d="M253.339,170.144c2.314,1.442,5.36,0.731,6.806-1.583c1.442-2.318,0.733-5.363-1.584-6.807
	c-2.315-1.44-5.362-0.734-6.806,1.585C250.312,165.652,251.023,168.703,253.339,170.144"/>
<path fill="#3D80B0" fill-opacity="0" d="M252.395,178.341c0.15-0.19,0.31-0.383,0.457-0.577c-1.845,0.491-3.873,0.268-5.617-0.82
	c-3.346-2.084-4.375-6.5-2.291-9.848s6.5-4.375,9.851-2.291c1.938,1.206,3.073,3.2,3.299,5.312c0.312-0.508,0.613-1.018,0.917-1.529
	c-0.544-1.921-1.761-3.656-3.586-4.794c-3.902-2.43-9.062-1.229-11.488,2.674c-2.431,3.904-1.229,9.06,2.674,11.489
	c1.519,0.943,3.224,1.333,4.885,1.234C251.791,178.909,252.093,178.625,252.395,178.341z"/>
<path fill="#C32782" d="M293.16,109.161c2.082,1.296,4.82,0.657,6.117-1.423c1.297-2.084,0.658-4.821-1.424-6.118
	c-2.082-1.294-4.819-0.66-6.117,1.425C290.439,105.124,291.079,107.866,293.16,109.161"/>
<path fill="#669E38" d="M232.14,76.042c2.082,1.296,4.82,0.657,6.117-1.423c1.297-2.084,0.658-4.821-1.424-6.118
	c-2.082-1.294-4.819-0.66-6.117,1.425C229.419,72.004,230.059,74.747,232.14,76.042"/>
</svg>
