<?xml version="1.0" encoding="utf-8"?>
<!-- Generator: Adobe Illustrator 16.0.4, SVG Export Plug-In . SVG Version: 6.00 Build 0)  -->
<!DOCTYPE svg PUBLIC "-//W3C//DTD SVG 1.1//EN" "http://www.w3.org/Graphics/SVG/1.1/DTD/svg11.dtd">
<svg version="1.1" id="Calque_1" xmlns="http://www.w3.org/2000/svg" xmlns:xlink="http://www.w3.org/1999/xlink" x="0px" y="0px"
	 width="435px" height="300px" viewBox="0 0 435 300" enable-background="new 0 0 435 300" xml:space="preserve">
<g id="Calque_1_1_" display="none">
	<path display="inline" fill="#77579C" d="M200.409,93.543c3.058-0.43,5.186-3.257,4.757-6.312c-0.43-3.058-3.257-5.188-6.313-4.758
		c-3.056,0.429-5.187,3.257-4.755,6.313C194.527,91.844,197.351,93.974,200.409,93.543"/>
	<path display="inline" fill="#77579C" d="M300.076,215.477c2.477-0.346,4.203-2.635,3.854-5.113
		c-0.35-2.475-2.638-4.192-5.113-3.854c-2.478,0.348-4.194,2.639-3.854,5.114C295.312,214.098,297.6,215.824,300.076,215.477"/>
	<path display="inline" fill="#E6AD34" d="M286.904,218.723c2.478-0.348,4.203-2.638,3.854-5.113
		c-0.347-2.476-2.635-4.194-5.113-3.854c-2.476,0.35-4.201,2.639-3.854,5.112C282.141,217.344,284.43,219.07,286.904,218.723"/>
	<path display="inline" fill="#77579C" d="M122.639,219.82c3.288-0.461,5.58-3.502,5.117-6.791
		c-0.462-3.286-3.502-5.579-6.791-5.116c-3.287,0.461-5.579,3.502-5.117,6.791C116.311,217.991,119.352,220.283,122.639,219.82"/>
	<path display="inline" fill="#77579C" d="M329.001,145.979c2.156-0.304,3.661-2.299,3.356-4.458
		c-0.312-2.158-2.299-3.659-4.455-3.357c-2.157,0.302-3.661,2.3-3.358,4.456C324.85,144.778,326.843,146.28,329.001,145.979"/>
	<path display="inline" fill="#E6AD34" d="M140.391,111.216c3.143,0,5.69-2.549,5.69-5.689c0-3.141-2.547-5.688-5.69-5.688
		c-3.141,0-5.688,2.548-5.688,5.688C134.703,108.667,137.25,111.216,140.391,111.216"/>
	<path display="inline" fill="#E6AD34" d="M240.802,137.936c2.898,0,5.248-2.35,5.248-5.25c0-2.898-2.35-5.25-5.248-5.25
		c-2.897,0-5.249,2.352-5.249,5.25C235.553,135.585,237.902,137.936,240.802,137.936"/>
	<path display="inline" fill="#E6AD34" d="M246.229,204.365c2.313,0,4.188-1.877,4.188-4.188c0-2.311-1.874-4.187-4.188-4.187
		c-2.312,0-4.187,1.873-4.187,4.187C242.042,202.491,243.918,204.365,246.229,204.365"/>
	<path display="inline" fill="#E6AD34" d="M145.79,216.146c2.851,0,5.163-2.312,5.163-5.164c0-2.854-2.312-5.164-5.163-5.164
		c-2.852,0-5.164,2.312-5.164,5.164C140.626,213.833,142.938,216.146,145.79,216.146"/>
	<path display="inline" fill="#E6AD34" d="M331.552,164.244c2.31,0,4.183-1.872,4.183-4.184c0-2.312-1.873-4.188-4.183-4.188
		s-4.183,1.874-4.183,4.188C327.369,162.372,329.242,164.244,331.552,164.244"/>
	<path display="inline" fill="#9FC698" d="M329.277,180.503c2.531,0,4.582-2.052,4.582-4.581c0-2.527-2.051-4.58-4.582-4.58
		c-2.528,0-4.582,2.053-4.582,4.58C324.695,178.451,326.749,180.503,329.277,180.503"/>
	<path display="inline" fill="#9FC698" d="M118.511,121.979c1.12,1.726,3.429,2.215,5.156,1.095
		c1.725-1.121,2.217-3.427,1.095-5.156c-1.121-1.726-3.429-2.215-5.154-1.094C117.881,117.945,117.39,120.252,118.511,121.979"/>
	<path display="inline" fill="#9FC698" d="M247.168,124.358c1.371,2.109,4.191,2.709,6.299,1.336c2.114-1.368,2.711-4.188,1.344-6.3
		c-1.371-2.107-4.188-2.709-6.305-1.339C246.396,119.426,245.799,122.246,247.168,124.358"/>
	<path display="inline" fill="#9FC698" d="M100.454,201.98c1.954,3.006,5.977,3.854,8.987,1.908c3.009-1.955,3.865-5.979,1.91-8.988
		c-1.954-3.01-5.978-3.863-8.987-1.91C99.355,194.945,98.499,198.971,100.454,201.98"/>
	<path display="inline" fill="#A9526F" d="M304.878,117.592c1.132,1.742,3.461,2.238,5.202,1.105
		c1.74-1.131,2.234-3.459,1.105-5.201c-1.131-1.742-3.461-2.236-5.201-1.104C304.243,113.523,303.747,115.851,304.878,117.592"/>
	<path display="inline" fill="#9FC698" d="M316.523,129.045c1.131,1.741,3.459,2.239,5.199,1.105
		c1.735-1.131,2.229-3.459,1.104-5.201c-1.135-1.741-3.46-2.236-5.202-1.104C315.887,124.976,315.393,127.304,316.523,129.045"/>
	<path display="inline" fill="#A9526F" d="M214.576,121.643c1.689-1.136,2.133-3.428,0.994-5.116
		c-1.139-1.686-3.428-2.13-5.115-0.995c-1.688,1.139-2.133,3.431-0.995,5.119C210.599,122.338,212.889,122.782,214.576,121.643"/>
	<path display="inline" fill="#A9526F" d="M165.42,203.525c2.076-1.401,2.624-4.219,1.223-6.295
		c-1.399-2.076-4.217-2.623-6.293-1.229c-2.076,1.396-2.624,4.224-1.224,6.295C160.526,204.378,163.345,204.926,165.42,203.525"/>
	<path display="inline" fill="#A9526F" d="M326.675,195.637c2.308-1.557,2.917-4.687,1.36-6.994
		c-1.557-2.307-4.688-2.914-6.993-1.354c-2.308,1.562-2.916,4.688-1.362,6.99C321.238,196.585,324.367,197.193,326.675,195.637"/>
	<path display="inline" fill="#83B451" d="M260.283,210.157c0.898-1.765,0.199-3.929-1.567-4.825
		c-1.766-0.9-3.928-0.198-4.827,1.566c-0.896,1.767-0.197,3.928,1.567,4.83C257.223,212.628,259.384,211.922,260.283,210.157"/>
	<path display="inline" fill="#3D80B0" d="M285.672,118.413c0.901-1.765,0.199-3.927-1.568-4.827
		c-1.767-0.899-3.929-0.197-4.828,1.568c-0.896,1.768-0.189,3.927,1.568,4.83C282.611,120.883,284.771,120.181,285.672,118.413"/>
	<path display="inline" fill="#83B451" d="M282.729,131.579c0.988-1.944,0.215-4.322-1.728-5.311
		c-1.944-0.989-4.321-0.219-5.312,1.725c-0.99,1.944-0.217,4.322,1.726,5.314C279.357,134.296,281.736,133.523,282.729,131.579"/>
	<path display="inline" fill="#C32782" d="M128.484,190.82c1.386-2.307,0.64-5.303-1.667-6.688
		c-2.309-1.387-5.302-0.641-6.689,1.668c-1.386,2.308-0.64,5.304,1.668,6.688C124.103,193.874,127.099,193.128,128.484,190.82"/>
	<path display="inline" fill="#83B451" d="M181.401,188.707c1.387-2.725,0.305-6.057-2.419-7.441
		c-2.722-1.389-6.054-0.306-7.443,2.416c-1.386,2.729-0.303,6.062,2.42,7.44C176.682,192.512,180.013,191.428,181.401,188.707"/>
	<path display="inline" fill="#83B451" d="M317.755,206.218c1.308-2.565,0.287-5.702-2.276-7.011
		c-2.562-1.305-5.703-0.287-7.011,2.277c-1.306,2.562-0.288,5.703,2.277,7.012C313.311,209.802,316.449,208.779,317.755,206.218"/>
	<path display="inline" fill="#3D80B0" d="M158.755,99.402c3.25,0,5.885-2.635,5.885-5.884s-2.635-5.884-5.885-5.884
		s-5.708,2.731-5.708,5.884S155.504,99.402,158.755,99.402"/>
	<path display="inline" fill="#3D80B0" d="M234.971,153.607c2.854,0,5.163-2.313,5.163-5.167s-2.312-5.163-5.163-5.163
		c-2.853,0-5.164,2.312-5.164,5.163S232.118,153.607,234.971,153.607"/>
	<path display="inline" fill="#3D80B0" d="M207.813,140.362c2.543,0,4.606-2.062,4.606-4.606c0-2.546-2.062-4.608-4.606-4.608
		c-2.545,0-4.609,2.062-4.609,4.608C203.204,138.3,205.268,140.362,207.813,140.362"/>
	<path display="inline" fill="#3D80B0" d="M141.912,195.055c2.284,0.159,4.266-1.561,4.426-3.848
		c0.16-2.286-1.562-4.268-3.847-4.425c-2.286-0.16-4.267,1.562-4.425,3.847C137.905,192.911,139.628,194.895,141.912,195.055"/>
	<path display="inline" fill="#C32782" d="M182.469,90.336c3.251-1.656,4.544-5.636,2.888-8.887
		c-1.656-3.252-5.637-4.546-8.887-2.888c-3.252,1.657-4.1,5.649-2.54,8.71C175.491,90.332,179.219,91.993,182.469,90.336"/>
	<path display="inline" fill="#C32782" d="M235.521,172.016c2.511-1.271,3.508-4.352,2.229-6.854
		c-1.279-2.518-4.352-3.514-6.857-2.229c-2.511,1.275-3.506,4.354-2.229,6.855C229.943,172.296,233.014,173.292,235.521,172.016"/>
	<path display="inline" fill="#83B451" d="M239.7,189.453c2.347-1.197,3.28-4.067,2.083-6.417c-1.194-2.345-4.067-3.276-6.413-2.082
		c-2.349,1.196-3.281,4.067-2.086,6.416C234.48,189.716,237.354,190.648,239.7,189.453"/>
	<path display="inline" fill="#C32782" d="M264.372,162.121c2.521-1.283,3.519-4.362,2.235-6.883
		c-1.282-2.518-4.362-3.522-6.883-2.236c-2.521,1.283-3.521,4.364-2.234,6.885C258.771,162.404,261.854,163.404,264.372,162.121"/>
	<path display="inline" fill="#C32782" d="M206.504,211.652c1.798-0.914,2.513-3.112,1.596-4.911
		c-0.916-1.798-3.114-2.509-4.912-1.597c-1.798,0.916-2.513,3.108-1.596,4.916C202.507,211.857,204.706,212.568,206.504,211.652"/>
	<path display="inline" fill="#C32782" d="M240,67.232c1.568-0.801,2.193-2.722,1.395-4.291c-0.799-1.57-2.721-2.194-4.291-1.394
		c-1.562,0.799-2.188,2.721-1.394,4.29C236.51,67.407,238.432,68.031,240,67.232"/>
	<path display="inline" fill="#C32782" d="M264.177,118.248c1.907-0.971,2.664-3.301,1.693-5.209
		c-0.97-1.904-3.304-2.662-5.209-1.691c-1.905,0.971-2.664,3.302-1.693,5.208C259.938,118.46,262.271,119.221,264.177,118.248"/>
	<path display="inline" fill="#A9526F" d="M275.365,114.864c1.703-0.868,2.38-2.954,1.513-4.656s-2.952-2.38-4.655-1.513
		c-1.703,0.868-2.38,2.952-1.512,4.656C271.579,115.054,273.662,115.73,275.365,114.864"/>
	<path display="inline" fill="#77579C" d="M180.283,210.986c2.246-0.315,3.81-2.396,3.496-4.639
		c-0.317-2.246-2.393-3.812-4.639-3.494c-2.245,0.312-3.808,2.392-3.493,4.638C175.962,209.736,178.038,211.3,180.283,210.986"/>
	<path display="inline" fill="#77579C" d="M279.338,99.146c1.938-0.1,3.426-1.754,3.324-3.692s-1.756-3.428-3.693-3.326
		c-1.937,0.102-3.426,1.756-3.324,3.693C275.746,97.76,277.398,99.248,279.338,99.146"/>
	<path display="inline" fill="#3D80B0" d="M262.652,90.337c1.923-0.271,3.262-2.048,2.99-3.97c-0.271-1.922-2.045-3.261-3.976-2.991
		c-1.922,0.271-3.261,2.046-2.983,3.97C258.956,89.268,260.73,90.608,262.652,90.337"/>
	<path display="inline" fill="#9FC698" d="M248.527,81.938c1.923-0.271,3.261-2.048,2.992-3.969c-0.271-1.922-2.047-3.26-3.979-2.99
		c-1.919,0.271-3.264,2.046-2.982,3.969C244.829,80.869,246.605,82.208,248.527,81.938"/>
	<path display="inline" fill="#A9526F" d="M194.723,213.398c1.687-1.146,2.133-3.437,0.993-5.117
		c-1.138-1.688-3.429-2.133-5.115-0.994c-1.688,1.138-2.133,3.429-0.995,5.115C190.744,214.09,193.035,214.534,194.723,213.398"/>
	<path display="inline" fill="#C32782" d="M227.908,195.486c1.791-1.207,2.265-3.641,1.057-5.432s-3.641-2.271-5.432-1.062
		c-1.792,1.209-2.264,3.646-1.057,5.438C223.688,196.221,226.118,196.693,227.908,195.486"/>
	<path display="inline" fill="#9FC698" d="M212.49,203.691c1.134,1.744,3.464,2.238,5.207,1.104c1.745-1.13,2.241-3.461,1.108-5.207
		c-1.133-1.738-3.465-2.236-5.207-1.104C211.854,199.615,211.357,201.945,212.49,203.691"/>
</g>
<g id="Calque_4" display="none">
	<g display="inline">
		<path fill="#77579C" d="M199.855,159.064c3.057-0.437,5.188-3.258,4.757-6.312c-0.43-3.059-3.255-5.188-6.312-4.757
			c-3.058,0.429-5.187,3.255-4.759,6.313C193.974,157.366,196.799,159.497,199.855,159.064"/>
		<path fill="#E6AD34" d="M295.254,109.017c1.977,0,3.579-1.602,3.579-3.581c0-1.976-1.603-3.579-3.579-3.579
			c-1.979,0-3.58,1.604-3.58,3.579C291.674,107.415,293.275,109.017,295.254,109.017"/>
		<path fill="#3D80B0" d="M251.135,175.591c2.491,0,4.512-2.018,4.512-4.508c0-2.495-2.021-4.513-4.512-4.513
			c-2.49,0-4.512,2.018-4.512,4.513C246.623,173.573,248.645,175.591,251.135,175.591"/>
	</g>
</g>
<g id="Calque_2" display="none">
	<path display="inline" fill="#77579C" d="M200.409,93.543c3.058-0.43,5.186-3.257,4.757-6.312c-0.43-3.058-3.257-5.188-6.313-4.758
		c-3.056,0.429-5.187,3.257-4.755,6.313C194.527,91.844,197.351,93.974,200.409,93.543"/>
	<path display="inline" fill="#77579C" d="M272.779,148.094c2.478-0.348,4.201-2.637,3.854-5.114
		c-0.349-2.475-2.637-4.202-5.115-3.854c-2.476,0.348-4.199,2.638-3.851,5.113C268.016,146.715,270.305,148.441,272.779,148.094"/>
	<path display="inline" fill="#77579C" d="M199.855,159.064c3.057-0.437,5.188-3.258,4.757-6.312
		c-0.43-3.059-3.255-5.188-6.312-4.757c-3.058,0.429-5.187,3.255-4.759,6.313C193.974,157.366,196.799,159.497,199.855,159.064"/>
	<path display="inline" fill="#77579C" d="M300.076,215.477c2.477-0.346,4.203-2.635,3.854-5.113
		c-0.35-2.475-2.638-4.192-5.113-3.854c-2.478,0.348-4.194,2.639-3.854,5.114C295.312,214.098,297.6,215.824,300.076,215.477"/>
	<path display="inline" fill="#E6AD34" d="M286.904,218.723c2.478-0.348,4.203-2.638,3.854-5.113
		c-0.347-2.476-2.635-4.194-5.113-3.854c-2.476,0.35-4.201,2.639-3.854,5.112C282.141,217.344,284.43,219.07,286.904,218.723"/>
	<path display="inline" fill="#77579C" d="M122.639,219.82c3.288-0.461,5.58-3.502,5.117-6.791
		c-0.462-3.286-3.502-5.579-6.791-5.116c-3.287,0.461-5.579,3.502-5.117,6.791C116.311,217.991,119.352,220.283,122.639,219.82"/>
	<path display="inline" fill="#77579C" d="M329.001,145.979c2.156-0.304,3.661-2.299,3.356-4.458
		c-0.312-2.158-2.299-3.659-4.455-3.357c-2.157,0.302-3.661,2.3-3.358,4.456C324.85,144.778,326.843,146.28,329.001,145.979"/>
	<path display="inline" fill="#E6AD34" d="M140.391,111.216c3.143,0,5.69-2.549,5.69-5.689c0-3.141-2.547-5.688-5.69-5.688
		c-3.141,0-5.688,2.548-5.688,5.688C134.703,108.667,137.25,111.216,140.391,111.216"/>
	<path display="inline" fill="#E6AD34" d="M240.802,137.936c2.898,0,5.248-2.35,5.248-5.25c0-2.898-2.35-5.25-5.248-5.25
		c-2.897,0-5.249,2.352-5.249,5.25C235.553,135.585,237.902,137.936,240.802,137.936"/>
	<path display="inline" fill="#E6AD34" d="M246.229,204.365c2.313,0,4.188-1.877,4.188-4.188c0-2.311-1.874-4.187-4.188-4.187
		c-2.312,0-4.187,1.873-4.187,4.187C242.042,202.491,243.918,204.365,246.229,204.365"/>
	<path display="inline" fill="#E6AD34" d="M145.79,216.146c2.851,0,5.163-2.312,5.163-5.164c0-2.854-2.312-5.164-5.163-5.164
		c-2.852,0-5.164,2.312-5.164,5.164C140.626,213.833,142.938,216.146,145.79,216.146"/>
	<path display="inline" fill="#E6AD34" d="M295.254,109.017c1.977,0,3.579-1.602,3.579-3.581c0-1.976-1.603-3.579-3.579-3.579
		c-1.979,0-3.58,1.604-3.58,3.579C291.674,107.415,293.275,109.017,295.254,109.017"/>
	<path display="inline" fill="#E6AD34" d="M331.552,164.244c2.31,0,4.183-1.872,4.183-4.184c0-2.312-1.873-4.188-4.183-4.188
		s-4.183,1.874-4.183,4.188C327.369,162.372,329.242,164.244,331.552,164.244"/>
	<path display="inline" fill="#9FC698" d="M329.277,180.503c2.531,0,4.582-2.052,4.582-4.581c0-2.527-2.051-4.58-4.582-4.58
		c-2.528,0-4.582,2.053-4.582,4.58C324.695,178.451,326.749,180.503,329.277,180.503"/>
	<path display="inline" fill="#9FC698" d="M118.511,121.979c1.12,1.726,3.429,2.215,5.156,1.095
		c1.725-1.121,2.217-3.427,1.095-5.156c-1.121-1.726-3.429-2.215-5.154-1.094C117.881,117.945,117.39,120.252,118.511,121.979"/>
	<path display="inline" fill="#9FC698" d="M247.168,124.358c1.371,2.109,4.191,2.709,6.299,1.336c2.114-1.368,2.711-4.188,1.344-6.3
		c-1.371-2.107-4.188-2.709-6.305-1.339C246.396,119.426,245.799,122.246,247.168,124.358"/>
	<path display="inline" fill="#9FC698" d="M100.454,201.98c1.954,3.006,5.977,3.854,8.987,1.908c3.009-1.955,3.865-5.979,1.91-8.988
		c-1.954-3.01-5.978-3.863-8.987-1.91C99.355,194.945,98.499,198.971,100.454,201.98"/>
	<path display="inline" fill="#A9526F" d="M304.878,117.592c1.132,1.742,3.461,2.238,5.202,1.105
		c1.74-1.131,2.234-3.459,1.105-5.201c-1.131-1.742-3.461-2.236-5.201-1.104C304.243,113.523,303.747,115.851,304.878,117.592"/>
	<path display="inline" fill="#9FC698" d="M316.523,129.045c1.131,1.741,3.459,2.239,5.199,1.105
		c1.735-1.131,2.229-3.459,1.104-5.201c-1.135-1.741-3.46-2.236-5.202-1.104C315.887,124.976,315.393,127.304,316.523,129.045"/>
	<path display="inline" fill="#A9526F" d="M214.576,121.643c1.689-1.136,2.133-3.428,0.994-5.116
		c-1.139-1.686-3.428-2.13-5.115-0.995c-1.688,1.139-2.133,3.431-0.995,5.119C210.599,122.338,212.889,122.782,214.576,121.643"/>
	<path display="inline" fill="#A9526F" d="M165.42,203.525c2.076-1.401,2.624-4.219,1.223-6.295
		c-1.399-2.076-4.217-2.623-6.293-1.229c-2.076,1.396-2.624,4.224-1.224,6.295C160.526,204.378,163.345,204.926,165.42,203.525"/>
	<path display="inline" fill="#A9526F" d="M326.675,195.637c2.308-1.557,2.917-4.687,1.36-6.994
		c-1.557-2.307-4.688-2.914-6.993-1.354c-2.308,1.562-2.916,4.688-1.362,6.99C321.238,196.585,324.367,197.193,326.675,195.637"/>
	<path display="inline" fill="#83B451" d="M214.857,104.658c0.999-1.962,0.221-4.364-1.742-5.366
		c-1.962-0.998-4.364-0.219-5.366,1.743c-0.998,1.963-0.218,4.365,1.744,5.364C211.456,107.402,213.858,106.62,214.857,104.658"/>
	<path display="inline" fill="#83B451" d="M260.283,210.157c0.898-1.765,0.199-3.929-1.567-4.825
		c-1.766-0.9-3.928-0.198-4.827,1.566c-0.896,1.767-0.197,3.928,1.567,4.83C257.223,212.628,259.384,211.922,260.283,210.157"/>
	<path display="inline" fill="#3D80B0" d="M285.672,118.413c0.901-1.765,0.199-3.927-1.568-4.827
		c-1.767-0.899-3.929-0.197-4.828,1.568c-0.896,1.768-0.189,3.927,1.568,4.83C282.611,120.883,284.771,120.181,285.672,118.413"/>
	<path display="inline" fill="#83B451" d="M282.729,131.579c0.988-1.944,0.215-4.322-1.728-5.311
		c-1.944-0.989-4.321-0.219-5.312,1.725c-0.99,1.944-0.217,4.322,1.726,5.314C279.357,134.296,281.736,133.523,282.729,131.579"/>
	<path display="inline" fill="#C32782" d="M128.484,190.82c1.386-2.307,0.64-5.303-1.667-6.688
		c-2.309-1.387-5.302-0.641-6.689,1.668c-1.386,2.308-0.64,5.304,1.668,6.688C124.103,193.874,127.099,193.128,128.484,190.82"/>
	<path display="inline" fill="#83B451" d="M181.401,188.707c1.387-2.725,0.305-6.057-2.419-7.441
		c-2.722-1.389-6.054-0.306-7.443,2.416c-1.386,2.729-0.303,6.062,2.42,7.44C176.682,192.512,180.013,191.428,181.401,188.707"/>
	<path display="inline" fill="#83B451" d="M317.755,206.218c1.308-2.565,0.287-5.702-2.276-7.011
		c-2.562-1.305-5.703-0.287-7.011,2.277c-1.306,2.562-0.288,5.703,2.277,7.012C313.311,209.802,316.449,208.779,317.755,206.218"/>
	<path display="inline" fill="#3D80B0" d="M158.755,99.402c3.25,0,5.885-2.635,5.885-5.884s-2.635-5.884-5.885-5.884
		s-5.708,2.731-5.708,5.884S155.504,99.402,158.755,99.402"/>
	<path display="inline" fill="#3D80B0" d="M234.971,153.607c2.854,0,5.163-2.313,5.163-5.167s-2.312-5.163-5.163-5.163
		c-2.853,0-5.164,2.312-5.164,5.163S232.118,153.607,234.971,153.607"/>
	<path display="inline" fill="#3D80B0" d="M251.135,175.591c2.491,0,4.512-2.018,4.512-4.508c0-2.495-2.021-4.513-4.512-4.513
		c-2.49,0-4.512,2.018-4.512,4.513C246.623,173.573,248.645,175.591,251.135,175.591"/>
	<path display="inline" fill="#3D80B0" d="M207.813,140.362c2.543,0,4.606-2.062,4.606-4.606c0-2.546-2.062-4.608-4.606-4.608
		c-2.545,0-4.609,2.062-4.609,4.608C203.204,138.3,205.268,140.362,207.813,140.362"/>
	<path display="inline" fill="#3D80B0" d="M271.004,217.812c2.291,0,4.146-1.857,4.146-4.146c0-2.291-1.855-4.146-4.146-4.146
		c-2.289,0-4.146,1.854-4.146,4.146C266.855,215.955,268.715,217.812,271.004,217.812"/>
	<path display="inline" fill="#3D80B0" d="M141.912,195.055c2.284,0.159,4.266-1.561,4.426-3.848
		c0.16-2.286-1.562-4.268-3.847-4.425c-2.286-0.16-4.267,1.562-4.425,3.847C137.905,192.911,139.628,194.895,141.912,195.055"/>
	<path display="inline" fill="#C32782" d="M182.469,90.336c3.251-1.656,4.544-5.636,2.888-8.887
		c-1.656-3.252-5.637-4.546-8.887-2.888c-3.252,1.657-4.1,5.649-2.54,8.71C175.491,90.332,179.219,91.993,182.469,90.336"/>
	<path display="inline" fill="#C32782" d="M235.521,172.016c2.511-1.271,3.508-4.352,2.229-6.854
		c-1.279-2.518-4.352-3.514-6.857-2.229c-2.511,1.275-3.506,4.354-2.229,6.855C229.943,172.296,233.014,173.292,235.521,172.016"/>
	<path display="inline" fill="#83B451" d="M239.7,189.453c2.347-1.197,3.28-4.067,2.083-6.417c-1.194-2.345-4.067-3.276-6.413-2.082
		c-2.349,1.196-3.281,4.067-2.086,6.416C234.48,189.716,237.354,190.648,239.7,189.453"/>
	<path display="inline" fill="#C32782" d="M264.372,162.121c2.521-1.283,3.519-4.362,2.235-6.883
		c-1.282-2.518-4.362-3.522-6.883-2.236c-2.521,1.283-3.521,4.364-2.234,6.885C258.771,162.404,261.854,163.404,264.372,162.121"/>
	<path display="inline" fill="#C32782" d="M206.504,211.652c1.798-0.914,2.513-3.112,1.596-4.911
		c-0.916-1.798-3.114-2.509-4.912-1.597c-1.798,0.916-2.513,3.108-1.596,4.916C202.507,211.857,204.706,212.568,206.504,211.652"/>
	<path display="inline" fill="#C32782" d="M240,67.232c1.568-0.801,2.193-2.722,1.395-4.291c-0.799-1.57-2.721-2.194-4.291-1.394
		c-1.562,0.799-2.188,2.721-1.394,4.29C236.51,67.407,238.432,68.031,240,67.232"/>
	<path display="inline" fill="#C32782" d="M190.31,174.895c2.596-1.324,3.628-4.498,2.306-7.097c-1.323-2.596-4.5-3.627-7.095-2.303
		c-2.595,1.321-3.628,4.498-2.306,7.094C184.538,175.186,187.715,176.216,190.31,174.895"/>
	<path display="inline" fill="#C32782" d="M264.177,118.248c1.907-0.971,2.664-3.301,1.693-5.209
		c-0.97-1.904-3.304-2.662-5.209-1.691c-1.905,0.971-2.664,3.302-1.693,5.208C259.938,118.46,262.271,119.221,264.177,118.248"/>
	<path display="inline" fill="#A9526F" d="M275.365,114.864c1.703-0.868,2.38-2.954,1.513-4.656s-2.952-2.38-4.655-1.513
		c-1.703,0.868-2.38,2.952-1.512,4.656C271.579,115.054,273.662,115.73,275.365,114.864"/>
	<path display="inline" fill="#77579C" d="M180.283,210.986c2.246-0.315,3.81-2.396,3.496-4.639
		c-0.317-2.246-2.393-3.812-4.639-3.494c-2.245,0.312-3.808,2.392-3.493,4.638C175.962,209.736,178.038,211.3,180.283,210.986"/>
	<path display="inline" fill="#77579C" d="M279.338,99.146c1.938-0.1,3.426-1.754,3.324-3.692s-1.756-3.428-3.693-3.326
		c-1.937,0.102-3.426,1.756-3.324,3.693C275.746,97.76,277.398,99.248,279.338,99.146"/>
	<path display="inline" fill="#3D80B0" d="M262.652,90.337c1.923-0.271,3.262-2.048,2.99-3.97c-0.271-1.922-2.045-3.261-3.976-2.991
		c-1.922,0.271-3.261,2.046-2.983,3.97C258.956,89.268,260.73,90.608,262.652,90.337"/>
	<path display="inline" fill="#9FC698" d="M248.527,81.938c1.923-0.271,3.261-2.048,2.992-3.969c-0.271-1.922-2.047-3.26-3.979-2.99
		c-1.919,0.271-3.264,2.046-2.982,3.969C244.829,80.869,246.605,82.208,248.527,81.938"/>
	<path display="inline" fill="#A9526F" d="M194.723,213.398c1.687-1.146,2.133-3.437,0.993-5.117
		c-1.138-1.688-3.429-2.133-5.115-0.994c-1.688,1.138-2.133,3.429-0.995,5.115C190.744,214.09,193.035,214.534,194.723,213.398"/>
	<path display="inline" fill="#C32782" d="M227.908,195.486c1.791-1.207,2.265-3.641,1.057-5.432s-3.641-2.271-5.432-1.062
		c-1.792,1.209-2.264,3.646-1.057,5.438C223.688,196.221,226.118,196.693,227.908,195.486"/>
	<path display="inline" fill="#9FC698" d="M212.49,203.691c1.134,1.744,3.464,2.238,5.207,1.104c1.745-1.13,2.241-3.461,1.108-5.207
		c-1.133-1.738-3.465-2.236-5.207-1.104C211.854,199.615,211.357,201.945,212.49,203.691"/>
</g>
<path fill="#80AE3E" d="M472,211.1v-59.234H3.374v0.283c12.55,3.851,21.677,15.522,21.677,29.334
	c0,13.812-9.127,25.484-21.677,29.332v0.285H472z"/>
</svg>
