<?xml version="1.0" encoding="utf-8"?>
<!-- Generator: Adobe Illustrator 16.0.4, SVG Export Plug-In . SVG Version: 6.00 Build 0)  -->
<!DOCTYPE svg PUBLIC "-//W3C//DTD SVG 1.1//EN" "http://www.w3.org/Graphics/SVG/1.1/DTD/svg11.dtd">
<svg version="1.1" id="Calque_1" xmlns="http://www.w3.org/2000/svg" xmlns:xlink="http://www.w3.org/1999/xlink" x="0px" y="0px"
	 width="435px" height="300px" viewBox="0 0 435 300" enable-background="new 0 0 435 300" xml:space="preserve">
<g id="Calque_1_1_" display="none">
	<path display="inline" fill="#77579C" d="M200.409,93.543c3.058-0.43,5.186-3.257,4.757-6.312c-0.43-3.058-3.257-5.188-6.313-4.758
		c-3.056,0.429-5.187,3.257-4.755,6.313C194.527,91.844,197.351,93.974,200.409,93.543"/>
	<path display="inline" fill="#77579C" d="M300.076,215.477c2.477-0.346,4.203-2.635,3.854-5.113
		c-0.35-2.475-2.638-4.192-5.113-3.854c-2.478,0.348-4.194,2.639-3.854,5.114C295.312,214.098,297.6,215.824,300.076,215.477"/>
	<path display="inline" fill="#E6AD34" d="M286.904,218.723c2.478-0.348,4.203-2.638,3.854-5.113
		c-0.347-2.476-2.635-4.194-5.113-3.854c-2.476,0.35-4.201,2.639-3.854,5.112C282.141,217.344,284.43,219.07,286.904,218.723"/>
	<path display="inline" fill="#77579C" d="M122.639,219.82c3.288-0.461,5.58-3.502,5.117-6.791
		c-0.462-3.286-3.502-5.579-6.791-5.116c-3.287,0.461-5.579,3.502-5.117,6.791C116.311,217.991,119.352,220.283,122.639,219.82"/>
	<path display="inline" fill="#77579C" d="M329.001,145.979c2.156-0.304,3.661-2.299,3.356-4.458
		c-0.312-2.158-2.299-3.659-4.455-3.357c-2.157,0.302-3.661,2.3-3.358,4.456C324.85,144.778,326.843,146.28,329.001,145.979"/>
	<path display="inline" fill="#E6AD34" d="M140.391,111.216c3.143,0,5.69-2.549,5.69-5.689c0-3.141-2.547-5.688-5.69-5.688
		c-3.141,0-5.688,2.548-5.688,5.688C134.703,108.667,137.25,111.216,140.391,111.216"/>
	<path display="inline" fill="#E6AD34" d="M240.802,137.936c2.898,0,5.248-2.35,5.248-5.25c0-2.898-2.35-5.25-5.248-5.25
		c-2.897,0-5.249,2.352-5.249,5.25C235.553,135.585,237.902,137.936,240.802,137.936"/>
	<path display="inline" fill="#E6AD34" d="M246.229,204.365c2.313,0,4.188-1.877,4.188-4.188c0-2.311-1.874-4.187-4.188-4.187
		c-2.312,0-4.187,1.873-4.187,4.187C242.042,202.491,243.918,204.365,246.229,204.365"/>
	<path display="inline" fill="#E6AD34" d="M145.79,216.146c2.851,0,5.163-2.312,5.163-5.164c0-2.854-2.312-5.164-5.163-5.164
		c-2.852,0-5.164,2.312-5.164,5.164C140.626,213.833,142.938,216.146,145.79,216.146"/>
	<path display="inline" fill="#E6AD34" d="M331.552,164.244c2.31,0,4.183-1.872,4.183-4.184c0-2.312-1.873-4.188-4.183-4.188
		s-4.183,1.874-4.183,4.188C327.369,162.372,329.242,164.244,331.552,164.244"/>
	<path display="inline" fill="#9FC698" d="M329.277,180.503c2.531,0,4.582-2.052,4.582-4.581c0-2.527-2.051-4.58-4.582-4.58
		c-2.528,0-4.582,2.053-4.582,4.58C324.695,178.451,326.749,180.503,329.277,180.503"/>
	<path display="inline" fill="#9FC698" d="M118.511,121.979c1.12,1.726,3.429,2.215,5.156,1.095
		c1.725-1.121,2.217-3.427,1.095-5.156c-1.121-1.726-3.429-2.215-5.154-1.094C117.881,117.945,117.39,120.252,118.511,121.979"/>
	<path display="inline" fill="#9FC698" d="M247.168,124.358c1.371,2.109,4.191,2.709,6.299,1.336c2.114-1.368,2.711-4.188,1.344-6.3
		c-1.371-2.107-4.188-2.709-6.305-1.339C246.396,119.426,245.799,122.246,247.168,124.358"/>
	<path display="inline" fill="#9FC698" d="M100.454,201.98c1.954,3.006,5.977,3.854,8.987,1.908c3.009-1.955,3.865-5.979,1.91-8.988
		c-1.954-3.01-5.978-3.863-8.987-1.91C99.355,194.945,98.499,198.971,100.454,201.98"/>
	<path display="inline" fill="#A9526F" d="M304.878,117.592c1.132,1.742,3.461,2.238,5.202,1.105
		c1.74-1.131,2.234-3.459,1.105-5.201c-1.131-1.742-3.461-2.236-5.201-1.104C304.243,113.523,303.747,115.851,304.878,117.592"/>
	<path display="inline" fill="#9FC698" d="M316.523,129.045c1.131,1.741,3.459,2.239,5.199,1.105
		c1.735-1.131,2.229-3.459,1.104-5.201c-1.135-1.741-3.46-2.236-5.202-1.104C315.887,124.976,315.393,127.304,316.523,129.045"/>
	<path display="inline" fill="#A9526F" d="M214.576,121.643c1.689-1.136,2.133-3.428,0.994-5.116
		c-1.139-1.686-3.428-2.13-5.115-0.995c-1.688,1.139-2.133,3.431-0.995,5.119C210.599,122.338,212.889,122.782,214.576,121.643"/>
	<path display="inline" fill="#A9526F" d="M165.42,203.525c2.076-1.401,2.624-4.219,1.223-6.295
		c-1.399-2.076-4.217-2.623-6.293-1.229c-2.076,1.396-2.624,4.224-1.224,6.295C160.526,204.378,163.345,204.926,165.42,203.525"/>
	<path display="inline" fill="#A9526F" d="M326.675,195.637c2.308-1.557,2.917-4.687,1.36-6.994
		c-1.557-2.307-4.688-2.914-6.993-1.354c-2.308,1.562-2.916,4.688-1.362,6.99C321.238,196.585,324.367,197.193,326.675,195.637"/>
	<path display="inline" fill="#83B451" d="M260.283,210.157c0.898-1.765,0.199-3.929-1.567-4.825
		c-1.766-0.9-3.928-0.198-4.827,1.566c-0.896,1.767-0.197,3.928,1.567,4.83C257.223,212.628,259.384,211.922,260.283,210.157"/>
	<path display="inline" fill="#3D80B0" d="M285.672,118.413c0.901-1.765,0.199-3.927-1.568-4.827
		c-1.767-0.899-3.929-0.197-4.828,1.568c-0.896,1.768-0.189,3.927,1.568,4.83C282.611,120.883,284.771,120.181,285.672,118.413"/>
	<path display="inline" fill="#83B451" d="M282.729,131.579c0.988-1.944,0.215-4.322-1.728-5.311
		c-1.944-0.989-4.321-0.219-5.312,1.725c-0.99,1.944-0.217,4.322,1.726,5.314C279.357,134.296,281.736,133.523,282.729,131.579"/>
	<path display="inline" fill="#C32782" d="M128.484,190.82c1.386-2.307,0.64-5.303-1.667-6.688
		c-2.309-1.387-5.302-0.641-6.689,1.668c-1.386,2.308-0.64,5.304,1.668,6.688C124.103,193.874,127.099,193.128,128.484,190.82"/>
	<path display="inline" fill="#83B451" d="M181.401,188.707c1.387-2.725,0.305-6.057-2.419-7.441
		c-2.722-1.389-6.054-0.306-7.443,2.416c-1.386,2.729-0.303,6.062,2.42,7.44C176.682,192.512,180.013,191.428,181.401,188.707"/>
	<path display="inline" fill="#83B451" d="M317.755,206.218c1.308-2.565,0.287-5.702-2.276-7.011
		c-2.562-1.305-5.703-0.287-7.011,2.277c-1.306,2.562-0.288,5.703,2.277,7.012C313.311,209.802,316.449,208.779,317.755,206.218"/>
	<path display="inline" fill="#3D80B0" d="M158.755,99.402c3.25,0,5.885-2.635,5.885-5.884s-2.635-5.884-5.885-5.884
		s-5.708,2.731-5.708,5.884S155.504,99.402,158.755,99.402"/>
	<path display="inline" fill="#3D80B0" d="M234.971,153.607c2.854,0,5.163-2.313,5.163-5.167s-2.312-5.163-5.163-5.163
		c-2.853,0-5.164,2.312-5.164,5.163S232.118,153.607,234.971,153.607"/>
	<path display="inline" fill="#3D80B0" d="M207.813,140.362c2.543,0,4.606-2.062,4.606-4.606c0-2.546-2.062-4.608-4.606-4.608
		c-2.545,0-4.609,2.062-4.609,4.608C203.204,138.3,205.268,140.362,207.813,140.362"/>
	<path display="inline" fill="#3D80B0" d="M141.912,195.055c2.284,0.159,4.266-1.561,4.426-3.848
		c0.16-2.286-1.562-4.268-3.847-4.425c-2.286-0.16-4.267,1.562-4.425,3.847C137.905,192.911,139.628,194.895,141.912,195.055"/>
	<path display="inline" fill="#C32782" d="M182.469,90.336c3.251-1.656,4.544-5.636,2.888-8.887
		c-1.656-3.252-5.637-4.546-8.887-2.888c-3.252,1.657-4.1,5.649-2.54,8.71C175.491,90.332,179.219,91.993,182.469,90.336"/>
	<path display="inline" fill="#C32782" d="M235.521,172.016c2.511-1.271,3.508-4.352,2.229-6.854
		c-1.279-2.518-4.352-3.514-6.857-2.229c-2.511,1.275-3.506,4.354-2.229,6.855C229.943,172.296,233.014,173.292,235.521,172.016"/>
	<path display="inline" fill="#83B451" d="M239.7,189.453c2.347-1.197,3.28-4.067,2.083-6.417c-1.194-2.345-4.067-3.276-6.413-2.082
		c-2.349,1.196-3.281,4.067-2.086,6.416C234.48,189.716,237.354,190.648,239.7,189.453"/>
	<path display="inline" fill="#C32782" d="M264.372,162.121c2.521-1.283,3.519-4.362,2.235-6.883
		c-1.282-2.518-4.362-3.522-6.883-2.236c-2.521,1.283-3.521,4.364-2.234,6.885C258.771,162.404,261.854,163.404,264.372,162.121"/>
	<path display="inline" fill="#C32782" d="M206.504,211.652c1.798-0.914,2.513-3.112,1.596-4.911
		c-0.916-1.798-3.114-2.509-4.912-1.597c-1.798,0.916-2.513,3.108-1.596,4.916C202.507,211.857,204.706,212.568,206.504,211.652"/>
	<path display="inline" fill="#C32782" d="M240,67.232c1.568-0.801,2.193-2.722,1.395-4.291c-0.799-1.57-2.721-2.194-4.291-1.394
		c-1.562,0.799-2.188,2.721-1.394,4.29C236.51,67.407,238.432,68.031,240,67.232"/>
	<path display="inline" fill="#C32782" d="M264.177,118.248c1.907-0.971,2.664-3.301,1.693-5.209
		c-0.97-1.904-3.304-2.662-5.209-1.691c-1.905,0.971-2.664,3.302-1.693,5.208C259.938,118.46,262.271,119.221,264.177,118.248"/>
	<path display="inline" fill="#A9526F" d="M275.365,114.864c1.703-0.868,2.38-2.954,1.513-4.656s-2.952-2.38-4.655-1.513
		c-1.703,0.868-2.38,2.952-1.512,4.656C271.579,115.054,273.662,115.73,275.365,114.864"/>
	<path display="inline" fill="#77579C" d="M180.283,210.986c2.246-0.315,3.81-2.396,3.496-4.639
		c-0.317-2.246-2.393-3.812-4.639-3.494c-2.245,0.312-3.808,2.392-3.493,4.638C175.962,209.736,178.038,211.3,180.283,210.986"/>
	<path display="inline" fill="#77579C" d="M279.338,99.146c1.938-0.1,3.426-1.754,3.324-3.692s-1.756-3.428-3.693-3.326
		c-1.937,0.102-3.426,1.756-3.324,3.693C275.746,97.76,277.398,99.248,279.338,99.146"/>
	<path display="inline" fill="#3D80B0" d="M262.652,90.337c1.923-0.271,3.262-2.048,2.99-3.97c-0.271-1.922-2.045-3.261-3.976-2.991
		c-1.922,0.271-3.261,2.046-2.983,3.97C258.956,89.268,260.73,90.608,262.652,90.337"/>
	<path display="inline" fill="#9FC698" d="M248.527,81.938c1.923-0.271,3.261-2.048,2.992-3.969c-0.271-1.922-2.047-3.26-3.979-2.99
		c-1.919,0.271-3.264,2.046-2.982,3.969C244.829,80.869,246.605,82.208,248.527,81.938"/>
	<path display="inline" fill="#A9526F" d="M194.723,213.398c1.687-1.146,2.133-3.437,0.993-5.117
		c-1.138-1.688-3.429-2.133-5.115-0.994c-1.688,1.138-2.133,3.429-0.995,5.115C190.744,214.09,193.035,214.534,194.723,213.398"/>
	<path display="inline" fill="#C32782" d="M227.908,195.486c1.791-1.207,2.265-3.641,1.057-5.432s-3.641-2.271-5.432-1.062
		c-1.792,1.209-2.264,3.646-1.057,5.438C223.688,196.221,226.118,196.693,227.908,195.486"/>
	<path display="inline" fill="#9FC698" d="M212.49,203.691c1.134,1.744,3.464,2.238,5.207,1.104c1.745-1.13,2.241-3.461,1.108-5.207
		c-1.133-1.738-3.465-2.236-5.207-1.104C211.854,199.615,211.357,201.945,212.49,203.691"/>
</g>
<g id="Calque_4" display="none">
	<g display="inline">
		<path fill="#77579C" d="M199.855,159.064c3.057-0.437,5.188-3.258,4.757-6.312c-0.43-3.059-3.255-5.188-6.312-4.757
			c-3.058,0.429-5.187,3.255-4.759,6.313C193.974,157.366,196.799,159.497,199.855,159.064"/>
		<path fill="#E6AD34" d="M295.254,109.017c1.977,0,3.579-1.602,3.579-3.581c0-1.976-1.603-3.579-3.579-3.579
			c-1.979,0-3.58,1.604-3.58,3.579C291.674,107.415,293.275,109.017,295.254,109.017"/>
		<path fill="#3D80B0" d="M251.135,175.591c2.491,0,4.512-2.018,4.512-4.508c0-2.495-2.021-4.513-4.512-4.513
			c-2.49,0-4.512,2.018-4.512,4.513C246.623,173.573,248.645,175.591,251.135,175.591"/>
	</g>
</g>
<g id="Calque_2" display="none">
	<path display="inline" fill="#77579C" d="M200.409,93.543c3.058-0.43,5.186-3.257,4.757-6.312c-0.43-3.058-3.257-5.188-6.313-4.758
		c-3.056,0.429-5.187,3.257-4.755,6.313C194.527,91.844,197.351,93.974,200.409,93.543"/>
	<path display="inline" fill="#77579C" d="M272.779,148.094c2.478-0.348,4.201-2.637,3.854-5.114
		c-0.349-2.475-2.637-4.202-5.115-3.854c-2.476,0.348-4.199,2.638-3.851,5.113C268.016,146.715,270.305,148.441,272.779,148.094"/>
	<path display="inline" fill="#77579C" d="M199.855,159.064c3.057-0.437,5.188-3.258,4.757-6.312
		c-0.43-3.059-3.255-5.188-6.312-4.757c-3.058,0.429-5.187,3.255-4.759,6.313C193.974,157.366,196.799,159.497,199.855,159.064"/>
	<path display="inline" fill="#77579C" d="M300.076,215.477c2.477-0.346,4.203-2.635,3.854-5.113
		c-0.35-2.475-2.638-4.192-5.113-3.854c-2.478,0.348-4.194,2.639-3.854,5.114C295.312,214.098,297.6,215.824,300.076,215.477"/>
	<path display="inline" fill="#E6AD34" d="M286.904,218.723c2.478-0.348,4.203-2.638,3.854-5.113
		c-0.347-2.476-2.635-4.194-5.113-3.854c-2.476,0.35-4.201,2.639-3.854,5.112C282.141,217.344,284.43,219.07,286.904,218.723"/>
	<path display="inline" fill="#77579C" d="M122.639,219.82c3.288-0.461,5.58-3.502,5.117-6.791
		c-0.462-3.286-3.502-5.579-6.791-5.116c-3.287,0.461-5.579,3.502-5.117,6.791C116.311,217.991,119.352,220.283,122.639,219.82"/>
	<path display="inline" fill="#77579C" d="M329.001,145.979c2.156-0.304,3.661-2.299,3.356-4.458
		c-0.312-2.158-2.299-3.659-4.455-3.357c-2.157,0.302-3.661,2.3-3.358,4.456C324.85,144.778,326.843,146.28,329.001,145.979"/>
	<path display="inline" fill="#E6AD34" d="M140.391,111.216c3.143,0,5.69-2.549,5.69-5.689c0-3.141-2.547-5.688-5.69-5.688
		c-3.141,0-5.688,2.548-5.688,5.688C134.703,108.667,137.25,111.216,140.391,111.216"/>
	<path display="inline" fill="#E6AD34" d="M240.802,137.936c2.898,0,5.248-2.35,5.248-5.25c0-2.898-2.35-5.25-5.248-5.25
		c-2.897,0-5.249,2.352-5.249,5.25C235.553,135.585,237.902,137.936,240.802,137.936"/>
	<path display="inline" fill="#E6AD34" d="M246.229,204.365c2.313,0,4.188-1.877,4.188-4.188c0-2.311-1.874-4.187-4.188-4.187
		c-2.312,0-4.187,1.873-4.187,4.187C242.042,202.491,243.918,204.365,246.229,204.365"/>
	<path display="inline" fill="#E6AD34" d="M145.79,216.146c2.851,0,5.163-2.312,5.163-5.164c0-2.854-2.312-5.164-5.163-5.164
		c-2.852,0-5.164,2.312-5.164,5.164C140.626,213.833,142.938,216.146,145.79,216.146"/>
	<path display="inline" fill="#E6AD34" d="M295.254,109.017c1.977,0,3.579-1.602,3.579-3.581c0-1.976-1.603-3.579-3.579-3.579
		c-1.979,0-3.58,1.604-3.58,3.579C291.674,107.415,293.275,109.017,295.254,109.017"/>
	<path display="inline" fill="#E6AD34" d="M331.552,164.244c2.31,0,4.183-1.872,4.183-4.184c0-2.312-1.873-4.188-4.183-4.188
		s-4.183,1.874-4.183,4.188C327.369,162.372,329.242,164.244,331.552,164.244"/>
	<path display="inline" fill="#9FC698" d="M329.277,180.503c2.531,0,4.582-2.052,4.582-4.581c0-2.527-2.051-4.58-4.582-4.58
		c-2.528,0-4.582,2.053-4.582,4.58C324.695,178.451,326.749,180.503,329.277,180.503"/>
	<path display="inline" fill="#9FC698" d="M118.511,121.979c1.12,1.726,3.429,2.215,5.156,1.095
		c1.725-1.121,2.217-3.427,1.095-5.156c-1.121-1.726-3.429-2.215-5.154-1.094C117.881,117.945,117.39,120.252,118.511,121.979"/>
	<path display="inline" fill="#9FC698" d="M247.168,124.358c1.371,2.109,4.191,2.709,6.299,1.336c2.114-1.368,2.711-4.188,1.344-6.3
		c-1.371-2.107-4.188-2.709-6.305-1.339C246.396,119.426,245.799,122.246,247.168,124.358"/>
	<path display="inline" fill="#9FC698" d="M100.454,201.98c1.954,3.006,5.977,3.854,8.987,1.908c3.009-1.955,3.865-5.979,1.91-8.988
		c-1.954-3.01-5.978-3.863-8.987-1.91C99.355,194.945,98.499,198.971,100.454,201.98"/>
	<path display="inline" fill="#A9526F" d="M304.878,117.592c1.132,1.742,3.461,2.238,5.202,1.105
		c1.74-1.131,2.234-3.459,1.105-5.201c-1.131-1.742-3.461-2.236-5.201-1.104C304.243,113.523,303.747,115.851,304.878,117.592"/>
	<path display="inline" fill="#9FC698" d="M316.523,129.045c1.131,1.741,3.459,2.239,5.199,1.105
		c1.735-1.131,2.229-3.459,1.104-5.201c-1.135-1.741-3.46-2.236-5.202-1.104C315.887,124.976,315.393,127.304,316.523,129.045"/>
	<path display="inline" fill="#A9526F" d="M214.576,121.643c1.689-1.136,2.133-3.428,0.994-5.116
		c-1.139-1.686-3.428-2.13-5.115-0.995c-1.688,1.139-2.133,3.431-0.995,5.119C210.599,122.338,212.889,122.782,214.576,121.643"/>
	<path display="inline" fill="#A9526F" d="M165.42,203.525c2.076-1.401,2.624-4.219,1.223-6.295
		c-1.399-2.076-4.217-2.623-6.293-1.229c-2.076,1.396-2.624,4.224-1.224,6.295C160.526,204.378,163.345,204.926,165.42,203.525"/>
	<path display="inline" fill="#A9526F" d="M326.675,195.637c2.308-1.557,2.917-4.687,1.36-6.994
		c-1.557-2.307-4.688-2.914-6.993-1.354c-2.308,1.562-2.916,4.688-1.362,6.99C321.238,196.585,324.367,197.193,326.675,195.637"/>
	<path display="inline" fill="#83B451" d="M214.857,104.658c0.999-1.962,0.221-4.364-1.742-5.366
		c-1.962-0.998-4.364-0.219-5.366,1.743c-0.998,1.963-0.218,4.365,1.744,5.364C211.456,107.402,213.858,106.62,214.857,104.658"/>
	<path display="inline" fill="#83B451" d="M260.283,210.157c0.898-1.765,0.199-3.929-1.567-4.825
		c-1.766-0.9-3.928-0.198-4.827,1.566c-0.896,1.767-0.197,3.928,1.567,4.83C257.223,212.628,259.384,211.922,260.283,210.157"/>
	<path display="inline" fill="#3D80B0" d="M285.672,118.413c0.901-1.765,0.199-3.927-1.568-4.827
		c-1.767-0.899-3.929-0.197-4.828,1.568c-0.896,1.768-0.189,3.927,1.568,4.83C282.611,120.883,284.771,120.181,285.672,118.413"/>
	<path display="inline" fill="#83B451" d="M282.729,131.579c0.988-1.944,0.215-4.322-1.728-5.311
		c-1.944-0.989-4.321-0.219-5.312,1.725c-0.99,1.944-0.217,4.322,1.726,5.314C279.357,134.296,281.736,133.523,282.729,131.579"/>
	<path display="inline" fill="#C32782" d="M128.484,190.82c1.386-2.307,0.64-5.303-1.667-6.688
		c-2.309-1.387-5.302-0.641-6.689,1.668c-1.386,2.308-0.64,5.304,1.668,6.688C124.103,193.874,127.099,193.128,128.484,190.82"/>
	<path display="inline" fill="#83B451" d="M181.401,188.707c1.387-2.725,0.305-6.057-2.419-7.441
		c-2.722-1.389-6.054-0.306-7.443,2.416c-1.386,2.729-0.303,6.062,2.42,7.44C176.682,192.512,180.013,191.428,181.401,188.707"/>
	<path display="inline" fill="#83B451" d="M317.755,206.218c1.308-2.565,0.287-5.702-2.276-7.011
		c-2.562-1.305-5.703-0.287-7.011,2.277c-1.306,2.562-0.288,5.703,2.277,7.012C313.311,209.802,316.449,208.779,317.755,206.218"/>
	<path display="inline" fill="#3D80B0" d="M158.755,99.402c3.25,0,5.885-2.635,5.885-5.884s-2.635-5.884-5.885-5.884
		s-5.708,2.731-5.708,5.884S155.504,99.402,158.755,99.402"/>
	<path display="inline" fill="#3D80B0" d="M234.971,153.607c2.854,0,5.163-2.313,5.163-5.167s-2.312-5.163-5.163-5.163
		c-2.853,0-5.164,2.312-5.164,5.163S232.118,153.607,234.971,153.607"/>
	<path display="inline" fill="#3D80B0" d="M251.135,175.591c2.491,0,4.512-2.018,4.512-4.508c0-2.495-2.021-4.513-4.512-4.513
		c-2.49,0-4.512,2.018-4.512,4.513C246.623,173.573,248.645,175.591,251.135,175.591"/>
	<path display="inline" fill="#3D80B0" d="M207.813,140.362c2.543,0,4.606-2.062,4.606-4.606c0-2.546-2.062-4.608-4.606-4.608
		c-2.545,0-4.609,2.062-4.609,4.608C203.204,138.3,205.268,140.362,207.813,140.362"/>
	<path display="inline" fill="#3D80B0" d="M271.004,217.812c2.291,0,4.146-1.857,4.146-4.146c0-2.291-1.855-4.146-4.146-4.146
		c-2.289,0-4.146,1.854-4.146,4.146C266.855,215.955,268.715,217.812,271.004,217.812"/>
	<path display="inline" fill="#3D80B0" d="M141.912,195.055c2.284,0.159,4.266-1.561,4.426-3.848
		c0.16-2.286-1.562-4.268-3.847-4.425c-2.286-0.16-4.267,1.562-4.425,3.847C137.905,192.911,139.628,194.895,141.912,195.055"/>
	<path display="inline" fill="#C32782" d="M182.469,90.336c3.251-1.656,4.544-5.636,2.888-8.887
		c-1.656-3.252-5.637-4.546-8.887-2.888c-3.252,1.657-4.1,5.649-2.54,8.71C175.491,90.332,179.219,91.993,182.469,90.336"/>
	<path display="inline" fill="#C32782" d="M235.521,172.016c2.511-1.271,3.508-4.352,2.229-6.854
		c-1.279-2.518-4.352-3.514-6.857-2.229c-2.511,1.275-3.506,4.354-2.229,6.855C229.943,172.296,233.014,173.292,235.521,172.016"/>
	<path display="inline" fill="#83B451" d="M239.7,189.453c2.347-1.197,3.28-4.067,2.083-6.417c-1.194-2.345-4.067-3.276-6.413-2.082
		c-2.349,1.196-3.281,4.067-2.086,6.416C234.48,189.716,237.354,190.648,239.7,189.453"/>
	<path display="inline" fill="#C32782" d="M264.372,162.121c2.521-1.283,3.519-4.362,2.235-6.883
		c-1.282-2.518-4.362-3.522-6.883-2.236c-2.521,1.283-3.521,4.364-2.234,6.885C258.771,162.404,261.854,163.404,264.372,162.121"/>
	<path display="inline" fill="#C32782" d="M206.504,211.652c1.798-0.914,2.513-3.112,1.596-4.911
		c-0.916-1.798-3.114-2.509-4.912-1.597c-1.798,0.916-2.513,3.108-1.596,4.916C202.507,211.857,204.706,212.568,206.504,211.652"/>
	<path display="inline" fill="#C32782" d="M240,67.232c1.568-0.801,2.193-2.722,1.395-4.291c-0.799-1.57-2.721-2.194-4.291-1.394
		c-1.562,0.799-2.188,2.721-1.394,4.29C236.51,67.407,238.432,68.031,240,67.232"/>
	<path display="inline" fill="#C32782" d="M190.31,174.895c2.596-1.324,3.628-4.498,2.306-7.097c-1.323-2.596-4.5-3.627-7.095-2.303
		c-2.595,1.321-3.628,4.498-2.306,7.094C184.538,175.186,187.715,176.216,190.31,174.895"/>
	<path display="inline" fill="#C32782" d="M264.177,118.248c1.907-0.971,2.664-3.301,1.693-5.209
		c-0.97-1.904-3.304-2.662-5.209-1.691c-1.905,0.971-2.664,3.302-1.693,5.208C259.938,118.46,262.271,119.221,264.177,118.248"/>
	<path display="inline" fill="#A9526F" d="M275.365,114.864c1.703-0.868,2.38-2.954,1.513-4.656s-2.952-2.38-4.655-1.513
		c-1.703,0.868-2.38,2.952-1.512,4.656C271.579,115.054,273.662,115.73,275.365,114.864"/>
	<path display="inline" fill="#77579C" d="M180.283,210.986c2.246-0.315,3.81-2.396,3.496-4.639
		c-0.317-2.246-2.393-3.812-4.639-3.494c-2.245,0.312-3.808,2.392-3.493,4.638C175.962,209.736,178.038,211.3,180.283,210.986"/>
	<path display="inline" fill="#77579C" d="M279.338,99.146c1.938-0.1,3.426-1.754,3.324-3.692s-1.756-3.428-3.693-3.326
		c-1.937,0.102-3.426,1.756-3.324,3.693C275.746,97.76,277.398,99.248,279.338,99.146"/>
	<path display="inline" fill="#3D80B0" d="M262.652,90.337c1.923-0.271,3.262-2.048,2.99-3.97c-0.271-1.922-2.045-3.261-3.976-2.991
		c-1.922,0.271-3.261,2.046-2.983,3.97C258.956,89.268,260.73,90.608,262.652,90.337"/>
	<path display="inline" fill="#9FC698" d="M248.527,81.938c1.923-0.271,3.261-2.048,2.992-3.969c-0.271-1.922-2.047-3.26-3.979-2.99
		c-1.919,0.271-3.264,2.046-2.982,3.969C244.829,80.869,246.605,82.208,248.527,81.938"/>
	<path display="inline" fill="#A9526F" d="M194.723,213.398c1.687-1.146,2.133-3.437,0.993-5.117
		c-1.138-1.688-3.429-2.133-5.115-0.994c-1.688,1.138-2.133,3.429-0.995,5.115C190.744,214.09,193.035,214.534,194.723,213.398"/>
	<path display="inline" fill="#C32782" d="M227.908,195.486c1.791-1.207,2.265-3.641,1.057-5.432s-3.641-2.271-5.432-1.062
		c-1.792,1.209-2.264,3.646-1.057,5.438C223.688,196.221,226.118,196.693,227.908,195.486"/>
	<path display="inline" fill="#9FC698" d="M212.49,203.691c1.134,1.744,3.464,2.238,5.207,1.104c1.745-1.13,2.241-3.461,1.108-5.207
		c-1.133-1.738-3.465-2.236-5.207-1.104C211.854,199.615,211.357,201.945,212.49,203.691"/>
</g>
<g enable-background="new    ">
	<path fill="#6B6B6B" d="M155.558,83.446l1.696,0.005l-0.036,13.418l4.187,0.011l-0.004,1.433l-5.883-0.016L155.558,83.446z"/>
</g>
<g enable-background="new    ">
	<path fill="#6B6B6B" d="M163.513,83.292c-0.468,1.784-1.421,4.072-1.997,5.063l-1.014,0.151c0.466-1.277,1.067-3.522,1.292-5.043
		L163.513,83.292z"/>
</g>
<g enable-background="new    ">
	<path fill="#6B6B6B" d="M164.61,93.145c0.013,3.261,1.289,3.97,2.523,3.973c0.727,0.002,1.345-0.172,1.764-0.414l0.261,1.257
		c-0.596,0.329-1.5,0.503-2.337,0.5c-2.556-0.007-3.872-2.103-3.863-5.363c0.009-3.46,1.469-5.615,3.606-5.61
		c2.182,0.006,3.035,2.301,3.028,4.725c-0.001,0.396-0.002,0.683-0.024,0.947L164.61,93.145z M167.962,91.897
		c0.05-2.138-0.763-3.087-1.578-3.089c-1.102-0.003-1.679,1.626-1.749,3.08L167.962,91.897z"/>
	<path fill="#6B6B6B" d="M171.427,90.431c0.003-1.256-0.062-1.895-0.081-2.754l1.477,0.004l0.084,1.277h0.044
		c0.465-0.858,1.326-1.45,2.45-1.447c1.477,0.004,2.575,1.108,2.568,3.687l-0.02,7.161l-1.697-0.005l0.019-6.875
		c0.003-1.256-0.235-2.533-1.469-2.537c-0.705-0.002-1.39,0.591-1.613,1.736c-0.044,0.265-0.068,0.595-0.069,0.947l-0.018,6.721
		l-1.696-0.005L171.427,90.431z"/>
	<path fill="#6B6B6B" d="M180.049,96.602c0.374,0.243,1.034,0.554,1.717,0.556c0.969,0.002,1.566-0.591,1.568-1.538
		c0.002-0.815-0.283-1.367-1.36-2.098c-1.386-0.907-2.132-1.812-2.129-3.046c0.004-1.719,1.286-2.949,2.938-2.945
		c0.837,0.003,1.476,0.291,1.916,0.557l-0.466,1.276c-0.396-0.266-0.858-0.465-1.409-0.467c-0.925-0.002-1.39,0.658-1.392,1.341
		c-0.002,0.728,0.261,1.124,1.317,1.854c1.231,0.797,2.199,1.769,2.195,3.244c-0.006,2.138-1.463,3.169-3.204,3.164
		c-0.793-0.002-1.652-0.246-2.113-0.621L180.049,96.602z"/>
	<path fill="#6B6B6B" d="M187.903,93.207c0.014,3.262,1.29,3.97,2.523,3.974c0.727,0.002,1.344-0.173,1.764-0.415l0.261,1.257
		c-0.596,0.329-1.5,0.503-2.337,0.501c-2.556-0.007-3.872-2.104-3.863-5.364c0.009-3.46,1.469-5.615,3.607-5.609
		c2.181,0.006,3.034,2.3,3.028,4.724c-0.001,0.396-0.002,0.683-0.024,0.947L187.903,93.207z M191.256,91.961
		c0.049-2.138-0.763-3.087-1.579-3.09c-1.102-0.003-1.679,1.627-1.749,3.081L191.256,91.961z"/>
	<path fill="#6B6B6B" d="M194.721,90.493c0.003-1.256-0.062-1.895-0.081-2.754l1.477,0.004l0.084,1.322l0.044,0.001
		c0.465-0.858,1.282-1.496,2.406-1.493c0.992,0.003,1.827,0.49,2.221,1.637h0.044c0.288-0.528,0.664-0.945,1.061-1.209
		c0.419-0.284,0.926-0.416,1.477-0.415c1.432,0.004,2.553,1.065,2.546,3.775l-0.019,7.073l-1.675-0.005l0.018-6.676
		c0.004-1.389-0.191-2.733-1.491-2.736c-0.705-0.002-1.324,0.591-1.569,1.581c-0.044,0.287-0.067,0.617-0.068,0.97l-0.019,6.853
		l-1.675-0.004l0.019-6.984c0.003-1.19-0.214-2.425-1.47-2.428c-0.683-0.002-1.39,0.591-1.591,1.714
		c-0.045,0.286-0.068,0.595-0.069,0.925l-0.018,6.765l-1.674-0.005L194.721,90.493z"/>
	<path fill="#6B6B6B" d="M208.252,98.44c0.023-0.617,0.093-1.829,0.095-2.556l0.034-12.691l1.696,0.005l-0.016,5.839h0.044
		c0.554-1.057,1.348-1.429,2.251-1.427c1.653,0.005,2.903,1.925,2.894,5.406c-0.01,3.856-1.602,5.614-3.254,5.609
		c-1.124-0.003-1.694-0.665-2.111-1.569h-0.066l-0.114,1.388L208.252,98.44z M210.047,94.678c0,0.242-0.001,0.484,0.064,0.661
		c0.392,1.587,1.119,1.875,1.582,1.876c1.366,0.004,1.855-1.846,1.862-4.115c0.006-2.137-0.496-4.033-1.862-4.037
		c-0.793-0.002-1.457,0.988-1.591,1.892c-0.045,0.242-0.046,0.507-0.047,0.749L210.047,94.678z"/>
	<path fill="#6B6B6B" d="M217.197,83.217l1.696,0.005l-0.041,15.247l-1.696-0.005L217.197,83.217z"/>
	<path fill="#6B6B6B" d="M222.568,93.301c0.014,3.261,1.289,3.97,2.523,3.973c0.727,0.002,1.344-0.172,1.764-0.414l0.261,1.257
		c-0.596,0.329-1.499,0.503-2.337,0.5c-2.556-0.007-3.872-2.103-3.863-5.363c0.01-3.46,1.469-5.615,3.607-5.609
		c2.181,0.006,3.033,2.3,3.027,4.724c-0.001,0.396-0.002,0.683-0.024,0.947L222.568,93.301z M225.922,92.055
		c0.049-2.138-0.764-3.088-1.579-3.09c-1.102-0.003-1.679,1.627-1.749,3.08L225.922,92.055z"/>
	<path fill="#6B6B6B" d="M239.277,83.276l-0.035,12.691c-0.002,0.727,0.062,1.939,0.082,2.557l-1.455-0.004l-0.105-1.345h-0.066
		c-0.355,0.77-1.105,1.517-2.229,1.514c-1.807-0.005-3.102-1.97-3.093-5.473c0.011-3.79,1.58-5.548,3.232-5.544
		c0.771,0.002,1.52,0.38,1.936,1.284h0.045l0.015-5.685L239.277,83.276z M237.58,91.909c0-0.22,0-0.463-0.021-0.705
		c-0.107-1.103-0.767-2.073-1.581-2.076c-1.41-0.004-1.9,1.956-1.906,4.094c-0.006,2.247,0.562,4.056,1.796,4.059
		c0.528,0.002,1.257-0.282,1.636-1.823c0.045-0.198,0.066-0.44,0.068-0.705L237.58,91.909z"/>
	<path fill="#6B6B6B" d="M242.821,93.355c0.013,3.261,1.289,3.97,2.522,3.973c0.728,0.002,1.346-0.172,1.764-0.414l0.262,1.257
		c-0.596,0.329-1.5,0.503-2.338,0.5c-2.555-0.007-3.871-2.103-3.863-5.363c0.01-3.46,1.47-5.615,3.607-5.609
		c2.182,0.006,3.034,2.3,3.027,4.724c0,0.396-0.002,0.683-0.023,0.947L242.821,93.355z M246.174,92.109
		c0.049-2.138-0.764-3.088-1.578-3.09c-1.102-0.003-1.68,1.627-1.749,3.08L246.174,92.109z"/>
	<path fill="#6B6B6B" d="M249.335,96.788c0.374,0.243,1.034,0.554,1.718,0.556c0.969,0.003,1.565-0.591,1.568-1.538
		c0.002-0.815-0.283-1.366-1.361-2.097c-1.385-0.907-2.132-1.812-2.129-3.046c0.005-1.719,1.286-2.95,2.939-2.945
		c0.836,0.002,1.475,0.291,1.914,0.556l-0.465,1.277c-0.396-0.266-0.859-0.465-1.41-0.467c-0.926-0.003-1.389,0.657-1.391,1.34
		c-0.002,0.728,0.261,1.125,1.316,1.855c1.231,0.796,2.199,1.769,2.195,3.244c-0.006,2.138-1.463,3.169-3.204,3.164
		c-0.794-0.002-1.651-0.247-2.113-0.622L249.335,96.788z"/>
	<path fill="#6B6B6B" d="M260.649,93.404c0.013,3.261,1.289,3.969,2.522,3.973c0.728,0.002,1.346-0.173,1.764-0.414l0.262,1.256
		c-0.596,0.33-1.5,0.503-2.338,0.501c-2.555-0.007-3.871-2.104-3.863-5.364c0.01-3.46,1.47-5.615,3.607-5.609
		c2.182,0.006,3.034,2.3,3.027,4.724c0,0.396-0.002,0.683-0.023,0.947L260.649,93.404z M264.002,92.157
		c0.049-2.138-0.764-3.087-1.578-3.09c-1.102-0.003-1.68,1.627-1.749,3.081L264.002,92.157z M265.215,83.566l-2.322,2.969
		l-1.123-0.003l1.704-2.971L265.215,83.566z"/>
	<path fill="#6B6B6B" d="M267.486,83.353l1.695,0.005l-0.041,15.247l-1.695-0.005L267.486,83.353z"/>
	<path fill="#6B6B6B" d="M278.052,95.721c-0.003,1.189,0.06,2.115,0.081,2.908l-1.477-0.004l-0.107-1.124l-0.045-0.001
		c-0.332,0.529-1.148,1.297-2.295,1.294c-1.872-0.005-2.596-1.461-2.588-4.104l0.018-6.742l1.697,0.005l-0.018,6.5
		c-0.005,1.674,0.256,2.908,1.424,2.912c0.992,0.002,1.435-0.922,1.524-1.406c0.066-0.286,0.089-0.617,0.091-0.97l0.019-7.028
		l1.696,0.005L278.052,95.721z"/>
	<path fill="#6B6B6B" d="M280.144,96.872c0.374,0.243,1.034,0.553,1.718,0.555c0.969,0.003,1.565-0.59,1.568-1.537
		c0.002-0.815-0.283-1.367-1.361-2.098c-1.385-0.907-2.132-1.812-2.129-3.046c0.005-1.719,1.286-2.95,2.939-2.945
		c0.836,0.002,1.475,0.291,1.914,0.556l-0.465,1.277c-0.396-0.266-0.859-0.465-1.41-0.467c-0.926-0.002-1.389,0.657-1.391,1.34
		c-0.002,0.728,0.261,1.125,1.316,1.855c1.231,0.796,2.199,1.769,2.195,3.244c-0.006,2.138-1.463,3.169-3.204,3.164
		c-0.794-0.002-1.651-0.246-2.113-0.622L280.144,96.872z"/>
</g>
<g enable-background="new    ">
	<path fill="#6B6B6B" d="M109.765,119.441c0.013,3.261,1.289,3.97,2.523,3.973c0.727,0.002,1.345-0.172,1.764-0.414l0.261,1.257
		c-0.596,0.329-1.5,0.503-2.337,0.5c-2.556-0.007-3.872-2.103-3.863-5.363c0.009-3.46,1.469-5.615,3.606-5.61
		c2.182,0.006,3.035,2.301,3.028,4.725c-0.001,0.396-0.002,0.683-0.024,0.947L109.765,119.441z M113.117,118.194
		c0.05-2.138-0.763-3.087-1.578-3.089c-1.102-0.003-1.679,1.626-1.749,3.08L113.117,118.194z"/>
	<path fill="#6B6B6B" d="M118.668,111.159l-0.008,2.82l2.049,0.005l-0.003,1.3l-2.049-0.005l-0.017,6.323
		c-0.004,1.389,0.501,1.764,1.119,1.766c0.264,0,0.485-0.021,0.684-0.063l0.062,1.3c-0.309,0.109-0.706,0.174-1.256,0.172
		c-0.661-0.001-1.255-0.179-1.672-0.643c-0.417-0.485-0.636-1.214-0.632-2.69l0.017-6.169l-1.3-0.004l0.003-1.3l1.3,0.004
		l0.006-2.336L118.668,111.159z"/>
</g>
<g enable-background="new    ">
	<path fill="#6B6B6B" d="M125.682,109.415l1.696,0.004l-0.041,15.247l-1.696-0.004L125.682,109.415z"/>
</g>
<g enable-background="new    ">
	<path fill="#6B6B6B" d="M132.181,109.652c-0.468,1.784-1.421,4.072-1.997,5.063l-1.014,0.151c0.466-1.277,1.067-3.522,1.292-5.043
		L132.181,109.652z"/>
</g>
<g enable-background="new    ">
	<path fill="#6B6B6B" d="M133.279,119.505c0.013,3.261,1.289,3.97,2.523,3.973c0.727,0.002,1.345-0.172,1.764-0.414l0.261,1.257
		c-0.596,0.329-1.5,0.503-2.337,0.5c-2.556-0.007-3.872-2.103-3.863-5.363c0.009-3.46,1.469-5.615,3.606-5.61
		c2.182,0.006,3.035,2.301,3.028,4.725c-0.001,0.396-0.002,0.683-0.024,0.947L133.279,119.505z M136.631,118.258
		c0.05-2.138-0.763-3.087-1.578-3.089c-1.102-0.003-1.679,1.626-1.749,3.08L136.631,118.258z M137.844,109.668l-2.321,2.968
		l-1.124-0.003l1.704-2.97L137.844,109.668z"/>
	<path fill="#6B6B6B" d="M144.814,123.612h-0.066c-0.354,0.726-1.083,1.274-2.052,1.271c-1.719-0.005-3.08-1.88-3.07-5.384
		c0.01-3.768,1.602-5.637,3.364-5.632c0.683,0.002,1.475,0.312,1.979,1.415l0.044,0.023l0.091-1.256l1.521,0.004
		c-0.046,0.749-0.093,1.696-0.097,3.327l-0.031,11.567l-1.696-0.005L144.814,123.612z M144.83,118.038
		c0-0.221,0.001-0.507-0.042-0.705c-0.129-1.124-0.788-2.008-1.537-2.01c-1.388-0.004-1.922,1.846-1.928,4.093
		c-0.006,2.247,0.562,4.056,1.862,4.06c0.529,0.001,1.191-0.305,1.547-1.78c0.089-0.265,0.09-0.617,0.091-0.903L144.83,118.038z"/>
	<path fill="#6B6B6B" d="M155.265,121.834c-0.003,1.189,0.06,2.115,0.08,2.908l-1.476-0.004l-0.107-1.124h-0.044
		c-0.332,0.528-1.149,1.296-2.295,1.293c-1.873-0.005-2.596-1.461-2.588-4.104l0.018-6.742l1.696,0.005l-0.018,6.5
		c-0.004,1.674,0.257,2.909,1.424,2.912c0.992,0.003,1.435-0.922,1.524-1.406c0.066-0.286,0.089-0.617,0.09-0.97l0.019-7.028
		l1.697,0.005L155.265,121.834z"/>
	<path fill="#6B6B6B" d="M159.503,111.335c0.021,0.661-0.399,1.101-1.039,1.1c-0.551-0.002-0.968-0.444-0.966-1.105
		c0.002-0.66,0.443-1.101,0.994-1.099C159.109,110.231,159.505,110.675,159.503,111.335z M157.638,124.748l0.029-10.664l1.696,0.005
		l-0.029,10.664L157.638,124.748z"/>
	<path fill="#6B6B6B" d="M161.691,117.423c0.004-1.631-0.06-2.579-0.08-3.328l1.521,0.005l0.084,1.366h0.044
		c0.576-1.145,1.415-1.539,2.251-1.537c1.851,0.005,3.08,1.992,3.07,5.495c-0.011,3.944-1.646,5.525-3.32,5.521
		c-0.992-0.003-1.562-0.644-1.848-1.239h-0.044l-0.014,5.288l-1.696-0.004L161.691,117.423z M163.378,120.842
		c-0.001,0.33-0.002,0.639,0.064,0.882c0.326,1.521,1.097,1.81,1.56,1.811c1.41,0.004,1.856-1.934,1.862-4.093
		c0.006-2.203-0.518-4.057-1.862-4.06c-0.771-0.002-1.457,0.966-1.57,1.935c-0.044,0.265-0.045,0.528-0.046,0.815L163.378,120.842z"
		/>
	<path fill="#6B6B6B" d="M171.69,119.608c0.013,3.261,1.289,3.97,2.523,3.973c0.727,0.002,1.345-0.172,1.764-0.414l0.261,1.257
		c-0.596,0.329-1.5,0.503-2.337,0.5c-2.556-0.007-3.872-2.103-3.863-5.363c0.009-3.46,1.469-5.615,3.606-5.609
		c2.182,0.006,3.035,2.3,3.028,4.724c-0.001,0.396-0.002,0.683-0.024,0.947L171.69,119.608z M175.042,118.362
		c0.05-2.138-0.763-3.088-1.578-3.09c-1.102-0.003-1.679,1.627-1.749,3.08L175.042,118.362z"/>
	<path fill="#6B6B6B" d="M188.398,109.584l-0.034,12.691c-0.002,0.727,0.061,1.939,0.082,2.557l-1.455-0.004l-0.106-1.345h-0.066
		c-0.355,0.77-1.106,1.517-2.229,1.514c-1.807-0.005-3.102-1.97-3.092-5.473c0.01-3.79,1.58-5.548,3.232-5.544
		c0.771,0.002,1.52,0.38,1.936,1.284h0.044l0.015-5.685L188.398,109.584z M186.701,118.217c0-0.22,0.001-0.463-0.021-0.705
		c-0.107-1.103-0.766-2.073-1.581-2.076c-1.41-0.004-1.9,1.956-1.906,4.094c-0.006,2.247,0.562,4.056,1.796,4.059
		c0.529,0.002,1.256-0.282,1.635-1.823c0.044-0.198,0.067-0.44,0.068-0.705L186.701,118.217z"/>
	<path fill="#6B6B6B" d="M197.136,121.947c-0.003,1.189,0.06,2.115,0.08,2.908l-1.476-0.004l-0.107-1.124l-0.044-0.001
		c-0.332,0.528-1.149,1.297-2.295,1.294c-1.873-0.005-2.596-1.461-2.588-4.104l0.018-6.742l1.696,0.005l-0.018,6.5
		c-0.004,1.674,0.257,2.908,1.424,2.912c0.992,0.002,1.435-0.923,1.524-1.406c0.066-0.286,0.089-0.617,0.09-0.97l0.019-7.028
		l1.697,0.005L197.136,121.947z"/>
	<path fill="#6B6B6B" d="M202.776,122.909c0.505,0.332,1.387,0.599,2.136,0.601c1.542,0.004,2.47-1.007,2.475-2.505
		c0.003-1.366-0.788-2.205-1.953-3.09c-1.166-0.819-2.792-2.211-2.788-4.128c0.006-2.247,1.575-3.896,3.933-3.889
		c0.925,0.002,1.74,0.29,2.092,0.556l-0.423,1.453c-0.374-0.266-0.99-0.509-1.761-0.512c-1.454-0.004-2.14,1.097-2.143,2.11
		c-0.004,1.476,0.766,2.051,2.173,3.068c1.781,1.26,2.571,2.629,2.566,4.281c-0.007,2.556-1.818,4.159-4.175,4.152
		c-1.014-0.003-2.092-0.336-2.51-0.646L202.776,122.909z"/>
	<path fill="#6B6B6B" d="M212.793,110.047l-0.04,14.851l-1.697-0.005l0.04-14.851L212.793,110.047z"/>
	<path fill="#6B6B6B" d="M217.219,111.579l-2.71-0.007l0.004-1.521l7.116,0.019l-0.004,1.521l-2.709-0.007l-0.037,13.33
		l-1.696-0.005L217.219,111.579z"/>
</g>
<g enable-background="new    ">
	<path fill="#6B6B6B" d="M227.46,114.272l1.327,5.997c0.152,0.727,0.326,1.676,0.457,2.601h0.065
		c0.112-0.88,0.291-1.783,0.448-2.598l1.338-5.99l1.674,0.005l-2.805,10.656l-1.521-0.004l-2.747-10.672L227.46,114.272z"/>
</g>
<g enable-background="new    ">
	<path fill="#6B6B6B" d="M240.512,119.641c-0.012,4.12-1.933,5.503-3.562,5.498c-1.918-0.005-3.455-1.749-3.445-5.495
		c0.011-3.899,1.756-5.526,3.584-5.521C238.983,114.128,240.521,115.917,240.512,119.641z M235.201,119.626
		c-0.005,1.763,0.297,4.165,1.84,4.169c1.453,0.004,1.746-2.507,1.752-4.159c0.004-1.631-0.276-4.144-1.774-4.147
		C235.498,115.484,235.205,117.995,235.201,119.626z"/>
	<path fill="#6B6B6B" d="M248.791,122.087c-0.004,1.189,0.06,2.115,0.08,2.908l-1.477-0.004l-0.107-1.124h-0.044
		c-0.332,0.528-1.149,1.296-2.295,1.293c-1.872-0.005-2.597-1.461-2.589-4.104l0.018-6.742l1.697,0.005l-0.018,6.5
		c-0.004,1.674,0.257,2.908,1.424,2.912c0.992,0.002,1.436-0.922,1.525-1.406c0.066-0.286,0.089-0.617,0.09-0.97l0.02-7.028
		l1.696,0.005L248.791,122.087z"/>
	<path fill="#6B6B6B" d="M250.883,123.238c0.373,0.243,1.033,0.553,1.717,0.555c0.969,0.003,1.566-0.59,1.568-1.537
		c0.002-0.815-0.283-1.367-1.36-2.098c-1.386-0.907-2.132-1.812-2.129-3.046c0.005-1.719,1.286-2.949,2.938-2.945
		c0.837,0.002,1.475,0.291,1.915,0.556L255.066,116c-0.396-0.266-0.858-0.465-1.409-0.467c-0.926-0.002-1.39,0.657-1.392,1.34
		c-0.002,0.728,0.262,1.125,1.316,1.855c1.232,0.796,2.199,1.769,2.195,3.244c-0.006,2.138-1.463,3.169-3.203,3.164
		c-0.794-0.002-1.652-0.246-2.113-0.622L250.883,123.238z"/>
	<path fill="#6B6B6B" d="M260.711,123.265c0.373,0.243,1.034,0.554,1.717,0.556c0.97,0.002,1.566-0.591,1.568-1.538
		c0.003-0.815-0.282-1.367-1.359-2.098c-1.387-0.907-2.133-1.812-2.129-3.046c0.004-1.719,1.285-2.949,2.938-2.945
		c0.838,0.003,1.476,0.291,1.916,0.557l-0.467,1.276c-0.396-0.266-0.857-0.465-1.408-0.467c-0.926-0.002-1.391,0.658-1.393,1.341
		c-0.002,0.728,0.262,1.124,1.317,1.854c1.231,0.797,2.198,1.769,2.194,3.244c-0.006,2.138-1.463,3.169-3.203,3.164
		c-0.793-0.002-1.652-0.246-2.113-0.621L260.711,123.265z"/>
	<path fill="#6B6B6B" d="M273.92,119.73c-0.012,4.12-1.932,5.503-3.562,5.498c-1.917-0.005-3.455-1.749-3.445-5.495
		c0.012-3.899,1.756-5.525,3.585-5.521C272.393,114.218,273.93,116.007,273.92,119.73z M268.609,119.717
		c-0.004,1.763,0.297,4.164,1.84,4.169c1.455,0.004,1.747-2.507,1.752-4.159c0.004-1.631-0.275-4.144-1.773-4.147
		C268.906,115.574,268.614,118.086,268.609,119.717z"/>
	<path fill="#6B6B6B" d="M282.199,122.177c-0.003,1.189,0.061,2.115,0.08,2.908l-1.477-0.004l-0.106-1.124h-0.044
		c-0.332,0.528-1.149,1.297-2.295,1.294c-1.873-0.006-2.596-1.462-2.589-4.105l0.019-6.742l1.695,0.005l-0.018,6.5
		c-0.004,1.674,0.258,2.909,1.425,2.912c0.991,0.003,1.435-0.922,1.524-1.406c0.066-0.286,0.09-0.617,0.09-0.97l0.02-7.028
		l1.697,0.005L282.199,122.177z"/>
	<path fill="#6B6B6B" d="M284.613,109.845l1.697,0.004l-0.016,5.729l0.045,0.001c0.221-0.375,0.553-0.704,0.883-0.924
		c0.397-0.241,0.816-0.395,1.434-0.393c1.344,0.004,2.486,1.087,2.479,3.774l-0.019,7.073l-1.697-0.005l0.019-6.875
		c0.003-1.3-0.279-2.534-1.425-2.537c-0.793-0.002-1.391,0.568-1.657,1.692c-0.046,0.242-0.067,0.55-0.069,0.814l-0.018,6.896
		l-1.697-0.004L284.613,109.845z"/>
	<path fill="#6B6B6B" d="M297.707,125.127l-0.107-1.124h-0.066c-0.465,0.813-1.215,1.296-2.119,1.294
		c-1.432-0.004-2.53-1.218-2.525-3.047c0.008-2.666,2.147-3.851,4.549-3.866l0.002-0.331c0.004-1.432-0.346-2.424-1.69-2.427
		c-0.661-0.002-1.257,0.216-1.765,0.546l-0.371-1.191c0.441-0.329,1.434-0.701,2.492-0.698c2.137,0.005,3.059,1.418,3.053,3.82
		l-0.014,4.604c-0.002,0.815-0.004,1.741,0.104,2.424L297.707,125.127z M297.479,119.617c-0.881-0.002-2.93,0.146-2.937,2.46
		c-0.004,1.389,0.7,1.897,1.294,1.899c0.75,0.002,1.391-0.547,1.592-1.604c0.044-0.198,0.045-0.419,0.045-0.596L297.479,119.617z"/>
	<path fill="#6B6B6B" d="M303.385,111.724c0.021,0.661-0.399,1.102-1.039,1.1c-0.551-0.002-0.967-0.444-0.966-1.105
		c0.002-0.66,0.443-1.101,0.994-1.099C302.991,110.621,303.387,111.063,303.385,111.724z M301.52,125.138l0.029-10.664l1.696,0.004
		l-0.028,10.664L301.52,125.138z"/>
</g>
<g enable-background="new    ">
	<path fill="#6B6B6B" d="M307.684,111.67l-0.008,2.82l2.05,0.005l-0.003,1.3l-2.05-0.005l-0.017,6.323
		c-0.004,1.389,0.502,1.764,1.119,1.766c0.264,0,0.484-0.021,0.684-0.063l0.062,1.3c-0.309,0.109-0.706,0.174-1.257,0.172
		c-0.66-0.002-1.255-0.179-1.672-0.643c-0.418-0.486-0.636-1.214-0.632-2.69l0.017-6.169l-1.3-0.004l0.003-1.3l1.301,0.004
		l0.006-2.336L307.684,111.67z"/>
</g>
<g enable-background="new    ">
	<path fill="#6B6B6B" d="M312.246,119.988c0.013,3.261,1.289,3.97,2.522,3.973c0.728,0.002,1.345-0.172,1.764-0.414l0.261,1.257
		c-0.596,0.329-1.5,0.503-2.337,0.5c-2.556-0.007-3.872-2.103-3.863-5.363c0.009-3.46,1.47-5.615,3.606-5.61
		c2.182,0.006,3.035,2.301,3.028,4.725c-0.001,0.396-0.002,0.683-0.024,0.947L312.246,119.988z M315.598,118.741
		c0.05-2.138-0.763-3.087-1.578-3.089c-1.102-0.003-1.679,1.626-1.748,3.08L315.598,118.741z"/>
</g>
<g enable-background="new    ">
	<path fill="#6B6B6B" d="M319.062,117.274c0.004-1.256-0.061-1.895-0.08-2.754l1.477,0.004l0.084,1.277h0.044
		c0.466-0.858,1.326-1.45,2.45-1.447c1.477,0.004,2.574,1.108,2.568,3.687l-0.02,7.161l-1.697-0.005l0.019-6.875
		c0.003-1.256-0.235-2.533-1.47-2.537c-0.705-0.002-1.389,0.591-1.613,1.736c-0.045,0.265-0.067,0.594-0.068,0.946l-0.018,6.721
		l-1.697-0.004L319.062,117.274z"/>
</g>
<g enable-background="new    ">
	<path fill="#6B6B6B" d="M329.965,111.729l-0.008,2.82l2.049,0.005l-0.004,1.3l-2.049-0.005l-0.018,6.323
		c-0.004,1.389,0.502,1.764,1.119,1.766c0.265,0,0.485-0.021,0.684-0.063l0.062,1.3c-0.309,0.109-0.705,0.174-1.256,0.172
		c-0.662-0.002-1.256-0.179-1.674-0.643c-0.416-0.486-0.635-1.214-0.631-2.69l0.017-6.169l-1.3-0.004l0.004-1.3l1.299,0.004
		l0.007-2.336L329.965,111.729z"/>
</g>
<g>
	<path fill="#719E3E" d="M123.788,138.357h2.62v11.264h3.44v2.219h-6.061L123.788,138.357L123.788,138.357z"/>
	<path fill="#719E3E" d="M138.213,145.92h-3.061v3.641h3.46v2.279h-6.081v-13.482h5.86v2.281h-3.24v3.101h3.061L138.213,145.92
		L138.213,145.92z"/>
	<path fill="#719E3E" d="M144.096,138.357v8.763c0,1.979,0.58,2.581,1.28,2.581c0.76,0,1.3-0.541,1.3-2.581v-8.763h2.62v8.303
		c0,3.461-1.32,5.34-3.9,5.34c-2.821,0-3.921-1.959-3.921-5.32v-8.322L144.096,138.357L144.096,138.357z"/>
	<path fill="#719E3E" d="M152.702,138.559c0.82-0.16,1.86-0.26,2.86-0.26c1.441,0,2.741,0.199,3.601,1
		c0.82,0.74,1.081,1.641,1.081,2.801c0,1.439-0.72,2.74-2.081,3.359v0.041c0.92,0.379,1.38,1.22,1.641,2.68
		c0.26,1.502,0.62,3.16,0.86,3.66h-2.741c-0.18-0.379-0.479-1.74-0.68-3.24c-0.24-1.66-0.66-2.141-1.52-2.141h-0.401v5.381h-2.62
		V138.559L152.702,138.559z M155.321,144.439h0.48c1.141,0,1.781-0.92,1.781-2.101c0-1.16-0.46-1.96-1.621-2
		c-0.24,0-0.5,0.021-0.641,0.079L155.321,144.439L155.321,144.439z"/>
	<path fill="#719E3E" d="M162.946,149.16c0.54,0.301,1.48,0.521,2.22,0.521c1.22,0,1.84-0.641,1.84-1.521
		c0-0.98-0.601-1.461-1.74-2.201c-1.84-1.119-2.54-2.539-2.54-3.76c0-2.16,1.44-3.961,4.24-3.961c0.901,0,1.74,0.26,2.121,0.48
		l-0.42,2.26c-0.38-0.24-0.96-0.46-1.7-0.46c-1.12,0-1.66,0.679-1.66,1.38c0,0.82,0.399,1.24,1.839,2.121
		c1.801,1.08,2.441,2.439,2.441,3.859c0,2.461-1.82,4.082-4.441,4.082c-1.08,0-2.121-0.278-2.581-0.541L162.946,149.16z"/>
	<path fill="#719E3E" d="M184.834,147.12c-0.08-1.28-0.16-3.001-0.141-4.46h-0.04c-0.24,1.439-0.6,3.1-0.86,4.139l-1.18,4.822h-1.84
		l-1.12-4.742c-0.261-1.08-0.621-2.76-0.841-4.219h-0.04c-0.04,1.459-0.14,3.159-0.2,4.499l-0.239,4.681h-2.24l0.96-13.482h2.78
		l1.08,4.881c0.36,1.701,0.7,3.201,0.94,4.721h0.06c0.2-1.5,0.5-3.02,0.84-4.721l1.08-4.881h2.761l0.82,13.482h-2.34L184.834,147.12
		z"/>
	<path fill="#719E3E" d="M196.159,145.92h-3.06v3.641h3.461v2.279h-6.081v-13.482h5.861v2.281h-3.241v3.101h3.06V145.92z"/>
	<path fill="#719E3E" d="M202.124,138.357v13.482h-2.62v-13.482H202.124z"/>
	<path fill="#719E3E" d="M205.606,138.357h2.62v11.264h3.44v2.219h-6.061L205.606,138.357L205.606,138.357z"/>
	<path fill="#719E3E" d="M214.35,138.357h2.62v11.264h3.441v2.219h-6.061V138.357L214.35,138.357z"/>
	<path fill="#719E3E" d="M228.773,145.92h-3.06v3.641h3.461v2.279h-6.081v-13.482h5.86v2.281h-3.24v3.101h3.06V145.92z"/>
	<path fill="#719E3E" d="M234.659,138.357v8.763c0,1.979,0.579,2.581,1.278,2.581c0.761,0,1.301-0.541,1.301-2.581v-8.763h2.621
		v8.303c0,3.461-1.321,5.34-3.9,5.34c-2.82,0-3.92-1.959-3.92-5.32v-8.322L234.659,138.357L234.659,138.357z"/>
	<path fill="#719E3E" d="M243.264,138.559c0.82-0.16,1.86-0.26,2.86-0.26c1.44,0,2.74,0.199,3.601,1
		c0.82,0.74,1.08,1.641,1.08,2.801c0,1.439-0.72,2.74-2.08,3.359v0.041c0.92,0.379,1.381,1.22,1.642,2.68
		c0.261,1.502,0.62,3.16,0.86,3.66h-2.742c-0.18-0.379-0.479-1.74-0.68-3.24c-0.24-1.66-0.658-2.141-1.52-2.141h-0.4v5.381h-2.621
		V138.559L243.264,138.559z M245.885,144.439h0.48c1.14,0,1.779-0.92,1.779-2.101c0-1.16-0.461-1.96-1.621-2
		c-0.238,0-0.5,0.021-0.64,0.079L245.885,144.439L245.885,144.439z"/>
	<path fill="#719E3E" d="M253.509,149.16c0.539,0.301,1.479,0.521,2.22,0.521c1.223,0,1.842-0.641,1.842-1.521
		c0-0.98-0.6-1.461-1.739-2.201c-1.842-1.119-2.542-2.539-2.542-3.76c0-2.16,1.439-3.961,4.242-3.961c0.898,0,1.738,0.26,2.119,0.48
		l-0.42,2.26c-0.381-0.24-0.961-0.46-1.699-0.46c-1.121,0-1.661,0.679-1.661,1.38c0,0.82,0.399,1.24,1.84,2.121
		c1.801,1.08,2.44,2.439,2.44,3.859c0,2.461-1.82,4.082-4.44,4.082c-1.08,0-2.121-0.278-2.581-0.541L253.509,149.16z"/>
	<path fill="#719E3E" d="M268.814,151.84l-3-13.482h2.899l0.961,5.822c0.22,1.46,0.499,3.1,0.679,4.68h0.041
		c0.18-1.6,0.4-3.22,0.641-4.74l0.92-5.762h2.881l-3.08,13.482H268.814z"/>
	<path fill="#719E3E" d="M280.721,152c-3.061,0-4.262-3.24-4.262-6.939c0-3.682,1.462-6.863,4.462-6.863
		c3.24,0,4.16,3.582,4.16,6.662c0,5.08-1.801,7.141-4.341,7.141L280.721,152L280.721,152z M280.82,149.721
		c1.119,0,1.539-2.002,1.539-4.74c0-2.382-0.358-4.502-1.561-4.502c-1.16,0-1.64,2.12-1.619,4.561
		c-0.039,2.68,0.459,4.682,1.619,4.682L280.82,149.721L280.82,149.721z"/>
	<path fill="#719E3E" d="M293.564,145.92h-3.061v3.641h3.46v2.279h-6.081v-13.482h5.861v2.281h-3.24v3.101h3.061V145.92z"/>
	<path fill="#719E3E" d="M299.45,138.357v8.763c0,1.979,0.579,2.581,1.278,2.581c0.762,0,1.301-0.541,1.301-2.581v-8.763h2.621
		v8.303c0,3.461-1.319,5.34-3.9,5.34c-2.82,0-3.92-1.959-3.92-5.32v-8.322L299.45,138.357L299.45,138.357z"/>
	<path fill="#719E3E" d="M312.395,151.84l-0.838-2.48c-0.262-0.779-0.502-1.539-0.723-2.4h-0.059
		c-0.223,0.861-0.422,1.682-0.62,2.441l-0.722,2.439h-2.601l2.521-6.9l-2.42-6.582h2.721l0.8,2.502
		c0.2,0.699,0.401,1.399,0.601,2.16h0.041c0.219-0.82,0.398-1.461,0.579-2.201l0.681-2.461h2.621l-2.521,6.703l2.661,6.779H312.395
		L312.395,151.84z"/>
	<path fill="#719E3E" d="M125.928,172.771l-0.601,3.08h-2.541l2.921-13.482h3.14l2.621,13.482h-2.561l-0.561-3.08H125.928z
		 M128.108,170.73l-0.439-2.82c-0.141-0.82-0.32-2.18-0.44-3.061h-0.06c-0.141,0.899-0.34,2.28-0.48,3.061l-0.5,2.82H128.108z"/>
	<path fill="#719E3E" d="M136.712,162.369v13.482h-2.62v-13.482H136.712z"/>
	<path fill="#719E3E" d="M140.195,175.852V162.37h2.4l2.081,5.301c0.419,1.021,1.06,2.763,1.44,3.92h0.04
		c-0.08-1.399-0.26-3.76-0.26-6.239v-2.98h2.301v13.482h-2.401l-2.061-5.142c-0.46-1.121-1.06-2.84-1.38-4.041h-0.04
		c0.081,1.358,0.18,3.438,0.18,6.142v3.041h-2.3V175.852z"/>
	<path fill="#719E3E" d="M151.36,173.172c0.54,0.301,1.48,0.52,2.22,0.52c1.22,0,1.84-0.641,1.84-1.52c0-0.982-0.6-1.461-1.74-2.201
		c-1.84-1.119-2.541-2.539-2.541-3.762c0-2.158,1.44-3.959,4.241-3.959c0.9,0,1.74,0.26,2.121,0.48l-0.42,2.26
		c-0.38-0.24-0.96-0.459-1.7-0.459c-1.12,0-1.66,0.678-1.66,1.379c0,0.82,0.399,1.24,1.839,2.119c1.8,1.08,2.441,2.44,2.441,3.861
		c0,2.461-1.82,4.082-4.441,4.082c-1.08,0-2.12-0.281-2.58-0.541L151.36,173.172z"/>
	<path fill="#719E3E" d="M163.305,162.369v13.482h-2.62v-13.482H163.305z"/>
	<path fill="#719E3E" d="M178.771,178.053c-1.141-0.479-2.44-1.16-3.46-1.762c-0.3-0.158-0.52-0.279-0.621-0.279
		c-2.64,0-4.24-2.539-4.24-6.941c0-3.618,1.46-6.86,4.48-6.86c3.261,0,4.141,3.582,4.141,6.662c0,3.34-0.74,5.399-2.021,6.103v0.1
		c0.86,0.379,1.8,0.68,2.64,1L178.771,178.053z M174.83,173.732c1.06,0,1.52-1.941,1.52-4.74c0-2.523-0.38-4.502-1.54-4.502
		c-1.1,0-1.66,2.02-1.64,4.561c-0.041,2.74,0.459,4.682,1.64,4.682H174.83L174.83,173.732z"/>
	<path fill="#719E3E" d="M184.415,162.369v8.762c0,1.98,0.58,2.58,1.28,2.58c0.76,0,1.301-0.539,1.301-2.58v-8.762h2.62v8.301
		c0,3.461-1.32,5.342-3.9,5.342c-2.821,0-3.921-1.961-3.921-5.32v-8.321L184.415,162.369L184.415,162.369z"/>
	<path fill="#719E3E" d="M195.54,162.17c-0.56,1.801-1.4,3.6-2.239,5.041l-1.361,0.18c0.581-1.66,1.121-3.44,1.34-5.021
		L195.54,162.17z"/>
	<path fill="#719E3E" d="M199.042,172.771l-0.6,3.08H195.9l2.921-13.482h3.141l2.621,13.482h-2.561l-0.56-3.08H199.042z
		 M200.062,159.389l1.64,2.26h-1.861l-2.439-2.26H200.062z M201.222,170.73l-0.44-2.82c-0.14-0.82-0.32-2.18-0.44-3.061h-0.06
		c-0.14,0.899-0.34,2.28-0.48,3.061l-0.5,2.82H201.222z"/>
	<path fill="#719E3E" d="M213.188,175.852l-3-13.481h2.901l0.96,5.819c0.22,1.461,0.5,3.103,0.68,4.683h0.04
		c0.18-1.601,0.4-3.222,0.641-4.74l0.919-5.762h2.881l-3.08,13.481H213.188L213.188,175.852z"/>
	<path fill="#719E3E" d="M225.093,176.012c-3.061,0-4.261-3.24-4.261-6.941c0-3.68,1.46-6.86,4.461-6.86
		c3.24,0,4.161,3.582,4.161,6.662c0,5.08-1.802,7.142-4.341,7.142h-0.021V176.012z M225.193,173.732c1.119,0,1.539-2.002,1.539-4.74
		c0-2.381-0.359-4.502-1.561-4.502c-1.158,0-1.64,2.121-1.62,4.561c-0.04,2.68,0.462,4.682,1.62,4.682H225.193L225.193,173.732z"/>
	<path fill="#719E3E" d="M231.959,173.172c0.539,0.301,1.479,0.52,2.221,0.52c1.219,0,1.838-0.641,1.838-1.52
		c0-0.982-0.6-1.461-1.74-2.201c-1.84-1.119-2.539-2.539-2.539-3.762c0-2.158,1.441-3.959,4.24-3.959c0.9,0,1.739,0.26,2.121,0.48
		l-0.42,2.26c-0.382-0.24-0.962-0.459-1.701-0.459c-1.121,0-1.66,0.678-1.66,1.379c0,0.82,0.399,1.24,1.84,2.119
		c1.802,1.08,2.441,2.44,2.441,3.861c0,2.461-1.82,4.082-4.441,4.082c-1.079,0-2.121-0.281-2.58-0.541L231.959,173.172z"/>
	<path fill="#719E3E" d="M245.605,162.57c0.738-0.16,1.738-0.26,2.738-0.26c1.561,0,2.801,0.237,3.662,1.039
		c0.799,0.719,1.159,1.819,1.159,2.961c0,1.459-0.44,2.5-1.142,3.239c-0.84,0.9-2.18,1.302-3.279,1.302
		c-0.182,0-0.342,0-0.521-0.021v5.021h-2.619V162.57H245.605z M248.225,168.711c0.142,0.02,0.28,0.02,0.44,0.02
		c1.319,0,1.899-0.938,1.899-2.198c0-1.183-0.479-2.103-1.7-2.103c-0.239,0-0.48,0.039-0.64,0.103V168.711L248.225,168.711z"/>
	<path fill="#719E3E" d="M255.889,162.57c0.82-0.16,1.86-0.26,2.861-0.26c1.439,0,2.739,0.198,3.6,1
		c0.821,0.739,1.08,1.639,1.08,2.799c0,1.438-0.72,2.742-2.08,3.361v0.04c0.92,0.38,1.381,1.22,1.642,2.681
		c0.261,1.5,0.62,3.16,0.86,3.66h-2.742c-0.18-0.379-0.479-1.738-0.68-3.24c-0.24-1.66-0.658-2.142-1.52-2.142h-0.401v5.382h-2.62
		V162.57z M258.509,168.451h0.481c1.14,0,1.779-0.92,1.779-2.102c0-1.16-0.461-1.959-1.621-2c-0.238,0-0.5,0.021-0.641,0.08
		L258.509,168.451L258.509,168.451z"/>
	<path fill="#719E3E" d="M270.034,176.012c-3.06,0-4.261-3.24-4.261-6.941c0-3.68,1.461-6.86,4.461-6.86
		c3.24,0,4.16,3.582,4.16,6.662c0,5.08-1.801,7.142-4.34,7.142h-0.021V176.012z M270.134,173.732c1.12,0,1.541-2.002,1.541-4.74
		c0-2.381-0.358-4.502-1.562-4.502c-1.159,0-1.641,2.121-1.619,4.561c-0.039,2.68,0.46,4.682,1.619,4.682H270.134L270.134,173.732z"
		/>
	<path fill="#719E3E" d="M283.659,175.652c-0.38,0.18-1.12,0.32-2.021,0.32c-3.461,0-5.102-2.822-5.102-6.662
		c0-5.08,2.82-7.062,5.441-7.062c0.918,0,1.56,0.199,1.818,0.358l-0.439,2.201c-0.299-0.141-0.641-0.262-1.219-0.262
		c-1.48,0-2.822,1.281-2.822,4.623c0,3.219,1.222,4.48,2.822,4.48c0.438,0,0.939-0.101,1.26-0.201L283.659,175.652z"/>
	<path fill="#719E3E" d="M288.863,162.369v5.4h2.74v-5.4h2.621v13.482h-2.621v-5.642h-2.74v5.642h-2.62v-13.482H288.863z"/>
	<path fill="#719E3E" d="M303.369,169.932h-3.061v3.642h3.461v2.278h-6.082V162.37h5.861v2.28h-3.24v3.101h3.061V169.932z"/>
	<path fill="#719E3E" d="M306.412,173.172c0.541,0.301,1.48,0.52,2.22,0.52c1.222,0,1.841-0.641,1.841-1.52
		c0-0.982-0.6-1.461-1.738-2.201c-1.842-1.119-2.541-2.539-2.541-3.762c0-2.158,1.438-3.959,4.24-3.959
		c0.899,0,1.739,0.26,2.119,0.48l-0.419,2.26c-0.381-0.24-0.961-0.459-1.7-0.459c-1.121,0-1.66,0.678-1.66,1.379
		c0,0.82,0.399,1.24,1.84,2.119c1.801,1.08,2.439,2.44,2.439,3.861c0,2.461-1.818,4.082-4.439,4.082c-1.08,0-2.12-0.281-2.579-0.541
		L306.412,173.172z"/>
	<path fill="#719E3E" d="M321.259,176.012c-0.84,0-1.499-0.68-1.499-1.6c0-0.961,0.682-1.621,1.499-1.621
		c0.86,0,1.501,0.66,1.501,1.621c0,0.92-0.578,1.6-1.48,1.6H321.259z M320.16,171.471l-0.32-9.102h2.86l-0.32,9.102H320.16z"/>
</g>
</svg>
