<?xml version="1.0" encoding="utf-8"?>
<!-- Generator: Adobe Illustrator 16.0.4, SVG Export Plug-In . SVG Version: 6.00 Build 0)  -->
<!DOCTYPE svg PUBLIC "-//W3C//DTD SVG 1.1//EN" "http://www.w3.org/Graphics/SVG/1.1/DTD/svg11.dtd">
<svg version="1.1" id="Calque_1" xmlns="http://www.w3.org/2000/svg" xmlns:xlink="http://www.w3.org/1999/xlink" x="0px" y="0px"
	 width="435px" height="300px" viewBox="0 0 435 300" enable-background="new 0 0 435 300" xml:space="preserve">
<g>
	<defs>
		<rect id="SVGID_1_" x="38.247" y="240.863" width="403.253" height="59.236"/>
	</defs>
	<clipPath id="SVGID_2_">
		<use xlink:href="#SVGID_1_"  overflow="visible"/>
	</clipPath>
	<path clip-path="url(#SVGID_2_)" fill="#80AE3E" d="M441.5,300.1v-59.236H170.374v0.285c12.55,3.849,21.677,15.522,21.677,29.333
		c0,13.812-9.127,25.485-21.677,29.332v0.286H441.5z"/>
</g>
<g id="Calque_1_1_" display="none">
	<path display="inline" fill="#77579C" d="M200.409,93.543c3.058-0.43,5.186-3.257,4.757-6.312c-0.43-3.058-3.257-5.188-6.313-4.758
		c-3.056,0.429-5.187,3.257-4.755,6.313C194.527,91.844,197.351,93.974,200.409,93.543"/>
	<path display="inline" fill="#77579C" d="M300.076,215.477c2.477-0.346,4.203-2.635,3.854-5.113
		c-0.35-2.475-2.638-4.194-5.113-3.854c-2.478,0.348-4.196,2.639-3.854,5.114C295.312,214.098,297.6,215.824,300.076,215.477"/>
	<path display="inline" fill="#E6AD34" d="M286.904,218.723c2.478-0.348,4.203-2.638,3.854-5.113
		c-0.347-2.476-2.635-4.196-5.113-3.854c-2.476,0.35-4.201,2.639-3.854,5.112C282.141,217.344,284.43,219.07,286.904,218.723"/>
	<path display="inline" fill="#77579C" d="M122.639,219.82c3.288-0.461,5.58-3.502,5.117-6.791
		c-0.462-3.286-3.502-5.579-6.791-5.116c-3.287,0.461-5.579,3.502-5.117,6.791C116.311,217.991,119.352,220.283,122.639,219.82"/>
	<path display="inline" fill="#77579C" d="M329.001,145.979c2.156-0.304,3.661-2.299,3.356-4.458
		c-0.31-2.158-2.299-3.659-4.455-3.357c-2.157,0.302-3.661,2.3-3.358,4.456C324.85,144.778,326.843,146.28,329.001,145.979"/>
	<path display="inline" fill="#E6AD34" d="M140.391,111.216c3.143,0,5.69-2.549,5.69-5.689c0-3.141-2.547-5.688-5.69-5.688
		c-3.141,0-5.688,2.548-5.688,5.688C134.703,108.667,137.25,111.216,140.391,111.216"/>
	<path display="inline" fill="#E6AD34" d="M240.802,137.936c2.898,0,5.248-2.35,5.248-5.25c0-2.898-2.35-5.25-5.248-5.25
		c-2.897,0-5.249,2.352-5.249,5.25C235.553,135.585,237.902,137.936,240.802,137.936"/>
	<path display="inline" fill="#E6AD34" d="M246.229,204.365c2.313,0,4.188-1.877,4.188-4.188c0-2.311-1.874-4.187-4.188-4.187
		c-2.312,0-4.187,1.873-4.187,4.187C242.042,202.491,243.918,204.365,246.229,204.365"/>
	<path display="inline" fill="#E6AD34" d="M145.79,216.146c2.851,0,5.163-2.312,5.163-5.164c0-2.854-2.312-5.164-5.163-5.164
		c-2.852,0-5.164,2.312-5.164,5.164C140.626,213.833,142.938,216.146,145.79,216.146"/>
	<path display="inline" fill="#E6AD34" d="M331.552,164.244c2.31,0,4.183-1.872,4.183-4.184c0-2.312-1.873-4.188-4.183-4.188
		s-4.183,1.874-4.183,4.188C327.369,162.372,329.242,164.244,331.552,164.244"/>
	<path display="inline" fill="#9FC698" d="M329.277,180.503c2.531,0,4.582-2.052,4.582-4.581c0-2.527-2.051-4.58-4.582-4.58
		c-2.528,0-4.582,2.053-4.582,4.58C324.695,178.451,326.749,180.503,329.277,180.503"/>
	<path display="inline" fill="#9FC698" d="M118.511,121.979c1.12,1.726,3.429,2.215,5.156,1.095
		c1.725-1.121,2.217-3.427,1.095-5.156c-1.121-1.726-3.429-2.215-5.154-1.094C117.881,117.945,117.39,120.252,118.511,121.979"/>
	<path display="inline" fill="#9FC698" d="M247.168,124.358c1.371,2.109,4.191,2.709,6.299,1.336c2.114-1.368,2.711-4.188,1.344-6.3
		c-1.371-2.107-4.188-2.709-6.305-1.339C246.396,119.426,245.799,122.246,247.168,124.358"/>
	<path display="inline" fill="#9FC698" d="M100.454,201.98c1.954,3.006,5.977,3.855,8.987,1.908c3.009-1.955,3.865-5.979,1.91-8.988
		c-1.954-3.01-5.978-3.863-8.987-1.91C99.355,194.945,98.499,198.971,100.454,201.98"/>
	<path display="inline" fill="#A9526F" d="M304.878,117.592c1.132,1.742,3.461,2.238,5.202,1.105
		c1.74-1.131,2.234-3.459,1.105-5.201c-1.131-1.742-3.461-2.236-5.201-1.104C304.243,113.523,303.747,115.851,304.878,117.592"/>
	<path display="inline" fill="#9FC698" d="M316.523,129.045c1.131,1.741,3.459,2.239,5.199,1.105
		c1.737-1.131,2.231-3.459,1.104-5.201c-1.135-1.741-3.46-2.236-5.202-1.104C315.887,124.976,315.393,127.304,316.523,129.045"/>
	<path display="inline" fill="#A9526F" d="M214.576,121.643c1.689-1.136,2.133-3.428,0.994-5.116
		c-1.139-1.686-3.428-2.13-5.115-0.995c-1.688,1.139-2.133,3.431-0.995,5.119C210.599,122.338,212.889,122.782,214.576,121.643"/>
	<path display="inline" fill="#A9526F" d="M165.42,203.525c2.076-1.401,2.624-4.219,1.223-6.295
		c-1.399-2.076-4.217-2.623-6.293-1.228c-2.076,1.396-2.624,4.222-1.224,6.295C160.526,204.378,163.345,204.926,165.42,203.525"/>
	<path display="inline" fill="#A9526F" d="M326.675,195.637c2.308-1.557,2.917-4.687,1.36-6.994
		c-1.557-2.307-4.688-2.914-6.993-1.355c-2.308,1.561-2.916,4.688-1.362,6.992C321.238,196.585,324.367,197.193,326.675,195.637"/>
	<path display="inline" fill="#83B451" d="M260.283,210.157c0.898-1.765,0.199-3.929-1.567-4.825
		c-1.766-0.9-3.928-0.198-4.827,1.566c-0.896,1.767-0.197,3.928,1.567,4.83C257.223,212.628,259.384,211.922,260.283,210.157"/>
	<path display="inline" fill="#3D80B0" d="M285.672,118.413c0.901-1.765,0.199-3.927-1.568-4.827
		c-1.767-0.899-3.929-0.197-4.828,1.568c-0.896,1.768-0.191,3.927,1.568,4.83C282.611,120.883,284.771,120.181,285.672,118.413"/>
	<path display="inline" fill="#83B451" d="M282.729,131.579c0.988-1.944,0.215-4.322-1.728-5.311
		c-1.944-0.989-4.321-0.219-5.312,1.725c-0.99,1.944-0.217,4.322,1.726,5.314C279.357,134.296,281.736,133.523,282.729,131.579"/>
	<path display="inline" fill="#C32782" d="M128.484,190.82c1.386-2.307,0.64-5.303-1.667-6.688
		c-2.309-1.387-5.302-0.641-6.689,1.668c-1.386,2.308-0.64,5.304,1.668,6.688C124.103,193.874,127.099,193.128,128.484,190.82"/>
	<path display="inline" fill="#83B451" d="M181.401,188.707c1.387-2.725,0.305-6.057-2.419-7.441
		c-2.722-1.389-6.054-0.306-7.443,2.416c-1.386,2.728-0.303,6.062,2.42,7.44C176.682,192.512,180.013,191.428,181.401,188.707"/>
	<path display="inline" fill="#83B451" d="M317.755,206.218c1.308-2.565,0.287-5.702-2.276-7.011
		c-2.562-1.305-5.703-0.287-7.011,2.277c-1.306,2.562-0.288,5.703,2.277,7.012C313.311,209.802,316.449,208.779,317.755,206.218"/>
	<path display="inline" fill="#3D80B0" d="M158.755,99.402c3.25,0,5.885-2.635,5.885-5.884s-2.635-5.884-5.885-5.884
		s-5.708,2.731-5.708,5.884S155.504,99.402,158.755,99.402"/>
	<path display="inline" fill="#3D80B0" d="M234.971,153.607c2.854,0,5.163-2.313,5.163-5.167s-2.312-5.163-5.163-5.163
		c-2.853,0-5.164,2.312-5.164,5.163S232.118,153.607,234.971,153.607"/>
	<path display="inline" fill="#3D80B0" d="M207.813,140.362c2.543,0,4.606-2.062,4.606-4.606c0-2.546-2.062-4.608-4.606-4.608
		c-2.545,0-4.609,2.062-4.609,4.608C203.204,138.3,205.268,140.362,207.813,140.362"/>
	<path display="inline" fill="#3D80B0" d="M141.912,195.055c2.284,0.159,4.266-1.561,4.426-3.848
		c0.16-2.286-1.562-4.268-3.847-4.425c-2.286-0.16-4.267,1.562-4.425,3.847C137.905,192.911,139.628,194.895,141.912,195.055"/>
	<path display="inline" fill="#C32782" d="M182.469,90.336c3.251-1.656,4.544-5.636,2.888-8.887
		c-1.656-3.252-5.637-4.546-8.887-2.888c-3.252,1.657-4.1,5.649-2.54,8.71C175.491,90.332,179.219,91.993,182.469,90.336"/>
	<path display="inline" fill="#C32782" d="M235.521,172.016c2.511-1.272,3.508-4.352,2.229-6.854
		c-1.279-2.517-4.352-3.513-6.857-2.229c-2.511,1.277-3.506,4.354-2.229,6.857C229.943,172.296,233.014,173.292,235.521,172.016"/>
	<path display="inline" fill="#83B451" d="M239.7,189.453c2.347-1.197,3.28-4.067,2.083-6.417c-1.194-2.345-4.067-3.276-6.413-2.082
		c-2.349,1.196-3.281,4.067-2.086,6.416C234.48,189.716,237.354,190.648,239.7,189.453"/>
	<path display="inline" fill="#C32782" d="M264.372,162.121c2.521-1.283,3.519-4.362,2.235-6.883
		c-1.282-2.518-4.362-3.522-6.883-2.236c-2.521,1.283-3.521,4.364-2.234,6.885C258.771,162.404,261.854,163.404,264.372,162.121"/>
	<path display="inline" fill="#C32782" d="M206.504,211.652c1.798-0.914,2.513-3.112,1.596-4.911
		c-0.916-1.798-3.114-2.509-4.912-1.597c-1.798,0.916-2.513,3.11-1.596,4.916C202.507,211.857,204.706,212.568,206.504,211.652"/>
	<path display="inline" fill="#C32782" d="M240,67.232c1.568-0.801,2.193-2.722,1.395-4.291c-0.799-1.57-2.721-2.194-4.291-1.394
		c-1.564,0.799-2.188,2.721-1.394,4.29C236.51,67.407,238.432,68.031,240,67.232"/>
	<path display="inline" fill="#C32782" d="M264.177,118.248c1.907-0.971,2.664-3.301,1.693-5.209
		c-0.97-1.904-3.304-2.662-5.209-1.691c-1.905,0.971-2.664,3.302-1.693,5.208C259.938,118.46,262.271,119.221,264.177,118.248"/>
	<path display="inline" fill="#A9526F" d="M275.365,114.864c1.703-0.868,2.38-2.954,1.513-4.656s-2.952-2.38-4.655-1.513
		c-1.703,0.868-2.38,2.952-1.512,4.656C271.579,115.054,273.662,115.73,275.365,114.864"/>
	<path display="inline" fill="#77579C" d="M180.283,210.986c2.246-0.315,3.81-2.396,3.496-4.639
		c-0.317-2.246-2.393-3.812-4.639-3.494c-2.245,0.312-3.808,2.392-3.493,4.638C175.962,209.736,178.038,211.3,180.283,210.986"/>
	<path display="inline" fill="#77579C" d="M279.338,99.146c1.938-0.1,3.426-1.754,3.324-3.692s-1.756-3.428-3.693-3.326
		c-1.937,0.102-3.426,1.756-3.324,3.693C275.746,97.76,277.398,99.248,279.338,99.146"/>
	<path display="inline" fill="#3D80B0" d="M262.652,90.337c1.923-0.271,3.262-2.048,2.99-3.97c-0.271-1.922-2.045-3.261-3.974-2.991
		c-1.922,0.271-3.261,2.046-2.985,3.97C258.956,89.268,260.73,90.608,262.652,90.337"/>
	<path display="inline" fill="#9FC698" d="M248.527,81.938c1.923-0.271,3.261-2.048,2.992-3.969c-0.271-1.922-2.047-3.26-3.977-2.99
		c-1.919,0.271-3.262,2.046-2.984,3.969C244.829,80.869,246.605,82.208,248.527,81.938"/>
	<path display="inline" fill="#A9526F" d="M194.723,213.398c1.687-1.145,2.133-3.435,0.993-5.117
		c-1.138-1.688-3.429-2.133-5.115-0.994c-1.688,1.138-2.133,3.429-0.995,5.115C190.744,214.09,193.035,214.534,194.723,213.398"/>
	<path display="inline" fill="#C32782" d="M227.908,195.486c1.791-1.207,2.265-3.641,1.057-5.432s-3.641-2.27-5.432-1.061
		c-1.792,1.209-2.264,3.646-1.057,5.438C223.688,196.221,226.118,196.693,227.908,195.486"/>
	<path display="inline" fill="#9FC698" d="M212.49,203.691c1.134,1.744,3.464,2.238,5.207,1.104c1.745-1.13,2.241-3.461,1.108-5.207
		c-1.133-1.738-3.465-2.236-5.207-1.104C211.854,199.615,211.357,201.945,212.49,203.691"/>
</g>
<g id="Calque_4" display="none">
	<g display="inline">
		<path fill="#77579C" d="M199.855,159.064c3.057-0.435,5.188-3.258,4.757-6.312c-0.43-3.059-3.255-5.188-6.312-4.757
			c-3.058,0.429-5.187,3.255-4.759,6.313C193.974,157.366,196.799,159.497,199.855,159.064"/>
		<path fill="#E6AD34" d="M295.254,109.017c1.977,0,3.579-1.602,3.579-3.581c0-1.976-1.603-3.579-3.579-3.579
			c-1.979,0-3.58,1.604-3.58,3.579C291.674,107.415,293.275,109.017,295.254,109.017"/>
		<path fill="#3D80B0" d="M251.135,175.591c2.491,0,4.512-2.018,4.512-4.508c0-2.495-2.021-4.513-4.512-4.513
			c-2.49,0-4.512,2.018-4.512,4.513C246.623,173.573,248.645,175.591,251.135,175.591"/>
	</g>
</g>
<g id="Calque_2" display="none">
	<path display="inline" fill="#77579C" d="M200.409,93.543c3.058-0.43,5.186-3.257,4.757-6.312c-0.43-3.058-3.257-5.188-6.313-4.758
		c-3.056,0.429-5.187,3.257-4.755,6.313C194.527,91.844,197.351,93.974,200.409,93.543"/>
	<path display="inline" fill="#77579C" d="M272.779,148.094c2.478-0.348,4.201-2.637,3.854-5.114
		c-0.349-2.475-2.637-4.202-5.115-3.854c-2.476,0.348-4.199,2.638-3.851,5.113C268.016,146.715,270.305,148.441,272.779,148.094"/>
	<path display="inline" fill="#77579C" d="M199.855,159.064c3.057-0.435,5.188-3.258,4.757-6.312
		c-0.43-3.059-3.255-5.188-6.312-4.757c-3.058,0.429-5.187,3.255-4.759,6.313C193.974,157.366,196.799,159.497,199.855,159.064"/>
	<path display="inline" fill="#77579C" d="M300.076,215.477c2.477-0.346,4.203-2.635,3.854-5.113
		c-0.35-2.475-2.638-4.194-5.113-3.854c-2.478,0.348-4.196,2.639-3.854,5.114C295.312,214.098,297.6,215.824,300.076,215.477"/>
	<path display="inline" fill="#E6AD34" d="M286.904,218.723c2.478-0.348,4.203-2.638,3.854-5.113
		c-0.347-2.476-2.635-4.196-5.113-3.854c-2.476,0.35-4.201,2.639-3.854,5.112C282.141,217.344,284.43,219.07,286.904,218.723"/>
	<path display="inline" fill="#77579C" d="M122.639,219.82c3.288-0.461,5.58-3.502,5.117-6.791
		c-0.462-3.286-3.502-5.579-6.791-5.116c-3.287,0.461-5.579,3.502-5.117,6.791C116.311,217.991,119.352,220.283,122.639,219.82"/>
	<path display="inline" fill="#77579C" d="M329.001,145.979c2.156-0.304,3.661-2.299,3.356-4.458
		c-0.31-2.158-2.299-3.659-4.455-3.357c-2.157,0.302-3.661,2.3-3.358,4.456C324.85,144.778,326.843,146.28,329.001,145.979"/>
	<path display="inline" fill="#E6AD34" d="M140.391,111.216c3.143,0,5.69-2.549,5.69-5.689c0-3.141-2.547-5.688-5.69-5.688
		c-3.141,0-5.688,2.548-5.688,5.688C134.703,108.667,137.25,111.216,140.391,111.216"/>
	<path display="inline" fill="#E6AD34" d="M240.802,137.936c2.898,0,5.248-2.35,5.248-5.25c0-2.898-2.35-5.25-5.248-5.25
		c-2.897,0-5.249,2.352-5.249,5.25C235.553,135.585,237.902,137.936,240.802,137.936"/>
	<path display="inline" fill="#E6AD34" d="M246.229,204.365c2.313,0,4.188-1.877,4.188-4.188c0-2.311-1.874-4.187-4.188-4.187
		c-2.312,0-4.187,1.873-4.187,4.187C242.042,202.491,243.918,204.365,246.229,204.365"/>
	<path display="inline" fill="#E6AD34" d="M145.79,216.146c2.851,0,5.163-2.312,5.163-5.164c0-2.854-2.312-5.164-5.163-5.164
		c-2.852,0-5.164,2.312-5.164,5.164C140.626,213.833,142.938,216.146,145.79,216.146"/>
	<path display="inline" fill="#E6AD34" d="M295.254,109.017c1.977,0,3.579-1.602,3.579-3.581c0-1.976-1.603-3.579-3.579-3.579
		c-1.979,0-3.58,1.604-3.58,3.579C291.674,107.415,293.275,109.017,295.254,109.017"/>
	<path display="inline" fill="#E6AD34" d="M331.552,164.244c2.31,0,4.183-1.872,4.183-4.184c0-2.312-1.873-4.188-4.183-4.188
		s-4.183,1.874-4.183,4.188C327.369,162.372,329.242,164.244,331.552,164.244"/>
	<path display="inline" fill="#9FC698" d="M329.277,180.503c2.531,0,4.582-2.052,4.582-4.581c0-2.527-2.051-4.58-4.582-4.58
		c-2.528,0-4.582,2.053-4.582,4.58C324.695,178.451,326.749,180.503,329.277,180.503"/>
	<path display="inline" fill="#9FC698" d="M118.511,121.979c1.12,1.726,3.429,2.215,5.156,1.095
		c1.725-1.121,2.217-3.427,1.095-5.156c-1.121-1.726-3.429-2.215-5.154-1.094C117.881,117.945,117.39,120.252,118.511,121.979"/>
	<path display="inline" fill="#9FC698" d="M247.168,124.358c1.371,2.109,4.191,2.709,6.299,1.336c2.114-1.368,2.711-4.188,1.344-6.3
		c-1.371-2.107-4.188-2.709-6.305-1.339C246.396,119.426,245.799,122.246,247.168,124.358"/>
	<path display="inline" fill="#9FC698" d="M100.454,201.98c1.954,3.006,5.977,3.855,8.987,1.908c3.009-1.955,3.865-5.979,1.91-8.988
		c-1.954-3.01-5.978-3.863-8.987-1.91C99.355,194.945,98.499,198.971,100.454,201.98"/>
	<path display="inline" fill="#A9526F" d="M304.878,117.592c1.132,1.742,3.461,2.238,5.202,1.105
		c1.74-1.131,2.234-3.459,1.105-5.201c-1.131-1.742-3.461-2.236-5.201-1.104C304.243,113.523,303.747,115.851,304.878,117.592"/>
	<path display="inline" fill="#9FC698" d="M316.523,129.045c1.131,1.741,3.459,2.239,5.199,1.105
		c1.737-1.131,2.231-3.459,1.104-5.201c-1.135-1.741-3.46-2.236-5.202-1.104C315.887,124.976,315.393,127.304,316.523,129.045"/>
	<path display="inline" fill="#A9526F" d="M214.576,121.643c1.689-1.136,2.133-3.428,0.994-5.116
		c-1.139-1.686-3.428-2.13-5.115-0.995c-1.688,1.139-2.133,3.431-0.995,5.119C210.599,122.338,212.889,122.782,214.576,121.643"/>
	<path display="inline" fill="#A9526F" d="M165.42,203.525c2.076-1.401,2.624-4.219,1.223-6.295
		c-1.399-2.076-4.217-2.623-6.293-1.228c-2.076,1.396-2.624,4.222-1.224,6.295C160.526,204.378,163.345,204.926,165.42,203.525"/>
	<path display="inline" fill="#A9526F" d="M326.675,195.637c2.308-1.557,2.917-4.687,1.36-6.994
		c-1.557-2.307-4.688-2.914-6.993-1.355c-2.308,1.561-2.916,4.688-1.362,6.992C321.238,196.585,324.367,197.193,326.675,195.637"/>
	<path display="inline" fill="#83B451" d="M214.857,104.658c0.999-1.962,0.221-4.364-1.742-5.366
		c-1.962-0.998-4.364-0.219-5.366,1.743c-0.998,1.963-0.218,4.365,1.744,5.364C211.456,107.402,213.858,106.62,214.857,104.658"/>
	<path display="inline" fill="#83B451" d="M260.283,210.157c0.898-1.765,0.199-3.929-1.567-4.825
		c-1.766-0.9-3.928-0.198-4.827,1.566c-0.896,1.767-0.197,3.928,1.567,4.83C257.223,212.628,259.384,211.922,260.283,210.157"/>
	<path display="inline" fill="#3D80B0" d="M285.672,118.413c0.901-1.765,0.199-3.927-1.568-4.827
		c-1.767-0.899-3.929-0.197-4.828,1.568c-0.896,1.768-0.191,3.927,1.568,4.83C282.611,120.883,284.771,120.181,285.672,118.413"/>
	<path display="inline" fill="#83B451" d="M282.729,131.579c0.988-1.944,0.215-4.322-1.728-5.311
		c-1.944-0.989-4.321-0.219-5.312,1.725c-0.99,1.944-0.217,4.322,1.726,5.314C279.357,134.296,281.736,133.523,282.729,131.579"/>
	<path display="inline" fill="#C32782" d="M128.484,190.82c1.386-2.307,0.64-5.303-1.667-6.688
		c-2.309-1.387-5.302-0.641-6.689,1.668c-1.386,2.308-0.64,5.304,1.668,6.688C124.103,193.874,127.099,193.128,128.484,190.82"/>
	<path display="inline" fill="#83B451" d="M181.401,188.707c1.387-2.725,0.305-6.057-2.419-7.441
		c-2.722-1.389-6.054-0.306-7.443,2.416c-1.386,2.728-0.303,6.062,2.42,7.44C176.682,192.512,180.013,191.428,181.401,188.707"/>
	<path display="inline" fill="#83B451" d="M317.755,206.218c1.308-2.565,0.287-5.702-2.276-7.011
		c-2.562-1.305-5.703-0.287-7.011,2.277c-1.306,2.562-0.288,5.703,2.277,7.012C313.311,209.802,316.449,208.779,317.755,206.218"/>
	<path display="inline" fill="#3D80B0" d="M158.755,99.402c3.25,0,5.885-2.635,5.885-5.884s-2.635-5.884-5.885-5.884
		s-5.708,2.731-5.708,5.884S155.504,99.402,158.755,99.402"/>
	<path display="inline" fill="#3D80B0" d="M234.971,153.607c2.854,0,5.163-2.313,5.163-5.167s-2.312-5.163-5.163-5.163
		c-2.853,0-5.164,2.312-5.164,5.163S232.118,153.607,234.971,153.607"/>
	<path display="inline" fill="#3D80B0" d="M251.135,175.591c2.491,0,4.512-2.018,4.512-4.508c0-2.495-2.021-4.513-4.512-4.513
		c-2.49,0-4.512,2.018-4.512,4.513C246.623,173.573,248.645,175.591,251.135,175.591"/>
	<path display="inline" fill="#3D80B0" d="M207.813,140.362c2.543,0,4.606-2.062,4.606-4.606c0-2.546-2.062-4.608-4.606-4.608
		c-2.545,0-4.609,2.062-4.609,4.608C203.204,138.3,205.268,140.362,207.813,140.362"/>
	<path display="inline" fill="#3D80B0" d="M271.004,217.812c2.291,0,4.146-1.857,4.146-4.146c0-2.291-1.855-4.146-4.146-4.146
		c-2.289,0-4.146,1.854-4.146,4.146C266.855,215.955,268.715,217.812,271.004,217.812"/>
	<path display="inline" fill="#3D80B0" d="M141.912,195.055c2.284,0.159,4.266-1.561,4.426-3.848
		c0.16-2.286-1.562-4.268-3.847-4.425c-2.286-0.16-4.267,1.562-4.425,3.847C137.905,192.911,139.628,194.895,141.912,195.055"/>
	<path display="inline" fill="#C32782" d="M182.469,90.336c3.251-1.656,4.544-5.636,2.888-8.887
		c-1.656-3.252-5.637-4.546-8.887-2.888c-3.252,1.657-4.1,5.649-2.54,8.71C175.491,90.332,179.219,91.993,182.469,90.336"/>
	<path display="inline" fill="#C32782" d="M235.521,172.016c2.511-1.272,3.508-4.352,2.229-6.854
		c-1.279-2.517-4.352-3.513-6.857-2.229c-2.511,1.277-3.506,4.354-2.229,6.857C229.943,172.296,233.014,173.292,235.521,172.016"/>
	<path display="inline" fill="#83B451" d="M239.7,189.453c2.347-1.197,3.28-4.067,2.083-6.417c-1.194-2.345-4.067-3.276-6.413-2.082
		c-2.349,1.196-3.281,4.067-2.086,6.416C234.48,189.716,237.354,190.648,239.7,189.453"/>
	<path display="inline" fill="#C32782" d="M264.372,162.121c2.521-1.283,3.519-4.362,2.235-6.883
		c-1.282-2.518-4.362-3.522-6.883-2.236c-2.521,1.283-3.521,4.364-2.234,6.885C258.771,162.404,261.854,163.404,264.372,162.121"/>
	<path display="inline" fill="#C32782" d="M206.504,211.652c1.798-0.914,2.513-3.112,1.596-4.911
		c-0.916-1.798-3.114-2.509-4.912-1.597c-1.798,0.916-2.513,3.11-1.596,4.916C202.507,211.857,204.706,212.568,206.504,211.652"/>
	<path display="inline" fill="#C32782" d="M240,67.232c1.568-0.801,2.193-2.722,1.395-4.291c-0.799-1.57-2.721-2.194-4.291-1.394
		c-1.564,0.799-2.188,2.721-1.394,4.29C236.51,67.407,238.432,68.031,240,67.232"/>
	<path display="inline" fill="#C32782" d="M190.31,174.895c2.596-1.324,3.628-4.498,2.306-7.097c-1.323-2.596-4.5-3.627-7.095-2.303
		c-2.595,1.321-3.628,4.498-2.306,7.094C184.538,175.186,187.715,176.216,190.31,174.895"/>
	<path display="inline" fill="#C32782" d="M264.177,118.248c1.907-0.971,2.664-3.301,1.693-5.209
		c-0.97-1.904-3.304-2.662-5.209-1.691c-1.905,0.971-2.664,3.302-1.693,5.208C259.938,118.46,262.271,119.221,264.177,118.248"/>
	<path display="inline" fill="#A9526F" d="M275.365,114.864c1.703-0.868,2.38-2.954,1.513-4.656s-2.952-2.38-4.655-1.513
		c-1.703,0.868-2.38,2.952-1.512,4.656C271.579,115.054,273.662,115.73,275.365,114.864"/>
	<path display="inline" fill="#77579C" d="M180.283,210.986c2.246-0.315,3.81-2.396,3.496-4.639
		c-0.317-2.246-2.393-3.812-4.639-3.494c-2.245,0.312-3.808,2.392-3.493,4.638C175.962,209.736,178.038,211.3,180.283,210.986"/>
	<path display="inline" fill="#77579C" d="M279.338,99.146c1.938-0.1,3.426-1.754,3.324-3.692s-1.756-3.428-3.693-3.326
		c-1.937,0.102-3.426,1.756-3.324,3.693C275.746,97.76,277.398,99.248,279.338,99.146"/>
	<path display="inline" fill="#3D80B0" d="M262.652,90.337c1.923-0.271,3.262-2.048,2.99-3.97c-0.271-1.922-2.045-3.261-3.974-2.991
		c-1.922,0.271-3.261,2.046-2.985,3.97C258.956,89.268,260.73,90.608,262.652,90.337"/>
	<path display="inline" fill="#9FC698" d="M248.527,81.938c1.923-0.271,3.261-2.048,2.992-3.969c-0.271-1.922-2.047-3.26-3.977-2.99
		c-1.919,0.271-3.262,2.046-2.984,3.969C244.829,80.869,246.605,82.208,248.527,81.938"/>
	<path display="inline" fill="#A9526F" d="M194.723,213.398c1.687-1.145,2.133-3.435,0.993-5.117
		c-1.138-1.688-3.429-2.133-5.115-0.994c-1.688,1.138-2.133,3.429-0.995,5.115C190.744,214.09,193.035,214.534,194.723,213.398"/>
	<path display="inline" fill="#C32782" d="M227.908,195.486c1.791-1.207,2.265-3.641,1.057-5.432s-3.641-2.27-5.432-1.061
		c-1.792,1.209-2.264,3.646-1.057,5.438C223.688,196.221,226.118,196.693,227.908,195.486"/>
	<path display="inline" fill="#9FC698" d="M212.49,203.691c1.134,1.744,3.464,2.238,5.207,1.104c1.745-1.13,2.241-3.461,1.108-5.207
		c-1.133-1.738-3.465-2.236-5.207-1.104C211.854,199.615,211.357,201.945,212.49,203.691"/>
</g>
<circle fill="#80AE3E" cx="54.162" cy="283.328" r="6.933"/>
<g>
	<g>
		<path fill="#80AE3E" stroke="#80AE3E" stroke-width="0.3725" stroke-miterlimit="10" d="M143.496,263.814
			c0.017-0.071,0.052-0.147,0.105-0.229c0.066-0.096,0.131-0.138,0.194-0.122l4.176,1.023c0.112,0.027,0.185,0.176,0.219,0.442
			c0.041,0.341,0.03,0.707-0.033,1.096c-0.019,0.095-0.032,0.159-0.041,0.194c-0.134,0.548-0.441,0.973-0.922,1.274
			c-0.481,0.301-0.995,0.386-1.543,0.251c-0.521-0.128-0.872-0.452-1.054-0.973c-0.162-0.445-0.177-0.937-0.045-1.475
			c0.045-0.182,0.074-0.291,0.087-0.325c0.047-0.116,0.117-0.203,0.207-0.261l-0.043-0.116l-1.212-0.298
			c-0.054-0.014-0.088-0.088-0.103-0.223C143.477,263.968,143.478,263.881,143.496,263.814z M146.564,264.984
			c-0.153-0.039-0.31-0.08-0.47-0.123c-0.584-0.161-0.934-0.008-1.049,0.464c-0.09,0.365-0.058,0.693,0.093,0.985
			c0.164,0.304,0.423,0.499,0.777,0.586c0.377,0.093,0.734,0.064,1.071-0.084c0.366-0.154,0.594-0.412,0.682-0.774
			c0.096-0.39,0.029-0.654-0.199-0.79c-0.103-0.062-0.234-0.111-0.393-0.146C146.919,265.068,146.748,265.029,146.564,264.984z"/>
		<path fill="#80AE3E" stroke="#80AE3E" stroke-width="0.3725" stroke-miterlimit="10" d="M146.739,262.098
			c-0.35-0.526-0.317-1.154,0.099-1.889c0.07-0.123,0.159-0.254,0.265-0.394c0.174-0.222,0.364-0.379,0.568-0.468
			c0.248-0.117,0.484-0.112,0.708,0.016c0.326,0.187,0.46,0.562,0.404,1.131c-0.048,0.479-0.174,0.895-0.375,1.248
			c-0.036,0.063-0.069,0.103-0.097,0.115c-0.028,0.013-0.073,0.002-0.133-0.033c-0.121-0.067-0.136-0.285-0.045-0.649
			c0.066-0.258,0.096-0.439,0.089-0.55c-0.009-0.2-0.102-0.35-0.279-0.45c-0.067-0.04-0.135-0.057-0.202-0.051
			c-0.183,0.011-0.334,0.125-0.457,0.339c-0.115,0.204-0.148,0.449-0.098,0.734c0.057,0.312,0.185,0.525,0.386,0.64
			c0.258,0.146,0.543,0.225,0.857,0.233c0.361,0.011,0.641-0.066,0.842-0.233c0.111-0.093,0.232-0.254,0.36-0.481
			c0.08-0.139,0.107-0.303,0.08-0.491c-0.019-0.154-0.002-0.275,0.049-0.367c0.249,0.142,0.383,0.312,0.402,0.514
			c0.014,0.171-0.055,0.393-0.209,0.662l-0.034,0.061c-0.061,0.107-0.117,0.201-0.168,0.283c-0.063,0.101-0.162,0.213-0.295,0.336
			c-0.074,0.075-0.188,0.177-0.341,0.305c-0.085,0.058-0.146,0.09-0.181,0.096c-0.271,0.082-0.483,0.139-0.638,0.167
			c-0.208,0.039-0.476-0.034-0.801-0.218l-0.229-0.131C147.034,262.439,146.858,262.28,146.739,262.098z"/>
		<path fill="#80AE3E" stroke="#80AE3E" stroke-width="0.3725" stroke-miterlimit="10" d="M148.861,257.63
			c-0.003-0.003-0.005-0.024-0.005-0.063c-0.012-0.153-0.011-0.295,0.001-0.425c0-0.032,0.016-0.082,0.048-0.146l0.005-0.015
			c0.006-0.006,0.012-0.012,0.017-0.018c0.005-0.004,0.01-0.01,0.016-0.017h0.01c0.124-0.006,0.221-0.006,0.292,0
			c0.033,0.007,0.096,0.025,0.191,0.055c0.509,0.17,0.788,0.267,0.837,0.289l0.763,0.312c0.333,0.145,0.584,0.253,0.754,0.324
			c0.002-0.003,0.01-0.006,0.02-0.01c0.003-0.003,0.006-0.007,0.009-0.009c0.003-0.004,0.006-0.011,0.01-0.021l0.009-0.009
			c0.01-0.029,0.01-0.062,0-0.098c-0.04-0.138-0.073-0.234-0.1-0.293l-0.447-0.928l-0.249-0.635
			c-0.057-0.141-0.111-0.279-0.164-0.416c-0.043-0.166-0.013-0.302,0.094-0.409l0.048-0.049c0.026-0.025,0.052-0.049,0.078-0.068
			c0.071-0.046,0.125-0.05,0.161-0.015c0.003,0.004,0.008,0.009,0.015,0.015l0.154,0.454c0.004,0.011,0.007,0.021,0.011,0.029
			l0.457,1.046c0.063,0.14,0.106,0.237,0.13,0.292c0.235,0.544,0.364,0.85,0.387,0.919c0.14,0.436,0.124,0.742-0.051,0.917
			c-0.164,0.166-0.376,0.211-0.633,0.137c-0.303-0.083-0.757-0.253-1.361-0.512c-0.63-0.265-1.099-0.443-1.41-0.538L148.861,257.63z
			"/>
		<path fill="#80AE3E" stroke="#80AE3E" stroke-width="0.3725" stroke-miterlimit="10" d="M153.195,254.474
			c-0.036-0.63,0.311-1.155,1.04-1.577c0.123-0.071,0.266-0.141,0.428-0.208c0.263-0.103,0.505-0.141,0.728-0.115
			c0.272,0.024,0.473,0.149,0.603,0.373c0.188,0.324,0.113,0.718-0.224,1.178c-0.284,0.389-0.602,0.685-0.956,0.888
			c-0.063,0.038-0.11,0.055-0.142,0.051c-0.03-0.004-0.064-0.036-0.098-0.096c-0.069-0.12,0.027-0.315,0.29-0.584
			c0.187-0.188,0.306-0.33,0.355-0.429c0.093-0.177,0.089-0.354-0.012-0.53c-0.04-0.067-0.089-0.116-0.148-0.146
			c-0.164-0.082-0.353-0.062-0.567,0.062c-0.203,0.117-0.354,0.312-0.456,0.584c-0.108,0.297-0.104,0.546,0.011,0.746
			c0.147,0.256,0.354,0.469,0.62,0.635c0.306,0.191,0.587,0.266,0.844,0.226c0.144-0.024,0.33-0.103,0.555-0.233
			c0.139-0.08,0.245-0.207,0.318-0.383c0.061-0.142,0.138-0.24,0.229-0.293c0.144,0.249,0.172,0.464,0.088,0.647
			c-0.075,0.155-0.247,0.311-0.517,0.465l-0.06,0.035c-0.106,0.062-0.203,0.113-0.288,0.158c-0.106,0.056-0.248,0.103-0.426,0.142
			c-0.101,0.027-0.25,0.058-0.448,0.091c-0.102,0.006-0.17,0.002-0.204-0.011c-0.276-0.064-0.487-0.123-0.635-0.178
			c-0.199-0.071-0.394-0.27-0.581-0.595l-0.131-0.228C153.277,254.918,153.206,254.692,153.195,254.474z"/>
		<path fill="#80AE3E" stroke="#80AE3E" stroke-width="0.3725" stroke-miterlimit="10" d="M161.167,253.986
			c-0.04,0.011-0.081,0.016-0.123,0.017c-0.11,0.015-0.174-0.015-0.192-0.087l-0.556-2.219c-0.04-0.157-0.199-0.263-0.477-0.317
			c-0.222-0.041-0.424-0.036-0.606,0.009c-0.178,0.045-0.338,0.108-0.483,0.193c-0.218,0.125-0.307,0.271-0.267,0.431l0.59,2.355
			c0.023,0.093-0.058,0.164-0.245,0.21l-0.086,0.022c-0.267,0.066-0.423,0.008-0.469-0.175l-0.505-2.019
			c-0.059-0.233-0.051-0.436,0.025-0.607c0.189-0.414,0.646-0.712,1.369-0.894c0.439-0.11,0.822-0.132,1.145-0.065
			c0.429,0.093,0.693,0.336,0.792,0.73l0.489,1.951c0.058,0.229-0.047,0.376-0.313,0.444L161.167,253.986z"/>
		<path fill="#80AE3E" stroke="#80AE3E" stroke-width="0.3725" stroke-miterlimit="10" d="M163.526,250.709
			c0.381-0.277,0.858-0.399,1.429-0.369c0.594,0.032,1.079,0.191,1.454,0.48c0.422,0.332,0.619,0.792,0.587,1.378
			c-0.001,0.032-0.006,0.078-0.014,0.139c-0.007,0.059-0.012,0.104-0.014,0.13c0,0.006-0.008,0.025-0.024,0.062
			c-0.093,0.184-0.162,0.322-0.208,0.412c-0.066,0.122-0.116,0.212-0.152,0.27c-0.02,0.022-0.056,0.058-0.108,0.106
			c-0.279,0.253-0.436,0.393-0.469,0.418c-0.225,0.174-0.612,0.247-1.16,0.217c-0.626-0.033-1.115-0.207-1.465-0.521
			c-0.386-0.341-0.562-0.814-0.53-1.425C162.882,251.448,163.106,251.016,163.526,250.709z M163.853,252.858
			c0.013,0.022,0.041,0.061,0.084,0.108l0.272,0.307c0.039,0.044,0.072,0.075,0.098,0.095c0.104,0.103,0.227,0.158,0.37,0.165
			l0.151,0.008c0.421,0.023,0.756-0.124,1.006-0.439c0.045-0.058,0.104-0.155,0.177-0.292c0.074-0.138,0.116-0.221,0.127-0.247
			c0,0.014,0.006-0.033,0.021-0.146l0.013-0.109c0.002-0.038,0.004-0.067,0.005-0.09c0.02-0.365-0.081-0.692-0.299-0.982
			c-0.231-0.303-0.524-0.465-0.882-0.482l-0.158-0.01c-0.137-0.007-0.27,0.036-0.399,0.133c-0.482,0.358-0.733,0.74-0.755,1.146
			C163.664,252.396,163.72,252.675,163.853,252.858z"/>
		<path fill="#80AE3E" stroke="#80AE3E" stroke-width="0.3725" stroke-miterlimit="10" d="M170.737,255.214
			c-0.039-0.014-0.076-0.032-0.111-0.055c-0.098-0.051-0.135-0.111-0.109-0.181l0.789-2.148c0.055-0.151-0.016-0.328-0.215-0.529
			c-0.162-0.158-0.331-0.27-0.507-0.335c-0.171-0.062-0.34-0.1-0.507-0.111c-0.252-0.019-0.406,0.05-0.463,0.206l-0.836,2.279
			c-0.035,0.09-0.141,0.104-0.321,0.036l-0.084-0.03c-0.258-0.095-0.354-0.23-0.289-0.41l0.717-1.952
			c0.083-0.227,0.204-0.388,0.362-0.487c0.39-0.235,0.935-0.226,1.635,0.031c0.425,0.157,0.752,0.354,0.982,0.591
			c0.303,0.318,0.384,0.668,0.244,1.05l-0.693,1.888c-0.082,0.22-0.251,0.284-0.509,0.189L170.737,255.214z"/>
		<path fill="#80AE3E" stroke="#80AE3E" stroke-width="0.3725" stroke-miterlimit="10" d="M172.774,255.877
			c0.138,0.132,0.246,0.226,0.325,0.279c0.065,0.044,0.133,0.082,0.205,0.114c0.242,0.107,0.438,0.052,0.589-0.17
			c0.005-0.009,0.011-0.019,0.02-0.029c0.003-0.015,0.008-0.025,0.013-0.032c-0.123-0.497-0.225-0.868-0.308-1.114
			c-0.125-0.492-0.11-0.852,0.043-1.077c0.17-0.253,0.418-0.381,0.741-0.385c0.285-0.003,0.559,0.086,0.824,0.267
			c0.193,0.131,0.33,0.289,0.407,0.477c0.086,0.215,0.066,0.416-0.061,0.604c-0.148-0.1-0.246-0.238-0.296-0.414
			c-0.049-0.177-0.115-0.292-0.199-0.349c-0.094-0.064-0.207-0.087-0.337-0.066c-0.13,0.021-0.228,0.079-0.293,0.174
			c-0.096,0.143-0.123,0.324-0.081,0.549c0.022,0.122,0.083,0.303,0.181,0.542c0.211,0.512,0.217,0.915,0.017,1.21
			c-0.096,0.142-0.211,0.242-0.346,0.302c-0.396,0.167-0.82,0.097-1.275-0.212c-0.266-0.18-0.43-0.312-0.496-0.396
			c-0.134-0.168-0.134-0.354,0.001-0.552C172.53,255.651,172.638,255.745,172.774,255.877z"/>
	</g>
	<g>
		<path fill="#80AE3E" stroke="#80AE3E" stroke-width="0.3725" stroke-miterlimit="10" d="M149.505,279.128
			c0.599-0.202,1.197-0.006,1.796,0.586c0.101,0.1,0.205,0.22,0.312,0.359c0.169,0.225,0.271,0.448,0.303,0.67
			c0.048,0.269-0.018,0.496-0.2,0.68c-0.263,0.267-0.662,0.298-1.196,0.096c-0.449-0.172-0.818-0.401-1.107-0.688
			c-0.052-0.051-0.081-0.093-0.085-0.124c-0.005-0.03,0.017-0.07,0.066-0.12c0.097-0.099,0.311-0.057,0.639,0.125
			c0.231,0.133,0.4,0.208,0.508,0.229c0.194,0.044,0.363-0.007,0.506-0.151c0.056-0.056,0.09-0.116,0.103-0.182
			c0.036-0.179-0.035-0.355-0.21-0.529c-0.166-0.164-0.394-0.26-0.683-0.285c-0.315-0.027-0.555,0.042-0.717,0.206
			c-0.208,0.21-0.357,0.466-0.449,0.767c-0.104,0.345-0.103,0.637,0.006,0.872c0.061,0.134,0.185,0.291,0.371,0.476
			c0.114,0.112,0.265,0.181,0.453,0.205c0.153,0.021,0.267,0.069,0.342,0.144c-0.202,0.204-0.402,0.288-0.601,0.255
			c-0.169-0.031-0.364-0.156-0.585-0.376l-0.048-0.048c-0.088-0.087-0.165-0.165-0.229-0.235c-0.082-0.088-0.165-0.214-0.249-0.375
			c-0.052-0.091-0.121-0.227-0.206-0.408c-0.032-0.097-0.046-0.163-0.044-0.199c-0.01-0.283-0.008-0.502,0.005-0.659
			c0.016-0.211,0.156-0.45,0.42-0.716l0.185-0.188C149.098,279.323,149.297,279.193,149.505,279.128z"/>
		<path fill="#80AE3E" stroke="#80AE3E" stroke-width="0.3725" stroke-miterlimit="10" d="M153.798,282.118
			c0.489-0.049,1,0.074,1.531,0.371c0.056,0.032,0.133,0.072,0.231,0.122c0.098,0.05,0.192,0.107,0.281,0.174
			c0.211,0.164,0.269,0.334,0.175,0.503c-0.392-0.22-0.714-0.37-0.966-0.454c-0.385-0.119-0.706-0.145-0.964-0.078
			c-0.333,0.09-0.6,0.314-0.801,0.673c-0.284,0.51-0.245,0.992,0.119,1.449c0.254,0.321,0.664,0.642,1.228,0.957
			c-0.045,0.08-0.116,0.119-0.209,0.121c-0.188,0.007-0.461-0.091-0.821-0.292c-0.556-0.312-0.937-0.688-1.145-1.133
			c-0.251-0.518-0.23-1.038,0.062-1.562C152.805,282.46,153.23,282.178,153.798,282.118z"/>
		<path fill="#80AE3E" stroke="#80AE3E" stroke-width="0.3725" stroke-miterlimit="10" d="M157.711,284.064
			c0.42-0.212,0.911-0.257,1.47-0.135c0.582,0.128,1.035,0.363,1.358,0.707c0.364,0.396,0.483,0.883,0.358,1.455
			c-0.007,0.032-0.019,0.075-0.037,0.135c-0.017,0.058-0.028,0.1-0.034,0.127c0,0.005-0.012,0.022-0.034,0.057
			c-0.121,0.167-0.212,0.292-0.271,0.373c-0.084,0.109-0.149,0.19-0.193,0.242c-0.022,0.019-0.064,0.048-0.124,0.086
			c-0.316,0.206-0.493,0.319-0.53,0.34c-0.25,0.135-0.643,0.145-1.18,0.027c-0.613-0.133-1.068-0.384-1.362-0.751
			c-0.326-0.397-0.424-0.893-0.294-1.49C156.957,284.691,157.249,284.3,157.711,284.064z M157.688,286.239
			c0.008,0.024,0.03,0.065,0.064,0.12l0.221,0.345c0.031,0.05,0.059,0.088,0.082,0.11c0.087,0.117,0.199,0.191,0.338,0.223
			l0.148,0.032c0.411,0.09,0.766-0.001,1.063-0.272c0.053-0.05,0.127-0.136,0.222-0.261c0.095-0.123,0.149-0.197,0.165-0.223
			c-0.003,0.014,0.012-0.034,0.044-0.14l0.031-0.106c0.008-0.037,0.014-0.065,0.019-0.088c0.078-0.356,0.032-0.696-0.137-1.017
			c-0.18-0.337-0.444-0.544-0.794-0.62l-0.153-0.033c-0.134-0.029-0.273-0.007-0.415,0.066c-0.535,0.276-0.844,0.614-0.93,1.012
			C157.576,285.752,157.587,286.037,157.688,286.239z"/>
		<path fill="#80AE3E" stroke="#80AE3E" stroke-width="0.3725" stroke-miterlimit="10" d="M165.21,284.18
			c0.014,0.001,0.045,0.008,0.094,0.02c0.229,0.062,0.368,0.099,0.415,0.104c0.009-0.001,0.025-0.001,0.049-0.001
			c0.021-0.004,0.04-0.006,0.054-0.009c0.014-0.003,0.03-0.008,0.052-0.017c0.023-0.004,0.039-0.007,0.048-0.009
			c0.183-0.097,0.364-0.191,0.544-0.283c0.206-0.101,0.403-0.167,0.593-0.199c0.297-0.052,0.556-0.048,0.776,0.01
			c0.218,0.06,0.436,0.188,0.651,0.385c0.055,0.052,0.09,0.116,0.103,0.193l0.422,2.461c0.024,0.142-0.1,0.235-0.37,0.281
			c-0.028,0.006-0.066,0.012-0.116,0.02c-0.219,0.024-0.339-0.027-0.361-0.155l-0.399-2.324c-0.019-0.114-0.136-0.211-0.35-0.292
			c-0.183-0.067-0.338-0.09-0.464-0.067c-0.118,0.02-0.282,0.093-0.492,0.219c-0.236,0.144-0.346,0.26-0.33,0.353l0.398,2.323
			c0.005,0.026-0.025,0.079-0.091,0.155c-0.082,0.09-0.139,0.145-0.167,0.163c-0.007,0.011-0.062,0.024-0.167,0.043
			c-0.027,0.005-0.064,0.009-0.109,0.012c-0.202,0.015-0.313-0.037-0.333-0.154l-0.411-2.393c-0.022-0.132-0.146-0.232-0.373-0.301
			c-0.191-0.057-0.356-0.073-0.496-0.05c-0.145,0.025-0.303,0.095-0.474,0.208c-0.212,0.14-0.307,0.28-0.283,0.422l0.411,2.393
			c0.025,0.141-0.11,0.236-0.404,0.287c-0.271,0.046-0.418-0.001-0.442-0.142l-0.411-2.394c-0.007-0.04,0.007-0.09,0.044-0.147
			c0.355-0.582,0.898-0.936,1.629-1.061C164.804,284.173,165.057,284.154,165.21,284.18z"/>
		<path fill="#80AE3E" stroke="#80AE3E" stroke-width="0.3725" stroke-miterlimit="10" d="M170.46,282.979
			c0.153-0.445,0.473-0.819,0.958-1.123c0.505-0.314,0.993-0.462,1.465-0.442c0.537,0.029,0.961,0.292,1.273,0.791
			c0.017,0.026,0.039,0.067,0.067,0.121c0.028,0.053,0.05,0.091,0.064,0.114c0.002,0.005,0.008,0.025,0.016,0.064
			c0.031,0.205,0.053,0.357,0.066,0.458c0.016,0.136,0.026,0.238,0.032,0.307c-0.004,0.03-0.014,0.079-0.029,0.149
			c-0.083,0.367-0.131,0.572-0.143,0.611c-0.085,0.272-0.36,0.553-0.826,0.845c-0.531,0.334-1.031,0.471-1.499,0.414
			c-0.511-0.057-0.928-0.343-1.251-0.86C170.357,283.953,170.293,283.47,170.46,282.979z M171.961,284.55
			c0.024,0.012,0.068,0.026,0.131,0.042l0.399,0.093c0.057,0.013,0.102,0.021,0.135,0.022c0.144,0.022,0.277-0.003,0.396-0.077
			l0.128-0.081c0.358-0.224,0.548-0.535,0.572-0.938c0.003-0.073-0.004-0.188-0.023-0.343c-0.018-0.153-0.031-0.245-0.038-0.274
			c0.007,0.013-0.015-0.03-0.066-0.131l-0.053-0.097c-0.02-0.03-0.036-0.056-0.048-0.077c-0.194-0.309-0.463-0.519-0.809-0.63
			c-0.364-0.117-0.698-0.08-1,0.109l-0.133,0.083c-0.117,0.074-0.201,0.187-0.251,0.338c-0.188,0.571-0.174,1.028,0.042,1.374
			C171.543,284.28,171.749,284.476,171.961,284.55z"/>
		<path fill="#80AE3E" stroke="#80AE3E" stroke-width="0.3725" stroke-miterlimit="10" d="M173.512,278.282
			c0.118-0.07,0.199-0.086,0.24-0.05l0.952,0.808l0.12-0.033c-0.009-0.104,0.021-0.212,0.089-0.32
			c0.017-0.028,0.088-0.115,0.212-0.262c0.358-0.423,0.765-0.698,1.221-0.829c0.528-0.157,0.997-0.064,1.405,0.283
			c0.427,0.361,0.66,0.827,0.699,1.395c0.04,0.567-0.122,1.067-0.486,1.497c-0.024,0.028-0.067,0.075-0.129,0.142
			c-0.283,0.283-0.574,0.508-0.873,0.674c-0.236,0.13-0.399,0.158-0.487,0.082l-3.279-2.78c-0.049-0.042-0.054-0.117-0.015-0.229
			c0.034-0.09,0.075-0.164,0.123-0.219C173.35,278.387,173.418,278.334,173.512,278.282z M176.451,280.584
			c0.121,0.108,0.236,0.186,0.349,0.231c0.244,0.105,0.497,0.004,0.757-0.303c0.239-0.282,0.315-0.617,0.226-1.006
			c-0.078-0.359-0.264-0.665-0.56-0.916c-0.279-0.236-0.589-0.331-0.931-0.285c-0.326,0.048-0.61,0.215-0.853,0.501
			c-0.314,0.37-0.234,0.745,0.239,1.122c0.13,0.104,0.255,0.207,0.375,0.31C176.197,280.359,176.33,280.476,176.451,280.584z"/>
		<path fill="#80AE3E" stroke="#80AE3E" stroke-width="0.3725" stroke-miterlimit="10" d="M175.921,275.171
			c-0.003-0.064,0.038-0.176,0.121-0.334c0.06-0.112,0.124-0.18,0.191-0.198c0.068-0.019,0.161,0.003,0.28,0.066l0.061,0.032
			c0.083,0.081,0.134,0.133,0.152,0.158l-0.256,0.485c-0.005,0.009-0.02,0.016-0.045,0.023c-0.085,0.032-0.164,0.053-0.236,0.062
			c-0.03-0.012-0.05-0.02-0.058-0.024C175.995,275.371,175.925,275.28,175.921,275.171z M180.129,276.618
			c0.294,0.155,0.376,0.354,0.249,0.598c-0.129,0.241-0.341,0.285-0.635,0.131l-2.329-1.232c-0.033-0.018-0.083-0.067-0.147-0.152
			c-0.066-0.083-0.088-0.147-0.063-0.192l0.288-0.547L180.129,276.618z"/>
		<path fill="#80AE3E" stroke="#80AE3E" stroke-width="0.3725" stroke-miterlimit="10" d="M176.73,273.157l0.184-0.518l0.177-0.084
			l4.313,1.529c0.114,0.041,0.181,0.09,0.202,0.147c0.021,0.059,0.01,0.148-0.033,0.269c-0.043,0.122-0.073,0.186-0.09,0.195
			c-0.025,0.029-0.085,0.066-0.179,0.109c-0.094,0.045-0.152,0.063-0.174,0.056l-4.313-1.528L176.73,273.157z"/>
		<path fill="#80AE3E" stroke="#80AE3E" stroke-width="0.3725" stroke-miterlimit="10" d="M179.745,271.564
			c-0.524-0.353-0.734-0.946-0.629-1.782c0.019-0.141,0.049-0.296,0.094-0.466c0.077-0.271,0.192-0.488,0.347-0.648
			c0.184-0.202,0.405-0.288,0.662-0.256c0.371,0.047,0.639,0.345,0.802,0.891c0.138,0.461,0.181,0.894,0.131,1.296
			c-0.009,0.074-0.025,0.121-0.046,0.145c-0.021,0.022-0.067,0.029-0.136,0.021c-0.137-0.018-0.233-0.212-0.289-0.584
			c-0.038-0.263-0.08-0.443-0.128-0.543c-0.084-0.181-0.227-0.283-0.429-0.31c-0.078-0.01-0.146,0-0.207,0.029
			c-0.163,0.081-0.261,0.244-0.292,0.489c-0.029,0.232,0.034,0.471,0.19,0.716c0.171,0.267,0.372,0.413,0.601,0.443
			c0.294,0.037,0.587,0,0.88-0.111c0.339-0.127,0.568-0.307,0.69-0.536c0.067-0.13,0.117-0.324,0.15-0.583
			c0.02-0.159-0.018-0.32-0.114-0.485c-0.076-0.134-0.107-0.253-0.095-0.357c0.285,0.036,0.474,0.143,0.568,0.321
			c0.079,0.152,0.099,0.383,0.06,0.692l-0.009,0.067c-0.016,0.123-0.031,0.231-0.048,0.327c-0.02,0.117-0.068,0.258-0.145,0.424
			c-0.041,0.098-0.107,0.233-0.199,0.411c-0.057,0.086-0.101,0.139-0.131,0.156c-0.218,0.182-0.394,0.313-0.525,0.398
			c-0.177,0.115-0.452,0.15-0.824,0.104l-0.261-0.034C180.147,271.769,179.924,271.688,179.745,271.564z"/>
		<path fill="#80AE3E" stroke="#80AE3E" stroke-width="0.3725" stroke-miterlimit="10" d="M182.219,266.263
			c0.01-0.19,0.009-0.333-0.002-0.428c-0.009-0.078-0.025-0.153-0.048-0.229c-0.076-0.255-0.248-0.367-0.514-0.335
			c-0.009,0.002-0.021,0.003-0.035,0.005c-0.014,0.007-0.024,0.008-0.034,0.01c-0.295,0.418-0.509,0.738-0.641,0.961
			c-0.291,0.416-0.572,0.641-0.843,0.673c-0.303,0.036-0.562-0.067-0.777-0.31c-0.187-0.214-0.3-0.479-0.338-0.797
			c-0.027-0.233,0.005-0.439,0.096-0.62c0.105-0.207,0.272-0.322,0.497-0.35c0.021,0.179-0.019,0.343-0.12,0.495
			s-0.146,0.279-0.134,0.379c0.013,0.114,0.071,0.213,0.171,0.298c0.101,0.085,0.208,0.122,0.323,0.107
			c0.17-0.02,0.326-0.119,0.468-0.297c0.077-0.097,0.174-0.261,0.292-0.491c0.249-0.495,0.55-0.762,0.904-0.804
			c0.17-0.02,0.321,0.001,0.455,0.064c0.386,0.189,0.61,0.557,0.674,1.103c0.037,0.319,0.045,0.53,0.025,0.634
			c-0.041,0.212-0.18,0.333-0.419,0.359C182.208,266.597,182.208,266.453,182.219,266.263z"/>
	</g>
	<g>
		<path fill="#80AE3E" stroke="#80AE3E" stroke-width="0.4193" stroke-miterlimit="10" d="M152.533,278.663
			c-0.471-0.158-0.932-0.015-0.954,0.016c0.387,0.328,0.492,0.442,1.128,0.595c0.5,0.118,0.8-0.078,0.915-0.172
			C153.25,278.971,153.1,278.851,152.533,278.663z"/>
	</g>
</g>
<g>
	<path fill="#80AE3E" d="M56.311,258.118c-1.268,0.003-2.232-2.179-4.707-2.175c-1.721,0.003-2.98,1.372-2.98,2.861
		c0,1.229,0.708,2.312,2.123,2.727l3.694,1.014c3.083,0.887,4.601,2.722,4.602,6.125c0.002,1.257-0.743,3.516-1.084,4.131
		c-1.025,1.817-4.713,1.166-4.089,0.166c0.281-0.458,1.485-2.976,1.485-3.547c0-3.192-4.098-2.923-6.476-3.737
		c-1.516-0.541-4.145-1.971-4.148-5.919c-0.003-4.492,2.37-7.625,6.824-7.631c3.437-0.004,6.723,2.311,6.724,3.874
		C58.278,256.959,57.117,258.118,56.311,258.118z"/>
	<path fill="#80AE3E" d="M83.553,263.095l0.003,9.695c0,1.298-0.779,1.122-1.639,1.123l-0.557,0.004
		c-0.809,0-1.344,0.175-1.344-1.124l-0.003-6.428c-0.001-3.13-0.763-4.695-2.175-4.695c-1.516,0.004-2.226,1.632-2.225,4.908
		l0.003,6.33c0,1.29-0.635,1.065-1.493,1.067h-0.555c-0.861,0-1.493,0.161-1.493-1.271l-0.007-12.663
		c-0.001-1.289,0.556-1.977,1.771-1.977c1.011-0.003,1.822,0.473,2.481,0.473c1.209,0,1.565-0.885,3.387-0.885
		C82.03,257.649,83.549,259.144,83.553,263.095z"/>
	<path fill="#80AE3E" d="M90.232,273.629c-1.066-0.289-3.308,0.488-4.397-2.638c-0.307-0.868-0.491-2.125-0.491-3.909
		c-0.006-7.295,3.229-9.068,5.404-9.069c1.517-0.005,2.021,0.544,2.933,0.544c0.759,0,0.96-1.023,1.009-2.454l0.051-1.629
		c0.048-1.225,0.352-2.106,1.11-2.11h1.014c0.807,0,1.209,0.883,1.21,2.652l0.01,16.711c0.001,1.427-0.502,2.18-1.667,2.183
		C95.154,273.909,92.069,274.114,90.232,273.629z M91.617,272.788c2.124-0.001,3.08-2.521,3.079-6.059
		c-0.003-3.813-1.215-5.516-2.936-5.516c-1.01,0-3.036,0.752-3.033,5.791C88.729,271.223,90.196,272.79,91.617,272.788z"/>
	<path fill="#80AE3E" d="M102.089,255.487c-1.469,0-1.975-0.881-1.975-2.04c-0.001-1.701,0.91-2.18,1.972-2.18
		c1.466-0.004,2.023,0.878,2.024,2.036C104.109,255.011,103.203,255.484,102.089,255.487z M104.167,260.455l0.005,11.811
		c0.002,1.633-0.656,1.887-2.023,1.888c-1.721,0.003-2.024,0.196-2.026-1.777l-0.005-12.467c-0.001-1.494,0.606-2.445,1.52-2.445
		l0.905-0.004C103.606,257.46,104.166,258.475,104.167,260.455z"/>
	<path fill="#80AE3E" d="M112.754,257.286c2.531-0.005,5.207,1.961,5.208,3.729c0.001,0.887-0.81,1.908-1.923,1.909
		c-1.059,0.002-1.667-1.568-3.036-1.568c-1.21,0.003-3.063,1.239-2.928,5.253c0.164,4.866,2.243,6.191,3.961,6.191
		c2.021-0.003-5.432,1.613-6.426,0.166c-1.022-1.491-1.58-4.219-1.583-6.285C106.025,261.236,108.655,257.287,112.754,257.286z"/>
	<path fill="#80AE3E" d="M119.586,273.131c-0.151-0.582-0.634-1.696-0.634-2.376c-0.001-3.064,1.816-5.384,5.907-6.134
		c1.673-0.276,2.177-1.161,2.177-1.91c0-1.363-0.808-2.249-1.771-2.246c-1.924,0-1.768,2.249-3.892,2.251
		c-0.704,0-1.467-0.202-1.467-1.364c-0.001-1.221,1.062-3.809,5.107-3.812c3.537-0.002,5.661,1.084,5.664,5.982l0.154,9.445
		L119.586,273.131z M124.46,272.449c1.318,0,2.628-1.639,2.628-3.405c-0.001-0.885-0.351-1.637-1.265-1.637
		c-1.064,0.001-3.183,0.958-3.182,2.863C122.642,271.431,123.348,272.452,124.46,272.449z"/>
	<path fill="#80AE3E" d="M131.772,259.233c-0.001-1.16,1.317-1.84,1.521-2.517c0.247-0.757,0.247-1.089,0.246-1.837
		c0-0.755,0.15-2.458,1.973-2.458c1.773-0.002,1.919,1.567,1.919,2.515c0.002,0.683,0.105,1.364,0.356,1.909
		c0.406,0.816,1.872,0.816,1.873,2.452c0.001,1.631-1.57,1.425-2.019,2.789c-0.253,0.754-0.204,1.151-0.203,2.312l0.003,3.95
		c0,1.163,0.085,1.507,0.307,2.045c2.284,5.553-3.85,3.069-3.85,3.069c-0.096-0.507-0.296-2.084-0.296-2.724l-0.004-6.127
		c0.047-1.371-0.103-2.383-0.507-3.064C132.688,260.86,131.773,260.385,131.772,259.233z"/>
	<path fill="#80AE3E" d="M60.557,257.923l0.607,0.029c1.054-0.052,1.299,0.445,1.887,1.768l1.214,3.201
		c0.349,0.947,0.492,1.63,0.898,1.63c0.347,0,0.63-0.802,0.855-1.426l1.13-3.201c0.351-1.261,0.952-1.978,1.915-1.978l0.739-0.034
		c0.858,0,1.256,1.059,0.988,1.948c-0.135,0.444-0.807,1.939-0.853,2.212l-4.58,11.267l-3.882,0.301l-0.063-0.694
		c0.782-2.051,2.019-3.689,1.152-5.679c-1.004-2.319-1.873-4.991-2.475-6.236C59.169,259.123,59.658,257.923,60.557,257.923z"/>
</g>
<g>
	<path fill="#80AE3E" d="M140.888,274.321H48.149c-0.392,0-0.708-0.317-0.708-0.709s0.317-0.709,0.708-0.709h92.739
		c0.392,0,0.708,0.317,0.708,0.709S141.28,274.321,140.888,274.321z"/>
</g>
<g>
	<path fill="#80AE3E" d="M143.927,274.321c-0.392,0-0.708-0.317-0.708-0.709s0.317-0.709,0.708-0.709
		c2.202,0,4.189-0.544,4.208-0.549c0.38-0.103,0.768,0.117,0.873,0.493c0.104,0.377-0.116,0.768-0.493,0.872
		C148.428,273.744,146.33,274.321,143.927,274.321z"/>
</g>
<g>
	<g>
		<path fill="#FFFFFF" d="M53.559,284.467l0.038-4.928c-0.001-0.571-0.177-0.856-0.526-0.856H52.63c-0.328,0-0.458,0.285-0.481,0.68
			l-0.021,0.526c-0.02,0.46-0.109,0.788-0.438,0.789c-0.395,0-0.613-0.174-1.27-0.174c-0.946,0-2.347,0.569-2.344,2.918
			c0,0.362,0.211,1.574,0.425,1.824l0.004-0.001c0.299,0.628,0.823,1.221,1.744,1.285c1.133,0.079,1.791-0.229,1.791-0.229
			s0.914,0.483,1.383,0.015C53.602,286.138,53.559,284.467,53.559,284.467L53.559,284.467z M49.85,284.697
			c-0.184-0.295-0.307-0.715-0.307-1.301c-0.001-1.623,0.878-1.861,1.314-1.861c0.745,0,1.271,0.544,1.273,1.771
			c0.001,0.453-0.068,0.848-0.206,1.164h0.005C51.93,284.471,50.977,286.12,49.85,284.697z"/>
	</g>
</g>
<g>
	<g>
		<path fill="#FFFFFF" d="M56.823,283.482l1.775-0.002h0.506c0.524,0,0.746-0.133,0.746-0.637c0-0.438-0.31-2.587-2.7-2.587
			c-1.423,0.005-2.783,0.859-2.782,3.097c0,0.256,0.027,0.491,0.072,0.712c0.023,0.326,0.192,1.592,1.418,2.266
			c1.207,0.664,3.025,0.108,3.259,0.047c0.404-0.106,0.903-1.175-0.07-1.119c-0.693,0.04-2.18,0.741-2.791-0.574
			c-0.104-0.265-0.197-0.543-0.197-0.634C56.056,283.679,56.321,283.482,56.823,283.482z M56.145,282.104
			c0-0.398,0.568-0.707,1.005-0.707c0.528,0,0.99,0.397,0.99,0.747c0.001,0.308-0.372,0.46-1.099,0.46
			C56.453,282.604,56.145,282.43,56.145,282.104z"/>
	</g>
</g>
<g>
	<path fill="#80AE3E" d="M150.735,273.173c-0.293,0-0.567-0.184-0.669-0.476c-0.129-0.369,0.066-0.773,0.436-0.902
		c1.242-0.434,4.375-1.909,4.406-1.924c0.354-0.171,0.776-0.016,0.943,0.338c0.167,0.354,0.015,0.776-0.339,0.943
		c-0.131,0.062-3.231,1.522-4.544,1.98C150.892,273.16,150.813,273.173,150.735,273.173z"/>
</g>
<g>
	<path fill="#225C98" d="M70.811,278.474c-0.13,0.743-0.481,0.989-1.591,0.991c-1.171,0-1.506,0.492-1.636,1.233l-1.121,6.416
		c-0.169,0.956-0.638,1.171-1.5,1.173c-0.835,0-1.249-0.276-1.092-1.17l1.127-6.447c0.131-0.741-0.036-1.203-1.238-1.203
		c-1.171,0.002-1.308-0.277-1.189-0.953c0.114-0.649,0.542-0.986,1.25-0.988l6.018-0.004
		C70.608,277.521,70.924,277.826,70.811,278.474z"/>
	<path fill="#225C98" d="M74.677,280.179c0.525,0,0.72,0.312,0.617,0.895c-0.131,0.741-0.371,1.047-1.247,1.297
		c-0.843,0.246-1.342,0.801-1.467,1.514l-0.556,3.177c-0.132,0.768-0.513,1.167-1.16,1.169h-0.617
		c-0.584,0.001-0.818-0.43-0.679-1.231l1.008-5.768c0.138-0.771,0.459-1.202,1.384-1.202c0.958-0.001,1.267,0.338,1.636,0.338
		C74.06,280.365,74.217,280.179,74.677,280.179z"/>
	<path fill="#225C98" d="M80.724,288.146c-0.646,0-0.906-0.278-1.31-0.276c-0.709,0-1.287,0.493-2.337,0.493
		c-1.726,0.003-2.478-0.982-2.24-2.34c0.242-1.388,1.537-2.439,4.092-2.779c1.04-0.123,1.419-0.524,1.478-0.863
		c0.108-0.616-0.315-1.016-0.903-1.016c-1.169,0-1.254,1.017-2.55,1.019c-0.433,0-0.879-0.093-0.789-0.616
		c0.1-0.557,0.95-1.729,3.421-1.729c2.157-0.003,3.366,0.489,2.979,2.71l-0.811,4.628C81.644,287.992,81.249,288.146,80.724,288.146
		z M78.062,286.792c0.803,0,1.734-0.741,1.874-1.546c0.071-0.4-0.088-0.735-0.643-0.735c-0.646,0-2.017,0.432-2.167,1.294
		C77.034,286.329,77.383,286.792,78.062,286.792z"/>
	<path fill="#225C98" d="M91.259,282.56l-0.841,4.809c-0.105,0.587-0.583,0.864-1.107,0.864h-0.34
		c-0.494,0.001-0.815-0.275-0.715-0.863l0.585-3.331c0.249-1.417-0.09-2.127-0.953-2.127c-0.924,0-1.487,0.74-1.746,2.224
		l-0.566,3.236c-0.104,0.589-0.582,0.864-1.108,0.865h-0.34c-0.523,0.002-0.808-0.309-0.695-0.954l1.067-6.108
		c0.104-0.587,0.495-0.896,1.239-0.896c0.613-0.002,1.069,0.215,1.47,0.215c0.743-0.002,1.029-0.4,2.138-0.402
		C90.765,280.09,91.571,280.767,91.259,282.56z"/>
	<path fill="#225C98" d="M95.348,282.213c-0.106,0.617,0.416,0.804,1.784,1.077c1.731,0.34,2.32,1.205,2.126,2.312
		c-0.302,1.73-2.026,2.779-4.126,2.78c-2.126,0.001-3.249-0.985-3.153-1.54c0.088-0.491,0.646-0.862,1.077-0.862
		c0.864,0,1.068,0.77,2.485,0.769c0.68,0,1.187-0.432,1.252-0.805c0.128-0.738-0.637-0.768-2.053-1.137
		c-1.209-0.308-2.122-0.925-1.892-2.22c0.292-1.666,2.094-2.626,3.757-2.627c1.665,0,2.977,0.615,2.869,1.231
		c-0.077,0.435-0.676,0.868-1.106,0.868c-0.65,0-0.967-0.462-1.985-0.462C95.949,281.598,95.425,281.782,95.348,282.213z"/>
	<path fill="#225C98" d="M108.491,283.998c-0.463,2.652-1.911,4.228-4.037,4.229c-0.65,0.001-1.228-0.215-1.381-0.215
		c-0.496,0-0.883,0.28-1.049,1.237c-0.205,1.17-0.417,1.51-1.282,1.51c-0.804,0.001-0.958-0.34-0.834-1.045l1.497-8.576
		c0.104-0.587,0.465-0.897,1.114-0.897c0.559,0,0.863,0.187,1.294,0.187c0.617-0.003,0.897-0.37,2.01-0.372
		C107.856,280.054,108.912,281.596,108.491,283.998z M104.213,286.779c1.696-0.003,2.197-2.162,2.305-2.779
		c0.245-1.389-0.179-2.498-1.321-2.498c-1.046,0.001-2.023,0.988-2.313,2.655C102.612,285.698,103.163,286.779,104.213,286.779z"/>
	<path fill="#225C98" d="M113.085,288.354c-2.341,0.002-3.91-1.445-3.437-4.161c0.511-2.899,2.799-4.165,4.957-4.168
		c1.975,0,4.064,1.077,3.533,4.131C117.721,286.53,115.986,288.352,113.085,288.354z M113.466,286.719
		c1.17,0,2.224-1.08,2.481-2.562c0.245-1.389-0.307-2.468-1.602-2.466c-1.142,0.001-2.217,0.866-2.498,2.469
		C111.586,285.64,112.228,286.72,113.466,286.719z"/>
	<path fill="#225C98" d="M123.989,280.141c0.526-0.001,0.72,0.311,0.619,0.895c-0.131,0.742-0.374,1.05-1.249,1.297
		c-0.844,0.246-1.343,0.803-1.467,1.514l-0.555,3.176c-0.137,0.771-0.514,1.168-1.164,1.17h-0.613
		c-0.588,0.003-0.821-0.428-0.684-1.23l1.013-5.766c0.134-0.774,0.455-1.204,1.383-1.204c0.955-0.002,1.266,0.338,1.637,0.338
		C123.372,280.329,123.528,280.141,123.989,280.141z"/>
	<path fill="#225C98" d="M125.411,280.851c0.091-0.523,0.949-0.833,1.126-1.144c0.216-0.336,0.239-0.49,0.3-0.832
		c0.058-0.338,0.285-1.109,1.396-1.109c1.078-0.001,1.047,0.708,0.972,1.141c-0.055,0.309-0.046,0.613,0.066,0.863
		c0.181,0.37,1.078,0.37,0.946,1.11c-0.13,0.738-1.072,0.646-1.456,1.264c-0.212,0.341-0.21,0.523-0.306,1.049l-0.315,1.788
		c-0.09,0.527-0.054,0.679,0.025,0.927c0.158,0.525,1.173,0.523,1.013,1.448c-0.113,0.646-0.575,0.986-1.408,0.987
		c-1.697,0.002-2.425-0.771-2.161-2.28l0.486-2.774c0.138-0.618,0.129-1.08-0.066-1.388
		C125.835,281.59,125.32,281.377,125.411,280.851z"/>
	<path fill="#225C98" d="M133.697,282.185c-0.107,0.616,0.414,0.801,1.784,1.077c1.729,0.339,2.32,1.205,2.125,2.313
		c-0.299,1.729-2.028,2.776-4.122,2.778c-2.13,0.001-3.252-0.986-3.158-1.541c0.084-0.492,0.646-0.861,1.078-0.861
		c0.863-0.001,1.066,0.771,2.487,0.769c0.678,0,1.184-0.434,1.249-0.805c0.13-0.739-0.634-0.768-2.05-1.138
		c-1.211-0.308-2.121-0.925-1.896-2.218c0.29-1.667,2.094-2.626,3.761-2.628c1.664-0.001,2.975,0.616,2.868,1.233
		c-0.076,0.431-0.678,0.865-1.109,0.865c-0.646,0-0.968-0.462-1.985-0.46C134.297,281.57,133.772,281.754,133.697,282.185z"/>
</g>
<g>
	<polygon fill="#FFFFFF" points="170.251,263.772 171.455,263.624 172.106,264.525 172.256,265.228 172.043,265.592 
		170.251,265.929 	"/>
	<polygon fill="#1F1E21" points="165.257,260.532 167.164,260.627 169.35,261.818 169.901,263.824 169.701,265.377 171.104,266.831 
		171.605,269.938 171.367,270.859 168.748,271.142 165.289,269.788 162.883,266.029 	"/>
	<path fill="#1F1E21" d="M164.089,277.148c0.829-0.264,1.609-0.659,2.328-1.129c0.197,0.139,0.622,0.368,0.997,0.102
		c0.373-0.269,0.265-0.738,0.18-0.968c0.808-0.663,1.509-1.383,2.081-2.039c0.222,0.077,0.572,0.122,0.84-0.221
		c0.219-0.28,0.11-0.652,0.026-0.849c0.533-0.704,0.826-1.186,0.826-1.186s-1.875-1.096-3.216-3.015
		c-0.245,0.279-0.723,0.694-1.422,0.729c-0.789,0.039-1.34-0.63-1.571-0.978l-11.361,5.307c0,0,2.213,5.564,8.806,4.578
		c0.145,0.222,0.5,0.661,0.977,0.507C164.059,277.836,164.097,277.363,164.089,277.148z"/>
	<path fill="#1F1E21" d="M156.211,261.937c-0.428,0.264-0.326,0.819-0.253,1.071c-5.045,4.358-2.269,9.664-2.269,9.664l11.431-5.156
		c-0.113-0.401-0.261-1.256,0.283-1.828c0.482-0.508,1.108-0.601,1.478-0.604c-0.58-2.268-0.188-4.403-0.188-4.403
		s-0.556-0.092-1.437-0.147c-0.094-0.19-0.307-0.517-0.662-0.533c-0.435-0.02-0.629,0.276-0.713,0.495
		c-0.872,0.004-1.875,0.066-2.904,0.247c-0.12-0.212-0.405-0.602-0.851-0.493c-0.448,0.108-0.551,0.581-0.574,0.82
		c-0.824,0.241-1.634,0.573-2.375,1.03C157.023,261.953,156.639,261.674,156.211,261.937z"/>
	<linearGradient id="SVGID_3_" gradientUnits="userSpaceOnUse" x1="156.3589" y1="276.9395" x2="171.4457" y2="268.3183">
		<stop  offset="0.0301" style="stop-color:#7C2016"/>
		<stop  offset="0.4929" style="stop-color:#AF2522"/>
		<stop  offset="0.9589" style="stop-color:#4C1600"/>
	</linearGradient>
	<path fill="url(#SVGID_3_)" d="M164.089,277.148c0.829-0.264,1.609-0.659,2.328-1.129c0.197,0.139,0.622,0.368,0.997,0.102
		c0.373-0.269,0.265-0.738,0.18-0.968c0.808-0.663,1.509-1.383,2.081-2.039c0.222,0.077,0.572,0.122,0.84-0.221
		c0.219-0.28,0.11-0.652,0.026-0.849c0.533-0.704,0.826-1.186,0.826-1.186s-1.875-1.096-3.216-3.015
		c-0.245,0.279-0.723,0.694-1.422,0.729c-0.789,0.039-1.34-0.63-1.571-0.978l-11.361,5.307c0,0,2.213,5.564,8.806,4.578
		c0.145,0.222,0.5,0.661,0.977,0.507C164.059,277.836,164.097,277.363,164.089,277.148z M162.686,272.209
		c-0.058-0.126-0.455-0.89,0.514-1.387c0.809-0.416,1.267,0.158,1.375,0.346c0.109,0.189,0.348,0.992-0.559,1.43
		C163.091,273.044,162.744,272.334,162.686,272.209z M167.709,270.425c0,0,0.784-0.621,1.232,0.13c0.376,0.63-0.21,1.484-0.4,1.638
		c-0.189,0.152-0.917,0.695-1.385-0.038C166.846,271.668,167.229,270.798,167.709,270.425z M159.864,275.808
		c-0.151-0.388-0.252-0.928,0.601-1.341c0.746-0.361,1.323,0.281,1.466,0.544c0,0,0.36,0.785-0.492,1.246
		C160.638,276.689,159.986,276.121,159.864,275.808z"/>
	<linearGradient id="SVGID_4_" gradientUnits="userSpaceOnUse" x1="152.1572" y1="269.5889" x2="167.2446" y2="260.9674">
		<stop  offset="0.0301" style="stop-color:#7C2016"/>
		<stop  offset="0.4929" style="stop-color:#AF2522"/>
		<stop  offset="0.9589" style="stop-color:#4C1600"/>
	</linearGradient>
	<path fill="url(#SVGID_4_)" d="M156.211,261.937c-0.428,0.264-0.326,0.819-0.253,1.071c-5.045,4.358-2.269,9.664-2.269,9.664
		l11.431-5.156c-0.113-0.401-0.261-1.256,0.283-1.828c0.482-0.508,1.108-0.601,1.478-0.604c-0.58-2.268-0.188-4.403-0.188-4.403
		s-0.556-0.092-1.437-0.147c-0.094-0.19-0.307-0.517-0.662-0.533c-0.435-0.02-0.629,0.276-0.713,0.495
		c-0.872,0.004-1.875,0.066-2.904,0.247c-0.12-0.212-0.405-0.602-0.851-0.493c-0.448,0.108-0.551,0.581-0.574,0.82
		c-0.824,0.241-1.634,0.573-2.375,1.03C157.023,261.953,156.639,261.674,156.211,261.937z M160.583,265.12
		c0.923-0.4,1.377,0.302,1.449,0.509c0.073,0.204,0.208,0.926-0.633,1.268c-1.008,0.411-1.33-0.389-1.388-0.515
		C159.953,266.257,159.642,265.53,160.583,265.12z M162.967,263.027c-0.251-0.832,0.634-1.03,0.875-1.075
		c0.24-0.045,1.27,0.069,1.502,0.767c0.278,0.828-0.706,1.019-0.706,1.019C164.042,263.858,163.133,263.58,162.967,263.027z
		 M156.128,264.689c0.904-0.346,1.266,0.439,1.266,0.439c0.106,0.276,0.217,1.135-0.543,1.466c-0.869,0.376-1.213-0.05-1.408-0.418
		C155.285,265.88,155.278,265.016,156.128,264.689z"/>
	<path fill="#7AA52A" d="M172.339,266.624c0.016,0.028,0.025,0.045,0.025,0.045s0.457,0.53,2.78,0.835c0,0,0.181,0.019,0.209-0.096
		c0.028-0.114-0.021-0.377-0.153-0.621c0,0-0.083-0.113-0.233-0.086c-0.149,0.028-0.752,0.041-1.208-0.043
		c-0.47-0.09-0.801-0.243-1.393-0.732c-0.008-0.007-0.015-0.013-0.023-0.02c0.06-0.343,0.1-0.944-0.179-1.594
		c-0.262-0.612-0.667-0.951-0.962-1.129c0.026-0.637,0.128-0.964,0.347-1.34c0.232-0.401,0.636-0.852,0.754-0.945
		c0.119-0.096,0.086-0.233,0.086-0.233c-0.098-0.26-0.265-0.467-0.371-0.52c-0.105-0.054-0.209,0.096-0.209,0.096
		c-0.984,1.503-1.152,2.261-1.176,2.532c-1.488-1.665-3.47-2.146-3.47-2.146s-0.406,2.258,1.18,5.865
		c1.27,2.892,3.351,3.914,3.351,3.914C172.446,268.77,172.416,267.313,172.339,266.624z M168.314,263.531
		c-0.582-0.494-0.5-0.825-0.463-1.209c0.039-0.395,0.368-0.88,0.418-0.924c0.051-0.043,0.102-0.066,0.27-0.011
		c0.167,0.055,1.147,0.508,2.506,2.099c0,0,0.123,0.156,0.035,0.187C171.08,263.673,169.331,264.395,168.314,263.531z
		 M170.589,264.306c-0.076-0.209,0.4-0.388,0.4-0.388c0.084-0.039,0.522-0.189,0.575-0.052c0.053,0.139-0.257,0.321-0.384,0.38
		C171.055,264.304,170.664,264.514,170.589,264.306z M171.708,265.405c-0.127,0.056-0.522,0.257-0.593,0.045
		c-0.071-0.21,0.41-0.377,0.41-0.377c0.085-0.037,0.527-0.177,0.577-0.038C172.151,265.175,171.835,265.351,171.708,265.405z
		 M171.815,269.124c-0.066,0.009-0.648-0.056-0.973-0.284c-0.314-0.222-0.619-0.375-0.615-1.141
		c0.009-1.333,1.695-2.188,1.695-2.188c0.081-0.048,0.12,0.147,0.12,0.147c0.319,2.067,0.025,3.105-0.043,3.27
		C171.932,269.091,171.882,269.114,171.815,269.124z"/>
	<path fill="#1F1E21" d="M172.339,266.624c0.016,0.028,0.025,0.045,0.025,0.045s0.457,0.53,2.78,0.835c0,0,0.181,0.019,0.209-0.096
		c0.028-0.114-0.021-0.377-0.153-0.621c0,0-0.083-0.113-0.233-0.086c-0.149,0.028-0.752,0.041-1.208-0.043
		c-0.47-0.09-0.801-0.243-1.393-0.732c-0.008-0.007-0.015-0.013-0.023-0.02c0.06-0.343,0.1-0.944-0.179-1.594
		c-0.262-0.612-0.667-0.951-0.962-1.129c0.026-0.637,0.128-0.964,0.347-1.34c0.232-0.401,0.636-0.852,0.754-0.945
		c0.119-0.096,0.086-0.233,0.086-0.233c-0.098-0.26-0.265-0.467-0.371-0.52c-0.105-0.054-0.209,0.096-0.209,0.096
		c-0.984,1.503-1.152,2.261-1.176,2.532c-1.488-1.665-3.47-2.146-3.47-2.146s-0.406,2.258,1.18,5.865
		c1.27,2.892,3.351,3.914,3.351,3.914C172.446,268.77,172.416,267.313,172.339,266.624z M168.314,263.531
		c-0.582-0.494-0.5-0.825-0.463-1.209c0.039-0.395,0.368-0.88,0.418-0.924c0.051-0.043,0.102-0.066,0.27-0.011
		c0.167,0.055,1.147,0.508,2.506,2.099c0,0,0.123,0.156,0.035,0.187C171.08,263.673,169.331,264.395,168.314,263.531z
		 M170.589,264.306c-0.076-0.209,0.4-0.388,0.4-0.388c0.084-0.039,0.522-0.189,0.575-0.052c0.053,0.139-0.257,0.321-0.384,0.38
		C171.055,264.304,170.664,264.514,170.589,264.306z M171.708,265.405c-0.127,0.056-0.522,0.257-0.593,0.045
		c-0.071-0.21,0.41-0.377,0.41-0.377c0.085-0.037,0.527-0.177,0.577-0.038C172.151,265.175,171.835,265.351,171.708,265.405z
		 M171.815,269.124c-0.066,0.009-0.648-0.056-0.973-0.284c-0.314-0.222-0.619-0.375-0.615-1.141
		c0.009-1.333,1.695-2.188,1.695-2.188c0.081-0.048,0.12,0.147,0.12,0.147c0.319,2.067,0.025,3.105-0.043,3.27
		C171.932,269.091,171.882,269.114,171.815,269.124z"/>
	<path fill="#FFFFFF" d="M168.269,261.398c0,0,0.93,0.42,1.782,1.121c0.657,0.542,1.029,1.153,1.029,1.153s-1.379,0.452-2.182,0.25
		c-0.544-0.135-1.021-0.699-1.053-1.152C167.796,262.07,168.269,261.398,168.269,261.398z"/>
	<path fill="#FFFFFF" d="M171.801,269.198c0,0,0.324-0.968,0.389-2.068c0.05-0.849-0.146-1.538-0.146-1.538s-1.268,0.704-1.667,1.43
		c-0.27,0.491-0.18,1.224,0.13,1.556C170.987,269.091,171.801,269.198,171.801,269.198z"/>
</g>
<path fill="#80AE3E" d="M31.718,271.409c-0.051,1.833-2.686,2.293-1.459-0.08c0.877-1.744,1.028-3.849,2.939-4.326
	C33.039,268.569,32.481,270.234,31.718,271.409 M34.236,264.382c-7.572-0.18-3.544,11.565-9.596,13.073
	c0.463,2.198,2.306,0.262,3.031,0.623c0.871,2.981,0.145,6.854,3.248,8.444c4.815-0.02,5.389-6.709,6.775-10.648
	c-2.01,2.963-3.23,7.057-6.003,8.831c-7.293-7.878,4.067-10.317,3.101-18.099C35.103,265.987,34.813,264.828,34.236,264.382
	 M12.532,266.889c-0.568,6.541,1.973,13.339,2.763,19.395c2.765,1.082,5.734-1.431,8.441-2.105c1.608-0.844,3.487-2.297,4.051-3.767
	c-2.944,1.424-6.7,3.147-10.672,3.843c-2.487-4.548-2.717-11.579-3.308-17.338C13.444,267.154,12.969,266.436,12.532,266.889"/>
</svg>
