<?xml version="1.0" encoding="utf-8"?>
<!-- Generator: Adobe Illustrator 16.0.4, SVG Export Plug-In . SVG Version: 6.00 Build 0)  -->
<!DOCTYPE svg PUBLIC "-//W3C//DTD SVG 1.1//EN" "http://www.w3.org/Graphics/SVG/1.1/DTD/svg11.dtd">
<svg version="1.1" id="Calque_1" xmlns="http://www.w3.org/2000/svg" xmlns:xlink="http://www.w3.org/1999/xlink" x="0px" y="0px"
	 width="435px" height="300px" viewBox="0 0 435 300" enable-background="new 0 0 435 300" xml:space="preserve">
<path fill="#77579C" d="M114.353,110.355c2.204-0.31,3.737-2.347,3.428-4.549c-0.31-2.204-2.347-3.739-4.55-3.43
	c-2.202,0.31-3.738,2.348-3.426,4.55C110.113,109.13,112.149,110.666,114.353,110.355"/>
<path fill="#77579C" d="M166.512,149.671c1.785-0.25,3.028-1.9,2.777-3.686c-0.251-1.784-1.9-3.029-3.687-2.778
	c-1.784,0.251-3.026,1.902-2.775,3.685C163.079,148.678,164.729,149.921,166.512,149.671"/>
<path fill="#77579C" d="M113.954,157.579c2.203-0.312,3.739-2.349,3.428-4.552c-0.31-2.203-2.346-3.738-4.549-3.427
	c-2.204,0.309-3.738,2.345-3.43,4.55C109.715,156.354,111.751,157.891,113.954,157.579"/>
<path fill="#77579C" d="M186.186,198.236c1.786-0.25,3.03-1.898,2.778-3.687c-0.252-1.782-1.901-3.024-3.686-2.776
	c-1.785,0.25-3.027,1.901-2.777,3.687C182.752,197.242,184.401,198.486,186.186,198.236"/>
<path fill="#E6AD34" d="M176.692,200.576c1.785-0.251,3.03-1.901,2.778-3.686c-0.25-1.785-1.899-3.027-3.686-2.777
	c-1.785,0.252-3.028,1.9-2.777,3.685C173.259,199.582,174.909,200.826,176.692,200.576"/>
<path fill="#77579C" d="M58.302,201.367c2.37-0.332,4.021-2.524,3.688-4.895c-0.333-2.369-2.524-4.021-4.895-3.688
	c-2.369,0.332-4.021,2.524-3.688,4.896C53.741,200.049,55.933,201.701,58.302,201.367"/>
<path fill="#77579C" d="M207.032,148.147c1.555-0.219,2.639-1.657,2.419-3.212c-0.22-1.555-1.657-2.638-3.211-2.42
	c-1.555,0.218-2.639,1.658-2.42,3.212C204.041,147.282,205.477,148.364,207.032,148.147"/>
<path fill="#E6AD34" d="M71.096,123.092c2.265,0,4.101-1.837,4.101-4.1c0-2.264-1.835-4.1-4.101-4.1c-2.264,0-4.1,1.836-4.1,4.1
	C66.996,121.256,68.832,123.092,71.096,123.092"/>
<path fill="#E6AD34" d="M143.465,142.351c2.089,0,3.782-1.694,3.782-3.784c0-2.089-1.693-3.784-3.782-3.784
	c-2.088,0-3.783,1.695-3.783,3.784C139.682,140.656,141.376,142.351,143.465,142.351"/>
<path fill="#E6AD34" d="M147.376,190.229c1.667,0,3.019-1.354,3.019-3.02c0-1.665-1.35-3.018-3.019-3.018
	c-1.666,0-3.017,1.35-3.017,3.018C144.359,188.878,145.711,190.229,147.376,190.229"/>
<path fill="#E6AD34" d="M74.987,198.721c2.055,0,3.721-1.668,3.721-3.724c0-2.058-1.667-3.722-3.721-3.722
	c-2.056,0-3.722,1.666-3.722,3.722C71.265,197.052,72.932,198.721,74.987,198.721"/>
<path fill="#E6AD34" d="M182.711,121.508c1.424,0,2.579-1.154,2.579-2.581c0-1.424-1.155-2.579-2.579-2.579
	c-1.427,0-2.581,1.156-2.581,2.579C180.13,120.354,181.284,121.508,182.711,121.508"/>
<path fill="#E6AD34" d="M208.872,161.312c1.664,0,3.014-1.35,3.014-3.017c0-1.664-1.35-3.015-3.014-3.015
	c-1.665,0-3.015,1.351-3.015,3.015C205.856,159.963,207.207,161.312,208.872,161.312"/>
<path fill="#9FC698" d="M207.232,173.029c1.825,0,3.303-1.479,3.303-3.303c0-1.819-1.478-3.301-3.303-3.301
	c-1.823,0-3.302,1.48-3.302,3.301C203.93,171.551,205.409,173.029,207.232,173.029"/>
<path fill="#9FC698" d="M55.327,130.85c0.807,1.245,2.471,1.597,3.716,0.79c1.244-0.808,1.598-2.47,0.79-3.716
	c-0.808-1.244-2.472-1.596-3.715-0.788C54.873,127.942,54.519,129.605,55.327,130.85"/>
<path fill="#9FC698" d="M148.054,132.564c0.988,1.52,3.021,1.952,4.54,0.963c1.523-0.986,1.953-3.019,0.968-4.541
	c-0.988-1.519-3.02-1.952-4.543-0.965C147.497,129.01,147.066,131.042,148.054,132.564"/>
<path fill="#9FC698" d="M42.312,188.509c1.408,2.167,4.308,2.782,6.477,1.376c2.169-1.408,2.786-4.31,1.377-6.479
	c-1.409-2.17-4.309-2.784-6.478-1.377C41.52,183.438,40.903,186.34,42.312,188.509"/>
<path fill="#A9526F" d="M189.647,127.688c0.815,1.256,2.494,1.614,3.75,0.797c1.253-0.815,1.61-2.493,0.796-3.749
	c-0.816-1.256-2.494-1.612-3.749-0.795C189.189,124.755,188.831,126.433,189.647,127.688"/>
<path fill="#9FC698" d="M198.04,135.942c0.814,1.255,2.493,1.614,3.747,0.796c1.255-0.815,1.611-2.493,0.797-3.749
	c-0.816-1.255-2.494-1.611-3.75-0.795C197.581,133.01,197.225,134.688,198.04,135.942"/>
<path fill="#A9526F" d="M124.563,130.608c1.217-0.819,1.537-2.471,0.716-3.688c-0.821-1.215-2.471-1.535-3.687-0.717
	c-1.217,0.821-1.538,2.473-0.717,3.689C121.697,131.108,123.348,131.429,124.563,130.608"/>
<path fill="#A9526F" d="M89.135,189.623c1.496-1.012,1.891-3.041,0.881-4.538c-1.008-1.496-3.04-1.89-4.536-0.881
	c-1.496,1.007-1.891,3.04-0.882,4.537C85.608,190.236,87.64,190.632,89.135,189.623"/>
<path fill="#A9526F" d="M205.356,183.938c1.663-1.121,2.102-3.377,0.98-5.041c-1.122-1.662-3.378-2.101-5.04-0.979
	c-1.663,1.123-2.102,3.378-0.982,5.042C201.438,184.621,203.693,185.059,205.356,183.938"/>
<path fill="#83B451" d="M124.766,118.366c0.72-1.415,0.16-3.146-1.255-3.868c-1.414-0.719-3.145-0.158-3.867,1.256
	c-0.719,1.415-0.157,3.146,1.257,3.866C122.315,120.344,124.046,119.78,124.766,118.366"/>
<path fill="#83B451" d="M157.506,194.402c0.648-1.271,0.144-2.832-1.129-3.479c-1.272-0.648-2.831-0.145-3.479,1.129
	c-0.647,1.273-0.142,2.83,1.129,3.481C155.3,196.184,156.857,195.674,157.506,194.402"/>
<path fill="#3D80B0" d="M175.805,128.28c0.649-1.272,0.143-2.831-1.131-3.479c-1.272-0.648-2.831-0.142-3.479,1.13
	c-0.646,1.274-0.141,2.83,1.13,3.481C173.599,130.06,175.155,129.554,175.805,128.28"/>
<path fill="#83B451" d="M173.683,137.769c0.712-1.401,0.155-3.115-1.245-3.828c-1.401-0.713-3.114-0.158-3.828,1.244
	c-0.713,1.401-0.156,3.115,1.244,3.83C171.253,139.727,172.967,139.17,173.683,137.769"/>
<path fill="#C32782" d="M62.514,180.466c0.999-1.661,0.461-3.821-1.202-4.821c-1.664-0.998-3.821-0.461-4.821,1.203
	c-0.999,1.663-0.461,3.822,1.203,4.82C59.357,182.667,61.516,182.129,62.514,180.466"/>
<path fill="#83B451" d="M100.653,178.941c1-1.963,0.22-4.364-1.743-5.362c-1.962-1-4.363-0.222-5.364,1.741
	c-0.999,1.963-0.219,4.365,1.744,5.363C97.252,181.686,99.653,180.902,100.653,178.941"/>
<path fill="#83B451" d="M198.928,191.562c0.942-1.85,0.207-4.108-1.642-5.053c-1.847-0.941-4.11-0.208-5.052,1.641
	c-0.941,1.85-0.208,4.111,1.642,5.056C195.725,194.146,197.986,193.409,198.928,191.562"/>
<path fill="#3D80B0" d="M84.332,114.578c2.342,0,4.242-1.899,4.242-4.24c0-2.342-1.899-4.241-4.242-4.241
	c-2.343,0-4.114,1.969-4.114,4.241C80.218,112.609,81.988,114.578,84.332,114.578"/>
<path fill="#3D80B0" d="M139.262,153.646c2.057,0,3.722-1.668,3.722-3.723s-1.666-3.721-3.722-3.721
	c-2.055,0-3.721,1.666-3.721,3.721S137.207,153.646,139.262,153.646"/>
<path fill="#3D80B0" d="M150.912,169.489c1.796,0,3.252-1.454,3.252-3.249c0-1.799-1.456-3.252-3.252-3.252
	c-1.795,0-3.251,1.453-3.251,3.252C147.661,168.035,149.117,169.489,150.912,169.489"/>
<path fill="#3D80B0" d="M119.689,144.099c1.833,0,3.319-1.486,3.319-3.32s-1.486-3.32-3.319-3.32c-1.834,0-3.322,1.486-3.322,3.32
	S117.855,144.099,119.689,144.099"/>
<path fill="#3D80B0" d="M165.233,199.92c1.65,0,2.988-1.339,2.988-2.988c0-1.65-1.337-2.988-2.988-2.988s-2.989,1.336-2.989,2.988
	C162.243,198.581,163.583,199.92,165.233,199.92"/>
<path fill="#3D80B0" d="M72.192,183.518c1.646,0.114,3.075-1.123,3.189-2.771c0.116-1.648-1.125-3.077-2.772-3.189
	c-1.647-0.115-3.075,1.125-3.189,2.772C69.304,181.973,70.546,183.402,72.192,183.518"/>
<path fill="#C32782" d="M101.423,108.044c2.343-1.193,3.275-4.062,2.082-6.405c-1.193-2.345-4.062-3.277-6.405-2.082
	c-2.344,1.194-2.956,4.072-1.831,6.277C96.394,108.041,99.08,109.238,101.423,108.044"/>
<path fill="#C32782" d="M139.66,166.912c1.809-0.919,2.528-3.137,1.605-4.941c-0.921-1.812-3.136-2.529-4.942-1.606
	c-1.81,0.921-2.527,3.136-1.606,4.942C135.639,167.115,137.852,167.833,139.66,166.912"/>
<path fill="#83B451" d="M142.671,179.48c1.691-0.863,2.364-2.933,1.501-4.625c-0.861-1.69-2.932-2.361-4.623-1.5
	c-1.692,0.86-2.365,2.931-1.503,4.623C138.909,179.67,140.98,180.343,142.671,179.48"/>
<path fill="#C32782" d="M160.453,159.781c1.816-0.924,2.536-3.145,1.611-4.961c-0.924-1.813-3.144-2.538-4.96-1.611
	c-1.814,0.925-2.535,3.146-1.611,4.962C156.417,159.984,158.637,160.706,160.453,159.781"/>
<path fill="#C32782" d="M118.746,195.479c1.296-0.658,1.811-2.242,1.15-3.539c-0.66-1.295-2.244-1.809-3.54-1.149
	s-1.812,2.244-1.151,3.543C115.865,195.628,117.45,196.141,118.746,195.479"/>
<path fill="#C32782" d="M142.887,91.392c1.13-0.577,1.581-1.962,1.004-3.093c-0.575-1.131-1.96-1.581-3.092-1.005
	c-1.13,0.576-1.58,1.961-1.003,3.092C140.371,91.519,141.757,91.968,142.887,91.392"/>
<path fill="#C32782" d="M107.074,168.988c1.871-0.955,2.615-3.242,1.662-5.115c-0.954-1.871-3.243-2.614-5.114-1.66
	c-1.87,0.953-2.615,3.242-1.662,5.113C102.914,169.198,105.204,169.939,107.074,168.988"/>
<path fill="#C32782" d="M160.312,128.161c1.375-0.7,1.92-2.379,1.221-3.754c-0.699-1.373-2.381-1.918-3.755-1.219
	c-1.373,0.7-1.919,2.379-1.22,3.753C157.257,128.313,158.939,128.862,160.312,128.161"/>
<path fill="#A9526F" d="M168.376,125.722c1.228-0.626,1.715-2.129,1.09-3.356c-0.625-1.227-2.127-1.715-3.355-1.091
	c-1.227,0.625-1.715,2.128-1.089,3.356C165.647,125.859,167.149,126.346,168.376,125.722"/>
<path fill="#77579C" d="M99.847,195c1.619-0.229,2.746-1.727,2.52-3.344c-0.229-1.618-1.725-2.747-3.344-2.518
	c-1.618,0.226-2.745,1.723-2.517,3.342C96.733,194.1,98.229,195.227,99.847,195"/>
<path fill="#77579C" d="M171.24,114.394c1.396-0.072,2.468-1.264,2.396-2.661c-0.073-1.396-1.265-2.471-2.662-2.397
	c-1.396,0.074-2.47,1.266-2.396,2.662C168.65,113.395,169.841,114.467,171.24,114.394"/>
<path fill="#3D80B0" d="M159.214,108.044c1.386-0.195,2.35-1.476,2.155-2.861c-0.196-1.385-1.474-2.35-2.861-2.156
	c-1.386,0.195-2.35,1.475-2.155,2.862C156.549,107.274,157.828,108.24,159.214,108.044"/>
<path fill="#9FC698" d="M149.034,101.991c1.386-0.195,2.35-1.476,2.156-2.861c-0.195-1.385-1.476-2.349-2.863-2.155
	c-1.383,0.195-2.351,1.475-2.154,2.861C146.368,101.221,147.648,102.186,149.034,101.991"/>
<path fill="#A9526F" d="M110.255,196.738c1.216-0.822,1.537-2.473,0.716-3.688c-0.82-1.217-2.472-1.537-3.687-0.718
	c-1.216,0.819-1.538,2.472-0.717,3.688C107.387,197.236,109.038,197.559,110.255,196.738"/>
<path fill="#C32782" d="M134.172,183.829c1.291-0.87,1.632-2.625,0.762-3.916c-0.871-1.289-2.624-1.632-3.915-0.761
	c-1.292,0.871-1.632,2.625-0.762,3.916C131.131,184.357,132.882,184.698,134.172,183.829"/>
<path fill="#9FC698" d="M123.06,189.742c0.817,1.258,2.497,1.613,3.752,0.796c1.257-0.813,1.615-2.495,0.799-3.753
	c-0.817-1.253-2.498-1.612-3.753-0.796C122.602,186.805,122.243,188.482,123.06,189.742"/>
<g>
	<polygon fill="#FFFFFF" points="129.691,73.522 129.434,72.646 130.024,72.052 130.529,71.854 130.826,71.968 131.295,73.26 	"/>
	<polygon fill="#1F1E21" points="127.889,77.634 127.727,76.202 128.348,74.432 129.771,73.777 130.952,73.738 131.862,72.517 
		134.113,71.764 134.827,71.83 135.357,73.744 134.77,76.481 132.267,78.729 	"/>
	<path fill="#7AA52A" d="M131.557,71.623c0.02-0.015,0.031-0.025,0.031-0.025s0.34-0.404,0.284-2.17c0,0-0.009-0.137-0.098-0.143
		c-0.088-0.007-0.277,0.062-0.442,0.189c0,0-0.075,0.075-0.036,0.183c0.039,0.108,0.123,0.556,0.114,0.904
		c-0.008,0.361-0.082,0.626-0.374,1.125c-0.005,0.007-0.008,0.014-0.011,0.02c-0.263-0.003-0.716,0.042-1.165,0.328
		c-0.423,0.269-0.627,0.612-0.723,0.853c-0.476,0.058-0.732,0.022-1.04-0.095c-0.325-0.124-0.709-0.368-0.794-0.445
		c-0.085-0.077-0.183-0.037-0.183-0.037c-0.182,0.105-0.315,0.255-0.342,0.34c-0.027,0.085,0.098,0.145,0.098,0.145
		c1.237,0.547,1.821,0.58,2.026,0.565c-1.057,1.311-1.173,2.842-1.173,2.842s1.729,0.028,4.22-1.591
		c1.996-1.297,2.504-2.969,2.504-2.969C133.142,71.281,132.061,71.481,131.557,71.623z M129.748,74.992
		c-0.298,0.495-0.555,0.475-0.844,0.493c-0.297,0.02-0.699-0.167-0.738-0.199c-0.039-0.032-0.061-0.067-0.041-0.199
		c0.021-0.131,0.238-0.915,1.255-2.12c0,0,0.103-0.11,0.136-0.049C129.516,72.918,130.266,74.131,129.748,74.992z M130.045,73.208
		c-0.145,0.082-0.336-0.251-0.336-0.251c-0.039-0.059-0.205-0.366-0.107-0.422c0.096-0.056,0.27,0.153,0.329,0.239
		C129.988,72.86,130.192,73.125,130.045,73.208z M130.728,72.24c0.057,0.088,0.255,0.358,0.106,0.436
		c-0.147,0.079-0.331-0.258-0.331-0.258c-0.037-0.058-0.195-0.372-0.1-0.425C130.502,71.939,130.672,72.152,130.728,72.24z
		 M133.481,71.707c0.015,0.048,0.038,0.489-0.093,0.759c-0.125,0.26-0.203,0.505-0.773,0.595c-0.993,0.155-1.836-0.994-1.836-0.994
		c-0.043-0.055,0.098-0.107,0.098-0.107c1.498-0.489,2.307-0.397,2.438-0.367C133.441,71.625,133.466,71.659,133.481,71.707z"/>
	<path fill="#1F1E21" d="M131.557,71.623c0.02-0.015,0.031-0.025,0.031-0.025s0.34-0.404,0.284-2.17c0,0-0.009-0.137-0.098-0.143
		c-0.088-0.007-0.277,0.062-0.442,0.189c0,0-0.075,0.075-0.036,0.183c0.039,0.108,0.123,0.556,0.114,0.904
		c-0.008,0.361-0.082,0.626-0.374,1.125c-0.005,0.007-0.008,0.014-0.011,0.02c-0.263-0.003-0.716,0.042-1.165,0.328
		c-0.423,0.269-0.627,0.612-0.723,0.853c-0.476,0.058-0.732,0.022-1.04-0.095c-0.325-0.124-0.709-0.368-0.794-0.445
		c-0.085-0.077-0.183-0.037-0.183-0.037c-0.182,0.105-0.315,0.255-0.342,0.34c-0.027,0.085,0.098,0.145,0.098,0.145
		c1.237,0.547,1.821,0.58,2.026,0.565c-1.057,1.311-1.173,2.842-1.173,2.842s1.729,0.028,4.22-1.591
		c1.996-1.297,2.504-2.969,2.504-2.969C133.142,71.281,132.061,71.481,131.557,71.623z M129.748,74.992
		c-0.298,0.495-0.555,0.475-0.844,0.493c-0.297,0.02-0.699-0.167-0.738-0.199c-0.039-0.032-0.061-0.067-0.041-0.199
		c0.021-0.131,0.238-0.915,1.255-2.12c0,0,0.103-0.11,0.136-0.049C129.516,72.918,130.266,74.131,129.748,74.992z M130.045,73.208
		c-0.145,0.082-0.336-0.251-0.336-0.251c-0.039-0.059-0.205-0.366-0.107-0.422c0.096-0.056,0.27,0.153,0.329,0.239
		C129.988,72.86,130.192,73.125,130.045,73.208z M130.728,72.24c0.057,0.088,0.255,0.358,0.106,0.436
		c-0.147,0.079-0.331-0.258-0.331-0.258c-0.037-0.058-0.195-0.372-0.1-0.425C130.502,71.939,130.672,72.152,130.728,72.24z
		 M133.481,71.707c0.015,0.048,0.038,0.489-0.093,0.759c-0.125,0.26-0.203,0.505-0.773,0.595c-0.993,0.155-1.836-0.994-1.836-0.994
		c-0.043-0.055,0.098-0.107,0.098-0.107c1.498-0.489,2.307-0.397,2.438-0.367C133.441,71.625,133.466,71.659,133.481,71.707z"/>
	<path fill="#FFFFFF" d="M128.166,75.286c0,0,0.2-0.742,0.617-1.461c0.323-0.555,0.733-0.907,0.733-0.907s0.503,0.972,0.45,1.593
		c-0.032,0.422-0.394,0.844-0.728,0.923C128.723,75.557,128.166,75.286,128.166,75.286z"/>
	<path fill="#FFFFFF" d="M133.539,71.709c0,0-0.757-0.124-1.587-0.038c-0.637,0.066-1.125,0.296-1.125,0.296s0.68,0.858,1.266,1.066
		c0.399,0.141,0.934-0.015,1.143-0.287C133.558,72.328,133.539,71.709,133.539,71.709z"/>
	<path fill="#666666" d="M140.393,76.478c-0.298-0.585-0.688-1.117-1.124-1.595c0.079-0.162,0.197-0.507-0.047-0.754
		c-0.245-0.244-0.581-0.105-0.741-0.016c-0.591-0.519-1.213-0.954-1.77-1.298c0.03-0.176,0.022-0.439-0.266-0.599
		c-0.236-0.127-0.5-0.002-0.636,0.084c-0.588-0.311-0.982-0.469-0.982-0.469s-0.585,1.528-1.849,2.759
		c0.236,0.149-1.853,1.557-1.902,1.281c-1.615,0.708-3.252,0.677-3.252,0.677s-0.001,0.424,0.065,1.087
		c-0.13,0.093-0.348,0.291-0.316,0.557c0.039,0.326,0.281,0.435,0.455,0.47c0.109,0.648,0.278,1.387,0.538,2.131
		c-0.143,0.114-0.398,0.374-0.263,0.692s0.499,0.337,0.68,0.328c0.279,0.583,1.701,2.522,1.881,2.437
		c3.156,2.636,6.146,1.301,7.127,0.728c0.121-0.07,0.326-0.216,0.49-0.333l0.006,0.01c0,0,3.871-2.325,2.334-7.11
		c0.147-0.133,0.43-0.451,0.259-0.789C140.907,76.417,140.551,76.447,140.393,76.478z"/>
	<path opacity="0.5" fill="#5A5959" d="M130.166,81.545c0.31-0.348,2.498-2.63,3.85-3.482c1.567-0.987,5.044-2.421,5.044-2.421
		l0.252,0.521c0,0-3.016,1.447-4.781,2.482c-1.768,1.037-4.605,3.958-4.605,3.958L130.166,81.545z"/>
	<path opacity="0.5" fill="#5A5959" d="M140.494,76.89c-0.869,0.414-3.731,1.784-5.315,2.782c-1.367,0.862-3.852,2.954-4.69,3.723
		c0.084,0.146,0.171,0.299,0.254,0.453c1.193-1.03,3.436-2.488,4.805-3.35c1.677-1.055,4.267-2.685,5.111-3.127
		C140.603,77.209,140.546,77.05,140.494,76.89z"/>
	<path opacity="0.5" fill="#5A5959" d="M141.139,80.064c-0.805,0.638-2.602,2.042-3.882,2.906c-1.303,0.879-3.875,1.845-5.006,2.25
		c0.254,0.086,0.496,0.212,0.727,0.364c0.839-0.269,3.369-1.136,4.578-1.897c1.018-0.641,2.551-1.924,3.503-2.746
		C141.077,80.654,141.089,80.356,141.139,80.064z"/>
	<path opacity="0.5" fill="#5A5959" d="M140.664,78.313c0,0-2.812,2.014-4.592,3.174c-1.431,0.934-4.131,2.25-5.142,2.733
		c0.023,0.048,0.044,0.096,0.065,0.144c0.031,0.04,0.062,0.08,0.092,0.121l0.48,0.066c0.429-0.189,3.345-1.541,4.75-2.426
		c1.629-1.025,4.706-3.367,4.706-3.367L140.664,78.313z"/>
	
		<ellipse transform="matrix(0.8039 -0.5948 0.5948 0.8039 -19.0625 93.4547)" fill="#1F1E21" cx="132.19" cy="75.635" rx="3.556" ry="1.261"/>
	<path opacity="0.7" fill="#D1D0D1" d="M128.849,78.251c0,0-0.36,4.439-1.484,6.076c-1.124,1.638-1.394,7.082-0.62,9.981
		c0.772,2.899,3.285,5.18,3.285,5.18s2.345-3.911,1.888-6.717c-0.457-2.807-1.417-3.727-2.02-6.291
		C129.328,84.068,128.849,78.251,128.849,78.251z"/>
	<path opacity="0.7" fill="#9F9F9F" d="M130.738,76.481c0,0-2.895,5.015-3.482,6.509c-0.588,1.494,0.053,6.119,1.081,8.491
		c1.025,2.373,3.258,4.052,3.258,4.052s1.149-3.533,0.372-5.858c-0.774-2.326-1.429-3.626-1.938-5.795
		C129.505,81.657,130.738,76.481,130.738,76.481z"/>
	<path opacity="0.7" fill="#D1D0D1" d="M135.727,74.002c0,0,4.188,1.511,6.145,1.165c1.958-0.346,7.024,1.664,9.343,3.566
		c2.32,1.903,3.355,5.134,3.355,5.134s-4.529,0.515-6.896-1.062c-2.366-1.576-2.806-2.832-4.89-4.441
		C140.823,76.847,135.727,74.002,135.727,74.002z"/>
	<path opacity="0.7" fill="#9F9F9F" d="M133.332,74.988c0,0,5.765-0.558,7.368-0.475s5.547,2.581,7.282,4.496
		c1.735,1.917,2.34,4.645,2.34,4.645s-3.692-0.417-5.489-2.085c-1.795-1.67-2.707-2.802-4.471-4.164
		C138.556,76.009,133.332,74.988,133.332,74.988z"/>
	
		<linearGradient id="SVGID_1_" gradientUnits="userSpaceOnUse" x1="687.6328" y1="1230.0635" x2="701.1379" y2="1222.3462" gradientTransform="matrix(0.0592 -0.9982 -0.9982 -0.0592 1311.4436 846.5931)">
		<stop  offset="0.0301" style="stop-color:#7C2016"/>
		<stop  offset="0.4929" style="stop-color:#AF2522"/>
		<stop  offset="0.9589" style="stop-color:#4C1600"/>
	</linearGradient>
	<path fill="url(#SVGID_1_)" d="M122.75,84.25c0.51,4.205,5.451,5.516,5.451,5.516l1.735-8.865c0.391-1.53,1.342-5.538,1.396-6.05
		c-1.124,0.687-2.402,0.898-2.402,0.898s-1.583,0.496-2.554,1.126C125.338,77.551,122.25,80.125,122.75,84.25z"/>
	
		<linearGradient id="SVGID_2_" gradientUnits="userSpaceOnUse" x1="739.0771" y1="1157.416" x2="752.5358" y2="1149.7252" gradientTransform="matrix(-0.9116 -0.4111 0.4111 -0.9116 344.3949 1433.292)">
		<stop  offset="0.0301" style="stop-color:#7C2016"/>
		<stop  offset="0.4929" style="stop-color:#AF2522"/>
		<stop  offset="0.9589" style="stop-color:#4C1600"/>
	</linearGradient>
	<path fill="url(#SVGID_2_)" d="M135.595,71.701c-1.023,0.542-1.623,1.291-1.623,1.291s-0.78,1.035-1.91,1.711
		c0.479,0.191,4.47,1.208,6.006,1.573l8.658,2.579c0,0,1.049-5.206-2.601-7.354C141.104,69.723,137.625,70.625,135.595,71.701z"/>
	
		<ellipse transform="matrix(0.8462 -0.5329 0.5329 0.8462 -22.1141 80.5033)" fill="#C22981" cx="128.4" cy="78.56" rx="1.054" ry="0.796"/>
	
		<ellipse transform="matrix(0.012 -0.9999 0.9999 0.012 43.8915 208.2961)" fill="#82B352" cx="127.355" cy="81.937" rx="1.055" ry="0.796"/>
	
		<ellipse transform="matrix(0.0123 -0.9999 0.9999 0.0123 39.8179 207.8169)" fill="#E5AC35" cx="125.1" cy="83.754" rx="1.055" ry="0.797"/>
	
		<ellipse transform="matrix(0.0118 -0.9999 0.9999 0.0118 60.6801 208.8369)" fill="#3D80AF" cx="135.999" cy="73.718" rx="1.055" ry="0.796"/>
	
		<ellipse transform="matrix(0.3778 -0.9259 0.9259 0.3778 17.4914 174.8975)" fill="#9EC598" cx="138.885" cy="74.434" rx="0.996" ry="0.797"/>
	
		<ellipse transform="matrix(-0.571 -0.8209 0.8209 -0.571 162.8617 231.7891)" fill="#C22981" cx="141.993" cy="73.342" rx="0.995" ry="0.796"/>
</g>
</svg>
