<?xml version="1.0" encoding="utf-8"?>
<!-- Generator: Adobe Illustrator 16.0.4, SVG Export Plug-In . SVG Version: 6.00 Build 0)  -->
<!DOCTYPE svg PUBLIC "-//W3C//DTD SVG 1.1//EN" "http://www.w3.org/Graphics/SVG/1.1/DTD/svg11.dtd">
<svg version="1.1" id="Calque_1" xmlns="http://www.w3.org/2000/svg" xmlns:xlink="http://www.w3.org/1999/xlink" x="0px" y="0px"
	 width="435px" height="300px" viewBox="0 0 435 300" enable-background="new 0 0 435 300" xml:space="preserve">
<g id="Calque_1_1_" display="none">
	<path display="inline" fill="#77579C" d="M200.409,93.543c3.058-0.43,5.186-3.257,4.757-6.312c-0.43-3.058-3.257-5.188-6.313-4.758
		c-3.056,0.429-5.187,3.257-4.755,6.313C194.527,91.844,197.351,93.974,200.409,93.543"/>
	<path display="inline" fill="#77579C" d="M300.076,215.477c2.477-0.346,4.203-2.635,3.854-5.113
		c-0.35-2.475-2.638-4.192-5.113-3.854c-2.478,0.348-4.194,2.639-3.854,5.114C295.312,214.098,297.6,215.824,300.076,215.477"/>
	<path display="inline" fill="#E6AD34" d="M286.904,218.723c2.478-0.348,4.203-2.638,3.854-5.113
		c-0.347-2.476-2.635-4.194-5.113-3.854c-2.476,0.35-4.201,2.639-3.854,5.112C282.141,217.344,284.43,219.07,286.904,218.723"/>
	<path display="inline" fill="#77579C" d="M122.639,219.82c3.288-0.461,5.58-3.502,5.117-6.791
		c-0.462-3.286-3.502-5.579-6.791-5.116c-3.287,0.461-5.579,3.502-5.117,6.791C116.311,217.991,119.352,220.283,122.639,219.82"/>
	<path display="inline" fill="#77579C" d="M329.001,145.979c2.156-0.304,3.661-2.299,3.356-4.458
		c-0.312-2.158-2.299-3.659-4.455-3.357c-2.157,0.302-3.661,2.3-3.358,4.456C324.85,144.778,326.843,146.28,329.001,145.979"/>
	<path display="inline" fill="#E6AD34" d="M140.391,111.216c3.143,0,5.69-2.549,5.69-5.689c0-3.141-2.547-5.688-5.69-5.688
		c-3.141,0-5.688,2.548-5.688,5.688C134.703,108.667,137.25,111.216,140.391,111.216"/>
	<path display="inline" fill="#E6AD34" d="M240.802,137.936c2.898,0,5.248-2.35,5.248-5.25c0-2.898-2.35-5.25-5.248-5.25
		c-2.897,0-5.249,2.352-5.249,5.25C235.553,135.585,237.902,137.936,240.802,137.936"/>
	<path display="inline" fill="#E6AD34" d="M246.229,204.365c2.313,0,4.188-1.877,4.188-4.188c0-2.311-1.874-4.187-4.188-4.187
		c-2.312,0-4.187,1.873-4.187,4.187C242.042,202.491,243.918,204.365,246.229,204.365"/>
	<path display="inline" fill="#E6AD34" d="M145.79,216.146c2.851,0,5.163-2.312,5.163-5.164c0-2.854-2.312-5.164-5.163-5.164
		c-2.852,0-5.164,2.312-5.164,5.164C140.626,213.833,142.938,216.146,145.79,216.146"/>
	<path display="inline" fill="#E6AD34" d="M331.552,164.244c2.31,0,4.183-1.872,4.183-4.184c0-2.312-1.873-4.188-4.183-4.188
		s-4.183,1.874-4.183,4.188C327.369,162.372,329.242,164.244,331.552,164.244"/>
	<path display="inline" fill="#9FC698" d="M329.277,180.503c2.531,0,4.582-2.052,4.582-4.581c0-2.527-2.051-4.58-4.582-4.58
		c-2.528,0-4.582,2.053-4.582,4.58C324.695,178.451,326.749,180.503,329.277,180.503"/>
	<path display="inline" fill="#9FC698" d="M118.511,121.979c1.12,1.726,3.429,2.215,5.156,1.095
		c1.725-1.121,2.217-3.427,1.095-5.156c-1.121-1.726-3.429-2.215-5.154-1.094C117.881,117.945,117.39,120.252,118.511,121.979"/>
	<path display="inline" fill="#9FC698" d="M247.168,124.358c1.371,2.109,4.191,2.709,6.299,1.336c2.114-1.368,2.711-4.188,1.344-6.3
		c-1.371-2.107-4.188-2.709-6.305-1.339C246.396,119.426,245.799,122.246,247.168,124.358"/>
	<path display="inline" fill="#9FC698" d="M100.454,201.98c1.954,3.006,5.977,3.854,8.987,1.908c3.009-1.955,3.865-5.979,1.91-8.988
		c-1.954-3.01-5.978-3.863-8.987-1.91C99.355,194.945,98.499,198.971,100.454,201.98"/>
	<path display="inline" fill="#A9526F" d="M304.878,117.592c1.132,1.742,3.461,2.238,5.202,1.105
		c1.74-1.131,2.234-3.459,1.105-5.201c-1.131-1.742-3.461-2.236-5.201-1.104C304.243,113.523,303.747,115.851,304.878,117.592"/>
	<path display="inline" fill="#9FC698" d="M316.523,129.045c1.131,1.741,3.459,2.239,5.199,1.105
		c1.735-1.131,2.229-3.459,1.104-5.201c-1.135-1.741-3.46-2.236-5.202-1.104C315.887,124.976,315.393,127.304,316.523,129.045"/>
	<path display="inline" fill="#A9526F" d="M214.576,121.643c1.689-1.136,2.133-3.428,0.994-5.116
		c-1.139-1.686-3.428-2.13-5.115-0.995c-1.688,1.139-2.133,3.431-0.995,5.119C210.599,122.338,212.889,122.782,214.576,121.643"/>
	<path display="inline" fill="#A9526F" d="M165.42,203.525c2.076-1.401,2.624-4.219,1.223-6.295
		c-1.399-2.076-4.217-2.623-6.293-1.229c-2.076,1.396-2.624,4.224-1.224,6.295C160.526,204.378,163.345,204.926,165.42,203.525"/>
	<path display="inline" fill="#A9526F" d="M326.675,195.637c2.308-1.557,2.917-4.687,1.36-6.994
		c-1.557-2.307-4.688-2.914-6.993-1.354c-2.308,1.562-2.916,4.688-1.362,6.99C321.238,196.585,324.367,197.193,326.675,195.637"/>
	<path display="inline" fill="#83B451" d="M260.283,210.157c0.898-1.765,0.199-3.929-1.567-4.825
		c-1.766-0.9-3.928-0.198-4.827,1.566c-0.896,1.767-0.197,3.928,1.567,4.83C257.223,212.628,259.384,211.922,260.283,210.157"/>
	<path display="inline" fill="#3D80B0" d="M285.672,118.413c0.901-1.765,0.199-3.927-1.568-4.827
		c-1.767-0.899-3.929-0.197-4.828,1.568c-0.896,1.768-0.189,3.927,1.568,4.83C282.611,120.883,284.771,120.181,285.672,118.413"/>
	<path display="inline" fill="#83B451" d="M282.729,131.579c0.988-1.944,0.215-4.322-1.728-5.311
		c-1.944-0.989-4.321-0.219-5.312,1.725c-0.99,1.944-0.217,4.322,1.726,5.314C279.357,134.296,281.736,133.523,282.729,131.579"/>
	<path display="inline" fill="#C32782" d="M128.484,190.82c1.386-2.307,0.64-5.303-1.667-6.688
		c-2.309-1.387-5.302-0.641-6.689,1.668c-1.386,2.308-0.64,5.304,1.668,6.688C124.103,193.874,127.099,193.128,128.484,190.82"/>
	<path display="inline" fill="#83B451" d="M181.401,188.707c1.387-2.725,0.305-6.057-2.419-7.441
		c-2.722-1.389-6.054-0.306-7.443,2.416c-1.386,2.729-0.303,6.062,2.42,7.44C176.682,192.512,180.013,191.428,181.401,188.707"/>
	<path display="inline" fill="#83B451" d="M317.755,206.218c1.308-2.565,0.287-5.702-2.276-7.011
		c-2.562-1.305-5.703-0.287-7.011,2.277c-1.306,2.562-0.288,5.703,2.277,7.012C313.311,209.802,316.449,208.779,317.755,206.218"/>
	<path display="inline" fill="#3D80B0" d="M158.755,99.402c3.25,0,5.885-2.635,5.885-5.884s-2.635-5.884-5.885-5.884
		s-5.708,2.731-5.708,5.884S155.504,99.402,158.755,99.402"/>
	<path display="inline" fill="#3D80B0" d="M234.971,153.607c2.854,0,5.163-2.313,5.163-5.167s-2.312-5.163-5.163-5.163
		c-2.853,0-5.164,2.312-5.164,5.163S232.118,153.607,234.971,153.607"/>
	<path display="inline" fill="#3D80B0" d="M207.813,140.362c2.543,0,4.606-2.062,4.606-4.606c0-2.546-2.062-4.608-4.606-4.608
		c-2.545,0-4.609,2.062-4.609,4.608C203.204,138.3,205.268,140.362,207.813,140.362"/>
	<path display="inline" fill="#3D80B0" d="M141.912,195.055c2.284,0.159,4.266-1.561,4.426-3.848
		c0.16-2.286-1.562-4.268-3.847-4.425c-2.286-0.16-4.267,1.562-4.425,3.847C137.905,192.911,139.628,194.895,141.912,195.055"/>
	<path display="inline" fill="#C32782" d="M182.469,90.336c3.251-1.656,4.544-5.636,2.888-8.887
		c-1.656-3.252-5.637-4.546-8.887-2.888c-3.252,1.657-4.1,5.649-2.54,8.71C175.491,90.332,179.219,91.993,182.469,90.336"/>
	<path display="inline" fill="#C32782" d="M235.521,172.016c2.511-1.271,3.508-4.352,2.229-6.854
		c-1.279-2.518-4.352-3.514-6.857-2.229c-2.511,1.275-3.506,4.354-2.229,6.855C229.943,172.296,233.014,173.292,235.521,172.016"/>
	<path display="inline" fill="#83B451" d="M239.7,189.453c2.347-1.197,3.28-4.067,2.083-6.417c-1.194-2.345-4.067-3.276-6.413-2.082
		c-2.349,1.196-3.281,4.067-2.086,6.416C234.48,189.716,237.354,190.648,239.7,189.453"/>
	<path display="inline" fill="#C32782" d="M264.372,162.121c2.521-1.283,3.519-4.362,2.235-6.883
		c-1.282-2.518-4.362-3.522-6.883-2.236c-2.521,1.283-3.521,4.364-2.234,6.885C258.771,162.404,261.854,163.404,264.372,162.121"/>
	<path display="inline" fill="#C32782" d="M206.504,211.652c1.798-0.914,2.513-3.112,1.596-4.911
		c-0.916-1.798-3.114-2.509-4.912-1.597c-1.798,0.916-2.513,3.108-1.596,4.916C202.507,211.857,204.706,212.568,206.504,211.652"/>
	<path display="inline" fill="#C32782" d="M240,67.232c1.568-0.801,2.193-2.722,1.395-4.291c-0.799-1.57-2.721-2.194-4.291-1.394
		c-1.562,0.799-2.188,2.721-1.394,4.29C236.51,67.407,238.432,68.031,240,67.232"/>
	<path display="inline" fill="#C32782" d="M264.177,118.248c1.907-0.971,2.664-3.301,1.693-5.209
		c-0.97-1.904-3.304-2.662-5.209-1.691c-1.905,0.971-2.664,3.302-1.693,5.208C259.938,118.46,262.271,119.221,264.177,118.248"/>
	<path display="inline" fill="#A9526F" d="M275.365,114.864c1.703-0.868,2.38-2.954,1.513-4.656s-2.952-2.38-4.655-1.513
		c-1.703,0.868-2.38,2.952-1.512,4.656C271.579,115.054,273.662,115.73,275.365,114.864"/>
	<path display="inline" fill="#77579C" d="M180.283,210.986c2.246-0.315,3.81-2.396,3.496-4.639
		c-0.317-2.246-2.393-3.812-4.639-3.494c-2.245,0.312-3.808,2.392-3.493,4.638C175.962,209.736,178.038,211.3,180.283,210.986"/>
	<path display="inline" fill="#77579C" d="M279.338,99.146c1.938-0.1,3.426-1.754,3.324-3.692s-1.756-3.428-3.693-3.326
		c-1.937,0.102-3.426,1.756-3.324,3.693C275.746,97.76,277.398,99.248,279.338,99.146"/>
	<path display="inline" fill="#3D80B0" d="M262.652,90.337c1.923-0.271,3.262-2.048,2.99-3.97c-0.271-1.922-2.045-3.261-3.976-2.991
		c-1.922,0.271-3.261,2.046-2.983,3.97C258.956,89.268,260.73,90.608,262.652,90.337"/>
	<path display="inline" fill="#9FC698" d="M248.527,81.938c1.923-0.271,3.261-2.048,2.992-3.969c-0.271-1.922-2.047-3.26-3.979-2.99
		c-1.919,0.271-3.264,2.046-2.982,3.969C244.829,80.869,246.605,82.208,248.527,81.938"/>
	<path display="inline" fill="#A9526F" d="M194.723,213.398c1.687-1.146,2.133-3.437,0.993-5.117
		c-1.138-1.688-3.429-2.133-5.115-0.994c-1.688,1.138-2.133,3.429-0.995,5.115C190.744,214.09,193.035,214.534,194.723,213.398"/>
	<path display="inline" fill="#C32782" d="M227.908,195.486c1.791-1.207,2.265-3.641,1.057-5.432s-3.641-2.271-5.432-1.062
		c-1.792,1.209-2.264,3.646-1.057,5.438C223.688,196.221,226.118,196.693,227.908,195.486"/>
	<path display="inline" fill="#9FC698" d="M212.49,203.691c1.134,1.744,3.464,2.238,5.207,1.104c1.745-1.13,2.241-3.461,1.108-5.207
		c-1.133-1.738-3.465-2.236-5.207-1.104C211.854,199.615,211.357,201.945,212.49,203.691"/>
</g>
<g id="Calque_4" display="none">
	<g display="inline">
		<path fill="#77579C" d="M199.855,159.064c3.057-0.437,5.188-3.258,4.757-6.312c-0.43-3.059-3.255-5.188-6.312-4.757
			c-3.058,0.429-5.187,3.255-4.759,6.313C193.974,157.366,196.799,159.497,199.855,159.064"/>
		<path fill="#E6AD34" d="M295.254,109.017c1.977,0,3.579-1.602,3.579-3.581c0-1.976-1.603-3.579-3.579-3.579
			c-1.979,0-3.58,1.604-3.58,3.579C291.674,107.415,293.275,109.017,295.254,109.017"/>
		<path fill="#3D80B0" d="M251.135,175.591c2.491,0,4.512-2.018,4.512-4.508c0-2.495-2.021-4.513-4.512-4.513
			c-2.49,0-4.512,2.018-4.512,4.513C246.623,173.573,248.645,175.591,251.135,175.591"/>
	</g>
</g>
<g id="Calque_2" display="none">
	<path display="inline" fill="#77579C" d="M200.409,93.543c3.058-0.43,5.186-3.257,4.757-6.312c-0.43-3.058-3.257-5.188-6.313-4.758
		c-3.056,0.429-5.187,3.257-4.755,6.313C194.527,91.844,197.351,93.974,200.409,93.543"/>
	<path display="inline" fill="#77579C" d="M272.779,148.094c2.478-0.348,4.201-2.637,3.854-5.114
		c-0.349-2.475-2.637-4.202-5.115-3.854c-2.476,0.348-4.199,2.638-3.851,5.113C268.016,146.715,270.305,148.441,272.779,148.094"/>
	<path display="inline" fill="#77579C" d="M199.855,159.064c3.057-0.437,5.188-3.258,4.757-6.312
		c-0.43-3.059-3.255-5.188-6.312-4.757c-3.058,0.429-5.187,3.255-4.759,6.313C193.974,157.366,196.799,159.497,199.855,159.064"/>
	<path display="inline" fill="#77579C" d="M300.076,215.477c2.477-0.346,4.203-2.635,3.854-5.113
		c-0.35-2.475-2.638-4.192-5.113-3.854c-2.478,0.348-4.194,2.639-3.854,5.114C295.312,214.098,297.6,215.824,300.076,215.477"/>
	<path display="inline" fill="#E6AD34" d="M286.904,218.723c2.478-0.348,4.203-2.638,3.854-5.113
		c-0.347-2.476-2.635-4.194-5.113-3.854c-2.476,0.35-4.201,2.639-3.854,5.112C282.141,217.344,284.43,219.07,286.904,218.723"/>
	<path display="inline" fill="#77579C" d="M122.639,219.82c3.288-0.461,5.58-3.502,5.117-6.791
		c-0.462-3.286-3.502-5.579-6.791-5.116c-3.287,0.461-5.579,3.502-5.117,6.791C116.311,217.991,119.352,220.283,122.639,219.82"/>
	<path display="inline" fill="#77579C" d="M329.001,145.979c2.156-0.304,3.661-2.299,3.356-4.458
		c-0.312-2.158-2.299-3.659-4.455-3.357c-2.157,0.302-3.661,2.3-3.358,4.456C324.85,144.778,326.843,146.28,329.001,145.979"/>
	<path display="inline" fill="#E6AD34" d="M140.391,111.216c3.143,0,5.69-2.549,5.69-5.689c0-3.141-2.547-5.688-5.69-5.688
		c-3.141,0-5.688,2.548-5.688,5.688C134.703,108.667,137.25,111.216,140.391,111.216"/>
	<path display="inline" fill="#E6AD34" d="M240.802,137.936c2.898,0,5.248-2.35,5.248-5.25c0-2.898-2.35-5.25-5.248-5.25
		c-2.897,0-5.249,2.352-5.249,5.25C235.553,135.585,237.902,137.936,240.802,137.936"/>
	<path display="inline" fill="#E6AD34" d="M246.229,204.365c2.313,0,4.188-1.877,4.188-4.188c0-2.311-1.874-4.187-4.188-4.187
		c-2.312,0-4.187,1.873-4.187,4.187C242.042,202.491,243.918,204.365,246.229,204.365"/>
	<path display="inline" fill="#E6AD34" d="M145.79,216.146c2.851,0,5.163-2.312,5.163-5.164c0-2.854-2.312-5.164-5.163-5.164
		c-2.852,0-5.164,2.312-5.164,5.164C140.626,213.833,142.938,216.146,145.79,216.146"/>
	<path display="inline" fill="#E6AD34" d="M295.254,109.017c1.977,0,3.579-1.602,3.579-3.581c0-1.976-1.603-3.579-3.579-3.579
		c-1.979,0-3.58,1.604-3.58,3.579C291.674,107.415,293.275,109.017,295.254,109.017"/>
	<path display="inline" fill="#E6AD34" d="M331.552,164.244c2.31,0,4.183-1.872,4.183-4.184c0-2.312-1.873-4.188-4.183-4.188
		s-4.183,1.874-4.183,4.188C327.369,162.372,329.242,164.244,331.552,164.244"/>
	<path display="inline" fill="#9FC698" d="M329.277,180.503c2.531,0,4.582-2.052,4.582-4.581c0-2.527-2.051-4.58-4.582-4.58
		c-2.528,0-4.582,2.053-4.582,4.58C324.695,178.451,326.749,180.503,329.277,180.503"/>
	<path display="inline" fill="#9FC698" d="M118.511,121.979c1.12,1.726,3.429,2.215,5.156,1.095
		c1.725-1.121,2.217-3.427,1.095-5.156c-1.121-1.726-3.429-2.215-5.154-1.094C117.881,117.945,117.39,120.252,118.511,121.979"/>
	<path display="inline" fill="#9FC698" d="M247.168,124.358c1.371,2.109,4.191,2.709,6.299,1.336c2.114-1.368,2.711-4.188,1.344-6.3
		c-1.371-2.107-4.188-2.709-6.305-1.339C246.396,119.426,245.799,122.246,247.168,124.358"/>
	<path display="inline" fill="#9FC698" d="M100.454,201.98c1.954,3.006,5.977,3.854,8.987,1.908c3.009-1.955,3.865-5.979,1.91-8.988
		c-1.954-3.01-5.978-3.863-8.987-1.91C99.355,194.945,98.499,198.971,100.454,201.98"/>
	<path display="inline" fill="#A9526F" d="M304.878,117.592c1.132,1.742,3.461,2.238,5.202,1.105
		c1.74-1.131,2.234-3.459,1.105-5.201c-1.131-1.742-3.461-2.236-5.201-1.104C304.243,113.523,303.747,115.851,304.878,117.592"/>
	<path display="inline" fill="#9FC698" d="M316.523,129.045c1.131,1.741,3.459,2.239,5.199,1.105
		c1.735-1.131,2.229-3.459,1.104-5.201c-1.135-1.741-3.46-2.236-5.202-1.104C315.887,124.976,315.393,127.304,316.523,129.045"/>
	<path display="inline" fill="#A9526F" d="M214.576,121.643c1.689-1.136,2.133-3.428,0.994-5.116
		c-1.139-1.686-3.428-2.13-5.115-0.995c-1.688,1.139-2.133,3.431-0.995,5.119C210.599,122.338,212.889,122.782,214.576,121.643"/>
	<path display="inline" fill="#A9526F" d="M165.42,203.525c2.076-1.401,2.624-4.219,1.223-6.295
		c-1.399-2.076-4.217-2.623-6.293-1.229c-2.076,1.396-2.624,4.224-1.224,6.295C160.526,204.378,163.345,204.926,165.42,203.525"/>
	<path display="inline" fill="#A9526F" d="M326.675,195.637c2.308-1.557,2.917-4.687,1.36-6.994
		c-1.557-2.307-4.688-2.914-6.993-1.354c-2.308,1.562-2.916,4.688-1.362,6.99C321.238,196.585,324.367,197.193,326.675,195.637"/>
	<path display="inline" fill="#83B451" d="M214.857,104.658c0.999-1.962,0.221-4.364-1.742-5.366
		c-1.962-0.998-4.364-0.219-5.366,1.743c-0.998,1.963-0.218,4.365,1.744,5.364C211.456,107.402,213.858,106.62,214.857,104.658"/>
	<path display="inline" fill="#83B451" d="M260.283,210.157c0.898-1.765,0.199-3.929-1.567-4.825
		c-1.766-0.9-3.928-0.198-4.827,1.566c-0.896,1.767-0.197,3.928,1.567,4.83C257.223,212.628,259.384,211.922,260.283,210.157"/>
	<path display="inline" fill="#3D80B0" d="M285.672,118.413c0.901-1.765,0.199-3.927-1.568-4.827
		c-1.767-0.899-3.929-0.197-4.828,1.568c-0.896,1.768-0.189,3.927,1.568,4.83C282.611,120.883,284.771,120.181,285.672,118.413"/>
	<path display="inline" fill="#83B451" d="M282.729,131.579c0.988-1.944,0.215-4.322-1.728-5.311
		c-1.944-0.989-4.321-0.219-5.312,1.725c-0.99,1.944-0.217,4.322,1.726,5.314C279.357,134.296,281.736,133.523,282.729,131.579"/>
	<path display="inline" fill="#C32782" d="M128.484,190.82c1.386-2.307,0.64-5.303-1.667-6.688
		c-2.309-1.387-5.302-0.641-6.689,1.668c-1.386,2.308-0.64,5.304,1.668,6.688C124.103,193.874,127.099,193.128,128.484,190.82"/>
	<path display="inline" fill="#83B451" d="M181.401,188.707c1.387-2.725,0.305-6.057-2.419-7.441
		c-2.722-1.389-6.054-0.306-7.443,2.416c-1.386,2.729-0.303,6.062,2.42,7.44C176.682,192.512,180.013,191.428,181.401,188.707"/>
	<path display="inline" fill="#83B451" d="M317.755,206.218c1.308-2.565,0.287-5.702-2.276-7.011
		c-2.562-1.305-5.703-0.287-7.011,2.277c-1.306,2.562-0.288,5.703,2.277,7.012C313.311,209.802,316.449,208.779,317.755,206.218"/>
	<path display="inline" fill="#3D80B0" d="M158.755,99.402c3.25,0,5.885-2.635,5.885-5.884s-2.635-5.884-5.885-5.884
		s-5.708,2.731-5.708,5.884S155.504,99.402,158.755,99.402"/>
	<path display="inline" fill="#3D80B0" d="M234.971,153.607c2.854,0,5.163-2.313,5.163-5.167s-2.312-5.163-5.163-5.163
		c-2.853,0-5.164,2.312-5.164,5.163S232.118,153.607,234.971,153.607"/>
	<path display="inline" fill="#3D80B0" d="M251.135,175.591c2.491,0,4.512-2.018,4.512-4.508c0-2.495-2.021-4.513-4.512-4.513
		c-2.49,0-4.512,2.018-4.512,4.513C246.623,173.573,248.645,175.591,251.135,175.591"/>
	<path display="inline" fill="#3D80B0" d="M207.813,140.362c2.543,0,4.606-2.062,4.606-4.606c0-2.546-2.062-4.608-4.606-4.608
		c-2.545,0-4.609,2.062-4.609,4.608C203.204,138.3,205.268,140.362,207.813,140.362"/>
	<path display="inline" fill="#3D80B0" d="M271.004,217.812c2.291,0,4.146-1.857,4.146-4.146c0-2.291-1.855-4.146-4.146-4.146
		c-2.289,0-4.146,1.854-4.146,4.146C266.855,215.955,268.715,217.812,271.004,217.812"/>
	<path display="inline" fill="#3D80B0" d="M141.912,195.055c2.284,0.159,4.266-1.561,4.426-3.848
		c0.16-2.286-1.562-4.268-3.847-4.425c-2.286-0.16-4.267,1.562-4.425,3.847C137.905,192.911,139.628,194.895,141.912,195.055"/>
	<path display="inline" fill="#C32782" d="M182.469,90.336c3.251-1.656,4.544-5.636,2.888-8.887
		c-1.656-3.252-5.637-4.546-8.887-2.888c-3.252,1.657-4.1,5.649-2.54,8.71C175.491,90.332,179.219,91.993,182.469,90.336"/>
	<path display="inline" fill="#C32782" d="M235.521,172.016c2.511-1.271,3.508-4.352,2.229-6.854
		c-1.279-2.518-4.352-3.514-6.857-2.229c-2.511,1.275-3.506,4.354-2.229,6.855C229.943,172.296,233.014,173.292,235.521,172.016"/>
	<path display="inline" fill="#83B451" d="M239.7,189.453c2.347-1.197,3.28-4.067,2.083-6.417c-1.194-2.345-4.067-3.276-6.413-2.082
		c-2.349,1.196-3.281,4.067-2.086,6.416C234.48,189.716,237.354,190.648,239.7,189.453"/>
	<path display="inline" fill="#C32782" d="M264.372,162.121c2.521-1.283,3.519-4.362,2.235-6.883
		c-1.282-2.518-4.362-3.522-6.883-2.236c-2.521,1.283-3.521,4.364-2.234,6.885C258.771,162.404,261.854,163.404,264.372,162.121"/>
	<path display="inline" fill="#C32782" d="M206.504,211.652c1.798-0.914,2.513-3.112,1.596-4.911
		c-0.916-1.798-3.114-2.509-4.912-1.597c-1.798,0.916-2.513,3.108-1.596,4.916C202.507,211.857,204.706,212.568,206.504,211.652"/>
	<path display="inline" fill="#C32782" d="M240,67.232c1.568-0.801,2.193-2.722,1.395-4.291c-0.799-1.57-2.721-2.194-4.291-1.394
		c-1.562,0.799-2.188,2.721-1.394,4.29C236.51,67.407,238.432,68.031,240,67.232"/>
	<path display="inline" fill="#C32782" d="M190.31,174.895c2.596-1.324,3.628-4.498,2.306-7.097c-1.323-2.596-4.5-3.627-7.095-2.303
		c-2.595,1.321-3.628,4.498-2.306,7.094C184.538,175.186,187.715,176.216,190.31,174.895"/>
	<path display="inline" fill="#C32782" d="M264.177,118.248c1.907-0.971,2.664-3.301,1.693-5.209
		c-0.97-1.904-3.304-2.662-5.209-1.691c-1.905,0.971-2.664,3.302-1.693,5.208C259.938,118.46,262.271,119.221,264.177,118.248"/>
	<path display="inline" fill="#A9526F" d="M275.365,114.864c1.703-0.868,2.38-2.954,1.513-4.656s-2.952-2.38-4.655-1.513
		c-1.703,0.868-2.38,2.952-1.512,4.656C271.579,115.054,273.662,115.73,275.365,114.864"/>
	<path display="inline" fill="#77579C" d="M180.283,210.986c2.246-0.315,3.81-2.396,3.496-4.639
		c-0.317-2.246-2.393-3.812-4.639-3.494c-2.245,0.312-3.808,2.392-3.493,4.638C175.962,209.736,178.038,211.3,180.283,210.986"/>
	<path display="inline" fill="#77579C" d="M279.338,99.146c1.938-0.1,3.426-1.754,3.324-3.692s-1.756-3.428-3.693-3.326
		c-1.937,0.102-3.426,1.756-3.324,3.693C275.746,97.76,277.398,99.248,279.338,99.146"/>
	<path display="inline" fill="#3D80B0" d="M262.652,90.337c1.923-0.271,3.262-2.048,2.99-3.97c-0.271-1.922-2.045-3.261-3.976-2.991
		c-1.922,0.271-3.261,2.046-2.983,3.97C258.956,89.268,260.73,90.608,262.652,90.337"/>
	<path display="inline" fill="#9FC698" d="M248.527,81.938c1.923-0.271,3.261-2.048,2.992-3.969c-0.271-1.922-2.047-3.26-3.979-2.99
		c-1.919,0.271-3.264,2.046-2.982,3.969C244.829,80.869,246.605,82.208,248.527,81.938"/>
	<path display="inline" fill="#A9526F" d="M194.723,213.398c1.687-1.146,2.133-3.437,0.993-5.117
		c-1.138-1.688-3.429-2.133-5.115-0.994c-1.688,1.138-2.133,3.429-0.995,5.115C190.744,214.09,193.035,214.534,194.723,213.398"/>
	<path display="inline" fill="#C32782" d="M227.908,195.486c1.791-1.207,2.265-3.641,1.057-5.432s-3.641-2.271-5.432-1.062
		c-1.792,1.209-2.264,3.646-1.057,5.438C223.688,196.221,226.118,196.693,227.908,195.486"/>
	<path display="inline" fill="#9FC698" d="M212.49,203.691c1.134,1.744,3.464,2.238,5.207,1.104c1.745-1.13,2.241-3.461,1.108-5.207
		c-1.133-1.738-3.465-2.236-5.207-1.104C211.854,199.615,211.357,201.945,212.49,203.691"/>
</g>
<g>
	<circle fill="#80AE3E" cx="160.194" cy="135.696" r="6.934"/>
	<g>
		<g>
			<path fill="#80AE3E" stroke="#80AE3E" stroke-width="0.3725" stroke-miterlimit="10" d="M249.527,116.183
				c0.018-0.071,0.053-0.147,0.104-0.229c0.066-0.097,0.132-0.138,0.194-0.122l4.177,1.023c0.11,0.027,0.185,0.176,0.22,0.441
				c0.041,0.342,0.028,0.707-0.033,1.096c-0.021,0.096-0.032,0.16-0.041,0.194c-0.135,0.548-0.441,0.974-0.922,1.274
				c-0.481,0.301-0.996,0.386-1.543,0.251c-0.521-0.128-0.873-0.452-1.056-0.974c-0.162-0.444-0.177-0.937-0.045-1.475
				c0.045-0.182,0.074-0.291,0.088-0.325c0.047-0.116,0.116-0.202,0.207-0.261l-0.043-0.116l-1.213-0.298
				c-0.054-0.014-0.088-0.088-0.104-0.223C249.51,116.336,249.51,116.249,249.527,116.183z M252.596,117.353
				c-0.152-0.039-0.31-0.08-0.47-0.123c-0.584-0.161-0.935-0.008-1.049,0.464c-0.091,0.364-0.058,0.692,0.093,0.985
				c0.164,0.303,0.424,0.498,0.777,0.586c0.377,0.092,0.734,0.063,1.07-0.084c0.366-0.154,0.594-0.412,0.683-0.774
				c0.097-0.39,0.028-0.654-0.199-0.79c-0.103-0.062-0.233-0.111-0.394-0.146C252.951,117.437,252.779,117.397,252.596,117.353z"/>
			<path fill="#80AE3E" stroke="#80AE3E" stroke-width="0.3725" stroke-miterlimit="10" d="M252.771,114.466
				c-0.351-0.525-0.317-1.154,0.099-1.889c0.069-0.123,0.159-0.254,0.265-0.395c0.174-0.222,0.364-0.379,0.568-0.467
				c0.248-0.117,0.484-0.113,0.708,0.016c0.325,0.187,0.46,0.562,0.403,1.131c-0.047,0.479-0.174,0.895-0.375,1.248
				c-0.035,0.062-0.068,0.103-0.097,0.115c-0.028,0.013-0.073,0.002-0.133-0.033c-0.121-0.067-0.137-0.285-0.046-0.649
				c0.066-0.258,0.097-0.438,0.089-0.55c-0.009-0.2-0.103-0.35-0.278-0.45c-0.066-0.04-0.136-0.057-0.201-0.051
				c-0.185,0.011-0.334,0.125-0.457,0.339c-0.115,0.204-0.148,0.449-0.099,0.734c0.058,0.312,0.185,0.525,0.386,0.64
				c0.258,0.146,0.543,0.226,0.856,0.233c0.36,0.011,0.642-0.066,0.842-0.233c0.111-0.093,0.232-0.254,0.36-0.481
				c0.08-0.139,0.105-0.303,0.08-0.49c-0.02-0.154-0.002-0.275,0.049-0.367c0.249,0.143,0.384,0.312,0.402,0.514
				c0.014,0.172-0.057,0.394-0.209,0.662l-0.034,0.061c-0.062,0.107-0.117,0.201-0.169,0.283c-0.062,0.102-0.161,0.213-0.295,0.336
				c-0.073,0.076-0.188,0.178-0.342,0.306c-0.084,0.058-0.146,0.09-0.18,0.096c-0.271,0.082-0.482,0.14-0.639,0.167
				c-0.208,0.039-0.477-0.033-0.801-0.218l-0.229-0.131C253.066,114.808,252.891,114.647,252.771,114.466z"/>
			<path fill="#80AE3E" stroke="#80AE3E" stroke-width="0.3725" stroke-miterlimit="10" d="M254.893,109.998
				c-0.002-0.003-0.004-0.024-0.004-0.063c-0.013-0.152-0.012-0.295,0-0.424c0-0.033,0.018-0.082,0.049-0.146l0.006-0.016
				c0.006-0.006,0.012-0.012,0.017-0.018c0.006-0.004,0.011-0.01,0.017-0.018h0.01c0.125-0.006,0.222-0.006,0.293,0
				c0.033,0.008,0.096,0.025,0.191,0.056c0.508,0.17,0.786,0.267,0.836,0.289l0.764,0.312c0.332,0.146,0.584,0.254,0.754,0.324
				c0.002-0.003,0.01-0.006,0.02-0.01c0.004-0.003,0.006-0.007,0.01-0.009c0.004-0.005,0.006-0.011,0.011-0.021l0.009-0.01
				c0.011-0.029,0.011-0.062,0-0.098c-0.04-0.139-0.073-0.234-0.102-0.293l-0.445-0.928l-0.249-0.636
				c-0.058-0.141-0.111-0.278-0.164-0.416c-0.043-0.166-0.013-0.302,0.094-0.409l0.05-0.049c0.024-0.025,0.051-0.049,0.077-0.068
				c0.07-0.045,0.125-0.049,0.16-0.015c0.004,0.005,0.009,0.009,0.017,0.015l0.153,0.455c0.004,0.01,0.007,0.021,0.011,0.028
				l0.457,1.046c0.062,0.141,0.105,0.237,0.131,0.293c0.233,0.543,0.362,0.85,0.387,0.918c0.141,0.437,0.124,0.742-0.051,0.918
				c-0.164,0.166-0.377,0.211-0.633,0.137c-0.305-0.084-0.759-0.254-1.361-0.512c-0.631-0.266-1.1-0.443-1.41-0.539L254.893,109.998
				z"/>
			<path fill="#80AE3E" stroke="#80AE3E" stroke-width="0.3725" stroke-miterlimit="10" d="M259.227,106.843
				c-0.035-0.631,0.312-1.156,1.041-1.578c0.123-0.07,0.267-0.141,0.428-0.207c0.264-0.104,0.506-0.142,0.729-0.115
				c0.271,0.023,0.474,0.148,0.603,0.373c0.188,0.324,0.113,0.718-0.223,1.178c-0.285,0.389-0.604,0.686-0.957,0.889
				c-0.062,0.037-0.109,0.055-0.143,0.051c-0.03-0.004-0.062-0.037-0.098-0.097c-0.069-0.12,0.025-0.315,0.289-0.584
				c0.188-0.188,0.307-0.329,0.354-0.429c0.093-0.178,0.089-0.354-0.012-0.53c-0.04-0.067-0.089-0.116-0.147-0.146
				c-0.164-0.082-0.354-0.062-0.566,0.062c-0.203,0.117-0.354,0.312-0.457,0.584c-0.106,0.298-0.104,0.546,0.012,0.746
				c0.146,0.256,0.354,0.47,0.62,0.636c0.307,0.19,0.587,0.266,0.844,0.226c0.146-0.024,0.33-0.103,0.556-0.233
				c0.14-0.08,0.246-0.207,0.317-0.383c0.062-0.143,0.14-0.24,0.229-0.293c0.145,0.249,0.172,0.464,0.088,0.646
				c-0.074,0.155-0.246,0.312-0.517,0.465l-0.061,0.035c-0.105,0.062-0.203,0.113-0.288,0.158c-0.105,0.057-0.248,0.104-0.426,0.143
				c-0.102,0.027-0.25,0.058-0.448,0.091c-0.103,0.006-0.17,0.002-0.204-0.011c-0.275-0.064-0.486-0.123-0.635-0.178
				c-0.199-0.072-0.395-0.271-0.581-0.596l-0.132-0.229C259.309,107.286,259.238,107.06,259.227,106.843z"/>
			<path fill="#80AE3E" stroke="#80AE3E" stroke-width="0.3725" stroke-miterlimit="10" d="M267.199,106.354
				c-0.04,0.011-0.081,0.016-0.123,0.017c-0.109,0.015-0.174-0.015-0.191-0.087l-0.557-2.219c-0.04-0.157-0.199-0.264-0.477-0.317
				c-0.224-0.041-0.425-0.036-0.606,0.009c-0.179,0.045-0.338,0.108-0.483,0.193c-0.217,0.125-0.307,0.271-0.267,0.432l0.591,2.354
				c0.021,0.093-0.059,0.164-0.246,0.21l-0.086,0.021c-0.268,0.066-0.423,0.008-0.469-0.175l-0.505-2.019
				c-0.06-0.233-0.052-0.436,0.024-0.607c0.188-0.414,0.646-0.712,1.368-0.895c0.438-0.109,0.822-0.131,1.146-0.064
				c0.43,0.094,0.692,0.336,0.793,0.73l0.488,1.951c0.059,0.229-0.048,0.375-0.312,0.443L267.199,106.354z"/>
			<path fill="#80AE3E" stroke="#80AE3E" stroke-width="0.3725" stroke-miterlimit="10" d="M269.559,103.077
				c0.381-0.277,0.857-0.398,1.43-0.369c0.594,0.032,1.078,0.191,1.453,0.48c0.422,0.332,0.619,0.791,0.588,1.378
				c-0.002,0.032-0.006,0.077-0.016,0.139c-0.006,0.06-0.012,0.104-0.014,0.13c0,0.006-0.008,0.025-0.023,0.062
				c-0.094,0.184-0.162,0.322-0.209,0.412c-0.064,0.121-0.115,0.211-0.15,0.27c-0.021,0.021-0.057,0.059-0.108,0.105
				c-0.278,0.254-0.437,0.394-0.469,0.418c-0.226,0.175-0.611,0.248-1.16,0.218c-0.625-0.033-1.114-0.207-1.465-0.521
				c-0.386-0.342-0.562-0.814-0.529-1.426C268.914,103.816,269.139,103.384,269.559,103.077z M269.885,105.226
				c0.014,0.022,0.041,0.062,0.084,0.108l0.272,0.308c0.039,0.043,0.071,0.074,0.099,0.095c0.104,0.103,0.227,0.157,0.369,0.165
				l0.15,0.008c0.422,0.023,0.757-0.124,1.007-0.439c0.045-0.058,0.104-0.154,0.177-0.291c0.074-0.139,0.116-0.222,0.127-0.248
				c0,0.015,0.006-0.033,0.021-0.146l0.013-0.108c0.002-0.039,0.004-0.067,0.005-0.091c0.02-0.364-0.08-0.692-0.299-0.981
				c-0.23-0.303-0.523-0.465-0.883-0.482l-0.157-0.01c-0.138-0.008-0.271,0.036-0.399,0.133c-0.48,0.357-0.731,0.74-0.754,1.146
				C269.695,104.765,269.752,105.043,269.885,105.226z"/>
			<path fill="#80AE3E" stroke="#80AE3E" stroke-width="0.3725" stroke-miterlimit="10" d="M276.77,107.582
				c-0.039-0.014-0.076-0.032-0.11-0.055c-0.099-0.052-0.136-0.111-0.109-0.181l0.789-2.148c0.056-0.15-0.016-0.328-0.215-0.529
				c-0.162-0.158-0.33-0.27-0.507-0.335c-0.172-0.062-0.34-0.1-0.508-0.11c-0.252-0.02-0.405,0.049-0.463,0.205l-0.836,2.279
				c-0.035,0.09-0.141,0.104-0.32,0.036l-0.084-0.03c-0.258-0.095-0.354-0.229-0.289-0.41l0.717-1.951
				c0.083-0.228,0.204-0.389,0.361-0.487c0.392-0.235,0.937-0.226,1.636,0.03c0.426,0.158,0.752,0.354,0.981,0.592
				c0.304,0.318,0.385,0.668,0.244,1.05l-0.693,1.888c-0.081,0.221-0.25,0.284-0.51,0.189L276.77,107.582z"/>
			<path fill="#80AE3E" stroke="#80AE3E" stroke-width="0.3725" stroke-miterlimit="10" d="M278.807,108.245
				c0.139,0.132,0.246,0.227,0.324,0.279c0.064,0.044,0.133,0.082,0.205,0.113c0.242,0.107,0.438,0.053,0.59-0.17
				c0.004-0.009,0.01-0.019,0.02-0.029c0.004-0.014,0.009-0.024,0.014-0.031c-0.122-0.497-0.225-0.868-0.309-1.114
				c-0.125-0.491-0.109-0.852,0.043-1.077c0.17-0.252,0.418-0.381,0.74-0.385c0.285-0.003,0.561,0.086,0.824,0.268
				c0.193,0.131,0.33,0.289,0.407,0.477c0.087,0.215,0.065,0.416-0.062,0.604c-0.147-0.1-0.246-0.237-0.295-0.414
				c-0.05-0.176-0.115-0.291-0.199-0.349c-0.094-0.063-0.207-0.087-0.338-0.065c-0.129,0.021-0.228,0.078-0.293,0.174
				c-0.097,0.143-0.123,0.324-0.08,0.549c0.021,0.122,0.082,0.303,0.181,0.542c0.211,0.512,0.218,0.915,0.017,1.21
				c-0.096,0.143-0.211,0.242-0.346,0.302c-0.396,0.167-0.82,0.097-1.275-0.212c-0.266-0.18-0.43-0.312-0.496-0.396
				c-0.133-0.168-0.133-0.354,0.002-0.551C278.562,108.019,278.67,108.113,278.807,108.245z"/>
		</g>
		<g>
			<path fill="#80AE3E" stroke="#80AE3E" stroke-width="0.3725" stroke-miterlimit="10" d="M255.537,131.496
				c0.6-0.202,1.197-0.006,1.796,0.586c0.101,0.101,0.205,0.22,0.312,0.359c0.17,0.225,0.271,0.448,0.305,0.67
				c0.048,0.269-0.02,0.496-0.2,0.68c-0.263,0.267-0.662,0.298-1.194,0.097c-0.449-0.172-0.818-0.401-1.107-0.688
				c-0.053-0.051-0.081-0.093-0.086-0.124c-0.004-0.029,0.018-0.07,0.065-0.12c0.099-0.099,0.312-0.057,0.64,0.125
				c0.231,0.134,0.399,0.208,0.509,0.229c0.194,0.043,0.362-0.008,0.506-0.151c0.056-0.056,0.091-0.116,0.103-0.183
				c0.037-0.178-0.033-0.354-0.209-0.528c-0.166-0.164-0.395-0.261-0.684-0.285c-0.314-0.026-0.555,0.042-0.717,0.206
				c-0.208,0.21-0.357,0.466-0.449,0.768c-0.104,0.344-0.104,0.637,0.006,0.871c0.062,0.135,0.186,0.291,0.371,0.477
				c0.114,0.111,0.266,0.181,0.453,0.205c0.152,0.021,0.268,0.068,0.342,0.144c-0.201,0.204-0.402,0.288-0.602,0.255
				c-0.168-0.031-0.363-0.156-0.584-0.375l-0.049-0.049c-0.088-0.087-0.164-0.165-0.229-0.234c-0.082-0.088-0.165-0.215-0.249-0.375
				c-0.052-0.092-0.12-0.228-0.206-0.408c-0.03-0.098-0.046-0.163-0.044-0.199c-0.01-0.283-0.008-0.502,0.005-0.659
				c0.017-0.211,0.156-0.45,0.42-0.716l0.187-0.188C255.131,131.691,255.329,131.562,255.537,131.496z"/>
			<path fill="#80AE3E" stroke="#80AE3E" stroke-width="0.3725" stroke-miterlimit="10" d="M259.83,134.486
				c0.488-0.05,1,0.073,1.531,0.371c0.056,0.032,0.133,0.071,0.229,0.122c0.099,0.05,0.192,0.106,0.281,0.174
				c0.211,0.164,0.271,0.334,0.176,0.503c-0.394-0.22-0.715-0.37-0.967-0.454c-0.386-0.119-0.705-0.145-0.964-0.078
				c-0.333,0.09-0.602,0.314-0.801,0.674c-0.284,0.51-0.246,0.991,0.117,1.448c0.256,0.321,0.664,0.642,1.229,0.957
				c-0.045,0.08-0.115,0.119-0.209,0.121c-0.188,0.007-0.461-0.091-0.82-0.292c-0.557-0.312-0.938-0.688-1.146-1.133
				c-0.252-0.518-0.229-1.038,0.062-1.562C258.838,134.828,259.262,134.546,259.83,134.486z"/>
			<path fill="#80AE3E" stroke="#80AE3E" stroke-width="0.3725" stroke-miterlimit="10" d="M263.743,136.433
				c0.42-0.213,0.911-0.258,1.47-0.135c0.582,0.127,1.035,0.362,1.357,0.706c0.365,0.396,0.484,0.884,0.359,1.455
				c-0.009,0.032-0.021,0.075-0.037,0.136c-0.019,0.058-0.028,0.1-0.035,0.127c0,0.004-0.012,0.021-0.033,0.057
				c-0.121,0.167-0.213,0.292-0.271,0.373c-0.084,0.109-0.147,0.189-0.191,0.242c-0.022,0.019-0.063,0.048-0.124,0.086
				c-0.316,0.205-0.493,0.318-0.53,0.34c-0.25,0.135-0.643,0.145-1.18,0.027c-0.613-0.133-1.067-0.385-1.362-0.752
				c-0.326-0.396-0.424-0.893-0.294-1.49C262.989,137.06,263.281,136.668,263.743,136.433z M263.721,138.607
				c0.008,0.024,0.029,0.065,0.063,0.12l0.222,0.345c0.03,0.05,0.059,0.088,0.082,0.11c0.086,0.117,0.198,0.19,0.338,0.223
				l0.147,0.031c0.411,0.091,0.767,0,1.062-0.271c0.054-0.05,0.128-0.136,0.222-0.261c0.096-0.123,0.149-0.197,0.166-0.224
				c-0.004,0.015,0.012-0.033,0.043-0.14l0.031-0.106c0.008-0.036,0.014-0.064,0.02-0.088c0.078-0.355,0.031-0.695-0.137-1.017
				c-0.181-0.337-0.444-0.544-0.795-0.62l-0.152-0.033c-0.135-0.028-0.273-0.006-0.415,0.066c-0.535,0.275-0.845,0.614-0.931,1.012
				C263.607,138.12,263.619,138.405,263.721,138.607z"/>
			<path fill="#80AE3E" stroke="#80AE3E" stroke-width="0.3725" stroke-miterlimit="10" d="M271.242,136.548
				c0.014,0.002,0.045,0.008,0.094,0.021c0.229,0.062,0.368,0.099,0.415,0.104c0.009-0.002,0.024-0.002,0.05-0.002
				c0.021-0.004,0.039-0.006,0.053-0.009c0.016-0.003,0.031-0.008,0.054-0.017c0.022-0.004,0.038-0.008,0.048-0.01
				c0.184-0.097,0.363-0.19,0.544-0.283c0.206-0.101,0.403-0.166,0.594-0.198c0.298-0.052,0.556-0.048,0.775,0.01
				c0.219,0.06,0.437,0.188,0.649,0.386c0.057,0.051,0.092,0.115,0.104,0.192l0.422,2.461c0.024,0.142-0.101,0.235-0.369,0.281
				c-0.028,0.006-0.065,0.012-0.116,0.02c-0.22,0.024-0.338-0.026-0.36-0.155l-0.399-2.323c-0.019-0.114-0.136-0.212-0.35-0.292
				c-0.184-0.067-0.338-0.09-0.465-0.067c-0.117,0.021-0.281,0.093-0.491,0.22c-0.235,0.144-0.347,0.26-0.33,0.353l0.397,2.323
				c0.006,0.025-0.024,0.078-0.09,0.154c-0.082,0.09-0.141,0.146-0.168,0.163c-0.007,0.011-0.062,0.024-0.166,0.044
				c-0.027,0.004-0.064,0.008-0.109,0.012c-0.202,0.015-0.312-0.037-0.334-0.154l-0.41-2.393c-0.021-0.133-0.146-0.232-0.373-0.302
				c-0.191-0.057-0.355-0.073-0.496-0.05c-0.145,0.025-0.303,0.096-0.475,0.208c-0.211,0.14-0.308,0.28-0.282,0.422l0.411,2.394
				c0.025,0.141-0.11,0.235-0.404,0.287c-0.271,0.045-0.418-0.002-0.441-0.143l-0.412-2.395c-0.006-0.039,0.008-0.09,0.045-0.146
				c0.354-0.582,0.897-0.936,1.629-1.061C270.836,136.541,271.09,136.522,271.242,136.548z"/>
			<path fill="#80AE3E" stroke="#80AE3E" stroke-width="0.3725" stroke-miterlimit="10" d="M276.492,135.347
				c0.152-0.444,0.473-0.818,0.958-1.123c0.505-0.313,0.993-0.461,1.465-0.441c0.537,0.029,0.961,0.292,1.272,0.791
				c0.018,0.025,0.039,0.066,0.067,0.121c0.027,0.053,0.05,0.091,0.063,0.113c0.002,0.006,0.008,0.025,0.017,0.064
				c0.03,0.205,0.054,0.357,0.065,0.458c0.016,0.136,0.025,0.238,0.031,0.308c-0.004,0.029-0.014,0.078-0.029,0.148
				c-0.082,0.367-0.131,0.572-0.143,0.611c-0.086,0.271-0.359,0.553-0.826,0.845c-0.531,0.334-1.031,0.472-1.5,0.414
				c-0.51-0.058-0.928-0.343-1.25-0.86C276.389,136.321,276.325,135.839,276.492,135.347z M277.993,136.918
				c0.024,0.013,0.067,0.026,0.131,0.042l0.399,0.094c0.057,0.012,0.102,0.021,0.135,0.021c0.145,0.021,0.277-0.003,0.396-0.077
				l0.127-0.081c0.357-0.224,0.549-0.535,0.571-0.938c0.004-0.073-0.004-0.188-0.022-0.344c-0.019-0.152-0.03-0.244-0.037-0.273
				c0.007,0.013-0.016-0.03-0.066-0.131l-0.053-0.098c-0.02-0.029-0.036-0.056-0.049-0.076c-0.193-0.31-0.463-0.52-0.81-0.631
				c-0.362-0.117-0.696-0.08-1,0.109l-0.133,0.083c-0.117,0.074-0.201,0.187-0.251,0.338c-0.188,0.571-0.174,1.028,0.042,1.374
				C277.575,136.647,277.781,136.845,277.993,136.918z"/>
			<path fill="#80AE3E" stroke="#80AE3E" stroke-width="0.3725" stroke-miterlimit="10" d="M279.545,130.65
				c0.117-0.07,0.198-0.087,0.239-0.05l0.952,0.808l0.119-0.033c-0.008-0.104,0.021-0.212,0.09-0.319
				c0.018-0.028,0.088-0.115,0.212-0.263c0.358-0.423,0.765-0.698,1.222-0.829c0.527-0.156,0.996-0.063,1.404,0.283
				c0.428,0.361,0.66,0.827,0.699,1.395c0.039,0.567-0.123,1.067-0.486,1.498c-0.023,0.027-0.066,0.074-0.129,0.142
				c-0.283,0.282-0.574,0.508-0.873,0.674c-0.236,0.13-0.398,0.158-0.486,0.082l-3.279-2.78c-0.049-0.041-0.055-0.117-0.016-0.229
				c0.034-0.09,0.075-0.164,0.123-0.219C279.383,130.755,279.45,130.702,279.545,130.65z M282.482,132.952
				c0.121,0.107,0.235,0.186,0.35,0.23c0.244,0.105,0.497,0.004,0.758-0.303c0.238-0.281,0.314-0.617,0.227-1.006
				c-0.078-0.359-0.266-0.665-0.561-0.916c-0.279-0.236-0.59-0.331-0.932-0.285c-0.326,0.049-0.609,0.215-0.854,0.502
				c-0.313,0.369-0.234,0.744,0.239,1.121c0.129,0.104,0.254,0.207,0.375,0.311C282.229,132.728,282.361,132.845,282.482,132.952z"
				/>
			<path fill="#80AE3E" stroke="#80AE3E" stroke-width="0.3725" stroke-miterlimit="10" d="M281.953,127.539
				c-0.003-0.063,0.038-0.176,0.121-0.334c0.061-0.112,0.124-0.18,0.191-0.198c0.066-0.018,0.159,0.004,0.278,0.066l0.062,0.031
				c0.084,0.082,0.135,0.134,0.151,0.158l-0.256,0.485c-0.005,0.009-0.021,0.017-0.045,0.022c-0.085,0.033-0.164,0.054-0.235,0.062
				c-0.029-0.012-0.05-0.02-0.059-0.023C282.027,127.739,281.957,127.647,281.953,127.539z M286.161,128.986
				c0.294,0.155,0.376,0.354,0.249,0.598c-0.129,0.241-0.342,0.285-0.635,0.132l-2.33-1.232c-0.032-0.018-0.082-0.067-0.146-0.152
				c-0.064-0.083-0.088-0.146-0.062-0.191l0.289-0.547L286.161,128.986z"/>
			<path fill="#80AE3E" stroke="#80AE3E" stroke-width="0.3725" stroke-miterlimit="10" d="M282.762,125.525l0.186-0.519
				l0.177-0.084l4.312,1.529c0.115,0.041,0.183,0.09,0.203,0.146c0.021,0.06,0.01,0.148-0.033,0.27s-0.072,0.186-0.09,0.195
				c-0.024,0.029-0.086,0.066-0.18,0.109c-0.094,0.045-0.152,0.062-0.174,0.055l-4.312-1.527L282.762,125.525z"/>
			<path fill="#80AE3E" stroke="#80AE3E" stroke-width="0.3725" stroke-miterlimit="10" d="M285.777,123.933
				c-0.523-0.354-0.734-0.946-0.629-1.782c0.019-0.142,0.049-0.296,0.094-0.466c0.076-0.271,0.191-0.488,0.348-0.648
				c0.184-0.202,0.404-0.288,0.661-0.256c0.371,0.047,0.64,0.345,0.802,0.891c0.139,0.461,0.182,0.895,0.131,1.297
				c-0.008,0.073-0.023,0.12-0.045,0.145c-0.021,0.021-0.066,0.029-0.137,0.021c-0.137-0.019-0.232-0.213-0.289-0.585
				c-0.037-0.263-0.08-0.442-0.128-0.543c-0.084-0.181-0.228-0.282-0.429-0.31c-0.078-0.01-0.146,0-0.207,0.029
				c-0.163,0.08-0.262,0.244-0.292,0.488c-0.028,0.232,0.034,0.471,0.19,0.717c0.17,0.267,0.371,0.412,0.601,0.442
				c0.294,0.037,0.587,0,0.88-0.11c0.339-0.127,0.568-0.308,0.689-0.537c0.066-0.129,0.117-0.324,0.149-0.582
				c0.021-0.16-0.019-0.32-0.112-0.485c-0.076-0.134-0.107-0.253-0.097-0.356c0.285,0.035,0.476,0.143,0.567,0.32
				c0.078,0.152,0.1,0.383,0.062,0.691l-0.01,0.067c-0.017,0.123-0.031,0.231-0.048,0.327c-0.021,0.117-0.067,0.258-0.146,0.424
				c-0.041,0.098-0.105,0.233-0.199,0.411c-0.057,0.086-0.101,0.14-0.131,0.156c-0.217,0.182-0.394,0.313-0.523,0.397
				c-0.178,0.115-0.452,0.15-0.824,0.104l-0.262-0.034C286.18,124.138,285.956,124.056,285.777,123.933z"/>
			<path fill="#80AE3E" stroke="#80AE3E" stroke-width="0.3725" stroke-miterlimit="10" d="M288.251,118.632
				c0.011-0.19,0.009-0.334-0.002-0.429c-0.009-0.078-0.024-0.153-0.048-0.229c-0.076-0.254-0.248-0.367-0.514-0.334
				c-0.011,0.002-0.021,0.002-0.035,0.004c-0.014,0.008-0.023,0.009-0.034,0.011c-0.296,0.418-0.509,0.737-0.642,0.961
				c-0.291,0.416-0.572,0.642-0.843,0.673c-0.304,0.036-0.562-0.066-0.776-0.311c-0.188-0.213-0.301-0.479-0.338-0.797
				c-0.027-0.232,0.004-0.438,0.096-0.619c0.104-0.207,0.271-0.322,0.496-0.351c0.021,0.179-0.019,0.343-0.119,0.495
				c-0.102,0.152-0.146,0.279-0.135,0.379c0.014,0.114,0.072,0.213,0.172,0.299c0.102,0.084,0.207,0.121,0.322,0.106
				c0.17-0.021,0.325-0.119,0.469-0.297c0.076-0.097,0.174-0.261,0.291-0.491c0.25-0.495,0.551-0.762,0.904-0.804
				c0.17-0.021,0.321,0.001,0.454,0.063c0.388,0.189,0.61,0.557,0.675,1.104c0.037,0.318,0.045,0.529,0.024,0.634
				c-0.041,0.212-0.181,0.333-0.419,0.358C288.24,118.966,288.24,118.821,288.251,118.632z"/>
		</g>
		<g>
			<path fill="#80AE3E" stroke="#80AE3E" stroke-width="0.4193" stroke-miterlimit="10" d="M258.564,131.031
				c-0.472-0.158-0.933-0.015-0.953,0.017c0.387,0.327,0.492,0.441,1.127,0.594c0.5,0.119,0.801-0.078,0.916-0.172
				C259.282,131.339,259.133,131.22,258.564,131.031z"/>
		</g>
	</g>
	<g>
		<path fill="#80AE3E" d="M162.343,110.486c-1.268,0.003-2.232-2.179-4.707-2.175c-1.721,0.002-2.98,1.371-2.98,2.861
			c0,1.229,0.708,2.312,2.123,2.727l3.694,1.014c3.083,0.887,4.601,2.723,4.602,6.125c0.002,1.257-0.743,3.516-1.084,4.131
			c-1.025,1.817-4.713,1.166-4.089,0.166c0.281-0.458,1.485-2.976,1.485-3.547c0-3.191-4.098-2.923-6.476-3.736
			c-1.516-0.541-4.145-1.972-4.148-5.92c-0.003-4.492,2.37-7.625,6.824-7.631c3.437-0.004,6.723,2.311,6.724,3.874
			C164.31,109.327,163.149,110.486,162.343,110.486z"/>
		<path fill="#80AE3E" d="M189.585,115.464l0.003,9.694c0,1.298-0.779,1.122-1.639,1.123l-0.557,0.004
			c-0.809,0-1.344,0.175-1.344-1.124l-0.003-6.428c-0.001-3.131-0.763-4.695-2.175-4.695c-1.516,0.004-2.226,1.632-2.225,4.908
			l0.003,6.33c0,1.289-0.635,1.064-1.493,1.066H179.6c-0.861,0-1.493,0.161-1.493-1.271l-0.007-12.663
			c-0.001-1.289,0.556-1.977,1.771-1.977c1.011-0.004,1.822,0.473,2.481,0.473c1.209,0,1.565-0.885,3.387-0.885
			C188.062,110.017,189.581,111.513,189.585,115.464z"/>
		<path fill="#80AE3E" d="M196.264,125.997c-1.066-0.289-3.308,0.488-4.397-2.638c-0.307-0.868-0.491-2.125-0.491-3.909
			c-0.006-7.295,3.229-9.068,5.404-9.068c1.517-0.006,2.021,0.543,2.933,0.543c0.759,0,0.96-1.022,1.009-2.453l0.051-1.629
			c0.048-1.226,0.352-2.106,1.11-2.111h1.014c0.807,0,1.209,0.884,1.21,2.652l0.01,16.711c0.001,1.428-0.502,2.181-1.667,2.184
			C201.186,126.277,198.101,126.482,196.264,125.997z M197.649,125.156c2.124-0.001,3.08-2.521,3.079-6.06
			c-0.003-3.812-1.215-5.516-2.936-5.516c-1.01,0-3.036,0.752-3.033,5.791C194.761,123.591,196.228,125.158,197.649,125.156z"/>
		<path fill="#80AE3E" d="M208.121,107.854c-1.469,0-1.975-0.881-1.975-2.039c-0.001-1.701,0.91-2.18,1.972-2.18
			c1.466-0.004,2.023,0.877,2.024,2.035C210.141,107.38,209.235,107.853,208.121,107.854z M210.199,112.823l0.005,11.811
			c0.002,1.633-0.656,1.887-2.023,1.889c-1.721,0.003-2.024,0.195-2.026-1.777l-0.005-12.467c-0.001-1.494,0.606-2.445,1.52-2.445
			l0.905-0.004C209.638,109.828,210.198,110.843,210.199,112.823z"/>
		<path fill="#80AE3E" d="M218.786,109.654c2.53-0.005,5.207,1.961,5.208,3.729c0.001,0.887-0.811,1.907-1.924,1.908
			c-1.06,0.002-1.666-1.568-3.035-1.568c-1.21,0.004-3.063,1.24-2.928,5.254c0.164,4.865,2.243,6.19,3.961,6.19
			c2.021-0.003-5.433,1.613-6.426,0.166c-1.022-1.491-1.58-4.219-1.583-6.284C212.057,113.604,214.687,109.655,218.786,109.654z"/>
		<path fill="#80AE3E" d="M225.618,125.499c-0.151-0.582-0.634-1.695-0.634-2.376c-0.002-3.063,1.815-5.384,5.906-6.134
			c1.674-0.275,2.178-1.161,2.178-1.91c0-1.363-0.81-2.249-1.771-2.246c-1.924,0-1.768,2.249-3.893,2.251
			c-0.703,0-1.467-0.202-1.467-1.364c0-1.221,1.062-3.809,5.106-3.812c3.537-0.002,5.661,1.084,5.664,5.981l0.153,9.445
			L225.618,125.499z M230.492,124.817c1.318,0,2.628-1.639,2.628-3.405c-0.001-0.885-0.351-1.637-1.265-1.637
			c-1.064,0.001-3.185,0.958-3.183,2.862C228.674,123.8,229.381,124.82,230.492,124.817z"/>
		<path fill="#80AE3E" d="M237.805,111.601c-0.002-1.159,1.316-1.84,1.521-2.517c0.246-0.757,0.246-1.089,0.246-1.837
			c0-0.755,0.148-2.458,1.974-2.458c1.772-0.002,1.918,1.567,1.918,2.515c0.002,0.684,0.104,1.364,0.356,1.91
			c0.404,0.815,1.871,0.815,1.873,2.451c0,1.631-1.57,1.426-2.02,2.789c-0.254,0.754-0.205,1.15-0.203,2.312l0.002,3.949
			c0,1.164,0.086,1.508,0.309,2.045c2.283,5.554-3.852,3.069-3.852,3.069c-0.096-0.507-0.295-2.084-0.295-2.724l-0.004-6.127
			c0.047-1.371-0.104-2.383-0.508-3.064C238.721,113.228,237.805,112.753,237.805,111.601z"/>
		<path fill="#80AE3E" d="M166.589,110.291l0.607,0.029c1.054-0.052,1.299,0.444,1.887,1.769l1.214,3.2
			c0.349,0.947,0.492,1.63,0.898,1.63c0.347,0,0.63-0.802,0.855-1.426l1.13-3.201c0.351-1.261,0.952-1.979,1.915-1.979l0.739-0.033
			c0.858,0,1.256,1.059,0.988,1.947c-0.135,0.445-0.807,1.939-0.853,2.213l-4.58,11.267l-3.882,0.302l-0.063-0.695
			c0.782-2.051,2.019-3.688,1.152-5.678c-1.004-2.319-1.873-4.992-2.475-6.236C165.201,111.491,165.69,110.291,166.589,110.291z"/>
	</g>
	<g>
		<path fill="#80AE3E" d="M246.92,126.688h-92.739c-0.392,0-0.708-0.316-0.708-0.709c0-0.392,0.317-0.709,0.708-0.709h92.739
			c0.393,0,0.709,0.317,0.709,0.709C247.629,126.372,247.312,126.688,246.92,126.688z"/>
	</g>
	<g>
		<path fill="#80AE3E" d="M249.959,126.688c-0.393,0-0.707-0.316-0.707-0.709c0-0.392,0.316-0.709,0.707-0.709
			c2.202,0,4.189-0.543,4.208-0.549c0.38-0.103,0.769,0.117,0.873,0.494s-0.116,0.768-0.493,0.871
			C254.461,126.112,252.361,126.688,249.959,126.688z"/>
	</g>
	<g>
		<g>
			<path fill="#FFFFFF" d="M159.591,136.835l0.038-4.928c-0.001-0.571-0.177-0.855-0.526-0.855h-0.441
				c-0.328,0-0.458,0.284-0.481,0.68l-0.021,0.525c-0.02,0.461-0.109,0.788-0.438,0.789c-0.395,0-0.613-0.174-1.27-0.174
				c-0.946,0-2.347,0.569-2.344,2.918c0,0.362,0.211,1.574,0.425,1.824l0.004-0.001c0.299,0.628,0.823,1.221,1.744,1.284
				c1.133,0.08,1.791-0.229,1.791-0.229s0.914,0.483,1.383,0.016C159.634,138.507,159.591,136.835,159.591,136.835L159.591,136.835z
				 M155.882,137.065c-0.184-0.295-0.307-0.715-0.307-1.301c-0.001-1.623,0.878-1.861,1.314-1.861c0.745,0,1.271,0.544,1.273,1.771
				c0.001,0.452-0.068,0.848-0.206,1.164h0.005C157.962,136.839,157.009,138.488,155.882,137.065z"/>
		</g>
	</g>
	<g>
		<g>
			<path fill="#FFFFFF" d="M162.855,135.851l1.775-0.002h0.506c0.524,0,0.746-0.133,0.746-0.638c0-0.438-0.31-2.587-2.7-2.587
				c-1.423,0.005-2.783,0.859-2.782,3.098c0,0.256,0.027,0.49,0.072,0.711c0.023,0.326,0.192,1.593,1.418,2.267
				c1.207,0.664,3.025,0.108,3.259,0.047c0.404-0.106,0.903-1.175-0.07-1.119c-0.693,0.04-2.18,0.741-2.791-0.573
				c-0.104-0.266-0.197-0.543-0.197-0.635C162.088,136.048,162.353,135.851,162.855,135.851z M162.177,134.472
				c0-0.397,0.568-0.707,1.005-0.707c0.528,0,0.99,0.397,0.99,0.748c0.001,0.308-0.372,0.459-1.099,0.459
				C162.485,134.972,162.177,134.798,162.177,134.472z"/>
		</g>
	</g>
	<g>
		<path fill="#80AE3E" d="M256.768,125.541c-0.293,0-0.566-0.184-0.67-0.476c-0.129-0.369,0.066-0.773,0.438-0.902
			c1.242-0.434,4.375-1.909,4.406-1.924c0.354-0.171,0.775-0.016,0.941,0.338c0.168,0.354,0.016,0.775-0.338,0.943
			c-0.132,0.062-3.232,1.521-4.545,1.979C256.924,125.528,256.846,125.541,256.768,125.541z"/>
	</g>
	<g>
		<path fill="#225C98" d="M176.843,130.843c-0.13,0.742-0.481,0.988-1.591,0.99c-1.171,0-1.506,0.492-1.636,1.233l-1.121,6.415
			c-0.169,0.957-0.638,1.172-1.5,1.174c-0.835,0-1.249-0.276-1.092-1.17l1.127-6.447c0.131-0.74-0.036-1.203-1.238-1.203
			c-1.171,0.002-1.308-0.277-1.189-0.953c0.114-0.648,0.542-0.986,1.25-0.988l6.018-0.004
			C176.64,129.89,176.956,130.194,176.843,130.843z"/>
		<path fill="#225C98" d="M180.709,132.548c0.525,0,0.72,0.312,0.617,0.895c-0.131,0.74-0.371,1.047-1.247,1.297
			c-0.843,0.246-1.342,0.801-1.467,1.514l-0.556,3.178c-0.132,0.768-0.513,1.166-1.16,1.168h-0.617
			c-0.584,0.002-0.818-0.43-0.679-1.23l1.008-5.768c0.138-0.771,0.459-1.203,1.384-1.203c0.958,0,1.267,0.339,1.636,0.339
			C180.092,132.733,180.249,132.548,180.709,132.548z"/>
		<path fill="#225C98" d="M186.756,140.515c-0.646,0-0.906-0.278-1.31-0.276c-0.709,0-1.287,0.493-2.337,0.493
			c-1.726,0.003-2.478-0.982-2.24-2.34c0.242-1.389,1.537-2.439,4.092-2.779c1.04-0.123,1.419-0.523,1.478-0.863
			c0.108-0.615-0.315-1.016-0.903-1.016c-1.169,0-1.254,1.017-2.55,1.019c-0.433,0-0.879-0.093-0.789-0.616
			c0.1-0.557,0.95-1.729,3.421-1.729c2.157-0.003,3.366,0.488,2.979,2.71l-0.811,4.628
			C187.676,140.36,187.281,140.515,186.756,140.515z M184.094,139.16c0.803,0,1.734-0.741,1.874-1.546
			c0.071-0.4-0.088-0.734-0.643-0.734c-0.646,0-2.017,0.432-2.167,1.293C183.066,138.697,183.415,139.16,184.094,139.16z"/>
		<path fill="#225C98" d="M197.291,134.929l-0.841,4.809c-0.105,0.587-0.583,0.863-1.107,0.863h-0.34
			c-0.494,0.002-0.815-0.274-0.715-0.862l0.585-3.331c0.249-1.417-0.09-2.127-0.953-2.127c-0.924,0-1.487,0.74-1.746,2.224
			l-0.566,3.236c-0.104,0.589-0.582,0.864-1.108,0.864h-0.34c-0.523,0.002-0.808-0.309-0.695-0.953l1.067-6.108
			c0.104-0.587,0.495-0.896,1.239-0.896c0.613-0.002,1.069,0.215,1.47,0.215c0.743-0.002,1.029-0.4,2.138-0.402
			C196.797,132.458,197.603,133.136,197.291,134.929z"/>
		<path fill="#225C98" d="M201.38,134.581c-0.106,0.617,0.416,0.805,1.784,1.077c1.731,0.34,2.32,1.205,2.126,2.312
			c-0.302,1.73-2.026,2.779-4.126,2.78c-2.126,0.001-3.249-0.985-3.153-1.54c0.088-0.49,0.646-0.861,1.077-0.861
			c0.864,0,1.068,0.77,2.485,0.769c0.68,0,1.187-0.433,1.252-0.806c0.128-0.737-0.637-0.768-2.053-1.137
			c-1.209-0.308-2.122-0.925-1.892-2.22c0.292-1.666,2.094-2.626,3.757-2.627c1.665,0,2.977,0.615,2.869,1.231
			c-0.077,0.435-0.676,0.867-1.106,0.867c-0.65,0-0.967-0.461-1.985-0.461C201.981,133.966,201.457,134.15,201.38,134.581z"/>
		<path fill="#225C98" d="M214.523,136.366c-0.463,2.652-1.911,4.229-4.037,4.229c-0.65,0.002-1.228-0.215-1.381-0.215
			c-0.496,0-0.883,0.28-1.049,1.237c-0.205,1.17-0.417,1.51-1.282,1.51c-0.804,0.001-0.958-0.34-0.834-1.045l1.497-8.575
			c0.104-0.588,0.465-0.897,1.114-0.897c0.559,0,0.863,0.187,1.294,0.187c0.617-0.003,0.897-0.369,2.01-0.371
			C213.888,132.423,214.944,133.964,214.523,136.366z M210.245,139.147c1.696-0.004,2.197-2.162,2.305-2.779
			c0.245-1.389-0.179-2.498-1.321-2.498c-1.046,0.001-2.023,0.988-2.313,2.655C208.644,138.066,209.195,139.147,210.245,139.147z"/>
		<path fill="#225C98" d="M219.117,140.722c-2.341,0.002-3.91-1.444-3.437-4.16c0.511-2.899,2.798-4.166,4.957-4.168
			c1.977,0,4.064,1.076,3.533,4.131C223.754,138.897,222.018,140.72,219.117,140.722z M219.498,139.087
			c1.17,0,2.225-1.08,2.48-2.562c0.246-1.39-0.308-2.468-1.603-2.466c-1.142,0-2.217,0.865-2.498,2.469
			C217.618,138.009,218.26,139.089,219.498,139.087z"/>
		<path fill="#225C98" d="M230.021,132.509c0.524,0,0.72,0.312,0.619,0.896c-0.132,0.741-0.375,1.05-1.25,1.297
			c-0.845,0.246-1.343,0.803-1.468,1.515l-0.555,3.176c-0.138,0.771-0.515,1.168-1.164,1.17h-0.613
			c-0.588,0.002-0.819-0.428-0.684-1.23l1.014-5.766c0.134-0.774,0.455-1.204,1.384-1.204c0.954-0.002,1.266,0.338,1.637,0.338
			C229.404,132.697,229.561,132.509,230.021,132.509z"/>
		<path fill="#225C98" d="M231.443,133.22c0.091-0.523,0.949-0.834,1.125-1.145c0.217-0.336,0.24-0.49,0.301-0.832
			c0.059-0.338,0.285-1.109,1.396-1.109c1.077,0,1.047,0.709,0.971,1.142c-0.055,0.309-0.045,0.612,0.065,0.862
			c0.183,0.371,1.078,0.371,0.946,1.11c-0.13,0.738-1.071,0.646-1.456,1.265c-0.212,0.34-0.21,0.522-0.306,1.049l-0.315,1.787
			c-0.09,0.527-0.054,0.68,0.024,0.928c0.158,0.525,1.174,0.523,1.015,1.447c-0.112,0.646-0.576,0.986-1.408,0.987
			c-1.696,0.003-2.426-0.771-2.161-2.28l0.485-2.773c0.14-0.618,0.129-1.08-0.065-1.389
			C231.867,133.958,231.352,133.745,231.443,133.22z"/>
		<path fill="#225C98" d="M239.729,134.554c-0.105,0.615,0.414,0.801,1.785,1.076c1.729,0.34,2.319,1.205,2.125,2.313
			c-0.299,1.729-2.027,2.776-4.123,2.778c-2.129,0-3.252-0.986-3.156-1.541c0.084-0.492,0.646-0.861,1.076-0.861
			c0.863-0.001,1.066,0.771,2.488,0.77c0.678,0,1.184-0.435,1.248-0.806c0.131-0.739-0.634-0.769-2.05-1.138
			c-1.211-0.309-2.121-0.926-1.896-2.219c0.289-1.666,2.094-2.625,3.76-2.627c1.664-0.002,2.977,0.615,2.869,1.232
			c-0.076,0.432-0.678,0.865-1.109,0.865c-0.646,0-0.969-0.463-1.984-0.461C240.329,133.938,239.805,134.122,239.729,134.554z"/>
	</g>
	<g>
		<polygon fill="#FFFFFF" points="276.283,116.14 277.486,115.992 278.139,116.894 278.288,117.597 278.075,117.96 276.283,118.298 
					"/>
		<polygon fill="#1F1E21" points="271.289,112.9 273.195,112.995 275.383,114.187 275.934,116.192 275.732,117.745 277.137,119.199 
			277.637,122.306 277.398,123.228 274.779,123.511 271.32,122.156 268.915,118.397 		"/>
		<path fill="#1F1E21" d="M270.121,129.517c0.829-0.265,1.609-0.659,2.328-1.129c0.197,0.139,0.621,0.367,0.996,0.102
			c0.373-0.27,0.266-0.738,0.181-0.969c0.808-0.662,1.509-1.383,2.081-2.038c0.223,0.077,0.572,0.122,0.84-0.222
			c0.219-0.279,0.11-0.651,0.026-0.849c0.532-0.704,0.825-1.187,0.825-1.187s-1.875-1.096-3.215-3.015
			c-0.246,0.279-0.725,0.694-1.423,0.729c-0.788,0.039-1.34-0.631-1.571-0.979l-11.36,5.307c0,0,2.213,5.564,8.806,4.578
			c0.146,0.223,0.5,0.662,0.979,0.508C270.092,130.204,270.129,129.731,270.121,129.517z"/>
		<path fill="#1F1E21" d="M262.243,114.306c-0.429,0.264-0.326,0.818-0.253,1.07c-5.045,4.358-2.27,9.664-2.27,9.664l11.432-5.156
			c-0.113-0.4-0.262-1.256,0.283-1.828c0.48-0.508,1.106-0.601,1.478-0.604c-0.58-2.268-0.188-4.402-0.188-4.402
			s-0.555-0.093-1.437-0.147c-0.095-0.19-0.308-0.517-0.662-0.533c-0.435-0.021-0.629,0.276-0.713,0.495
			c-0.872,0.004-1.875,0.066-2.903,0.247c-0.121-0.212-0.406-0.603-0.852-0.493c-0.447,0.107-0.551,0.581-0.574,0.82
			c-0.824,0.24-1.634,0.572-2.375,1.029C263.055,114.321,262.672,114.042,262.243,114.306z"/>
		
			<linearGradient id="SVGID_1_" gradientUnits="userSpaceOnUse" x1="669.3926" y1="423.3066" x2="684.4782" y2="414.6861" gradientTransform="matrix(1 0 0 1 -407 -294)">
			<stop  offset="0.0301" style="stop-color:#7C2016"/>
			<stop  offset="0.4929" style="stop-color:#AF2522"/>
			<stop  offset="0.9589" style="stop-color:#4C1600"/>
		</linearGradient>
		<path fill="url(#SVGID_1_)" d="M270.121,129.517c0.829-0.265,1.609-0.659,2.328-1.129c0.197,0.139,0.621,0.367,0.996,0.102
			c0.373-0.27,0.266-0.738,0.181-0.969c0.808-0.662,1.509-1.383,2.081-2.038c0.223,0.077,0.572,0.122,0.84-0.222
			c0.219-0.279,0.11-0.651,0.026-0.849c0.532-0.704,0.825-1.187,0.825-1.187s-1.875-1.096-3.215-3.015
			c-0.246,0.279-0.725,0.694-1.423,0.729c-0.788,0.039-1.34-0.631-1.571-0.979l-11.36,5.307c0,0,2.213,5.564,8.806,4.578
			c0.146,0.223,0.5,0.662,0.979,0.508C270.092,130.204,270.129,129.731,270.121,129.517z M268.719,124.577
			c-0.059-0.126-0.455-0.891,0.514-1.387c0.81-0.416,1.268,0.158,1.375,0.346c0.109,0.189,0.349,0.992-0.559,1.43
			C269.123,125.412,268.775,124.702,268.719,124.577z M273.741,122.793c0,0,0.784-0.62,1.231,0.13
			c0.377,0.631-0.209,1.484-0.399,1.639c-0.188,0.152-0.917,0.695-1.386-0.039C272.879,124.036,273.262,123.166,273.741,122.793z
			 M265.896,128.177c-0.151-0.389-0.252-0.929,0.601-1.342c0.746-0.361,1.323,0.281,1.466,0.545c0,0,0.36,0.784-0.492,1.245
			C266.67,129.058,266.018,128.489,265.896,128.177z"/>
		
			<linearGradient id="SVGID_2_" gradientUnits="userSpaceOnUse" x1="665.1895" y1="415.9561" x2="680.2755" y2="407.3353" gradientTransform="matrix(1 0 0 1 -407 -294)">
			<stop  offset="0.0301" style="stop-color:#7C2016"/>
			<stop  offset="0.4929" style="stop-color:#AF2522"/>
			<stop  offset="0.9589" style="stop-color:#4C1600"/>
		</linearGradient>
		<path fill="url(#SVGID_2_)" d="M262.243,114.306c-0.429,0.264-0.326,0.818-0.253,1.07c-5.045,4.358-2.27,9.664-2.27,9.664
			l11.432-5.156c-0.113-0.4-0.262-1.256,0.283-1.828c0.48-0.508,1.106-0.601,1.478-0.604c-0.58-2.268-0.188-4.402-0.188-4.402
			s-0.555-0.093-1.437-0.147c-0.095-0.19-0.308-0.517-0.662-0.533c-0.435-0.021-0.629,0.276-0.713,0.495
			c-0.872,0.004-1.875,0.066-2.903,0.247c-0.121-0.212-0.406-0.603-0.852-0.493c-0.447,0.107-0.551,0.581-0.574,0.82
			c-0.824,0.24-1.634,0.572-2.375,1.029C263.055,114.321,262.672,114.042,262.243,114.306z M266.615,117.488
			c0.923-0.399,1.377,0.302,1.449,0.509c0.071,0.204,0.207,0.926-0.633,1.268c-1.009,0.412-1.33-0.389-1.39-0.515
			C265.984,118.625,265.674,117.897,266.615,117.488z M268.999,115.396c-0.251-0.832,0.634-1.03,0.875-1.075
			c0.239-0.045,1.271,0.069,1.502,0.767c0.278,0.828-0.706,1.02-0.706,1.02C270.074,116.226,269.165,115.948,268.999,115.396z
			 M262.16,117.058c0.904-0.347,1.266,0.438,1.266,0.438c0.106,0.276,0.217,1.136-0.543,1.466c-0.869,0.377-1.213-0.05-1.408-0.418
			C261.316,118.248,261.311,117.384,262.16,117.058z"/>
		<path fill="#7AA52A" d="M278.371,118.992c0.016,0.028,0.025,0.045,0.025,0.045s0.457,0.53,2.778,0.835c0,0,0.183,0.02,0.209-0.096
			c0.028-0.114-0.021-0.377-0.151-0.621c0,0-0.084-0.113-0.233-0.086c-0.149,0.027-0.752,0.041-1.208-0.043
			c-0.471-0.09-0.801-0.243-1.393-0.732c-0.008-0.007-0.017-0.013-0.023-0.02c0.061-0.344,0.1-0.944-0.18-1.594
			c-0.262-0.612-0.666-0.951-0.961-1.129c0.024-0.638,0.127-0.965,0.347-1.341c0.231-0.401,0.636-0.852,0.755-0.944
			c0.118-0.097,0.086-0.233,0.086-0.233c-0.1-0.261-0.266-0.467-0.371-0.521c-0.105-0.054-0.209,0.097-0.209,0.097
			c-0.984,1.503-1.152,2.261-1.177,2.532c-1.487-1.666-3.47-2.146-3.47-2.146s-0.406,2.258,1.18,5.865
			c1.27,2.892,3.352,3.914,3.352,3.914C278.479,121.138,278.448,119.681,278.371,118.992z M274.346,115.899
			c-0.582-0.494-0.5-0.825-0.463-1.209c0.039-0.396,0.368-0.881,0.418-0.924c0.051-0.043,0.104-0.066,0.271-0.012
			c0.166,0.055,1.146,0.508,2.506,2.1c0,0,0.123,0.156,0.035,0.187C277.111,116.041,275.363,116.763,274.346,115.899z
			 M276.621,116.675c-0.076-0.209,0.4-0.389,0.4-0.389c0.084-0.039,0.521-0.189,0.574-0.052c0.053,0.139-0.257,0.321-0.384,0.38
			C277.088,116.673,276.695,116.882,276.621,116.675z M277.74,117.772c-0.127,0.057-0.521,0.258-0.594,0.046
			c-0.07-0.21,0.41-0.377,0.41-0.377c0.086-0.037,0.526-0.177,0.577-0.038C278.184,117.543,277.867,117.72,277.74,117.772z
			 M277.848,121.492c-0.065,0.009-0.647-0.056-0.974-0.284c-0.313-0.222-0.618-0.375-0.614-1.141
			c0.008-1.333,1.694-2.188,1.694-2.188c0.081-0.049,0.12,0.146,0.12,0.146c0.318,2.066,0.025,3.105-0.043,3.27
			C277.965,121.459,277.914,121.482,277.848,121.492z"/>
		<path fill="#1F1E21" d="M278.371,118.992c0.016,0.028,0.025,0.045,0.025,0.045s0.457,0.53,2.778,0.835c0,0,0.183,0.02,0.209-0.096
			c0.028-0.114-0.021-0.377-0.151-0.621c0,0-0.084-0.113-0.233-0.086c-0.149,0.027-0.752,0.041-1.208-0.043
			c-0.471-0.09-0.801-0.243-1.393-0.732c-0.008-0.007-0.017-0.013-0.023-0.02c0.061-0.344,0.1-0.944-0.18-1.594
			c-0.262-0.612-0.666-0.951-0.961-1.129c0.024-0.638,0.127-0.965,0.347-1.341c0.231-0.401,0.636-0.852,0.755-0.944
			c0.118-0.097,0.086-0.233,0.086-0.233c-0.1-0.261-0.266-0.467-0.371-0.521c-0.105-0.054-0.209,0.097-0.209,0.097
			c-0.984,1.503-1.152,2.261-1.177,2.532c-1.487-1.666-3.47-2.146-3.47-2.146s-0.406,2.258,1.18,5.865
			c1.27,2.892,3.352,3.914,3.352,3.914C278.479,121.138,278.448,119.681,278.371,118.992z M274.346,115.899
			c-0.582-0.494-0.5-0.825-0.463-1.209c0.039-0.396,0.368-0.881,0.418-0.924c0.051-0.043,0.104-0.066,0.271-0.012
			c0.166,0.055,1.146,0.508,2.506,2.1c0,0,0.123,0.156,0.035,0.187C277.111,116.041,275.363,116.763,274.346,115.899z
			 M276.621,116.675c-0.076-0.209,0.4-0.389,0.4-0.389c0.084-0.039,0.521-0.189,0.574-0.052c0.053,0.139-0.257,0.321-0.384,0.38
			C277.088,116.673,276.695,116.882,276.621,116.675z M277.74,117.772c-0.127,0.057-0.521,0.258-0.594,0.046
			c-0.07-0.21,0.41-0.377,0.41-0.377c0.086-0.037,0.526-0.177,0.577-0.038C278.184,117.543,277.867,117.72,277.74,117.772z
			 M277.848,121.492c-0.065,0.009-0.647-0.056-0.974-0.284c-0.313-0.222-0.618-0.375-0.614-1.141
			c0.008-1.333,1.694-2.188,1.694-2.188c0.081-0.049,0.12,0.146,0.12,0.146c0.318,2.066,0.025,3.105-0.043,3.27
			C277.965,121.459,277.914,121.482,277.848,121.492z"/>
		<path fill="#FFFFFF" d="M274.301,113.767c0,0,0.932,0.42,1.782,1.121c0.657,0.541,1.028,1.152,1.028,1.152
			s-1.379,0.452-2.182,0.25c-0.544-0.135-1.021-0.699-1.054-1.152C273.828,114.438,274.301,113.767,274.301,113.767z"/>
		<path fill="#FFFFFF" d="M277.833,121.566c0,0,0.324-0.968,0.39-2.068c0.051-0.849-0.146-1.538-0.146-1.538
			s-1.269,0.704-1.667,1.43c-0.271,0.492-0.182,1.225,0.13,1.557C277.02,121.459,277.833,121.566,277.833,121.566z"/>
	</g>
</g>
</svg>
