<?xml version="1.0" encoding="utf-8"?>
<!-- Generator: Adobe Illustrator 16.0.4, SVG Export Plug-In . SVG Version: 6.00 Build 0)  -->
<!DOCTYPE svg PUBLIC "-//W3C//DTD SVG 1.1//EN" "http://www.w3.org/Graphics/SVG/1.1/DTD/svg11.dtd">
<svg version="1.1" id="Calque_1" xmlns="http://www.w3.org/2000/svg" xmlns:xlink="http://www.w3.org/1999/xlink" x="0px" y="0px"
	 width="31.875px" height="30.205px" viewBox="0 0 31.875 30.205" enable-background="new 0 0 31.875 30.205" xml:space="preserve">
<g>
	<path fill="#666666" d="M18.892,7.192c-0.297-0.584-0.688-1.117-1.123-1.595c0.078-0.161,0.197-0.507-0.047-0.754
		C17.476,4.6,17.14,4.739,16.98,4.827c-0.59-0.519-1.212-0.953-1.77-1.297c0.031-0.176,0.022-0.439-0.266-0.6
		c-0.236-0.127-0.5-0.002-0.636,0.084c-0.588-0.311-0.981-0.469-0.981-0.469s-0.586,1.527-1.85,2.759
		c0.236,0.149-1.854,1.558-1.902,1.281C7.96,7.294,6.323,7.263,6.323,7.263s0,0.424,0.065,1.087C6.259,8.442,6.04,8.641,6.073,8.907
		c0.038,0.326,0.28,0.435,0.454,0.47c0.109,0.647,0.278,1.387,0.538,2.131c-0.143,0.114-0.398,0.374-0.263,0.692
		c0.135,0.318,0.499,0.336,0.68,0.328c0.279,0.582,1.701,2.521,1.881,2.437c3.156,2.636,6.146,1.301,7.128,0.728
		c0.119-0.069,0.324-0.215,0.488-0.332l0.006,0.01c0,0,3.871-2.325,2.334-7.11c0.148-0.133,0.432-0.451,0.26-0.789
		C19.408,7.132,19.05,7.161,18.892,7.192z"/>
	<path opacity="0.5" fill="#5A5959" enable-background="new    " d="M18.994,7.604c-0.869,0.414-3.731,1.784-5.315,2.782
		c-1.367,0.862-3.852,2.954-4.69,3.724c0.085,0.146,0.171,0.299,0.255,0.453c1.192-1.031,3.436-2.488,4.805-3.351
		c1.677-1.056,4.266-2.685,5.112-3.127C19.103,7.924,19.046,7.765,18.994,7.604z"/>
	<path opacity="0.5" fill="#5A5959" enable-background="new    " d="M19.638,10.778c-0.805,0.639-2.602,2.043-3.881,2.906
		c-1.303,0.879-3.875,1.846-5.006,2.25c0.254,0.086,0.496,0.213,0.727,0.364c0.839-0.269,3.369-1.136,4.578-1.897
		c1.018-0.641,2.551-1.924,3.502-2.746C19.578,11.368,19.589,11.071,19.638,10.778z"/>
	<path opacity="0.5" fill="#5A5959" enable-background="new    " d="M19.164,9.028c0,0-2.812,2.014-4.592,3.174
		c-1.431,0.934-4.131,2.25-5.142,2.732c0.022,0.049,0.044,0.096,0.065,0.145c0.03,0.039,0.062,0.08,0.092,0.121l0.479,0.065
		c0.429-0.188,3.345-1.541,4.75-2.426c1.628-1.024,4.707-3.367,4.707-3.367L19.164,9.028z"/>
	<path opacity="0.7" fill="#D1D0D1" enable-background="new    " d="M8.37,7.882c0,0,0.783,4.25-0.176,6.191
		c-0.956,1.944,0.221,7.093,2.002,9.485c1.781,2.395,5.58,3.557,5.58,3.557s1.862-4.512,0.504-6.939
		c-1.356-2.429-2.822-2.919-4.296-5.066C10.593,13.091,8.37,7.882,8.37,7.882z"/>
	<path opacity="0.7" fill="#9F9F9F" enable-background="new    " d="M9.887,5.814c0,0-2.247,5.744-2.571,7.352
		c-0.323,1.606,1.774,5.65,3.73,7.46c1.951,1.812,5.231,2.521,5.231,2.521s0.46-3.711-1.166-5.569
		c-1.621-1.865-2.809-2.821-4.056-4.638C9.778,11.079,9.887,5.814,9.887,5.814z"/>
	<path opacity="0.7" fill="#D1D0D1" enable-background="new    " d="M12.37,4.526c0,0,4.086,2.069,6.063,1.747
		c1.977-0.324,6.908,2.404,9.104,4.857c2.195,2.456,3.025,6.475,3.025,6.475s-4.557,0.397-6.82-1.659
		c-2.262-2.056-2.621-3.619-4.602-5.702C17.279,8.28,12.37,4.526,12.37,4.526z"/>
	<path opacity="0.7" fill="#9F9F9F" enable-background="new    " d="M9.914,5.612c0,0,5.794-0.387,7.39-0.202
		c1.594,0.186,5.375,3.454,6.986,5.895s2.043,5.819,2.043,5.819s-3.662-0.7-5.35-2.841c-1.688-2.143-2.525-3.579-4.203-5.341
		C15.067,7.136,9.914,5.612,9.914,5.612z"/>
	<polygon fill="#FFFFFF" points="8.19,4.237 7.934,3.36 8.523,2.767 9.028,2.569 9.325,2.683 9.794,3.975 	"/>
	<path fill="#1F1E21" d="M6.389,8.349L6.227,6.917l0.621-1.77l1.423-0.656l1.182-0.039l0.909-1.221l2.251-0.752l0.715,0.065
		l0.529,1.914L13.27,7.196c0,0-1.669,1.748-2.666,1.788S6.389,8.349,6.389,8.349z"/>
	<path fill="#7AA52A" d="M10.057,2.338c0.021-0.015,0.03-0.024,0.03-0.024s0.341-0.404,0.285-2.17c0,0-0.01-0.138-0.099-0.144
		c-0.088-0.007-0.276,0.062-0.442,0.188c0,0-0.074,0.075-0.035,0.184c0.039,0.107,0.123,0.556,0.113,0.904
		c-0.008,0.36-0.082,0.625-0.373,1.125C9.53,2.407,9.527,2.415,9.524,2.421C9.262,2.418,8.809,2.463,8.359,2.749
		C7.937,3.019,7.732,3.36,7.637,3.603c-0.476,0.057-0.732,0.021-1.04-0.096C6.271,3.383,5.888,3.139,5.803,3.062
		C5.718,2.985,5.62,3.024,5.62,3.024C5.438,3.13,5.305,3.28,5.277,3.364C5.251,3.45,5.376,3.51,5.376,3.51
		c1.236,0.547,1.82,0.58,2.025,0.565C6.345,5.386,6.229,6.917,6.229,6.917s1.729,0.027,4.22-1.592
		c1.996-1.297,2.504-2.969,2.504-2.969C11.642,1.996,10.561,2.196,10.057,2.338z M8.247,5.707C7.95,6.202,7.692,6.182,7.403,6.2
		C7.106,6.22,6.704,6.032,6.665,6.001C6.626,5.969,6.604,5.934,6.624,5.802c0.021-0.131,0.238-0.915,1.256-2.12
		c0,0,0.103-0.11,0.136-0.049C8.016,3.633,8.766,4.846,8.247,5.707z M8.544,3.923C8.399,4.005,8.208,3.672,8.208,3.672
		C8.169,3.612,8.003,3.306,8.102,3.25c0.097-0.056,0.271,0.153,0.329,0.239C8.487,3.575,8.691,3.84,8.544,3.923z M9.228,2.955
		c0.057,0.088,0.255,0.358,0.105,0.436c-0.146,0.079-0.33-0.258-0.33-0.258C8.966,3.075,8.808,2.761,8.902,2.708
		C9.001,2.653,9.171,2.866,9.228,2.955z M11.98,2.422c0.015,0.048,0.038,0.489-0.093,0.759c-0.125,0.26-0.203,0.506-0.773,0.596
		c-0.992,0.154-1.836-0.994-1.836-0.994C9.235,2.728,9.376,2.675,9.376,2.675c1.498-0.488,2.308-0.396,2.438-0.367
		C11.94,2.34,11.966,2.374,11.98,2.422z"/>
	<path fill="#1F1E21" d="M10.057,2.338c0.021-0.015,0.03-0.024,0.03-0.024s0.341-0.404,0.285-2.17c0,0-0.01-0.138-0.099-0.144
		c-0.088-0.007-0.276,0.062-0.442,0.188c0,0-0.074,0.075-0.035,0.184c0.039,0.107,0.123,0.556,0.113,0.904
		c-0.008,0.36-0.082,0.625-0.373,1.125C9.53,2.407,9.527,2.415,9.524,2.421C9.262,2.418,8.809,2.463,8.359,2.749
		C7.937,3.019,7.732,3.36,7.637,3.603c-0.476,0.057-0.732,0.021-1.04-0.096C6.271,3.383,5.888,3.139,5.803,3.062
		C5.718,2.985,5.62,3.024,5.62,3.024C5.438,3.13,5.305,3.28,5.277,3.364C5.251,3.45,5.376,3.51,5.376,3.51
		c1.236,0.547,1.82,0.58,2.025,0.565C6.345,5.386,6.229,6.917,6.229,6.917s1.729,0.027,4.22-1.592
		c1.996-1.297,2.504-2.969,2.504-2.969C11.642,1.996,10.561,2.196,10.057,2.338z M8.247,5.707C7.95,6.202,7.692,6.182,7.403,6.2
		C7.106,6.22,6.704,6.032,6.665,6.001C6.626,5.969,6.604,5.934,6.624,5.802c0.021-0.131,0.238-0.915,1.256-2.12
		c0,0,0.103-0.11,0.136-0.049C8.016,3.633,8.766,4.846,8.247,5.707z M8.544,3.923C8.399,4.005,8.208,3.672,8.208,3.672
		C8.169,3.612,8.003,3.306,8.102,3.25c0.097-0.056,0.271,0.153,0.329,0.239C8.487,3.575,8.691,3.84,8.544,3.923z M9.228,2.955
		c0.057,0.088,0.255,0.358,0.105,0.436c-0.146,0.079-0.33-0.258-0.33-0.258C8.966,3.075,8.808,2.761,8.902,2.708
		C9.001,2.653,9.171,2.866,9.228,2.955z M11.98,2.422c0.015,0.048,0.038,0.489-0.093,0.759c-0.125,0.26-0.203,0.506-0.773,0.596
		c-0.992,0.154-1.836-0.994-1.836-0.994C9.235,2.728,9.376,2.675,9.376,2.675c1.498-0.488,2.308-0.396,2.438-0.367
		C11.94,2.34,11.966,2.374,11.98,2.422z"/>
	<path fill="#FFFFFF" d="M6.665,6.001c0,0,0.201-0.742,0.617-1.461c0.323-0.555,0.733-0.907,0.733-0.907s0.503,0.972,0.45,1.593
		C8.434,5.647,8.071,6.069,7.737,6.149C7.223,6.272,6.665,6.001,6.665,6.001z"/>
	<path fill="#FFFFFF" d="M12.038,2.424c0,0-0.756-0.124-1.586-0.038C9.814,2.452,9.327,2.682,9.327,2.682s0.68,0.858,1.266,1.066
		c0.398,0.141,0.934-0.015,1.143-0.287C12.058,3.043,12.038,2.424,12.038,2.424z"/>
	
		<ellipse transform="matrix(-0.5946 -0.804 0.804 -0.5946 11.9476 18.7165)" fill="#1F1E21" cx="10.692" cy="6.346" rx="1.261" ry="3.556"/>
	
		<linearGradient id="SVGID_1_" gradientUnits="userSpaceOnUse" x1="290.6411" y1="-768.8506" x2="304.1462" y2="-761.1333" gradientTransform="matrix(0.0592 -0.9982 0.9982 0.0592 753.0084 353.6915)">
		<stop  offset="0.0301" style="stop-color:#7C2016"/>
		<stop  offset="0.4929" style="stop-color:#AF2522"/>
		<stop  offset="0.9589" style="stop-color:#4C1600"/>
	</linearGradient>
	<path fill="url(#SVGID_1_)" d="M1.249,14.965C1.759,19.17,6.7,20.481,6.7,20.481l1.735-8.865c0.392-1.53,1.342-5.539,1.396-6.051
		C8.708,6.253,7.43,6.464,7.43,6.464S5.847,6.96,4.876,7.59C3.837,8.266,0.749,10.84,1.249,14.965z"/>
	
		<linearGradient id="SVGID_2_" gradientUnits="userSpaceOnUse" x1="191.6128" y1="-914.5576" x2="205.0724" y2="-906.8663" gradientTransform="matrix(-0.9116 -0.4111 -0.4111 0.9116 -176.3341 917.5687)">
		<stop  offset="0.0301" style="stop-color:#7C2016"/>
		<stop  offset="0.4929" style="stop-color:#AF2522"/>
		<stop  offset="0.9589" style="stop-color:#4C1600"/>
	</linearGradient>
	<path fill="url(#SVGID_2_)" d="M14.095,2.416c-1.023,0.542-1.623,1.291-1.623,1.291s-0.78,1.034-1.91,1.711
		c0.479,0.19,4.471,1.208,6.006,1.573l8.658,2.578c0,0,1.049-5.205-2.602-7.354C19.603,0.438,16.124,1.34,14.095,2.416z"/>
	
		<ellipse transform="matrix(-0.5331 -0.846 0.846 -0.5331 2.738 20.0529)" fill="#C22981" cx="6.902" cy="9.271" rx="0.796" ry="1.054"/>
	
		<ellipse transform="matrix(-0.9999 -0.0117 0.0117 -0.9999 11.5474 25.371)" fill="#82B352" cx="5.848" cy="12.652" rx="0.796" ry="1.055"/>
	
		<ellipse transform="matrix(-0.9999 -0.0122 0.0122 -0.9999 7.0266 28.9922)" fill="#E5AC35" cx="3.602" cy="14.475" rx="0.797" ry="1.056"/>
	
		<ellipse transform="matrix(-0.9999 -0.0123 0.0123 -0.9999 28.9347 9.0506)" fill="#3D80AF" cx="14.495" cy="4.437" rx="0.796" ry="1.055"/>
	
		<ellipse transform="matrix(-0.9261 -0.3773 0.3773 -0.9261 31.537 16.457)" fill="#9EC598" cx="17.38" cy="5.14" rx="0.797" ry="0.996"/>
	
		<ellipse transform="matrix(-0.8206 0.5716 -0.5716 -0.8206 39.627 -4.314)" fill="#C22981" cx="20.491" cy="4.063" rx="0.796" ry="0.995"/>
</g>
</svg>
