<?xml version="1.0" encoding="utf-8"?>
<!-- Generator: Adobe Illustrator 16.0.4, SVG Export Plug-In . SVG Version: 6.00 Build 0)  -->
<!DOCTYPE svg PUBLIC "-//W3C//DTD SVG 1.1//EN" "http://www.w3.org/Graphics/SVG/1.1/DTD/svg11.dtd">
<svg version="1.1" id="Calque_1" xmlns="http://www.w3.org/2000/svg" xmlns:xlink="http://www.w3.org/1999/xlink" x="0px" y="0px"
	 width="435px" height="300px" viewBox="0 0 435 300" enable-background="new 0 0 435 300" xml:space="preserve">
<g>
	<path fill="#606060" d="M168.99,280.716c0,0.93-0.352,1.428-1.107,1.428c-0.721,0-1.107-0.498-1.107-1.428v-0.479h-0.033
		c-0.403,1.283-1.393,1.904-2.583,1.904c-2.047,0-3.841-1.842-3.841-5.752c0-2.896,1.19-5.606,3.774-5.606
		c1.09,0,1.928,0.56,2.415,1.53h0.033v-4.094c0-0.994,0.487-1.514,1.225-1.514c0.738,0,1.225,0.52,1.225,1.514L168.99,280.716
		L168.99,280.716z M164.712,279.783c1.425,0,1.963-1.571,1.963-3.289c0-1.552-0.47-3.372-1.963-3.353
		c-1.561,0-1.945,1.941-1.945,3.353C162.766,278.274,163.402,279.741,164.712,279.783z"/>
	<path fill="#606060" d="M172.515,266.708c1.091,0,1.577,1.199,1.577,2.608c0,1.405-0.336,2.108-0.856,2.771
		c-0.251,0.289-1.006,0.889-1.526,0.889c-0.369,0-0.57-0.289-0.57-0.617c0-0.91,1.694-0.436,1.779-2.547
		c-0.152,0.104-0.336,0.188-0.57,0.188c-0.772,0-1.208-0.767-1.208-1.594C171.14,267.474,171.76,266.708,172.515,266.708z"/>
	<path fill="#606060" d="M178.321,277.032c0,1.593,0.839,2.751,2.264,2.751c1.845,0,1.845-1.489,2.834-1.489
		c0.587,0,1.006,0.62,1.006,1.18c0,1.822-2.365,2.67-3.841,2.67c-3.422,0-4.715-2.854-4.715-5.481c0-3.519,1.729-5.875,4.63-5.875
		c2.818,0,4.429,2.463,4.429,4.942c0,1.035-0.251,1.307-1.074,1.307h-5.535v-0.003L178.321,277.032L178.321,277.032z
		 M182.615,275.294c-0.133-1.387-0.972-2.398-2.063-2.398c-1.225,0-1.962,0.933-2.231,2.398H182.615z M180.703,266.832
		c0.335-0.331,0.721-0.704,1.124-0.704c0.671,0,0.906,0.725,0.906,1.141c0,0.392-0.218,0.785-0.621,1.115l-1.51,1.262
		c-0.418,0.354-0.604,0.373-0.771,0.373c-0.386,0-0.855-0.312-0.855-1.015c0-0.372,0.117-0.62,0.486-0.991L180.703,266.832z"/>
	<path fill="#606060" d="M190.637,270.783c2.047,0,3.573,1.429,3.573,2.833c0,0.869-0.52,1.305-1.141,1.305
		c-1.157,0-0.737-1.779-2.5-1.779c-0.956,0-2.08,0.809-2.08,3.539c0,1.885,0.721,3.104,2.063,3.104c1.712,0,1.342-1.944,2.634-1.944
		c0.62,0,1.023,0.561,1.023,1.159c0,1.323-1.208,3.146-3.724,3.146c-3.019,0-4.445-2.297-4.445-5.461
		C186.041,273.205,187.635,270.783,190.637,270.783z"/>
	<path fill="#606060" d="M199.682,270.783c2.953,0,4.529,2.483,4.529,5.668c0,3.021-1.191,5.69-4.529,5.69
		c-3.338,0-4.53-2.672-4.53-5.69C195.152,273.267,196.729,270.783,199.682,270.783z M199.682,279.908c1.46,0,2.08-1.615,2.08-3.454
		c0-1.966-0.654-3.436-2.08-3.436c-1.426,0-2.08,1.47-2.08,3.436C197.602,278.293,198.222,279.908,199.682,279.908z"/>
	<path fill="#606060" d="M205.791,272.293c0-0.909,0.437-1.51,1.158-1.51c0.721,0,1.158,0.601,1.158,1.51v0.394h0.034
		c0.637-1.198,1.71-1.901,2.952-1.901c0.839,0,1.896,0.478,2.348,1.901c0.688-1.18,1.56-1.901,2.886-1.901
		c1.694,0,3.053,0.951,3.053,3.662v6.188c0,0.807-0.269,1.51-1.226,1.51c-0.956,0-1.224-0.703-1.224-1.51v-5.42
		c0-1.076-0.386-1.945-1.342-1.945c-0.939,0-1.778,0.933-1.778,2.338v5.027c0,0.807-0.269,1.512-1.225,1.512
		s-1.224-0.705-1.224-1.512v-5.42c0-1.074-0.386-1.943-1.342-1.943c-0.939,0-1.778,0.932-1.778,2.337v5.028
		c0,0.808-0.268,1.51-1.225,1.51c-0.956,0-1.225-0.702-1.225-1.51V272.293L205.791,272.293z"/>
	<path fill="#606060" d="M225.491,270.783c2.95,0,4.528,2.483,4.528,5.668c0,3.021-1.191,5.69-4.528,5.69
		c-3.339,0-4.529-2.672-4.529-5.69C220.962,273.267,222.538,270.783,225.491,270.783z M225.491,279.908
		c1.46,0,2.079-1.615,2.079-3.454c0-1.966-0.654-3.436-2.079-3.436c-1.427,0-2.081,1.47-2.081,3.436
		C223.41,278.293,224.031,279.908,225.491,279.908z"/>
	<path fill="#606060" d="M231.602,268.22c0-0.992,0.486-1.512,1.226-1.512s1.226,0.52,1.226,1.512v4.097h0.032
		c0.483-0.974,1.325-1.531,2.415-1.531c2.584,0,3.773,2.711,3.773,5.604c0,3.91-1.797,5.752-3.842,5.752
		c-1.192,0-2.181-0.621-2.584-1.902h-0.033v0.479c0,0.933-0.387,1.428-1.105,1.428c-0.755,0-1.105-0.495-1.105-1.428V268.22H231.602
		z M235.879,273.142c-1.492-0.021-1.964,1.801-1.964,3.353c0,1.718,0.536,3.289,1.964,3.289c1.309-0.04,1.944-1.509,1.944-3.289
		C237.823,275.085,237.438,273.142,235.879,273.142z"/>
	<path fill="#606060" d="M243.211,266.627c0.706,0,1.273,0.703,1.273,1.571c0,0.869-0.569,1.572-1.273,1.572
		c-0.702,0-1.273-0.703-1.273-1.572C241.938,267.33,242.509,266.627,243.211,266.627z M241.986,272.293
		c0-0.805,0.27-1.51,1.225-1.51c0.957,0,1.225,0.705,1.225,1.51v8.339c0,0.805-0.268,1.51-1.225,1.51
		c-0.955,0-1.225-0.705-1.225-1.51V272.293z"/>
	<path fill="#606060" d="M246.652,268.22c0-0.992,0.486-1.512,1.224-1.512c0.739,0,1.226,0.52,1.226,1.512v12.412
		c0,0.992-0.484,1.512-1.226,1.512c-0.737,0-1.224-0.52-1.224-1.512V268.22z"/>
	<path fill="#606060" d="M252.542,266.627c0.706,0,1.274,0.703,1.274,1.571c0,0.869-0.571,1.572-1.274,1.572
		s-1.274-0.703-1.274-1.572C251.268,267.33,251.839,266.627,252.542,266.627z M251.316,272.293c0-0.805,0.269-1.51,1.226-1.51
		c0.955,0,1.224,0.705,1.224,1.51v8.339c0,0.805-0.269,1.51-1.224,1.51c-0.957,0-1.226-0.705-1.226-1.51V272.293z"/>
	<path fill="#606060" d="M256.484,273.038h-0.42c-0.688,0-0.975-0.33-0.975-0.992s0.287-0.992,0.975-0.992h0.42v-1.842
		c0-0.992,0.486-1.511,1.226-1.511c0.74,0,1.226,0.519,1.226,1.511v1.842h0.737c0.722,0,1.106,0.271,1.106,0.992
		c0,0.725-0.387,0.992-1.106,0.992h-0.737v6.042c0,0.455,0.201,0.703,0.639,0.703h0.351c0.537,0,0.855,0.373,0.855,1.017
		c0,0.866-0.604,1.344-1.776,1.344c-1.777,0-2.52-0.909-2.52-2.688V273.038L256.484,273.038z"/>
	<path fill="#606060" d="M264.137,277.032c0,1.593,0.84,2.751,2.264,2.751c1.848,0,1.848-1.489,2.836-1.489
		c0.588,0,1.008,0.62,1.008,1.18c0,1.822-2.366,2.67-3.844,2.67c-3.42,0-4.713-2.854-4.713-5.481c0-3.519,1.729-5.875,4.629-5.875
		c2.817,0,4.431,2.463,4.431,4.942c0,1.035-0.252,1.307-1.074,1.307h-5.532v-0.003L264.137,277.032L264.137,277.032z
		 M268.432,275.294c-0.134-1.387-0.974-2.398-2.062-2.398c-1.226,0-1.966,0.933-2.229,2.398H268.432z M266.52,266.832
		c0.336-0.331,0.722-0.704,1.123-0.704c0.67,0,0.904,0.725,0.904,1.141c0,0.392-0.217,0.785-0.62,1.115l-1.51,1.262
		c-0.417,0.354-0.604,0.373-0.771,0.373c-0.388,0-0.855-0.312-0.855-1.015c0-0.372,0.115-0.62,0.486-0.991L266.52,266.832z"/>
</g>
</svg>
