<?xml version="1.0" encoding="utf-8"?>
<!-- Generator: Adobe Illustrator 16.0.4, SVG Export Plug-In . SVG Version: 6.00 Build 0)  -->
<!DOCTYPE svg PUBLIC "-//W3C//DTD SVG 1.1//EN" "http://www.w3.org/Graphics/SVG/1.1/DTD/svg11.dtd">
<svg version="1.1" id="Calque_1" xmlns="http://www.w3.org/2000/svg" xmlns:xlink="http://www.w3.org/1999/xlink" x="0px" y="0px"
	 width="435px" height="300px" viewBox="0 0 435 300" enable-background="new 0 0 435 300" xml:space="preserve">
<g id="Calque_1_1_" display="none">
	<path display="inline" fill="#77579C" d="M200.409,93.543c3.058-0.43,5.186-3.257,4.757-6.312c-0.43-3.058-3.257-5.188-6.313-4.758
		c-3.056,0.429-5.187,3.257-4.755,6.313C194.527,91.844,197.351,93.974,200.409,93.543"/>
	<path display="inline" fill="#77579C" d="M300.076,215.477c2.477-0.346,4.203-2.635,3.854-5.113
		c-0.35-2.475-2.638-4.195-5.113-3.854c-2.478,0.348-4.197,2.639-3.854,5.114C295.312,214.098,297.6,215.824,300.076,215.477"/>
	<path display="inline" fill="#E6AD34" d="M286.904,218.723c2.478-0.348,4.203-2.638,3.854-5.113
		c-0.347-2.476-2.635-4.197-5.113-3.854c-2.476,0.35-4.201,2.639-3.854,5.112C282.141,217.344,284.43,219.07,286.904,218.723"/>
	<path display="inline" fill="#77579C" d="M122.639,219.82c3.288-0.461,5.58-3.502,5.117-6.791
		c-0.462-3.286-3.502-5.579-6.791-5.116c-3.287,0.461-5.579,3.502-5.117,6.791C116.311,217.991,119.352,220.283,122.639,219.82"/>
	<path display="inline" fill="#77579C" d="M329.001,145.979c2.156-0.304,3.661-2.299,3.356-4.458
		c-0.309-2.158-2.299-3.659-4.455-3.357c-2.157,0.302-3.661,2.3-3.358,4.456C324.85,144.778,326.843,146.28,329.001,145.979"/>
	<path display="inline" fill="#E6AD34" d="M140.391,111.216c3.143,0,5.69-2.549,5.69-5.689c0-3.141-2.547-5.688-5.69-5.688
		c-3.141,0-5.688,2.548-5.688,5.688C134.703,108.667,137.25,111.216,140.391,111.216"/>
	<path display="inline" fill="#E6AD34" d="M240.802,137.936c2.898,0,5.248-2.35,5.248-5.25c0-2.898-2.35-5.25-5.248-5.25
		c-2.897,0-5.249,2.352-5.249,5.25C235.553,135.585,237.902,137.936,240.802,137.936"/>
	<path display="inline" fill="#E6AD34" d="M246.229,204.365c2.313,0,4.188-1.877,4.188-4.188c0-2.311-1.874-4.187-4.188-4.187
		c-2.312,0-4.187,1.873-4.187,4.187C242.042,202.491,243.918,204.365,246.229,204.365"/>
	<path display="inline" fill="#E6AD34" d="M145.79,216.146c2.851,0,5.163-2.312,5.163-5.164c0-2.854-2.312-5.164-5.163-5.164
		c-2.852,0-5.164,2.312-5.164,5.164C140.626,213.833,142.938,216.146,145.79,216.146"/>
	<path display="inline" fill="#E6AD34" d="M331.552,164.244c2.31,0,4.183-1.872,4.183-4.184c0-2.312-1.873-4.187-4.183-4.187
		s-4.183,1.874-4.183,4.187C327.369,162.372,329.242,164.244,331.552,164.244"/>
	<path display="inline" fill="#9FC698" d="M329.277,180.503c2.531,0,4.582-2.052,4.582-4.581c0-2.527-2.051-4.58-4.582-4.58
		c-2.528,0-4.582,2.053-4.582,4.58C324.695,178.451,326.749,180.503,329.277,180.503"/>
	<path display="inline" fill="#9FC698" d="M118.511,121.979c1.12,1.726,3.429,2.215,5.156,1.095
		c1.725-1.121,2.217-3.427,1.095-5.156c-1.121-1.726-3.429-2.215-5.154-1.094C117.881,117.945,117.39,120.252,118.511,121.979"/>
	<path display="inline" fill="#9FC698" d="M247.168,124.358c1.371,2.109,4.191,2.709,6.299,1.336c2.114-1.368,2.711-4.188,1.344-6.3
		c-1.371-2.107-4.188-2.709-6.305-1.339C246.396,119.426,245.799,122.246,247.168,124.358"/>
	<path display="inline" fill="#9FC698" d="M100.454,201.98c1.954,3.006,5.977,3.856,8.987,1.908c3.009-1.955,3.865-5.979,1.91-8.988
		c-1.954-3.01-5.978-3.863-8.987-1.91C99.355,194.945,98.499,198.971,100.454,201.98"/>
	<path display="inline" fill="#A9526F" d="M304.878,117.592c1.132,1.742,3.461,2.238,5.202,1.105
		c1.74-1.131,2.234-3.459,1.105-5.201c-1.131-1.742-3.461-2.236-5.201-1.104C304.243,113.523,303.747,115.851,304.878,117.592"/>
	<path display="inline" fill="#9FC698" d="M316.523,129.045c1.131,1.741,3.459,2.239,5.199,1.105
		c1.738-1.131,2.232-3.459,1.104-5.201c-1.135-1.741-3.46-2.236-5.202-1.104C315.887,124.976,315.393,127.304,316.523,129.045"/>
	<path display="inline" fill="#A9526F" d="M214.576,121.643c1.689-1.136,2.133-3.428,0.994-5.116
		c-1.139-1.686-3.428-2.13-5.115-0.995c-1.688,1.139-2.133,3.431-0.995,5.119C210.599,122.338,212.889,122.782,214.576,121.643"/>
	<path display="inline" fill="#A9526F" d="M165.42,203.525c2.076-1.401,2.624-4.219,1.223-6.295
		c-1.399-2.076-4.217-2.623-6.293-1.227c-2.076,1.396-2.624,4.221-1.224,6.295C160.526,204.378,163.345,204.926,165.42,203.525"/>
	<path display="inline" fill="#A9526F" d="M326.675,195.637c2.308-1.557,2.917-4.687,1.36-6.994
		c-1.557-2.307-4.688-2.914-6.993-1.356c-2.308,1.56-2.916,4.688-1.362,6.993C321.238,196.585,324.367,197.193,326.675,195.637"/>
	<path display="inline" fill="#83B451" d="M260.283,210.157c0.898-1.765,0.199-3.929-1.567-4.825
		c-1.766-0.9-3.928-0.198-4.827,1.566c-0.896,1.767-0.197,3.928,1.567,4.83C257.223,212.628,259.384,211.922,260.283,210.157"/>
	<path display="inline" fill="#3D80B0" d="M285.672,118.413c0.901-1.765,0.199-3.927-1.568-4.827
		c-1.767-0.899-3.929-0.197-4.828,1.568c-0.896,1.768-0.192,3.927,1.568,4.83C282.611,120.883,284.771,120.181,285.672,118.413"/>
	<path display="inline" fill="#83B451" d="M282.729,131.579c0.988-1.944,0.215-4.322-1.728-5.311
		c-1.944-0.989-4.321-0.219-5.312,1.725c-0.99,1.944-0.217,4.322,1.726,5.314C279.357,134.296,281.736,133.523,282.729,131.579"/>
	<path display="inline" fill="#C32782" d="M128.484,190.82c1.386-2.307,0.64-5.303-1.667-6.688
		c-2.309-1.387-5.302-0.641-6.689,1.668c-1.386,2.308-0.64,5.304,1.668,6.688C124.103,193.874,127.099,193.128,128.484,190.82"/>
	<path display="inline" fill="#83B451" d="M181.401,188.707c1.387-2.725,0.305-6.057-2.419-7.441
		c-2.722-1.389-6.054-0.306-7.443,2.416c-1.386,2.727-0.303,6.061,2.42,7.44C176.682,192.512,180.013,191.428,181.401,188.707"/>
	<path display="inline" fill="#83B451" d="M317.755,206.218c1.308-2.565,0.287-5.702-2.276-7.011
		c-2.562-1.305-5.703-0.287-7.011,2.277c-1.306,2.562-0.288,5.703,2.277,7.012C313.311,209.802,316.449,208.779,317.755,206.218"/>
	<path display="inline" fill="#3D80B0" d="M158.755,99.402c3.25,0,5.885-2.635,5.885-5.884s-2.635-5.884-5.885-5.884
		s-5.708,2.731-5.708,5.884S155.504,99.402,158.755,99.402"/>
	<path display="inline" fill="#3D80B0" d="M234.971,153.607c2.854,0,5.163-2.313,5.163-5.167s-2.312-5.163-5.163-5.163
		c-2.853,0-5.164,2.312-5.164,5.163S232.118,153.607,234.971,153.607"/>
	<path display="inline" fill="#3D80B0" d="M207.813,140.362c2.543,0,4.606-2.062,4.606-4.606c0-2.546-2.062-4.608-4.606-4.608
		c-2.545,0-4.609,2.062-4.609,4.608C203.204,138.3,205.268,140.362,207.813,140.362"/>
	<path display="inline" fill="#3D80B0" d="M141.912,195.055c2.284,0.159,4.266-1.561,4.426-3.848
		c0.16-2.286-1.562-4.268-3.847-4.425c-2.286-0.16-4.267,1.562-4.425,3.847C137.905,192.911,139.628,194.895,141.912,195.055"/>
	<path display="inline" fill="#C32782" d="M182.469,90.336c3.251-1.656,4.544-5.636,2.888-8.887
		c-1.656-3.252-5.637-4.546-8.887-2.888c-3.252,1.657-4.1,5.649-2.54,8.71C175.491,90.332,179.219,91.993,182.469,90.336"/>
	<path display="inline" fill="#C32782" d="M235.521,172.016c2.511-1.273,3.508-4.352,2.229-6.855
		c-1.279-2.516-4.352-3.512-6.857-2.229c-2.511,1.277-3.506,4.353-2.229,6.857C229.943,172.296,233.014,173.292,235.521,172.016"/>
	<path display="inline" fill="#83B451" d="M239.7,189.453c2.347-1.197,3.28-4.067,2.083-6.417c-1.194-2.345-4.067-3.276-6.413-2.082
		c-2.349,1.196-3.281,4.067-2.086,6.416C234.48,189.716,237.354,190.648,239.7,189.453"/>
	<path display="inline" fill="#C32782" d="M264.372,162.121c2.521-1.283,3.519-4.362,2.235-6.883
		c-1.282-2.518-4.362-3.522-6.883-2.236c-2.521,1.283-3.521,4.364-2.234,6.885C258.771,162.404,261.854,163.404,264.372,162.121"/>
	<path display="inline" fill="#C32782" d="M206.504,211.652c1.798-0.914,2.513-3.112,1.596-4.911
		c-0.916-1.798-3.114-2.509-4.912-1.597c-1.798,0.916-2.513,3.111-1.596,4.916C202.507,211.857,204.706,212.568,206.504,211.652"/>
	<path display="inline" fill="#C32782" d="M240,67.232c1.568-0.801,2.193-2.722,1.395-4.291c-0.799-1.57-2.721-2.194-4.291-1.394
		c-1.565,0.799-2.189,2.721-1.394,4.29C236.51,67.407,238.432,68.031,240,67.232"/>
	<path display="inline" fill="#C32782" d="M264.177,118.248c1.907-0.971,2.664-3.301,1.693-5.209
		c-0.97-1.904-3.304-2.662-5.209-1.691c-1.905,0.971-2.664,3.302-1.693,5.208C259.938,118.46,262.271,119.221,264.177,118.248"/>
	<path display="inline" fill="#A9526F" d="M275.365,114.864c1.703-0.868,2.38-2.954,1.513-4.656s-2.952-2.38-4.655-1.513
		c-1.703,0.868-2.38,2.952-1.512,4.656C271.579,115.054,273.662,115.73,275.365,114.864"/>
	<path display="inline" fill="#77579C" d="M180.283,210.986c2.246-0.315,3.81-2.396,3.496-4.639
		c-0.317-2.246-2.393-3.812-4.639-3.494c-2.245,0.312-3.808,2.392-3.493,4.638C175.962,209.736,178.038,211.3,180.283,210.986"/>
	<path display="inline" fill="#77579C" d="M279.338,99.146c1.938-0.1,3.426-1.754,3.324-3.692s-1.756-3.428-3.693-3.326
		c-1.937,0.102-3.426,1.756-3.324,3.693C275.746,97.76,277.398,99.248,279.338,99.146"/>
	<path display="inline" fill="#3D80B0" d="M262.652,90.337c1.923-0.271,3.262-2.048,2.99-3.97c-0.271-1.922-2.045-3.261-3.973-2.991
		c-1.922,0.271-3.261,2.046-2.986,3.97C258.956,89.268,260.73,90.608,262.652,90.337"/>
	<path display="inline" fill="#9FC698" d="M248.527,81.938c1.923-0.271,3.261-2.048,2.992-3.969c-0.271-1.922-2.047-3.26-3.976-2.99
		c-1.919,0.271-3.262,2.046-2.985,3.969C244.829,80.869,246.605,82.208,248.527,81.938"/>
	<path display="inline" fill="#A9526F" d="M194.723,213.398c1.687-1.144,2.133-3.434,0.993-5.117
		c-1.138-1.688-3.429-2.133-5.115-0.994c-1.688,1.138-2.133,3.429-0.995,5.115C190.744,214.09,193.035,214.534,194.723,213.398"/>
	<path display="inline" fill="#C32782" d="M227.908,195.486c1.791-1.207,2.265-3.641,1.057-5.432s-3.641-2.269-5.432-1.06
		c-1.792,1.209-2.264,3.646-1.057,5.437C223.688,196.221,226.118,196.693,227.908,195.486"/>
	<path display="inline" fill="#9FC698" d="M212.49,203.691c1.134,1.744,3.464,2.238,5.207,1.104c1.745-1.13,2.241-3.461,1.108-5.207
		c-1.133-1.738-3.465-2.236-5.207-1.104C211.854,199.615,211.357,201.945,212.49,203.691"/>
</g>
<g id="Calque_4" display="none">
	<g display="inline">
		<path fill="#77579C" d="M199.855,159.064c3.057-0.434,5.188-3.258,4.757-6.312c-0.43-3.059-3.255-5.188-6.312-4.757
			c-3.058,0.429-5.187,3.255-4.759,6.313C193.974,157.366,196.799,159.497,199.855,159.064"/>
		<path fill="#E6AD34" d="M295.254,109.017c1.977,0,3.579-1.602,3.579-3.581c0-1.976-1.603-3.579-3.579-3.579
			c-1.979,0-3.58,1.604-3.58,3.579C291.674,107.415,293.275,109.017,295.254,109.017"/>
		<path fill="#3D80B0" d="M251.135,175.591c2.491,0,4.512-2.018,4.512-4.508c0-2.495-2.021-4.513-4.512-4.513
			c-2.49,0-4.512,2.018-4.512,4.513C246.623,173.573,248.645,175.591,251.135,175.591"/>
	</g>
</g>
<g id="Calque_2" display="none">
	<path display="inline" fill="#77579C" d="M200.409,93.543c3.058-0.43,5.186-3.257,4.757-6.312c-0.43-3.058-3.257-5.188-6.313-4.758
		c-3.056,0.429-5.187,3.257-4.755,6.313C194.527,91.844,197.351,93.974,200.409,93.543"/>
	<path display="inline" fill="#77579C" d="M272.779,148.094c2.478-0.348,4.201-2.637,3.854-5.114
		c-0.349-2.475-2.637-4.202-5.115-3.854c-2.476,0.348-4.199,2.638-3.851,5.113C268.016,146.715,270.305,148.441,272.779,148.094"/>
	<path display="inline" fill="#77579C" d="M199.855,159.064c3.057-0.434,5.188-3.258,4.757-6.312
		c-0.43-3.059-3.255-5.188-6.312-4.757c-3.058,0.429-5.187,3.255-4.759,6.313C193.974,157.366,196.799,159.497,199.855,159.064"/>
	<path display="inline" fill="#77579C" d="M300.076,215.477c2.477-0.346,4.203-2.635,3.854-5.113
		c-0.35-2.475-2.638-4.195-5.113-3.854c-2.478,0.348-4.197,2.639-3.854,5.114C295.312,214.098,297.6,215.824,300.076,215.477"/>
	<path display="inline" fill="#E6AD34" d="M286.904,218.723c2.478-0.348,4.203-2.638,3.854-5.113
		c-0.347-2.476-2.635-4.197-5.113-3.854c-2.476,0.35-4.201,2.639-3.854,5.112C282.141,217.344,284.43,219.07,286.904,218.723"/>
	<path display="inline" fill="#77579C" d="M122.639,219.82c3.288-0.461,5.58-3.502,5.117-6.791
		c-0.462-3.286-3.502-5.579-6.791-5.116c-3.287,0.461-5.579,3.502-5.117,6.791C116.311,217.991,119.352,220.283,122.639,219.82"/>
	<path display="inline" fill="#77579C" d="M329.001,145.979c2.156-0.304,3.661-2.299,3.356-4.458
		c-0.309-2.158-2.299-3.659-4.455-3.357c-2.157,0.302-3.661,2.3-3.358,4.456C324.85,144.778,326.843,146.28,329.001,145.979"/>
	<path display="inline" fill="#E6AD34" d="M140.391,111.216c3.143,0,5.69-2.549,5.69-5.689c0-3.141-2.547-5.688-5.69-5.688
		c-3.141,0-5.688,2.548-5.688,5.688C134.703,108.667,137.25,111.216,140.391,111.216"/>
	<path display="inline" fill="#E6AD34" d="M240.802,137.936c2.898,0,5.248-2.35,5.248-5.25c0-2.898-2.35-5.25-5.248-5.25
		c-2.897,0-5.249,2.352-5.249,5.25C235.553,135.585,237.902,137.936,240.802,137.936"/>
	<path display="inline" fill="#E6AD34" d="M246.229,204.365c2.313,0,4.188-1.877,4.188-4.188c0-2.311-1.874-4.187-4.188-4.187
		c-2.312,0-4.187,1.873-4.187,4.187C242.042,202.491,243.918,204.365,246.229,204.365"/>
	<path display="inline" fill="#E6AD34" d="M145.79,216.146c2.851,0,5.163-2.312,5.163-5.164c0-2.854-2.312-5.164-5.163-5.164
		c-2.852,0-5.164,2.312-5.164,5.164C140.626,213.833,142.938,216.146,145.79,216.146"/>
	<path display="inline" fill="#E6AD34" d="M295.254,109.017c1.977,0,3.579-1.602,3.579-3.581c0-1.976-1.603-3.579-3.579-3.579
		c-1.979,0-3.58,1.604-3.58,3.579C291.674,107.415,293.275,109.017,295.254,109.017"/>
	<path display="inline" fill="#E6AD34" d="M331.552,164.244c2.31,0,4.183-1.872,4.183-4.184c0-2.312-1.873-4.187-4.183-4.187
		s-4.183,1.874-4.183,4.187C327.369,162.372,329.242,164.244,331.552,164.244"/>
	<path display="inline" fill="#9FC698" d="M329.277,180.503c2.531,0,4.582-2.052,4.582-4.581c0-2.527-2.051-4.58-4.582-4.58
		c-2.528,0-4.582,2.053-4.582,4.58C324.695,178.451,326.749,180.503,329.277,180.503"/>
	<path display="inline" fill="#9FC698" d="M118.511,121.979c1.12,1.726,3.429,2.215,5.156,1.095
		c1.725-1.121,2.217-3.427,1.095-5.156c-1.121-1.726-3.429-2.215-5.154-1.094C117.881,117.945,117.39,120.252,118.511,121.979"/>
	<path display="inline" fill="#9FC698" d="M247.168,124.358c1.371,2.109,4.191,2.709,6.299,1.336c2.114-1.368,2.711-4.188,1.344-6.3
		c-1.371-2.107-4.188-2.709-6.305-1.339C246.396,119.426,245.799,122.246,247.168,124.358"/>
	<path display="inline" fill="#9FC698" d="M100.454,201.98c1.954,3.006,5.977,3.856,8.987,1.908c3.009-1.955,3.865-5.979,1.91-8.988
		c-1.954-3.01-5.978-3.863-8.987-1.91C99.355,194.945,98.499,198.971,100.454,201.98"/>
	<path display="inline" fill="#A9526F" d="M304.878,117.592c1.132,1.742,3.461,2.238,5.202,1.105
		c1.74-1.131,2.234-3.459,1.105-5.201c-1.131-1.742-3.461-2.236-5.201-1.104C304.243,113.523,303.747,115.851,304.878,117.592"/>
	<path display="inline" fill="#9FC698" d="M316.523,129.045c1.131,1.741,3.459,2.239,5.199,1.105
		c1.738-1.131,2.232-3.459,1.104-5.201c-1.135-1.741-3.46-2.236-5.202-1.104C315.887,124.976,315.393,127.304,316.523,129.045"/>
	<path display="inline" fill="#A9526F" d="M214.576,121.643c1.689-1.136,2.133-3.428,0.994-5.116
		c-1.139-1.686-3.428-2.13-5.115-0.995c-1.688,1.139-2.133,3.431-0.995,5.119C210.599,122.338,212.889,122.782,214.576,121.643"/>
	<path display="inline" fill="#A9526F" d="M165.42,203.525c2.076-1.401,2.624-4.219,1.223-6.295
		c-1.399-2.076-4.217-2.623-6.293-1.227c-2.076,1.396-2.624,4.221-1.224,6.295C160.526,204.378,163.345,204.926,165.42,203.525"/>
	<path display="inline" fill="#A9526F" d="M326.675,195.637c2.308-1.557,2.917-4.687,1.36-6.994
		c-1.557-2.307-4.688-2.914-6.993-1.356c-2.308,1.56-2.916,4.688-1.362,6.993C321.238,196.585,324.367,197.193,326.675,195.637"/>
	<path display="inline" fill="#83B451" d="M214.857,104.658c0.999-1.962,0.221-4.364-1.742-5.366
		c-1.962-0.998-4.364-0.219-5.366,1.743c-0.998,1.963-0.218,4.365,1.744,5.364C211.456,107.402,213.858,106.62,214.857,104.658"/>
	<path display="inline" fill="#83B451" d="M260.283,210.157c0.898-1.765,0.199-3.929-1.567-4.825
		c-1.766-0.9-3.928-0.198-4.827,1.566c-0.896,1.767-0.197,3.928,1.567,4.83C257.223,212.628,259.384,211.922,260.283,210.157"/>
	<path display="inline" fill="#3D80B0" d="M285.672,118.413c0.901-1.765,0.199-3.927-1.568-4.827
		c-1.767-0.899-3.929-0.197-4.828,1.568c-0.896,1.768-0.192,3.927,1.568,4.83C282.611,120.883,284.771,120.181,285.672,118.413"/>
	<path display="inline" fill="#83B451" d="M282.729,131.579c0.988-1.944,0.215-4.322-1.728-5.311
		c-1.944-0.989-4.321-0.219-5.312,1.725c-0.99,1.944-0.217,4.322,1.726,5.314C279.357,134.296,281.736,133.523,282.729,131.579"/>
	<path display="inline" fill="#C32782" d="M128.484,190.82c1.386-2.307,0.64-5.303-1.667-6.688
		c-2.309-1.387-5.302-0.641-6.689,1.668c-1.386,2.308-0.64,5.304,1.668,6.688C124.103,193.874,127.099,193.128,128.484,190.82"/>
	<path display="inline" fill="#83B451" d="M181.401,188.707c1.387-2.725,0.305-6.057-2.419-7.441
		c-2.722-1.389-6.054-0.306-7.443,2.416c-1.386,2.727-0.303,6.061,2.42,7.44C176.682,192.512,180.013,191.428,181.401,188.707"/>
	<path display="inline" fill="#83B451" d="M317.755,206.218c1.308-2.565,0.287-5.702-2.276-7.011
		c-2.562-1.305-5.703-0.287-7.011,2.277c-1.306,2.562-0.288,5.703,2.277,7.012C313.311,209.802,316.449,208.779,317.755,206.218"/>
	<path display="inline" fill="#3D80B0" d="M158.755,99.402c3.25,0,5.885-2.635,5.885-5.884s-2.635-5.884-5.885-5.884
		s-5.708,2.731-5.708,5.884S155.504,99.402,158.755,99.402"/>
	<path display="inline" fill="#3D80B0" d="M234.971,153.607c2.854,0,5.163-2.313,5.163-5.167s-2.312-5.163-5.163-5.163
		c-2.853,0-5.164,2.312-5.164,5.163S232.118,153.607,234.971,153.607"/>
	<path display="inline" fill="#3D80B0" d="M251.135,175.591c2.491,0,4.512-2.018,4.512-4.508c0-2.495-2.021-4.513-4.512-4.513
		c-2.49,0-4.512,2.018-4.512,4.513C246.623,173.573,248.645,175.591,251.135,175.591"/>
	<path display="inline" fill="#3D80B0" d="M207.813,140.362c2.543,0,4.606-2.062,4.606-4.606c0-2.546-2.062-4.608-4.606-4.608
		c-2.545,0-4.609,2.062-4.609,4.608C203.204,138.3,205.268,140.362,207.813,140.362"/>
	<path display="inline" fill="#3D80B0" d="M271.004,217.812c2.291,0,4.146-1.857,4.146-4.146c0-2.291-1.855-4.146-4.146-4.146
		c-2.289,0-4.146,1.854-4.146,4.146C266.855,215.955,268.715,217.812,271.004,217.812"/>
	<path display="inline" fill="#3D80B0" d="M141.912,195.055c2.284,0.159,4.266-1.561,4.426-3.848
		c0.16-2.286-1.562-4.268-3.847-4.425c-2.286-0.16-4.267,1.562-4.425,3.847C137.905,192.911,139.628,194.895,141.912,195.055"/>
	<path display="inline" fill="#C32782" d="M182.469,90.336c3.251-1.656,4.544-5.636,2.888-8.887
		c-1.656-3.252-5.637-4.546-8.887-2.888c-3.252,1.657-4.1,5.649-2.54,8.71C175.491,90.332,179.219,91.993,182.469,90.336"/>
	<path display="inline" fill="#C32782" d="M235.521,172.016c2.511-1.273,3.508-4.352,2.229-6.855
		c-1.279-2.516-4.352-3.512-6.857-2.229c-2.511,1.277-3.506,4.353-2.229,6.857C229.943,172.296,233.014,173.292,235.521,172.016"/>
	<path display="inline" fill="#83B451" d="M239.7,189.453c2.347-1.197,3.28-4.067,2.083-6.417c-1.194-2.345-4.067-3.276-6.413-2.082
		c-2.349,1.196-3.281,4.067-2.086,6.416C234.48,189.716,237.354,190.648,239.7,189.453"/>
	<path display="inline" fill="#C32782" d="M264.372,162.121c2.521-1.283,3.519-4.362,2.235-6.883
		c-1.282-2.518-4.362-3.522-6.883-2.236c-2.521,1.283-3.521,4.364-2.234,6.885C258.771,162.404,261.854,163.404,264.372,162.121"/>
	<path display="inline" fill="#C32782" d="M206.504,211.652c1.798-0.914,2.513-3.112,1.596-4.911
		c-0.916-1.798-3.114-2.509-4.912-1.597c-1.798,0.916-2.513,3.111-1.596,4.916C202.507,211.857,204.706,212.568,206.504,211.652"/>
	<path display="inline" fill="#C32782" d="M240,67.232c1.568-0.801,2.193-2.722,1.395-4.291c-0.799-1.57-2.721-2.194-4.291-1.394
		c-1.565,0.799-2.189,2.721-1.394,4.29C236.51,67.407,238.432,68.031,240,67.232"/>
	<path display="inline" fill="#C32782" d="M190.31,174.895c2.596-1.324,3.628-4.498,2.306-7.097c-1.323-2.596-4.5-3.627-7.095-2.303
		c-2.595,1.321-3.628,4.498-2.306,7.094C184.538,175.186,187.715,176.216,190.31,174.895"/>
	<path display="inline" fill="#C32782" d="M264.177,118.248c1.907-0.971,2.664-3.301,1.693-5.209
		c-0.97-1.904-3.304-2.662-5.209-1.691c-1.905,0.971-2.664,3.302-1.693,5.208C259.938,118.46,262.271,119.221,264.177,118.248"/>
	<path display="inline" fill="#A9526F" d="M275.365,114.864c1.703-0.868,2.38-2.954,1.513-4.656s-2.952-2.38-4.655-1.513
		c-1.703,0.868-2.38,2.952-1.512,4.656C271.579,115.054,273.662,115.73,275.365,114.864"/>
	<path display="inline" fill="#77579C" d="M180.283,210.986c2.246-0.315,3.81-2.396,3.496-4.639
		c-0.317-2.246-2.393-3.812-4.639-3.494c-2.245,0.312-3.808,2.392-3.493,4.638C175.962,209.736,178.038,211.3,180.283,210.986"/>
	<path display="inline" fill="#77579C" d="M279.338,99.146c1.938-0.1,3.426-1.754,3.324-3.692s-1.756-3.428-3.693-3.326
		c-1.937,0.102-3.426,1.756-3.324,3.693C275.746,97.76,277.398,99.248,279.338,99.146"/>
	<path display="inline" fill="#3D80B0" d="M262.652,90.337c1.923-0.271,3.262-2.048,2.99-3.97c-0.271-1.922-2.045-3.261-3.973-2.991
		c-1.922,0.271-3.261,2.046-2.986,3.97C258.956,89.268,260.73,90.608,262.652,90.337"/>
	<path display="inline" fill="#9FC698" d="M248.527,81.938c1.923-0.271,3.261-2.048,2.992-3.969c-0.271-1.922-2.047-3.26-3.976-2.99
		c-1.919,0.271-3.262,2.046-2.985,3.969C244.829,80.869,246.605,82.208,248.527,81.938"/>
	<path display="inline" fill="#A9526F" d="M194.723,213.398c1.687-1.144,2.133-3.434,0.993-5.117
		c-1.138-1.688-3.429-2.133-5.115-0.994c-1.688,1.138-2.133,3.429-0.995,5.115C190.744,214.09,193.035,214.534,194.723,213.398"/>
	<path display="inline" fill="#C32782" d="M227.908,195.486c1.791-1.207,2.265-3.641,1.057-5.432s-3.641-2.269-5.432-1.06
		c-1.792,1.209-2.264,3.646-1.057,5.437C223.688,196.221,226.118,196.693,227.908,195.486"/>
	<path display="inline" fill="#9FC698" d="M212.49,203.691c1.134,1.744,3.464,2.238,5.207,1.104c1.745-1.13,2.241-3.461,1.108-5.207
		c-1.133-1.738-3.465-2.236-5.207-1.104C211.854,199.615,211.357,201.945,212.49,203.691"/>
</g>
<path fill="#FFFFFF" d="M416.753,271.384c-0.677-0.079-0.911,0.475-0.846,1.066c0.281,0.272,1.02,0.584,1.116,0.202
	C417.176,271.952,417.251,271.422,416.753,271.384 M412.097,271.425c-0.678-0.079-0.911,0.474-0.847,1.066
	c0.281,0.271,1.021,0.584,1.117,0.202C412.521,271.993,412.595,271.463,412.097,271.425 M407.44,271.465
	c-0.678-0.079-0.911,0.475-0.847,1.066c0.281,0.272,1.021,0.584,1.116,0.202C407.863,272.033,407.938,271.503,407.44,271.465
	 M402.033,260.82c-1.883,0.842-3.686,1.916-5.567,2.906c0.062,0.212-0.114,0.53,0.125,0.677c1.821-1.201,3.847-1.748,5.647-2.887
	c-0.002-0.212-0.003-0.339-0.004-0.486C402.154,260.967,402.093,260.883,402.033,260.82 M398.195,268.01
	c-0.232,0.785-1.526,0.712-0.678-0.185c0.61-0.661,0.921-1.553,1.877-1.562C399.142,266.922,398.689,267.582,398.195,268.01
	 M400.181,265.24c-3.55-0.858-2.984,4.621-6.01,4.646c-0.031,0.996,1.059,0.352,1.358,0.581c0.072,1.376-0.71,2.972,0.573,3.977
	c2.272,0.487,3.303-2.337,4.403-3.893c-1.284,1.07-2.325,2.709-3.833,3.188c-2.544-4.149,3.089-4.029,3.518-7.484
	C400.407,266.022,400.402,265.492,400.181,265.24 M391.258,264.45c-1.865,0.545-1.54,3.782-4.132,3.19
	c0.014,1.673,1.171-0.307,1.896,0.514c-0.646,1.254-0.291,3.156-0.399,4.471c0.087,0.782,0.354,1.796,1.151,1.832
	c0.478,0.123,1.049-0.646,0.646-1.128c-0.439-0.229-0.176,0.361-0.555,0.301c-0.951-1.834-0.591-3.912,0.069-5.717
	c1.791-0.122,3.52-0.391,5.146-0.936c0.038-0.189,0.214-0.552-0.006-0.697c-1.627,0.521-3.197,0.79-4.712,0.612
	c-0.005-0.656,0.328-1.253,0.783-1.595C391.183,265.043,391.638,264.743,391.258,264.45 M385.515,260.922
	c-0.373,0.469,0.406,0.949,0.47,1.309c0.037-0.297,0.334-0.469,0.211-0.892C385.976,261.214,385.912,260.791,385.515,260.922
	 M383.724,265.532c-0.312,2.86-2.259,5.673-0.78,8.582c2.649,0.379,3.56-2.551,4.678-4.466c-1.525,0.901-2.122,3.193-3.828,3.845
	c-1.27-1.896-0.118-4.446,0.442-6.42C384.271,266.649,384.835,265.099,383.724,265.532 M379.806,259.002
	c-0.573,5.002-2.101,10.118-1.62,15.005c1.889-0.186,2.427-2.498,3.43-3.841c-0.832,0.494-1.876,1.689-2.784,2.608
	c-0.033-3.77,0.85-7.589,1.255-11.34C379.96,260.652,380.862,259.162,379.806,259.002 M375.325,261.011
	c-0.374,0.47,0.407,0.949,0.47,1.309c0.037-0.297,0.334-0.47,0.211-0.892C375.786,261.303,375.722,260.88,375.325,261.011
	 M373.534,265.621c-0.313,2.861-2.259,5.673-0.78,8.582c2.65,0.379,3.561-2.551,4.679-4.466c-1.525,0.901-2.122,3.193-3.828,3.844
	c-1.271-1.895-0.118-4.445,0.441-6.419C374.082,266.738,374.646,265.188,373.534,265.621 M367.992,269.099
	c-0.144,1.78-0.91,2.889-2.413,3.96c-0.1,0.001-0.18-0.104-0.28-0.146c-0.062-2.498,0.44-4.26,1.337-6.364
	C368.029,266.473,367.745,268.127,367.992,269.099 M368.831,258.082c-1.521,5.729-4.57,9.991-4.335,16.405
	c2.008-0.293,3.072-1.573,3.912-3.38c0.924-1.321-1-5.053,1.573-4.481c0.437-0.046,1.33-0.351,1.045-1.132
	c-0.34-0.124-0.557,0.196-0.774,0.304c-1.133,0.179-2.743,0.384-3.25-0.691c0.781-1.723,1.243-3.568,1.964-5.311
	C369.142,259.328,369.846,258.031,368.831,258.082 M361.168,269.371c0.272,1.543-0.255,2.754-1.021,3.883
	c-0.811-1.623-0.833-4.291-0.052-5.907C361.19,267.295,360.943,268.653,361.168,269.371 M359.966,266.226
	c-1.619,1.496-1.381,3.634-1.183,5.833c0.228,1.016,0.799,2.576,2.027,1.889c1.277-1.832,1.1-3.97,1.001-6.191
	c0.775,0.035,1.692,0.197,2.518-1.06C362.543,267.305,361.486,267.039,359.966,266.226 M347.283,265.575
	c-0.182-0.232-0.189-1.058-0.701-0.502c-0.017,2.604-0.833,4.939-1.249,7.441c-0.175,0.426-0.46,1.975,0.669,1.435
	c0.992-2.697,2.045-5.205,4.258-7.066c0.457,2.24-0.695,4.664-1.075,6.722c1.352-0.118,1.435-2.024,2.281-3.049
	c1.006-1.088,1.607-2.851,2.938-3.286c0.515,2.008,0.252,3.81,1.679,5.386c0.718,0.184,1.272-0.244,1.704-0.841
	c0.294-0.49,1.28-1.558,0.544-1.552c-0.252,0.828-1.162,1.45-1.876,1.69c-1.407-1.555-0.593-4.039-1.781-5.702
	c-1.608,0.354-2.508,2.267-3.611,3.483c-0.125-0.655,0.166-1.441,0.26-2.162c-0.186-0.634-0.195-1.756-1.07-1.706
	c-1.224,1.133-2.72,3.115-3.626,4.182C346.871,268.564,347.235,267.015,347.283,265.575 M342.023,269.538
	c0.271,1.543-0.254,2.754-1.021,3.883c-0.81-1.623-0.833-4.291-0.051-5.907C342.045,267.462,341.798,268.82,342.023,269.538
	 M340.822,266.393c-1.619,1.497-1.382,3.634-1.185,5.833c0.229,1.016,0.8,2.577,2.027,1.889c1.278-1.832,1.1-3.97,1.001-6.191
	c0.777,0.035,1.693,0.197,2.519-1.06C343.398,267.472,342.341,267.206,340.822,266.393 M335.785,266.289
	c-2.894,1.296-3.263,4.623-3.956,7.318c0.94,0.585,2.068-0.146,3.061-0.45c1.125-1.026,3.188-1.934,3.175-3.479
	c-1.56,1.56-3.337,3.078-5.348,3.097c0.479-2.229,1.391-4.903,3.572-5.748c0.854-0.241,1.375,2.465,1.356,0.263
	C337.458,266.359,336.58,266.176,335.785,266.289 M331.862,261.432c-1.884,0.843-3.686,1.917-5.568,2.907
	c0.062,0.211-0.114,0.531,0.126,0.677c1.82-1.201,3.847-1.749,5.647-2.887c-0.002-0.212-0.003-0.339-0.004-0.487
	C331.983,261.579,331.922,261.495,331.862,261.432 M328.024,268.622c-0.232,0.786-1.527,0.712-0.68-0.184
	c0.611-0.662,0.923-1.555,1.877-1.562C328.969,267.534,328.518,268.195,328.024,268.622 M330.01,265.852
	c-3.551-0.857-2.984,4.621-6.01,4.648c-0.031,0.995,1.058,0.35,1.358,0.581c0.071,1.375-0.71,2.97,0.571,3.975
	c2.273,0.489,3.305-2.337,4.405-3.892c-1.285,1.07-2.325,2.709-3.834,3.188c-2.544-4.148,3.09-4.027,3.519-7.482
	C330.235,266.634,330.231,266.105,330.01,265.852 M311.566,266.606c-0.062-0.317-0.319-0.061-0.401-0.314
	c-1.034,2.338-1.068,5.324-1.941,7.894c0.162,0.253,0.439,0.123,0.659,0.29c0.937-2.315,2.268-4.783,4.384-6.348
	c0.294,1.67,0.024,2.837,0.319,4.698c0.008,0.953,1.147,1.43,1.92,1c1.108-0.709,1.989-2.39,2.377-3.472
	c-0.907,0.854-2.065,2.643-3.34,2.653c-1.07-1.769,0.302-4.109-0.708-5.9c-1.468,0.562-2.87,1.866-3.632,3.504
	c-0.18-0.125-0.276,0.341-0.398,0.004C311.092,269.236,311.299,267.921,311.566,266.606
	C311.092,269.236,311.299,267.921,311.566,266.606 M306.44,269.848c0.271,1.543-0.255,2.755-1.021,3.885
	c-0.81-1.623-0.834-4.291-0.052-5.907C306.462,267.773,306.215,269.13,306.44,269.848 M305.238,266.704
	c-1.619,1.496-1.381,3.633-1.184,5.833c0.229,1.014,0.8,2.576,2.027,1.888c1.277-1.832,1.101-3.969,1.001-6.191
	c0.776,0.035,1.693,0.196,2.519-1.06C307.815,267.782,306.758,267.516,305.238,266.704 M301.233,266.188
	c-0.993,0.241-1.103,1.386-1.194,2.275c-0.497,2.334,1.775,4.939-0.644,6.02c-0.399-0.146-1.06-0.414-1.064-0.986
	c-0.656,0.07-0.153,0.658-0.271,0.85c0.578,0.144,1.124,1.048,2.035,0.682c2.653-1.634-0.101-4.785,0.714-7.27
	c0.17-1.06,1.566-0.563,1.6-1.348C302.286,265.946,301.632,266.269,301.233,266.188 M288.958,268.963
	c-0.231,0.786-1.527,0.712-0.679-0.184c0.61-0.662,0.922-1.555,1.877-1.562C289.903,267.875,289.451,268.535,288.958,268.963
	 M290.944,266.193c-3.551-0.858-2.985,4.621-6.01,4.646c-0.032,0.996,1.058,0.352,1.357,0.581c0.072,1.376-0.71,2.971,0.572,3.977
	c2.272,0.487,3.304-2.338,4.405-3.893c-1.285,1.07-2.325,2.709-3.834,3.188c-2.544-4.149,3.09-4.028,3.517-7.483
	C291.169,266.975,291.165,266.446,290.944,266.193 M282.021,265.403c-1.866,0.546-1.539,3.781-4.133,3.19
	c0.016,1.673,1.173-0.307,1.896,0.514c-0.646,1.255-0.291,3.156-0.399,4.471c0.086,0.783,0.354,1.797,1.15,1.832
	c0.479,0.123,1.05-0.645,0.647-1.128c-0.44-0.229-0.177,0.361-0.555,0.301c-0.952-1.833-0.592-3.912,0.069-5.717
	c1.79-0.122,3.52-0.392,5.146-0.935c0.038-0.19,0.214-0.553-0.006-0.698c-1.628,0.521-3.198,0.79-4.712,0.612
	c-0.006-0.655,0.328-1.252,0.782-1.595C281.946,265.997,282.401,265.696,282.021,265.403 M275.662,266.644
	c-1.094,2.275-3.225,4.391-5.224,5.764c0.165-1.653,0.147-3.644,0.533-5.002c-1.447,0.542-1.104,3.397-1.31,5.009
	c0.005,0.592-0.164,1.737,0.789,1.432c1.561-1.284,2.719-3.198,4.279-4.609c0.065,0.761-0.104,1.947,0.124,2.836
	c0.127,0.846,1.09,1.727,1.92,1.104c0.574-0.237,1.447-0.584,1.44-1.431c-0.714,0.303-1.343,1.282-2.282,0.74
	c-0.972-1.855,0.086-3.812,0.13-5.719C275.824,266.897,275.821,266.537,275.662,266.644 M266.678,270.195
	c0.272,1.543-0.255,2.755-1.021,3.884c-0.812-1.623-0.834-4.291-0.052-5.907C266.699,268.12,266.452,269.477,266.678,270.195
	 M265.477,267.051c-1.619,1.496-1.383,3.633-1.184,5.833c0.229,1.015,0.798,2.576,2.026,1.889c1.277-1.832,1.1-3.97,1.001-6.192
	c0.776,0.036,1.693,0.197,2.519-1.059C268.053,268.129,266.996,267.863,265.477,267.051 M260.129,265.594
	c-1.866,0.546-1.539,3.782-4.132,3.191c0.015,1.673,1.172-0.308,1.896,0.513c-0.646,1.255-0.291,3.157-0.399,4.471
	c0.086,0.783,0.354,1.798,1.15,1.832c0.479,0.123,1.05-0.644,0.646-1.128c-0.439-0.229-0.176,0.362-0.554,0.302
	c-0.952-1.833-0.592-3.911,0.068-5.718c1.79-0.122,3.521-0.391,5.147-0.934c0.038-0.191,0.214-0.553-0.006-0.699
	c-1.628,0.522-3.198,0.79-4.712,0.613c-0.006-0.656,0.327-1.252,0.782-1.595C260.055,266.188,260.51,265.887,260.129,265.594
	 M246.907,269.33c-0.232,0.786-1.527,0.712-0.679-0.184c0.611-0.662,0.922-1.555,1.878-1.562
	C247.854,268.242,247.401,268.902,246.907,269.33 M248.894,266.56c-3.551-0.857-2.985,4.621-6.011,4.647
	c-0.03,0.996,1.059,0.351,1.358,0.581c0.072,1.376-0.71,2.971,0.572,3.976c2.273,0.488,3.304-2.337,4.404-3.892
	c-1.284,1.07-2.324,2.709-3.834,3.188c-2.544-4.148,3.09-4.027,3.519-7.482C249.119,267.342,249.114,266.812,248.894,266.56
	 M241.692,260.208c-0.573,5.002-2.102,10.118-1.62,15.005c1.889-0.186,2.426-2.499,3.429-3.842
	c-0.831,0.495-1.876,1.689-2.783,2.608c-0.032-3.77,0.85-7.589,1.254-11.34C241.846,261.858,242.748,260.368,241.692,260.208
	 M237.212,262.216c-0.374,0.469,0.406,0.949,0.469,1.309c0.037-0.297,0.334-0.469,0.212-0.892
	C237.672,262.508,237.609,262.085,237.212,262.216 M235.421,266.826c-0.313,2.86-2.259,5.673-0.781,8.582
	c2.65,0.379,3.561-2.551,4.679-4.466c-1.525,0.902-2.122,3.194-3.828,3.845c-1.271-1.896-0.118-4.446,0.441-6.42
	C235.968,267.944,236.532,266.393,235.421,266.826 M230.597,270.51c0.272,1.543-0.255,2.755-1.021,3.884
	c-0.81-1.624-0.834-4.291-0.052-5.906C230.619,268.435,230.372,269.792,230.597,270.51 M229.396,267.366
	c-1.619,1.496-1.381,3.632-1.184,5.833c0.229,1.014,0.799,2.576,2.027,1.888c1.278-1.832,1.1-3.969,1.001-6.192
	c0.776,0.036,1.693,0.197,2.518-1.059C231.972,268.444,230.915,268.178,229.396,267.366 M225.906,266.697
	c-1.034,2.296-1.744,5.415-3.7,7.041c-0.018-2.139-0.133-3.811,0.068-5.888c-0.18-0.125-0.184-0.611-0.562-0.418
	c-0.655,2.377-0.013,5.293-0.149,7.856c0.219-0.001,0.438-0.003,0.656-0.005c2.213-1.968,2.7-5.317,4.354-7.301
	C226.353,267.583,226.503,266.692,225.906,266.697 M220.356,262.405c-1.883,0.842-3.686,1.917-5.567,2.906
	c0.061,0.212-0.115,0.531,0.125,0.678c1.819-1.202,3.847-1.749,5.647-2.888c-0.002-0.212-0.004-0.339-0.004-0.486
	C220.478,262.552,220.416,262.468,220.356,262.405 M216.519,269.595c-0.232,0.786-1.527,0.712-0.68-0.184
	c0.612-0.662,0.922-1.554,1.879-1.562C217.464,268.507,217.013,269.168,216.519,269.595 M218.504,266.826
	c-3.551-0.859-2.985,4.62-6.01,4.646c-0.031,0.995,1.059,0.351,1.357,0.581c0.072,1.375-0.709,2.971,0.572,3.976
	c2.274,0.488,3.304-2.336,4.405-3.893c-1.285,1.07-2.325,2.71-3.834,3.189c-2.544-4.149,3.09-4.029,3.518-7.484
	C218.729,267.607,218.726,267.078,218.504,266.826 M208.341,270.027c-1.051,0.432-4.13,5.626-2.772,1.442
	c0.389-0.957,1.373-2.214,2.387-2.393C209.166,268.686,208.914,269.535,208.341,270.027 M210.865,262.721
	c-0.422,1.804-0.664,3.711-1.406,5.327c-1.174,0.137-2.347,0.253-3.255,1.045c-1.221,1.535-2.414,3.959-1.66,5.964
	c1.268-0.625,2.245-2.688,3.809-3.845c-0.108,1.293-0.198,2.458-0.344,3.984c2.168-0.188,4.216-2.6,5.492-4.644
	c-1.569,0.438-2.444,2.711-4.171,3.34c-1.175-0.116-0.017-1.969-0.026-2.984c1.654-2.047,1.035-4.604,2.13-6.879
	C211.53,263.604,211.816,262.31,210.865,262.721"/>
<path fill="none" stroke="#FFFFFF" stroke-width="0.2" stroke-linejoin="round" stroke-miterlimit="6.586" d="M416.753,271.384
	c-0.677-0.079-0.911,0.475-0.846,1.066c0.281,0.272,1.02,0.584,1.116,0.202C417.176,271.952,417.251,271.422,416.753,271.384z
	 M412.097,271.425c-0.678-0.079-0.911,0.474-0.847,1.066c0.281,0.271,1.021,0.584,1.117,0.202
	C412.521,271.993,412.595,271.463,412.097,271.425z M407.44,271.465c-0.678-0.079-0.911,0.475-0.847,1.066
	c0.281,0.272,1.021,0.584,1.116,0.202C407.863,272.033,407.938,271.503,407.44,271.465z M402.033,260.82
	c-1.883,0.842-3.686,1.916-5.567,2.906c0.062,0.212-0.114,0.53,0.125,0.677c1.821-1.201,3.847-1.748,5.647-2.887
	c-0.002-0.212-0.003-0.339-0.004-0.486C402.154,260.967,402.093,260.883,402.033,260.82z M398.195,268.01
	c-0.232,0.785-1.526,0.712-0.678-0.185c0.61-0.661,0.921-1.553,1.877-1.562C399.142,266.922,398.689,267.582,398.195,268.01z
	 M400.181,265.24c-3.55-0.858-2.984,4.621-6.01,4.646c-0.031,0.996,1.059,0.352,1.358,0.581c0.072,1.376-0.71,2.972,0.573,3.977
	c2.272,0.487,3.303-2.337,4.403-3.893c-1.284,1.07-2.325,2.709-3.833,3.188c-2.544-4.149,3.089-4.029,3.518-7.484
	C400.407,266.022,400.402,265.492,400.181,265.24z M391.258,264.45c-1.865,0.545-1.54,3.782-4.132,3.19
	c0.014,1.673,1.171-0.307,1.896,0.514c-0.646,1.254-0.291,3.156-0.399,4.471c0.087,0.782,0.354,1.796,1.151,1.832
	c0.478,0.123,1.049-0.646,0.646-1.128c-0.439-0.229-0.176,0.361-0.555,0.301c-0.951-1.834-0.591-3.912,0.069-5.717
	c1.791-0.122,3.52-0.391,5.146-0.936c0.038-0.189,0.214-0.552-0.006-0.697c-1.627,0.521-3.197,0.79-4.712,0.612
	c-0.005-0.656,0.328-1.253,0.783-1.595C391.183,265.043,391.638,264.743,391.258,264.45z M385.515,260.922
	c-0.373,0.469,0.406,0.949,0.47,1.309c0.037-0.297,0.334-0.469,0.211-0.892C385.976,261.214,385.912,260.791,385.515,260.922z
	 M383.724,265.532c-0.312,2.86-2.259,5.673-0.78,8.582c2.649,0.379,3.56-2.551,4.678-4.466c-1.525,0.901-2.122,3.193-3.828,3.845
	c-1.27-1.896-0.118-4.446,0.442-6.42C384.271,266.649,384.835,265.099,383.724,265.532z M379.806,259.002
	c-0.573,5.002-2.101,10.118-1.62,15.005c1.889-0.186,2.427-2.498,3.43-3.841c-0.832,0.494-1.876,1.689-2.784,2.608
	c-0.033-3.77,0.85-7.589,1.255-11.34C379.96,260.652,380.862,259.162,379.806,259.002z M375.325,261.011
	c-0.374,0.47,0.407,0.949,0.47,1.309c0.037-0.297,0.334-0.47,0.211-0.892C375.786,261.303,375.722,260.88,375.325,261.011z
	 M373.534,265.621c-0.313,2.861-2.259,5.673-0.78,8.582c2.65,0.379,3.561-2.551,4.679-4.466c-1.525,0.901-2.122,3.193-3.828,3.844
	c-1.271-1.895-0.118-4.445,0.441-6.419C374.082,266.738,374.646,265.188,373.534,265.621z M367.992,269.099
	c-0.144,1.78-0.91,2.889-2.413,3.96c-0.1,0.001-0.18-0.104-0.28-0.146c-0.062-2.498,0.44-4.26,1.337-6.364
	C368.029,266.473,367.745,268.127,367.992,269.099z M368.831,258.082c-1.521,5.729-4.57,9.991-4.335,16.405
	c2.008-0.293,3.072-1.573,3.912-3.38c0.924-1.321-1-5.053,1.573-4.481c0.437-0.046,1.33-0.351,1.045-1.132
	c-0.34-0.124-0.557,0.196-0.774,0.304c-1.133,0.179-2.743,0.384-3.25-0.691c0.781-1.723,1.243-3.568,1.964-5.311
	C369.142,259.328,369.846,258.031,368.831,258.082z M361.168,269.371c0.272,1.543-0.255,2.754-1.021,3.883
	c-0.811-1.623-0.833-4.291-0.052-5.907C361.19,267.295,360.943,268.653,361.168,269.371z M359.966,266.226
	c-1.619,1.496-1.381,3.634-1.183,5.833c0.228,1.016,0.799,2.576,2.027,1.889c1.277-1.832,1.1-3.97,1.001-6.191
	c0.775,0.035,1.692,0.197,2.518-1.06C362.543,267.305,361.486,267.039,359.966,266.226z M347.283,265.575
	c-0.182-0.232-0.189-1.058-0.701-0.502c-0.017,2.604-0.833,4.939-1.249,7.441c-0.175,0.426-0.46,1.975,0.669,1.435
	c0.992-2.697,2.045-5.205,4.258-7.066c0.457,2.24-0.695,4.664-1.075,6.722c1.352-0.118,1.435-2.024,2.281-3.049
	c1.006-1.088,1.607-2.851,2.938-3.286c0.515,2.008,0.252,3.81,1.679,5.386c0.718,0.184,1.272-0.244,1.704-0.841
	c0.294-0.49,1.28-1.558,0.544-1.552c-0.252,0.828-1.162,1.45-1.876,1.69c-1.407-1.555-0.593-4.039-1.781-5.702
	c-1.608,0.354-2.508,2.267-3.611,3.483c-0.125-0.655,0.166-1.441,0.26-2.162c-0.186-0.634-0.195-1.756-1.07-1.706
	c-1.224,1.133-2.72,3.115-3.626,4.182C346.871,268.564,347.235,267.015,347.283,265.575z M342.023,269.538
	c0.271,1.543-0.254,2.754-1.021,3.883c-0.81-1.623-0.833-4.291-0.051-5.907C342.045,267.462,341.798,268.82,342.023,269.538z
	 M340.822,266.393c-1.619,1.497-1.382,3.634-1.185,5.833c0.229,1.016,0.8,2.577,2.027,1.889c1.278-1.832,1.1-3.97,1.001-6.191
	c0.777,0.035,1.693,0.197,2.519-1.06C343.398,267.472,342.341,267.206,340.822,266.393z M335.785,266.289
	c-2.894,1.296-3.263,4.623-3.956,7.318c0.94,0.585,2.068-0.146,3.061-0.45c1.125-1.026,3.188-1.934,3.175-3.479
	c-1.56,1.56-3.337,3.078-5.348,3.097c0.479-2.229,1.391-4.903,3.572-5.748c0.854-0.241,1.375,2.465,1.356,0.263
	C337.458,266.359,336.58,266.176,335.785,266.289z M331.862,261.432c-1.884,0.843-3.686,1.917-5.568,2.907
	c0.062,0.211-0.114,0.531,0.126,0.677c1.82-1.201,3.847-1.749,5.647-2.887c-0.002-0.212-0.003-0.339-0.004-0.487
	C331.983,261.579,331.922,261.495,331.862,261.432z M328.024,268.622c-0.232,0.786-1.527,0.712-0.68-0.184
	c0.611-0.662,0.923-1.555,1.877-1.562C328.969,267.534,328.518,268.195,328.024,268.622z M330.01,265.852
	c-3.551-0.857-2.984,4.621-6.01,4.648c-0.031,0.995,1.058,0.35,1.358,0.581c0.071,1.375-0.71,2.97,0.571,3.975
	c2.273,0.489,3.305-2.337,4.405-3.892c-1.285,1.07-2.325,2.709-3.834,3.188c-2.544-4.148,3.09-4.027,3.519-7.482
	C330.235,266.634,330.231,266.105,330.01,265.852z M311.566,266.606c-0.062-0.317-0.319-0.061-0.401-0.314
	c-1.034,2.338-1.068,5.324-1.941,7.894c0.162,0.253,0.439,0.123,0.659,0.29c0.937-2.315,2.268-4.783,4.384-6.348
	c0.294,1.67,0.024,2.837,0.319,4.698c0.008,0.953,1.147,1.43,1.92,1c1.108-0.709,1.989-2.39,2.377-3.472
	c-0.907,0.854-2.065,2.643-3.34,2.653c-1.07-1.769,0.302-4.109-0.708-5.9c-1.468,0.562-2.87,1.866-3.632,3.504
	c-0.18-0.125-0.276,0.341-0.398,0.004C311.092,269.236,311.299,267.921,311.566,266.606
	C311.092,269.236,311.299,267.921,311.566,266.606z M306.44,269.848c0.271,1.543-0.255,2.755-1.021,3.885
	c-0.81-1.623-0.834-4.291-0.052-5.907C306.462,267.773,306.215,269.13,306.44,269.848z M305.238,266.704
	c-1.619,1.496-1.381,3.633-1.184,5.833c0.229,1.014,0.8,2.576,2.027,1.888c1.277-1.832,1.101-3.969,1.001-6.191
	c0.776,0.035,1.693,0.196,2.519-1.06C307.815,267.782,306.758,267.516,305.238,266.704z M301.233,266.188
	c-0.993,0.241-1.103,1.386-1.194,2.275c-0.497,2.334,1.775,4.939-0.644,6.02c-0.399-0.146-1.06-0.414-1.064-0.986
	c-0.656,0.07-0.153,0.658-0.271,0.85c0.578,0.144,1.124,1.048,2.035,0.682c2.653-1.634-0.101-4.785,0.714-7.27
	c0.17-1.06,1.566-0.563,1.6-1.348C302.286,265.946,301.632,266.269,301.233,266.188z M288.958,268.963
	c-0.231,0.786-1.527,0.712-0.679-0.184c0.61-0.662,0.922-1.555,1.877-1.562C289.903,267.875,289.451,268.535,288.958,268.963z
	 M290.944,266.193c-3.551-0.858-2.985,4.621-6.01,4.646c-0.032,0.996,1.058,0.352,1.357,0.581c0.072,1.376-0.71,2.971,0.572,3.977
	c2.272,0.487,3.304-2.338,4.405-3.893c-1.285,1.07-2.325,2.709-3.834,3.188c-2.544-4.149,3.09-4.028,3.517-7.483
	C291.169,266.975,291.165,266.446,290.944,266.193z M282.021,265.403c-1.866,0.546-1.539,3.781-4.133,3.19
	c0.016,1.673,1.173-0.307,1.896,0.514c-0.646,1.255-0.291,3.156-0.399,4.471c0.086,0.783,0.354,1.797,1.15,1.832
	c0.479,0.123,1.05-0.645,0.647-1.128c-0.44-0.229-0.177,0.361-0.555,0.301c-0.952-1.833-0.592-3.912,0.069-5.717
	c1.79-0.122,3.52-0.392,5.146-0.935c0.038-0.19,0.214-0.553-0.006-0.698c-1.628,0.521-3.198,0.79-4.712,0.612
	c-0.006-0.655,0.328-1.252,0.782-1.595C281.946,265.997,282.401,265.696,282.021,265.403z M275.662,266.644
	c-1.094,2.275-3.225,4.391-5.224,5.764c0.165-1.653,0.147-3.644,0.533-5.002c-1.447,0.542-1.104,3.397-1.31,5.009
	c0.005,0.592-0.164,1.737,0.789,1.432c1.561-1.284,2.719-3.198,4.279-4.609c0.065,0.761-0.104,1.947,0.124,2.836
	c0.127,0.846,1.09,1.727,1.92,1.104c0.574-0.237,1.447-0.584,1.44-1.431c-0.714,0.303-1.343,1.282-2.282,0.74
	c-0.972-1.855,0.086-3.812,0.13-5.719C275.824,266.897,275.821,266.537,275.662,266.644z M266.678,270.195
	c0.272,1.543-0.255,2.755-1.021,3.884c-0.812-1.623-0.834-4.291-0.052-5.907C266.699,268.12,266.452,269.477,266.678,270.195z
	 M265.477,267.051c-1.619,1.496-1.383,3.633-1.184,5.833c0.229,1.015,0.798,2.576,2.026,1.889c1.277-1.832,1.1-3.97,1.001-6.192
	c0.776,0.036,1.693,0.197,2.519-1.059C268.053,268.129,266.996,267.863,265.477,267.051z M260.129,265.594
	c-1.866,0.546-1.539,3.782-4.132,3.191c0.015,1.673,1.172-0.308,1.896,0.513c-0.646,1.255-0.291,3.157-0.399,4.471
	c0.086,0.783,0.354,1.798,1.15,1.832c0.479,0.123,1.05-0.644,0.646-1.128c-0.439-0.229-0.176,0.362-0.554,0.302
	c-0.952-1.833-0.592-3.911,0.068-5.718c1.79-0.122,3.521-0.391,5.147-0.934c0.038-0.191,0.214-0.553-0.006-0.699
	c-1.628,0.522-3.198,0.79-4.712,0.613c-0.006-0.656,0.327-1.252,0.782-1.595C260.055,266.188,260.51,265.887,260.129,265.594z
	 M246.907,269.33c-0.232,0.786-1.527,0.712-0.679-0.184c0.611-0.662,0.922-1.555,1.878-1.562
	C247.854,268.242,247.401,268.902,246.907,269.33z M248.894,266.56c-3.551-0.857-2.985,4.621-6.011,4.647
	c-0.03,0.996,1.059,0.351,1.358,0.581c0.072,1.376-0.71,2.971,0.572,3.976c2.273,0.488,3.304-2.337,4.404-3.892
	c-1.284,1.07-2.324,2.709-3.834,3.188c-2.544-4.148,3.09-4.027,3.519-7.482C249.119,267.342,249.114,266.812,248.894,266.56z
	 M241.692,260.208c-0.573,5.002-2.102,10.118-1.62,15.005c1.889-0.186,2.426-2.499,3.429-3.842
	c-0.831,0.495-1.876,1.689-2.783,2.608c-0.032-3.77,0.85-7.589,1.254-11.34C241.846,261.858,242.748,260.368,241.692,260.208z
	 M237.212,262.216c-0.374,0.469,0.406,0.949,0.469,1.309c0.037-0.297,0.334-0.469,0.212-0.892
	C237.672,262.508,237.609,262.085,237.212,262.216z M235.421,266.826c-0.313,2.86-2.259,5.673-0.781,8.582
	c2.65,0.379,3.561-2.551,4.679-4.466c-1.525,0.902-2.122,3.194-3.828,3.845c-1.271-1.896-0.118-4.446,0.441-6.42
	C235.968,267.944,236.532,266.393,235.421,266.826z M230.597,270.51c0.272,1.543-0.255,2.755-1.021,3.884
	c-0.81-1.624-0.834-4.291-0.052-5.906C230.619,268.435,230.372,269.792,230.597,270.51z M229.396,267.366
	c-1.619,1.496-1.381,3.632-1.184,5.833c0.229,1.014,0.799,2.576,2.027,1.888c1.278-1.832,1.1-3.969,1.001-6.192
	c0.776,0.036,1.693,0.197,2.518-1.059C231.972,268.444,230.915,268.178,229.396,267.366z M225.906,266.697
	c-1.034,2.296-1.744,5.415-3.7,7.041c-0.018-2.139-0.133-3.811,0.068-5.888c-0.18-0.125-0.184-0.611-0.562-0.418
	c-0.655,2.377-0.013,5.293-0.149,7.856c0.219-0.001,0.438-0.003,0.656-0.005c2.213-1.968,2.7-5.317,4.354-7.301
	C226.353,267.583,226.503,266.692,225.906,266.697z M220.356,262.405c-1.883,0.842-3.686,1.917-5.567,2.906
	c0.061,0.212-0.115,0.531,0.125,0.678c1.819-1.202,3.847-1.749,5.647-2.888c-0.002-0.212-0.004-0.339-0.004-0.486
	C220.478,262.552,220.416,262.468,220.356,262.405z M216.519,269.595c-0.232,0.786-1.527,0.712-0.68-0.184
	c0.612-0.662,0.922-1.554,1.879-1.562C217.464,268.507,217.013,269.168,216.519,269.595z M218.504,266.826
	c-3.551-0.859-2.985,4.62-6.01,4.646c-0.031,0.995,1.059,0.351,1.357,0.581c0.072,1.375-0.709,2.971,0.572,3.976
	c2.274,0.488,3.304-2.336,4.405-3.893c-1.285,1.07-2.325,2.71-3.834,3.189c-2.544-4.149,3.09-4.029,3.518-7.484
	C218.729,267.607,218.726,267.078,218.504,266.826z M208.341,270.027c-1.051,0.432-4.13,5.626-2.772,1.442
	c0.389-0.957,1.373-2.214,2.387-2.393C209.166,268.686,208.914,269.535,208.341,270.027z M210.865,262.721
	c-0.422,1.804-0.664,3.711-1.406,5.327c-1.174,0.137-2.347,0.253-3.255,1.045c-1.221,1.535-2.414,3.959-1.66,5.964
	c1.268-0.625,2.245-2.688,3.809-3.845c-0.108,1.293-0.198,2.458-0.344,3.984c2.168-0.188,4.216-2.6,5.492-4.644
	c-1.569,0.438-2.444,2.711-4.171,3.34c-1.175-0.116-0.017-1.969-0.026-2.984c1.654-2.047,1.035-4.604,2.13-6.879
	C211.53,263.604,211.816,262.31,210.865,262.721z"/>
</svg>
