<?xml version="1.0" encoding="utf-8"?>
<!-- Generator: Adobe Illustrator 16.0.4, SVG Export Plug-In . SVG Version: 6.00 Build 0)  -->
<!DOCTYPE svg PUBLIC "-//W3C//DTD SVG 1.1//EN" "http://www.w3.org/Graphics/SVG/1.1/DTD/svg11.dtd">
<svg version="1.1" id="Calque_1" xmlns="http://www.w3.org/2000/svg" xmlns:xlink="http://www.w3.org/1999/xlink" x="0px" y="0px"
	 width="435px" height="300px" viewBox="0 0 435 300" enable-background="new 0 0 435 300" xml:space="preserve">
<path fill="#606060" d="M230.577,244.068c0,4.354,2.379,5.91,5.44,6.845l3.098,0.938c1.871,0.575,3.025,0.846,3.025,2.486
	c0,1.333-1.189,2.354-3.062,2.354c-3.893,0-4.105-3.998-6.376-3.998c-1.478,0-2.126,1.289-2.126,2.711
	c0,3.193,3.964,5.814,8.718,5.814c3.963,0,8.104-2.441,8.104-7.729c0-4.527-3.566-6.084-6.562-6.926l-2.192-0.623
	c-1.621-0.443-2.812-0.805-2.812-2.312c0-1.377,1.188-1.998,3.021-1.998c3.312,0,3.39,2.979,5.438,2.979
	c1.369,0,2.197-1.332,2.197-2.844c0-2.979-4.034-4.933-8.033-4.933C234.828,236.829,230.577,238.786,230.577,244.068
	 M209.397,257.975c0,1.729,0.578,3.241,2.629,3.241c2.055,0,2.631-1.511,2.631-3.241V247.27c0-3.242,2.162-5.107,3.999-5.107
	c2.268,0,3.312,1.865,3.312,4.484v11.328c0,1.729,0.576,3.241,2.63,3.241c2.055,0,2.629-1.511,2.629-3.241v-12.615
	c0-6.572-3.457-8.523-6.627-8.523c-2.99,0-4.896,1.688-6.375,4.087h-0.072v-0.851c0-1.953-0.72-3.236-2.377-3.236
	c-1.656,0-2.378,1.283-2.378,3.236L209.397,257.975L209.397,257.975z M199.6,252.245c0,2.396-1.765,4.707-4.646,4.707
	c-1.801,0-2.917-1.2-2.917-2.666c0-1.953,1.187-2.8,3.386-3.196l1.909-0.354c0.613-0.133,1.692-0.354,2.269-1.021L199.6,252.245
	L199.6,252.245z M204.86,243.493c0-4.664-3.495-6.664-8.538-6.664c-5.402,0-8.356,3.289-8.356,5.862
	c0,1.332,0.901,2.483,2.234,2.483c2.09,0,2.197-3.553,6.086-3.553c1.766,0,3.314,0.801,3.314,2.665c0,1.861-1.008,2.22-2.269,2.396
	l-3.206,0.442c-4.034,0.579-7.348,2.089-7.348,7.461c0,4.089,2.953,6.619,5.943,6.619c2.774,0,5.15-0.979,7.204-3.772
	c0.072,2,0.828,3.772,3.098,3.772c1.261,0,2.377-1.021,2.377-2.483c0-1.021-0.54-1.646-0.54-4.354L204.86,243.493L204.86,243.493z"
	/>
<rect x="157" y="259.768" fill="#606060" width="116.667" height="2"/>
<path fill="#606060" d="M168.99,280.766c0,0.93-0.352,1.428-1.107,1.428c-0.721,0-1.107-0.498-1.107-1.428v-0.479h-0.033
	c-0.403,1.283-1.393,1.904-2.583,1.904c-2.047,0-3.841-1.842-3.841-5.752c0-2.896,1.19-5.606,3.774-5.606
	c1.09,0,1.928,0.56,2.415,1.53h0.033v-4.094c0-0.994,0.487-1.514,1.225-1.514c0.738,0,1.225,0.52,1.225,1.514L168.99,280.766
	L168.99,280.766z M164.712,279.833c1.425,0,1.963-1.571,1.963-3.289c0-1.552-0.47-3.372-1.963-3.353
	c-1.561,0-1.945,1.941-1.945,3.353C162.766,278.324,163.402,279.791,164.712,279.833z"/>
<path fill="#606060" d="M172.515,266.758c1.091,0,1.577,1.199,1.577,2.608c0,1.405-0.336,2.108-0.856,2.771
	c-0.251,0.289-1.006,0.889-1.526,0.889c-0.369,0-0.57-0.289-0.57-0.617c0-0.91,1.694-0.436,1.779-2.547
	c-0.152,0.104-0.336,0.188-0.57,0.188c-0.772,0-1.208-0.767-1.208-1.594C171.14,267.523,171.76,266.758,172.515,266.758z"/>
<path fill="#606060" d="M178.321,277.082c0,1.593,0.839,2.751,2.264,2.751c1.845,0,1.845-1.489,2.834-1.489
	c0.587,0,1.006,0.62,1.006,1.18c0,1.822-2.365,2.67-3.841,2.67c-3.422,0-4.715-2.854-4.715-5.481c0-3.519,1.729-5.875,4.63-5.875
	c2.818,0,4.429,2.463,4.429,4.942c0,1.035-0.251,1.307-1.074,1.307h-5.535v-0.003L178.321,277.082L178.321,277.082z
	 M182.615,275.344c-0.133-1.387-0.972-2.398-2.063-2.398c-1.225,0-1.962,0.933-2.231,2.398H182.615z M180.703,266.882
	c0.335-0.331,0.721-0.704,1.124-0.704c0.671,0,0.906,0.725,0.906,1.141c0,0.392-0.218,0.785-0.621,1.115l-1.51,1.262
	c-0.418,0.354-0.604,0.373-0.771,0.373c-0.386,0-0.855-0.312-0.855-1.015c0-0.372,0.117-0.62,0.486-0.991L180.703,266.882z"/>
<path fill="#606060" d="M190.637,270.833c2.047,0,3.573,1.429,3.573,2.833c0,0.869-0.52,1.305-1.141,1.305
	c-1.157,0-0.737-1.779-2.5-1.779c-0.956,0-2.08,0.809-2.08,3.539c0,1.885,0.721,3.104,2.063,3.104c1.712,0,1.342-1.944,2.634-1.944
	c0.62,0,1.023,0.561,1.023,1.159c0,1.323-1.208,3.146-3.724,3.146c-3.019,0-4.445-2.297-4.445-5.461
	C186.041,273.255,187.635,270.833,190.637,270.833z"/>
<path fill="#606060" d="M199.682,270.833c2.953,0,4.529,2.483,4.529,5.668c0,3.021-1.191,5.69-4.529,5.69
	c-3.338,0-4.53-2.672-4.53-5.69C195.152,273.316,196.729,270.833,199.682,270.833z M199.682,279.958c1.46,0,2.08-1.615,2.08-3.454
	c0-1.966-0.654-3.436-2.08-3.436c-1.426,0-2.08,1.47-2.08,3.436C197.602,278.343,198.222,279.958,199.682,279.958z"/>
<path fill="#606060" d="M205.791,272.343c0-0.909,0.437-1.51,1.158-1.51c0.721,0,1.158,0.601,1.158,1.51v0.394h0.034
	c0.637-1.198,1.71-1.901,2.952-1.901c0.839,0,1.896,0.478,2.348,1.901c0.688-1.18,1.56-1.901,2.886-1.901
	c1.694,0,3.053,0.951,3.053,3.662v6.188c0,0.807-0.269,1.51-1.226,1.51c-0.956,0-1.224-0.703-1.224-1.51v-5.42
	c0-1.076-0.386-1.945-1.342-1.945c-0.939,0-1.778,0.933-1.778,2.338v5.027c0,0.807-0.269,1.512-1.225,1.512
	s-1.224-0.705-1.224-1.512v-5.42c0-1.074-0.386-1.943-1.342-1.943c-0.939,0-1.778,0.932-1.778,2.337v5.028
	c0,0.808-0.268,1.51-1.225,1.51c-0.956,0-1.225-0.702-1.225-1.51V272.343L205.791,272.343z"/>
<path fill="#606060" d="M225.491,270.833c2.95,0,4.528,2.483,4.528,5.668c0,3.021-1.191,5.69-4.528,5.69
	c-3.339,0-4.529-2.672-4.529-5.69C220.962,273.316,222.538,270.833,225.491,270.833z M225.491,279.958
	c1.46,0,2.079-1.615,2.079-3.454c0-1.966-0.654-3.436-2.079-3.436c-1.427,0-2.081,1.47-2.081,3.436
	C223.41,278.343,224.031,279.958,225.491,279.958z"/>
<path fill="#606060" d="M231.602,268.27c0-0.992,0.486-1.512,1.226-1.512s1.226,0.52,1.226,1.512v4.097h0.032
	c0.483-0.974,1.325-1.531,2.415-1.531c2.584,0,3.773,2.711,3.773,5.604c0,3.91-1.797,5.752-3.842,5.752
	c-1.192,0-2.181-0.621-2.584-1.902h-0.033v0.479c0,0.933-0.387,1.428-1.105,1.428c-0.755,0-1.105-0.495-1.105-1.428V268.27H231.602z
	 M235.879,273.191c-1.492-0.021-1.964,1.801-1.964,3.353c0,1.718,0.536,3.289,1.964,3.289c1.309-0.04,1.944-1.509,1.944-3.289
	C237.823,275.135,237.438,273.191,235.879,273.191z"/>
<path fill="#606060" d="M243.211,266.677c0.706,0,1.273,0.703,1.273,1.571c0,0.869-0.569,1.572-1.273,1.572
	c-0.702,0-1.273-0.703-1.273-1.572C241.938,267.38,242.509,266.677,243.211,266.677z M241.986,272.343c0-0.805,0.27-1.51,1.225-1.51
	c0.957,0,1.225,0.705,1.225,1.51v8.339c0,0.805-0.268,1.51-1.225,1.51c-0.955,0-1.225-0.705-1.225-1.51V272.343z"/>
<path fill="#606060" d="M246.652,268.27c0-0.992,0.486-1.512,1.224-1.512c0.739,0,1.226,0.52,1.226,1.512v12.412
	c0,0.992-0.484,1.512-1.226,1.512c-0.737,0-1.224-0.52-1.224-1.512V268.27z"/>
<path fill="#606060" d="M252.542,266.677c0.706,0,1.274,0.703,1.274,1.571c0,0.869-0.571,1.572-1.274,1.572
	s-1.274-0.703-1.274-1.572C251.268,267.38,251.839,266.677,252.542,266.677z M251.316,272.343c0-0.805,0.269-1.51,1.226-1.51
	c0.955,0,1.224,0.705,1.224,1.51v8.339c0,0.805-0.269,1.51-1.224,1.51c-0.957,0-1.226-0.705-1.226-1.51V272.343z"/>
<path fill="#606060" d="M256.484,273.088h-0.42c-0.688,0-0.975-0.33-0.975-0.992s0.287-0.992,0.975-0.992h0.42v-1.842
	c0-0.992,0.486-1.511,1.226-1.511c0.74,0,1.226,0.519,1.226,1.511v1.842h0.737c0.722,0,1.106,0.271,1.106,0.992
	c0,0.725-0.387,0.992-1.106,0.992h-0.737v6.042c0,0.455,0.201,0.703,0.639,0.703h0.351c0.537,0,0.855,0.373,0.855,1.017
	c0,0.866-0.604,1.344-1.776,1.344c-1.777,0-2.52-0.909-2.52-2.688V273.088L256.484,273.088z"/>
<path fill="#606060" d="M264.137,277.082c0,1.593,0.84,2.751,2.264,2.751c1.848,0,1.848-1.489,2.836-1.489
	c0.588,0,1.008,0.62,1.008,1.18c0,1.822-2.366,2.67-3.844,2.67c-3.42,0-4.713-2.854-4.713-5.481c0-3.519,1.729-5.875,4.629-5.875
	c2.817,0,4.431,2.463,4.431,4.942c0,1.035-0.252,1.307-1.074,1.307h-5.532v-0.003L264.137,277.082L264.137,277.082z
	 M268.432,275.344c-0.134-1.387-0.974-2.398-2.062-2.398c-1.226,0-1.966,0.933-2.229,2.398H268.432z M266.52,266.882
	c0.336-0.331,0.722-0.704,1.123-0.704c0.67,0,0.904,0.725,0.904,1.141c0,0.392-0.217,0.785-0.62,1.115l-1.51,1.262
	c-0.417,0.354-0.604,0.373-0.771,0.373c-0.388,0-0.855-0.312-0.855-1.015c0-0.372,0.115-0.62,0.486-0.991L266.52,266.882z"/>
</svg>
