<?xml version="1.0" encoding="utf-8"?>
<!-- Generator: Adobe Illustrator 16.0.4, SVG Export Plug-In . SVG Version: 6.00 Build 0)  -->
<!DOCTYPE svg PUBLIC "-//W3C//DTD SVG 1.1//EN" "http://www.w3.org/Graphics/SVG/1.1/DTD/svg11.dtd">
<svg version="1.1" id="Calque_1" xmlns="http://www.w3.org/2000/svg" xmlns:xlink="http://www.w3.org/1999/xlink" x="0px" y="0px"
	 width="435px" height="300px" viewBox="0 0 435 300" enable-background="new 0 0 435 300" xml:space="preserve">
<g id="Calque_1_1_">
</g>
<g id="Calque_5">
</g>
<g id="Calque_4" display="none">
	<g display="inline">
		<path fill="#77579C" d="M199.855,159.064c3.057-0.437,5.188-3.258,4.757-6.312c-0.43-3.059-3.255-5.188-6.312-4.757
			c-3.058,0.429-5.187,3.255-4.759,6.313C193.974,157.366,196.799,159.497,199.855,159.064"/>
		<path fill="#E6AD34" d="M295.254,109.017c1.977,0,3.579-1.602,3.579-3.581c0-1.976-1.603-3.579-3.579-3.579
			c-1.979,0-3.58,1.604-3.58,3.579C291.674,107.415,293.275,109.017,295.254,109.017"/>
		<path fill="#3D80B0" d="M251.135,175.591c2.491,0,4.512-2.018,4.512-4.508c0-2.495-2.021-4.513-4.512-4.513
			c-2.49,0-4.512,2.018-4.512,4.513C246.623,173.573,248.645,175.591,251.135,175.591"/>
	</g>
</g>
<g id="Calque_2" display="none">
	<path display="inline" fill="#77579C" d="M200.409,93.543c3.058-0.43,5.186-3.257,4.757-6.312c-0.43-3.058-3.257-5.188-6.313-4.758
		c-3.056,0.429-5.187,3.257-4.755,6.313C194.527,91.844,197.351,93.974,200.409,93.543"/>
	<path display="inline" fill="#77579C" d="M272.779,148.094c2.478-0.348,4.201-2.637,3.854-5.114
		c-0.349-2.475-2.637-4.202-5.115-3.854c-2.476,0.348-4.199,2.638-3.851,5.113C268.016,146.715,270.305,148.441,272.779,148.094"/>
	<path display="inline" fill="#77579C" d="M199.855,159.064c3.057-0.437,5.188-3.258,4.757-6.312
		c-0.43-3.059-3.255-5.188-6.312-4.757c-3.058,0.429-5.187,3.255-4.759,6.313C193.974,157.366,196.799,159.497,199.855,159.064"/>
	<path display="inline" fill="#77579C" d="M300.076,215.477c2.477-0.346,4.203-2.635,3.854-5.113
		c-0.35-2.475-2.638-4.192-5.113-3.854c-2.478,0.348-4.194,2.639-3.854,5.114C295.312,214.098,297.6,215.824,300.076,215.477"/>
	<path display="inline" fill="#E6AD34" d="M286.904,218.723c2.478-0.348,4.203-2.638,3.854-5.113
		c-0.347-2.476-2.635-4.194-5.113-3.854c-2.476,0.35-4.201,2.639-3.854,5.112C282.141,217.344,284.43,219.07,286.904,218.723"/>
	<path display="inline" fill="#77579C" d="M122.639,219.82c3.288-0.461,5.58-3.502,5.117-6.791
		c-0.462-3.286-3.502-5.579-6.791-5.116c-3.287,0.461-5.579,3.502-5.117,6.791C116.311,217.991,119.352,220.283,122.639,219.82"/>
	<path display="inline" fill="#77579C" d="M329.001,145.979c2.156-0.304,3.661-2.299,3.356-4.458
		c-0.312-2.158-2.299-3.659-4.455-3.357c-2.157,0.302-3.661,2.3-3.358,4.456C324.85,144.778,326.843,146.28,329.001,145.979"/>
	<path display="inline" fill="#E6AD34" d="M140.391,111.216c3.143,0,5.69-2.549,5.69-5.689c0-3.141-2.547-5.688-5.69-5.688
		c-3.141,0-5.688,2.548-5.688,5.688C134.703,108.667,137.25,111.216,140.391,111.216"/>
	<path display="inline" fill="#E6AD34" d="M240.802,137.936c2.898,0,5.248-2.35,5.248-5.25c0-2.898-2.35-5.25-5.248-5.25
		c-2.897,0-5.249,2.352-5.249,5.25C235.553,135.585,237.902,137.936,240.802,137.936"/>
	<path display="inline" fill="#E6AD34" d="M246.229,204.365c2.313,0,4.188-1.877,4.188-4.188c0-2.311-1.874-4.187-4.188-4.187
		c-2.312,0-4.187,1.873-4.187,4.187C242.042,202.491,243.918,204.365,246.229,204.365"/>
	<path display="inline" fill="#E6AD34" d="M145.79,216.146c2.851,0,5.163-2.312,5.163-5.164c0-2.854-2.312-5.164-5.163-5.164
		c-2.852,0-5.164,2.312-5.164,5.164C140.626,213.833,142.938,216.146,145.79,216.146"/>
	<path display="inline" fill="#E6AD34" d="M295.254,109.017c1.977,0,3.579-1.602,3.579-3.581c0-1.976-1.603-3.579-3.579-3.579
		c-1.979,0-3.58,1.604-3.58,3.579C291.674,107.415,293.275,109.017,295.254,109.017"/>
	<path display="inline" fill="#E6AD34" d="M331.552,164.244c2.31,0,4.183-1.872,4.183-4.184c0-2.312-1.873-4.188-4.183-4.188
		s-4.183,1.874-4.183,4.188C327.369,162.372,329.242,164.244,331.552,164.244"/>
	<path display="inline" fill="#9FC698" d="M329.277,180.503c2.531,0,4.582-2.052,4.582-4.581c0-2.527-2.051-4.58-4.582-4.58
		c-2.528,0-4.582,2.053-4.582,4.58C324.695,178.451,326.749,180.503,329.277,180.503"/>
	<path display="inline" fill="#9FC698" d="M118.511,121.979c1.12,1.726,3.429,2.215,5.156,1.095
		c1.725-1.121,2.217-3.427,1.095-5.156c-1.121-1.726-3.429-2.215-5.154-1.094C117.881,117.945,117.39,120.252,118.511,121.979"/>
	<path display="inline" fill="#9FC698" d="M247.168,124.358c1.371,2.109,4.191,2.709,6.299,1.336c2.114-1.368,2.711-4.188,1.344-6.3
		c-1.371-2.107-4.188-2.709-6.305-1.339C246.396,119.426,245.799,122.246,247.168,124.358"/>
	<path display="inline" fill="#9FC698" d="M100.454,201.98c1.954,3.006,5.977,3.854,8.987,1.908c3.009-1.955,3.865-5.979,1.91-8.988
		c-1.954-3.01-5.978-3.863-8.987-1.91C99.355,194.945,98.499,198.971,100.454,201.98"/>
	<path display="inline" fill="#A9526F" d="M304.878,117.592c1.132,1.742,3.461,2.238,5.202,1.105
		c1.74-1.131,2.234-3.459,1.105-5.201c-1.131-1.742-3.461-2.236-5.201-1.104C304.243,113.523,303.747,115.851,304.878,117.592"/>
	<path display="inline" fill="#9FC698" d="M316.523,129.045c1.131,1.741,3.459,2.239,5.199,1.105
		c1.735-1.131,2.229-3.459,1.104-5.201c-1.135-1.741-3.46-2.236-5.202-1.104C315.887,124.976,315.393,127.304,316.523,129.045"/>
	<path display="inline" fill="#A9526F" d="M214.576,121.643c1.689-1.136,2.133-3.428,0.994-5.116
		c-1.139-1.686-3.428-2.13-5.115-0.995c-1.688,1.139-2.133,3.431-0.995,5.119C210.599,122.338,212.889,122.782,214.576,121.643"/>
	<path display="inline" fill="#A9526F" d="M165.42,203.525c2.076-1.401,2.624-4.219,1.223-6.295
		c-1.399-2.076-4.217-2.623-6.293-1.229c-2.076,1.396-2.624,4.224-1.224,6.295C160.526,204.378,163.345,204.926,165.42,203.525"/>
	<path display="inline" fill="#A9526F" d="M326.675,195.637c2.308-1.557,2.917-4.687,1.36-6.994
		c-1.557-2.307-4.688-2.914-6.993-1.354c-2.308,1.562-2.916,4.688-1.362,6.99C321.238,196.585,324.367,197.193,326.675,195.637"/>
	<path display="inline" fill="#83B451" d="M214.857,104.658c0.999-1.962,0.221-4.364-1.742-5.366
		c-1.962-0.998-4.364-0.219-5.366,1.743c-0.998,1.963-0.218,4.365,1.744,5.364C211.456,107.402,213.858,106.62,214.857,104.658"/>
	<path display="inline" fill="#83B451" d="M260.283,210.157c0.898-1.765,0.199-3.929-1.567-4.825
		c-1.766-0.9-3.928-0.198-4.827,1.566c-0.896,1.767-0.197,3.928,1.567,4.83C257.223,212.628,259.384,211.922,260.283,210.157"/>
	<path display="inline" fill="#3D80B0" d="M285.672,118.413c0.901-1.765,0.199-3.927-1.568-4.827
		c-1.767-0.899-3.929-0.197-4.828,1.568c-0.896,1.768-0.189,3.927,1.568,4.83C282.611,120.883,284.771,120.181,285.672,118.413"/>
	<path display="inline" fill="#83B451" d="M282.729,131.579c0.988-1.944,0.215-4.322-1.728-5.311
		c-1.944-0.989-4.321-0.219-5.312,1.725c-0.99,1.944-0.217,4.322,1.726,5.314C279.357,134.296,281.736,133.523,282.729,131.579"/>
	<path display="inline" fill="#C32782" d="M128.484,190.82c1.386-2.307,0.64-5.303-1.667-6.688
		c-2.309-1.387-5.302-0.641-6.689,1.668c-1.386,2.308-0.64,5.304,1.668,6.688C124.103,193.874,127.099,193.128,128.484,190.82"/>
	<path display="inline" fill="#83B451" d="M181.401,188.707c1.387-2.725,0.305-6.057-2.419-7.441
		c-2.722-1.389-6.054-0.306-7.443,2.416c-1.386,2.729-0.303,6.062,2.42,7.44C176.682,192.512,180.013,191.428,181.401,188.707"/>
	<path display="inline" fill="#83B451" d="M317.755,206.218c1.308-2.565,0.287-5.702-2.276-7.011
		c-2.562-1.305-5.703-0.287-7.011,2.277c-1.306,2.562-0.288,5.703,2.277,7.012C313.311,209.802,316.449,208.779,317.755,206.218"/>
	<path display="inline" fill="#3D80B0" d="M158.755,99.402c3.25,0,5.885-2.635,5.885-5.884s-2.635-5.884-5.885-5.884
		s-5.708,2.731-5.708,5.884S155.504,99.402,158.755,99.402"/>
	<path display="inline" fill="#3D80B0" d="M234.971,153.607c2.854,0,5.163-2.313,5.163-5.167s-2.312-5.163-5.163-5.163
		c-2.853,0-5.164,2.312-5.164,5.163S232.118,153.607,234.971,153.607"/>
	<path display="inline" fill="#3D80B0" d="M251.135,175.591c2.491,0,4.512-2.018,4.512-4.508c0-2.495-2.021-4.513-4.512-4.513
		c-2.49,0-4.512,2.018-4.512,4.513C246.623,173.573,248.645,175.591,251.135,175.591"/>
	<path display="inline" fill="#3D80B0" d="M207.813,140.362c2.543,0,4.606-2.062,4.606-4.606c0-2.546-2.062-4.608-4.606-4.608
		c-2.545,0-4.609,2.062-4.609,4.608C203.204,138.3,205.268,140.362,207.813,140.362"/>
	<path display="inline" fill="#3D80B0" d="M271.004,217.812c2.291,0,4.146-1.857,4.146-4.146c0-2.291-1.855-4.146-4.146-4.146
		c-2.289,0-4.146,1.854-4.146,4.146C266.855,215.955,268.715,217.812,271.004,217.812"/>
	<path display="inline" fill="#3D80B0" d="M141.912,195.055c2.284,0.159,4.266-1.561,4.426-3.848
		c0.16-2.286-1.562-4.268-3.847-4.425c-2.286-0.16-4.267,1.562-4.425,3.847C137.905,192.911,139.628,194.895,141.912,195.055"/>
	<path display="inline" fill="#C32782" d="M182.469,90.336c3.251-1.656,4.544-5.636,2.888-8.887
		c-1.656-3.252-5.637-4.546-8.887-2.888c-3.252,1.657-4.1,5.649-2.54,8.71C175.491,90.332,179.219,91.993,182.469,90.336"/>
	<path display="inline" fill="#C32782" d="M235.521,172.016c2.511-1.271,3.508-4.352,2.229-6.854
		c-1.279-2.518-4.352-3.514-6.857-2.229c-2.511,1.275-3.506,4.354-2.229,6.855C229.943,172.296,233.014,173.292,235.521,172.016"/>
	<path display="inline" fill="#83B451" d="M239.7,189.453c2.347-1.197,3.28-4.067,2.083-6.417c-1.194-2.345-4.067-3.276-6.413-2.082
		c-2.349,1.196-3.281,4.067-2.086,6.416C234.48,189.716,237.354,190.648,239.7,189.453"/>
	<path display="inline" fill="#C32782" d="M264.372,162.121c2.521-1.283,3.519-4.362,2.235-6.883
		c-1.282-2.518-4.362-3.522-6.883-2.236c-2.521,1.283-3.521,4.364-2.234,6.885C258.771,162.404,261.854,163.404,264.372,162.121"/>
	<path display="inline" fill="#C32782" d="M206.504,211.652c1.798-0.914,2.513-3.112,1.596-4.911
		c-0.916-1.798-3.114-2.509-4.912-1.597c-1.798,0.916-2.513,3.108-1.596,4.916C202.507,211.857,204.706,212.568,206.504,211.652"/>
	<path display="inline" fill="#C32782" d="M240,67.232c1.568-0.801,2.193-2.722,1.395-4.291c-0.799-1.57-2.721-2.194-4.291-1.394
		c-1.562,0.799-2.188,2.721-1.394,4.29C236.51,67.407,238.432,68.031,240,67.232"/>
	<path display="inline" fill="#C32782" d="M190.31,174.895c2.596-1.324,3.628-4.498,2.306-7.097c-1.323-2.596-4.5-3.627-7.095-2.303
		c-2.595,1.321-3.628,4.498-2.306,7.094C184.538,175.186,187.715,176.216,190.31,174.895"/>
	<path display="inline" fill="#C32782" d="M264.177,118.248c1.907-0.971,2.664-3.301,1.693-5.209
		c-0.97-1.904-3.304-2.662-5.209-1.691c-1.905,0.971-2.664,3.302-1.693,5.208C259.938,118.46,262.271,119.221,264.177,118.248"/>
	<path display="inline" fill="#A9526F" d="M275.365,114.864c1.703-0.868,2.38-2.954,1.513-4.656s-2.952-2.38-4.655-1.513
		c-1.703,0.868-2.38,2.952-1.512,4.656C271.579,115.054,273.662,115.73,275.365,114.864"/>
	<path display="inline" fill="#77579C" d="M180.283,210.986c2.246-0.315,3.81-2.396,3.496-4.639
		c-0.317-2.246-2.393-3.812-4.639-3.494c-2.245,0.312-3.808,2.392-3.493,4.638C175.962,209.736,178.038,211.3,180.283,210.986"/>
	<path display="inline" fill="#77579C" d="M279.338,99.146c1.938-0.1,3.426-1.754,3.324-3.692s-1.756-3.428-3.693-3.326
		c-1.937,0.102-3.426,1.756-3.324,3.693C275.746,97.76,277.398,99.248,279.338,99.146"/>
	<path display="inline" fill="#3D80B0" d="M262.652,90.337c1.923-0.271,3.262-2.048,2.99-3.97c-0.271-1.922-2.045-3.261-3.976-2.991
		c-1.922,0.271-3.261,2.046-2.983,3.97C258.956,89.268,260.73,90.608,262.652,90.337"/>
	<path display="inline" fill="#9FC698" d="M248.527,81.938c1.923-0.271,3.261-2.048,2.992-3.969c-0.271-1.922-2.047-3.26-3.979-2.99
		c-1.919,0.271-3.264,2.046-2.982,3.969C244.829,80.869,246.605,82.208,248.527,81.938"/>
	<path display="inline" fill="#A9526F" d="M194.723,213.398c1.687-1.146,2.133-3.437,0.993-5.117
		c-1.138-1.688-3.429-2.133-5.115-0.994c-1.688,1.138-2.133,3.429-0.995,5.115C190.744,214.09,193.035,214.534,194.723,213.398"/>
	<path display="inline" fill="#C32782" d="M227.908,195.486c1.791-1.207,2.265-3.641,1.057-5.432s-3.641-2.271-5.432-1.062
		c-1.792,1.209-2.264,3.646-1.057,5.438C223.688,196.221,226.118,196.693,227.908,195.486"/>
	<path display="inline" fill="#9FC698" d="M212.49,203.691c1.134,1.744,3.464,2.238,5.207,1.104c1.745-1.13,2.241-3.461,1.108-5.207
		c-1.133-1.738-3.465-2.236-5.207-1.104C211.854,199.615,211.357,201.945,212.49,203.691"/>
</g>
<g>
	<path fill="#85AF43" stroke="#85AF43" stroke-width="0.2835" stroke-miterlimit="10" d="M220.721,77.821
		c-0.566,1.737-3.612,1.547-1.594-0.427c1.455-1.455,2.207-3.428,4.461-3.422C222.979,75.426,221.896,76.881,220.721,77.821
		 M225.471,71.719c-8.36-1.979-7.149,10.188-14.287,10.185c-0.094,2.202,2.486,0.801,3.191,1.313
		c0.143,3.053-1.742,6.574,1.26,8.829c5.354,1.134,7.851-5.11,10.481-8.538c-3.056,2.348-5.545,5.961-9.116,6.992
		c-5.908-9.262,7.385-8.872,8.467-16.527C225.988,73.457,225.988,72.281,225.471,71.719 M207.525,76.493
		c-2.588,1.737-13.217,16.288-8.557,3.608c2.261-2.396,4.23-6.103,8.557-4.782C208.37,75.6,207.525,76.118,207.525,76.493
		 M204.424,73.061c-4.65,0.938-7.566,5.914-8.229,10.14c0.519,1.224-1.365,4.649,1.593,4.84c3.854-2.153,6.112-5.678,9.123-7.931
		c-2.922,8.686-5.98,18.033-14.961,23.381c-2.911,1.173-5.681-0.287-7.561-2.78c-2.254-2.584-1.312-5.59,0.289-7.937
		c-1.176-0.002-1.836,1.457-2.773,2.252c-0.52,2.726,0.417,5.779,2.766,7.894c1.879,2.022,4.883,2.354,7.279,2.12
		c10.996-5.252,13.73-17.415,18.156-27.184C214.717,72.271,207.525,73.723,204.424,73.061 M189.438,74.973
		c-3.521,3.008-6.955,6.901-11.045,9.48c0.615-3.383,3.016-6.809,5.975-8.825C185.92,74.971,189.211,72.862,189.438,74.973
		 M177.977,79.43c-0.614,2.771-2.779,6.104-1.561,8.645c4.743-1.975,8.18-6.996,12.41-9.903c-0.523,3.433-1.604,7.378-1.607,11.466
		c0.66,0.797,1.599,1.455,2.818,1.225c1.03-0.803,3.805-2.396,3.104-4.131c-1.689-0.004-2.207,1.875-3.711,1.594
		c-0.75-4.229,0.945-7.564,2.168-11.086c0.146-1.831,3.013-1.736,1.978-4.084C188.6,70.23,180.988,73.512,177.977,79.43
		 M169.25,69.743c-4.418,1.172-3.72,8.354-9.824,6.989c-0.004,3.712,2.771-0.653,4.461,1.179c-1.551,2.771-0.754,6.996-1.034,9.912
		c0.183,1.739,0.788,3.993,2.673,4.088c1.126,0.282,2.488-1.405,1.553-2.489c-1.029-0.515-0.425,0.801-1.312,0.657
		c-2.207-4.085-1.312-8.692,0.293-12.683c4.227-0.229,8.312-0.791,12.17-1.963c0.094-0.422,0.516-1.223,0-1.549
		c-3.854,1.125-7.562,1.686-11.133,1.26c0-1.457,0.799-2.771,1.879-3.521C169.06,71.059,170.142,70.401,169.25,69.743
		 M149.989,71.795c3,7.001-4.379,10.707-2.271,17.188c0.52,0.146,1.033-0.274,1.312,0.238c2.916-3.705,1.47-10.428,7.667-12.676
		c2.771-2.629,1.975,2.258,4.322,1.649c0.188-1.361-0.098-2.587-0.848-3.476c-3.191-1.604-5.59,1.729-7.939,2.242
		C151.299,75.363,153.182,71.374,149.989,71.795 M141.014,74.932c-3.524,3.004-6.957,6.899-11.043,9.48
		c0.604-3.384,3.009-6.809,5.969-8.826C137.491,74.928,140.781,72.819,141.014,74.932 M129.549,79.385
		c-0.612,2.771-2.775,6.104-1.562,8.646c4.748-1.973,8.186-6.994,12.41-9.898c-0.521,3.43-1.604,7.372-1.604,11.457
		c0.654,0.805,1.596,1.463,2.817,1.227c1.032-0.799,3.806-2.395,3.104-4.129c-1.688-0.002-2.207,1.877-3.711,1.596
		c-0.748-4.234,0.942-7.562,2.17-11.086c0.144-1.832,3.011-1.735,1.977-4.084C140.172,70.186,132.56,73.473,129.549,79.385
		 M122.598,80.318c-1.176,2.677-4.516,5.539-6.112,7.697c-0.233-1.974,0.426-4.935,0.71-7.278c2.068-1.69,3.714-4.792,6.298-5.165
		C123.774,77.409,122.973,78.863,122.598,80.318 M117.205,69.229c-0.521,3.188-1.648,6.197-1.652,9.533
		c-0.324,0.373-0.607,0.605-0.892,1.028c-0.661,1.224-2.636,3.478-0.006,4.368c-1.087,7.562-4.383,13.994-5.845,21.271
		c0.14,0.424,0.939,1.551,1.357,0.94c1.317-5.449,3.676-11.132,5.368-16.812c0.28,0.705,1.13,0,1.226,0.707
		c4.465-4.41,9.635-8.871,8.979-15.636c-2.249-4.467-5.542,1.591-7.938,1.591c0-0.377-0.233-1.08,0.281-1.175
		C117.813,73.082,120.307,69.229,117.205,69.229 M108.037,80.021c0.607,3.431-0.664,6.104-2.498,8.597
		c-1.873-3.615-1.867-9.539,0.014-13.106C108.133,75.421,107.521,78.426,108.037,80.021 M105.271,73.023
		c-3.854,3.283-3.343,8.029-2.923,12.914c0.517,2.258,1.826,5.729,4.742,4.229c3.058-4.039,2.683-8.777,2.5-13.716
		c1.834,0.099,3.992,0.476,5.969-2.296C111.329,75.471,108.84,74.857,105.271,73.023 M94.564,69.68
		c-4.417,1.172-3.719,8.355-9.821,6.987c-0.007,3.714,2.771-0.651,4.461,1.181c-1.555,2.773-0.757,6.998-1.044,9.91
		c0.188,1.737,0.799,3.995,2.678,4.088c1.127,0.284,2.489-1.406,1.551-2.49c-1.029-0.518-0.422,0.802-1.312,0.656
		c-2.198-4.086-1.312-8.688,0.294-12.679c4.229-0.233,8.316-0.793,12.167-1.962c0.097-0.423,0.521-1.223,0.005-1.552
		c-3.854,1.127-7.565,1.686-11.138,1.259c0.002-1.455,0.808-2.773,1.883-3.521C94.375,70.992,95.457,70.333,94.564,69.68
		 M81.411,72.297c-2.634,5.023-7.711,9.67-12.459,12.676c0.426-3.664,0.432-8.082,1.374-11.088
		c-3.432,1.172-2.686,7.512-3.206,11.084c-0.001,1.312-0.425,3.854,1.829,3.196c3.715-2.817,6.49-7.043,10.202-10.139
		c0.138,1.69-0.286,4.319,0.231,6.294c0.275,1.877,2.533,3.852,4.506,2.492c1.361-0.519,3.43-1.269,3.432-3.146
		c-1.691,0.656-3.197,2.814-5.402,1.594c-2.254-4.136,0.287-8.453,0.437-12.685C81.784,72.862,81.784,72.062,81.411,72.297
		 M60.835,74.862c-3.527,3.006-6.958,6.901-11.047,9.481c0.614-3.387,3.011-6.812,5.974-8.828
		C57.311,74.862,60.603,72.749,60.835,74.862 M49.369,79.314c-0.614,2.771-2.775,6.104-1.558,8.642
		c4.746-1.969,8.18-6.989,12.411-9.899c-0.519,3.433-1.605,7.375-1.607,11.463c0.658,0.801,1.596,1.455,2.818,1.224
		c1.034-0.804,3.807-2.392,3.103-4.131c-1.691,0-2.21,1.876-3.712,1.595c-0.749-4.229,0.946-7.562,2.171-11.086
		c0.141-1.829,3.007-1.73,1.977-4.08C59.991,70.116,52.38,73.398,49.369,79.314 M164.299-57.096
		c-0.47,1.737,0.938,1.739,1.783,2.916c2.299,2.96-7.052,5.861-1.179,4.789c1.976-1.36,3.667-2.627,3.058-5.493
		C166.883-55.966,165.802-57.096,164.299-57.096 M159.931-58.322c-1.464,11.083-5.186,22.402-4.162,33.253
		c4.462-0.37,5.783-5.491,8.18-8.449c-1.972,1.08-4.465,3.709-6.628,5.728c0.008-8.356,2.176-16.812,3.217-25.129
		C160.26-54.657,162.422-57.943,159.931-58.322"/>
	<path fill="#85AF43" stroke="#85AF43" stroke-width="0.2835" stroke-miterlimit="10" d="M325.43-40.915
		c-0.562,1.735-3.619,1.545-1.601-0.423c1.455-1.455,2.212-3.429,4.47-3.427C327.686-43.307,326.602-41.854,325.43-40.915
		 M330.178-47.018c-8.361-1.981-7.146,10.186-14.289,10.182c-0.094,2.204,2.488,0.798,3.191,1.315
		c0.141,3.056-1.744,6.575,1.262,8.832c5.354,1.131,7.848-5.113,10.483-8.542c-3.06,2.349-5.55,5.961-9.122,6.997
		c-5.908-9.263,7.385-8.875,8.475-16.532C330.689-45.28,330.694-46.456,330.178-47.018 M308-40.132
		c-2.49,0.937-9.877,12.392-6.58,3.139c0.942-2.112,3.294-4.879,5.688-5.255C309.975-43.09,309.366-41.21,308-40.132
		 M314.121-56.286c-1.037,3.992-1.654,8.219-3.439,11.79c-2.771,0.276-5.543,0.508-7.705,2.248
		c-2.916,3.377-5.785,8.73-4.051,13.193c3.006-1.356,5.359-5.911,9.074-8.445c-0.287,2.862-0.527,5.45-0.904,8.83
		c5.121-0.369,10.012-5.675,13.069-10.179c-3.711,0.933-5.831,5.958-9.916,7.319c-2.774-0.282,0.004-4.369,0.007-6.624
		c3.947-4.506,2.545-10.192,5.176-15.215C315.671-54.311,316.374-57.177,314.121-56.286 M279.485-40.955
		c-0.565,1.738-3.617,1.546-1.593-0.423c1.457-1.456,2.209-3.429,4.465-3.425C281.747-43.348,280.666-41.893,279.485-40.955
		 M284.239-47.059c-8.36-1.98-7.151,10.187-14.287,10.179c-0.097,2.208,2.487,0.801,3.192,1.319
		c0.138,3.055-1.744,6.577,1.258,8.834c5.354,1.131,7.849-5.113,10.482-8.542c-3.061,2.347-5.551,5.96-9.119,6.991
		c-5.91-9.259,7.385-8.872,8.471-16.527C284.754-45.318,284.754-46.495,284.239-47.059 M273.066-56.836
		c-4.463,1.827-8.739,4.174-13.202,6.328c0.137,0.471-0.288,1.174,0.278,1.506c4.324-2.629,9.115-3.799,13.392-6.287
		c0-0.469,0-0.75,0-1.081C273.348-56.508,273.211-56.697,273.066-56.836 M263.848-40.972c-0.563,1.739-3.617,1.549-1.596-0.422
		c1.455-1.454,2.211-3.429,4.464-3.425C266.102-43.364,265.021-41.908,263.848-40.972 M268.6-47.071
		c-8.357-1.979-7.149,10.188-14.291,10.179c-0.094,2.209,2.489,0.804,3.191,1.321c0.141,3.052-1.74,6.572,1.264,8.831
		c5.354,1.133,7.85-5.111,10.482-8.541c-3.057,2.348-5.548,5.963-9.12,6.99c-5.909-9.258,7.382-8.869,8.468-16.525
		C269.112-45.333,269.116-46.505,268.6-47.071 M241.867-45.78c-0.141-0.705-0.75-0.143-0.938-0.705
		c-2.496,5.163-2.646,11.785-4.765,17.467c0.376,0.562,1.035,0.285,1.552,0.66c2.262-5.117,5.459-10.563,10.483-13.993
		c0.655,3.715-0.003,6.295,0.649,10.428c-0.004,2.111,2.672,3.193,4.508,2.26c2.637-1.547,4.748-5.257,5.688-7.65
		c-2.161,1.876-4.937,5.816-7.944,5.816c-2.482-3.948,0.809-9.111-1.535-13.107c-3.478,1.218-6.813,4.08-8.647,7.696
		c-0.426-0.283-0.659,0.751-0.938,0C240.691-39.956,241.208-42.866,241.867-45.78C240.691-39.956,241.208-42.866,241.867-45.78
		 M222.186-45.797c-0.145-0.704-0.748-0.139-0.938-0.704c-2.496,5.163-2.644,11.783-4.761,17.466
		c0.373,0.566,1.029,0.284,1.548,0.66c2.26-5.117,5.459-10.565,10.483-13.988c0.655,3.711-0.006,6.292,0.648,10.43
		c-0.002,2.111,2.676,3.195,4.51,2.261c2.633-1.55,4.747-5.254,5.69-7.65c-2.165,1.874-4.938,5.82-7.947,5.816
		c-2.481-3.949,0.81-9.113-1.539-13.105c-3.476,1.218-6.812,4.078-8.646,7.697c-0.426-0.283-0.659,0.748-0.939-0.002
		C221.006-39.971,221.525-42.886,222.186-45.797C221.006-39.971,221.525-42.886,222.186-45.797 M210.725-43.833
		c-3.521,3.002-6.958,6.898-11.044,9.478c0.616-3.38,3.015-6.808,5.97-8.826C207.202-43.837,210.491-45.945,210.725-43.833
		 M199.261-39.38c-0.614,2.769-2.779,6.104-1.561,8.642c4.749-1.967,8.179-6.992,12.409-9.9c-0.518,3.427-1.604,7.373-1.606,11.457
		c0.658,0.807,1.597,1.461,2.818,1.228c1.032-0.796,3.807-2.396,3.103-4.13c-1.689-0.002-2.207,1.877-3.712,1.597
		c-0.748-4.231,0.947-7.566,2.17-11.086c0.142-1.833,3.009-1.734,1.976-4.084C209.885-48.579,202.27-45.297,199.261-39.38"/>
</g>
</svg>
